<?xml version="1.0" encoding="utf-8" standalone="no"?>
<!DOCTYPE svg PUBLIC "-//W3C//DTD SVG 1.1//EN"
  "http://www.w3.org/Graphics/SVG/1.1/DTD/svg11.dtd">
<svg xmlns:xlink="http://www.w3.org/1999/xlink" width="460.8pt" height="345.6pt" viewBox="0 0 460.8 345.6" xmlns="http://www.w3.org/2000/svg" version="1.1">
 <metadata>
  <rdf:RDF xmlns:dc="http://purl.org/dc/elements/1.1/" xmlns:cc="http://creativecommons.org/ns#" xmlns:rdf="http://www.w3.org/1999/02/22-rdf-syntax-ns#">
   <cc:Work>
    <dc:type rdf:resource="http://purl.org/dc/dcmitype/StillImage"/>
    <dc:date>2023-05-07T16:30:17.295586</dc:date>
    <dc:format>image/svg+xml</dc:format>
    <dc:creator>
     <cc:Agent>
      <dc:title>Matplotlib v3.7.0, https://matplotlib.org/</dc:title>
     </cc:Agent>
    </dc:creator>
   </cc:Work>
  </rdf:RDF>
 </metadata>
 <defs>
  <style type="text/css">*{stroke-linejoin: round; stroke-linecap: butt}</style>
 </defs>
 <g id="figure_1">
  <g id="patch_1">
   <path d="M 0 345.6 
L 460.8 345.6 
L 460.8 0 
L 0 0 
z
" style="fill: #ffffff"/>
  </g>
  <g id="axes_1">
   <g id="patch_2">
    <path d="M 57.6 307.584 
L 414.72 307.584 
L 414.72 41.472 
L 57.6 41.472 
z
" style="fill: #ffffff"/>
   </g>
   <g id="matplotlib.axis_1">
    <g id="xtick_1">
     <g id="line2d_1">
      <defs>
       <path id="mfd526fee7f" d="M 0 0 
L 0 3.5 
" style="stroke: #000000; stroke-width: 0.8"/>
      </defs>
      <g>
       <use xlink:href="#mfd526fee7f" x="73.832727" y="307.584" style="stroke: #000000; stroke-width: 0.8"/>
      </g>
     </g>
     <g id="text_1">
      <!-- 0 -->
      <g transform="translate(70.651477 322.182437) scale(0.1 -0.1)">
       <defs>
        <path id="DejaVuSans-30" d="M 2034 4250 
Q 1547 4250 1301 3770 
Q 1056 3291 1056 2328 
Q 1056 1369 1301 889 
Q 1547 409 2034 409 
Q 2525 409 2770 889 
Q 3016 1369 3016 2328 
Q 3016 3291 2770 3770 
Q 2525 4250 2034 4250 
z
M 2034 4750 
Q 2819 4750 3233 4129 
Q 3647 3509 3647 2328 
Q 3647 1150 3233 529 
Q 2819 -91 2034 -91 
Q 1250 -91 836 529 
Q 422 1150 422 2328 
Q 422 3509 836 4129 
Q 1250 4750 2034 4750 
z
" transform="scale(0.015625)"/>
       </defs>
       <use xlink:href="#DejaVuSans-30"/>
      </g>
     </g>
    </g>
    <g id="xtick_2">
     <g id="line2d_2">
      <g>
       <use xlink:href="#mfd526fee7f" x="114.752131" y="307.584" style="stroke: #000000; stroke-width: 0.8"/>
      </g>
     </g>
     <g id="text_2">
      <!-- 500 -->
      <g transform="translate(105.208381 322.182437) scale(0.1 -0.1)">
       <defs>
        <path id="DejaVuSans-35" d="M 691 4666 
L 3169 4666 
L 3169 4134 
L 1269 4134 
L 1269 2991 
Q 1406 3038 1543 3061 
Q 1681 3084 1819 3084 
Q 2600 3084 3056 2656 
Q 3513 2228 3513 1497 
Q 3513 744 3044 326 
Q 2575 -91 1722 -91 
Q 1428 -91 1123 -41 
Q 819 9 494 109 
L 494 744 
Q 775 591 1075 516 
Q 1375 441 1709 441 
Q 2250 441 2565 725 
Q 2881 1009 2881 1497 
Q 2881 1984 2565 2268 
Q 2250 2553 1709 2553 
Q 1456 2553 1204 2497 
Q 953 2441 691 2322 
L 691 4666 
z
" transform="scale(0.015625)"/>
       </defs>
       <use xlink:href="#DejaVuSans-35"/>
       <use xlink:href="#DejaVuSans-30" x="63.623047"/>
       <use xlink:href="#DejaVuSans-30" x="127.246094"/>
      </g>
     </g>
    </g>
    <g id="xtick_3">
     <g id="line2d_3">
      <g>
       <use xlink:href="#mfd526fee7f" x="155.671534" y="307.584" style="stroke: #000000; stroke-width: 0.8"/>
      </g>
     </g>
     <g id="text_3">
      <!-- 1000 -->
      <g transform="translate(142.946534 322.182437) scale(0.1 -0.1)">
       <defs>
        <path id="DejaVuSans-31" d="M 794 531 
L 1825 531 
L 1825 4091 
L 703 3866 
L 703 4441 
L 1819 4666 
L 2450 4666 
L 2450 531 
L 3481 531 
L 3481 0 
L 794 0 
L 794 531 
z
" transform="scale(0.015625)"/>
       </defs>
       <use xlink:href="#DejaVuSans-31"/>
       <use xlink:href="#DejaVuSans-30" x="63.623047"/>
       <use xlink:href="#DejaVuSans-30" x="127.246094"/>
       <use xlink:href="#DejaVuSans-30" x="190.869141"/>
      </g>
     </g>
    </g>
    <g id="xtick_4">
     <g id="line2d_4">
      <g>
       <use xlink:href="#mfd526fee7f" x="196.590937" y="307.584" style="stroke: #000000; stroke-width: 0.8"/>
      </g>
     </g>
     <g id="text_4">
      <!-- 1500 -->
      <g transform="translate(183.865937 322.182437) scale(0.1 -0.1)">
       <use xlink:href="#DejaVuSans-31"/>
       <use xlink:href="#DejaVuSans-35" x="63.623047"/>
       <use xlink:href="#DejaVuSans-30" x="127.246094"/>
       <use xlink:href="#DejaVuSans-30" x="190.869141"/>
      </g>
     </g>
    </g>
    <g id="xtick_5">
     <g id="line2d_5">
      <g>
       <use xlink:href="#mfd526fee7f" x="237.51034" y="307.584" style="stroke: #000000; stroke-width: 0.8"/>
      </g>
     </g>
     <g id="text_5">
      <!-- 2000 -->
      <g transform="translate(224.78534 322.182437) scale(0.1 -0.1)">
       <defs>
        <path id="DejaVuSans-32" d="M 1228 531 
L 3431 531 
L 3431 0 
L 469 0 
L 469 531 
Q 828 903 1448 1529 
Q 2069 2156 2228 2338 
Q 2531 2678 2651 2914 
Q 2772 3150 2772 3378 
Q 2772 3750 2511 3984 
Q 2250 4219 1831 4219 
Q 1534 4219 1204 4116 
Q 875 4013 500 3803 
L 500 4441 
Q 881 4594 1212 4672 
Q 1544 4750 1819 4750 
Q 2544 4750 2975 4387 
Q 3406 4025 3406 3419 
Q 3406 3131 3298 2873 
Q 3191 2616 2906 2266 
Q 2828 2175 2409 1742 
Q 1991 1309 1228 531 
z
" transform="scale(0.015625)"/>
       </defs>
       <use xlink:href="#DejaVuSans-32"/>
       <use xlink:href="#DejaVuSans-30" x="63.623047"/>
       <use xlink:href="#DejaVuSans-30" x="127.246094"/>
       <use xlink:href="#DejaVuSans-30" x="190.869141"/>
      </g>
     </g>
    </g>
    <g id="xtick_6">
     <g id="line2d_6">
      <g>
       <use xlink:href="#mfd526fee7f" x="278.429744" y="307.584" style="stroke: #000000; stroke-width: 0.8"/>
      </g>
     </g>
     <g id="text_6">
      <!-- 2500 -->
      <g transform="translate(265.704744 322.182437) scale(0.1 -0.1)">
       <use xlink:href="#DejaVuSans-32"/>
       <use xlink:href="#DejaVuSans-35" x="63.623047"/>
       <use xlink:href="#DejaVuSans-30" x="127.246094"/>
       <use xlink:href="#DejaVuSans-30" x="190.869141"/>
      </g>
     </g>
    </g>
    <g id="xtick_7">
     <g id="line2d_7">
      <g>
       <use xlink:href="#mfd526fee7f" x="319.349147" y="307.584" style="stroke: #000000; stroke-width: 0.8"/>
      </g>
     </g>
     <g id="text_7">
      <!-- 3000 -->
      <g transform="translate(306.624147 322.182437) scale(0.1 -0.1)">
       <defs>
        <path id="DejaVuSans-33" d="M 2597 2516 
Q 3050 2419 3304 2112 
Q 3559 1806 3559 1356 
Q 3559 666 3084 287 
Q 2609 -91 1734 -91 
Q 1441 -91 1130 -33 
Q 819 25 488 141 
L 488 750 
Q 750 597 1062 519 
Q 1375 441 1716 441 
Q 2309 441 2620 675 
Q 2931 909 2931 1356 
Q 2931 1769 2642 2001 
Q 2353 2234 1838 2234 
L 1294 2234 
L 1294 2753 
L 1863 2753 
Q 2328 2753 2575 2939 
Q 2822 3125 2822 3475 
Q 2822 3834 2567 4026 
Q 2313 4219 1838 4219 
Q 1578 4219 1281 4162 
Q 984 4106 628 3988 
L 628 4550 
Q 988 4650 1302 4700 
Q 1616 4750 1894 4750 
Q 2613 4750 3031 4423 
Q 3450 4097 3450 3541 
Q 3450 3153 3228 2886 
Q 3006 2619 2597 2516 
z
" transform="scale(0.015625)"/>
       </defs>
       <use xlink:href="#DejaVuSans-33"/>
       <use xlink:href="#DejaVuSans-30" x="63.623047"/>
       <use xlink:href="#DejaVuSans-30" x="127.246094"/>
       <use xlink:href="#DejaVuSans-30" x="190.869141"/>
      </g>
     </g>
    </g>
    <g id="xtick_8">
     <g id="line2d_8">
      <g>
       <use xlink:href="#mfd526fee7f" x="360.26855" y="307.584" style="stroke: #000000; stroke-width: 0.8"/>
      </g>
     </g>
     <g id="text_8">
      <!-- 3500 -->
      <g transform="translate(347.54355 322.182437) scale(0.1 -0.1)">
       <use xlink:href="#DejaVuSans-33"/>
       <use xlink:href="#DejaVuSans-35" x="63.623047"/>
       <use xlink:href="#DejaVuSans-30" x="127.246094"/>
       <use xlink:href="#DejaVuSans-30" x="190.869141"/>
      </g>
     </g>
    </g>
    <g id="xtick_9">
     <g id="line2d_9">
      <g>
       <use xlink:href="#mfd526fee7f" x="401.187953" y="307.584" style="stroke: #000000; stroke-width: 0.8"/>
      </g>
     </g>
     <g id="text_9">
      <!-- 4000 -->
      <g transform="translate(388.462953 322.182437) scale(0.1 -0.1)">
       <defs>
        <path id="DejaVuSans-34" d="M 2419 4116 
L 825 1625 
L 2419 1625 
L 2419 4116 
z
M 2253 4666 
L 3047 4666 
L 3047 1625 
L 3713 1625 
L 3713 1100 
L 3047 1100 
L 3047 0 
L 2419 0 
L 2419 1100 
L 313 1100 
L 313 1709 
L 2253 4666 
z
" transform="scale(0.015625)"/>
       </defs>
       <use xlink:href="#DejaVuSans-34"/>
       <use xlink:href="#DejaVuSans-30" x="63.623047"/>
       <use xlink:href="#DejaVuSans-30" x="127.246094"/>
       <use xlink:href="#DejaVuSans-30" x="190.869141"/>
      </g>
     </g>
    </g>
   </g>
   <g id="matplotlib.axis_2">
    <g id="ytick_1">
     <g id="line2d_10">
      <defs>
       <path id="mf556e8d963" d="M 0 0 
L -3.5 0 
" style="stroke: #000000; stroke-width: 0.8"/>
      </defs>
      <g>
       <use xlink:href="#mf556e8d963" x="57.6" y="295.598102" style="stroke: #000000; stroke-width: 0.8"/>
      </g>
     </g>
     <g id="text_10">
      <!-- 0 -->
      <g transform="translate(44.2375 299.397321) scale(0.1 -0.1)">
       <use xlink:href="#DejaVuSans-30"/>
      </g>
     </g>
    </g>
    <g id="ytick_2">
     <g id="line2d_11">
      <g>
       <use xlink:href="#mf556e8d963" x="57.6" y="247.346749" style="stroke: #000000; stroke-width: 0.8"/>
      </g>
     </g>
     <g id="text_11">
      <!-- 5000 -->
      <g transform="translate(25.15 251.145968) scale(0.1 -0.1)">
       <use xlink:href="#DejaVuSans-35"/>
       <use xlink:href="#DejaVuSans-30" x="63.623047"/>
       <use xlink:href="#DejaVuSans-30" x="127.246094"/>
       <use xlink:href="#DejaVuSans-30" x="190.869141"/>
      </g>
     </g>
    </g>
    <g id="ytick_3">
     <g id="line2d_12">
      <g>
       <use xlink:href="#mf556e8d963" x="57.6" y="199.095396" style="stroke: #000000; stroke-width: 0.8"/>
      </g>
     </g>
     <g id="text_12">
      <!-- 10000 -->
      <g transform="translate(18.7875 202.894615) scale(0.1 -0.1)">
       <use xlink:href="#DejaVuSans-31"/>
       <use xlink:href="#DejaVuSans-30" x="63.623047"/>
       <use xlink:href="#DejaVuSans-30" x="127.246094"/>
       <use xlink:href="#DejaVuSans-30" x="190.869141"/>
       <use xlink:href="#DejaVuSans-30" x="254.492188"/>
      </g>
     </g>
    </g>
    <g id="ytick_4">
     <g id="line2d_13">
      <g>
       <use xlink:href="#mf556e8d963" x="57.6" y="150.844043" style="stroke: #000000; stroke-width: 0.8"/>
      </g>
     </g>
     <g id="text_13">
      <!-- 15000 -->
      <g transform="translate(18.7875 154.643261) scale(0.1 -0.1)">
       <use xlink:href="#DejaVuSans-31"/>
       <use xlink:href="#DejaVuSans-35" x="63.623047"/>
       <use xlink:href="#DejaVuSans-30" x="127.246094"/>
       <use xlink:href="#DejaVuSans-30" x="190.869141"/>
       <use xlink:href="#DejaVuSans-30" x="254.492188"/>
      </g>
     </g>
    </g>
    <g id="ytick_5">
     <g id="line2d_14">
      <g>
       <use xlink:href="#mf556e8d963" x="57.6" y="102.592689" style="stroke: #000000; stroke-width: 0.8"/>
      </g>
     </g>
     <g id="text_14">
      <!-- 20000 -->
      <g transform="translate(18.7875 106.391908) scale(0.1 -0.1)">
       <use xlink:href="#DejaVuSans-32"/>
       <use xlink:href="#DejaVuSans-30" x="63.623047"/>
       <use xlink:href="#DejaVuSans-30" x="127.246094"/>
       <use xlink:href="#DejaVuSans-30" x="190.869141"/>
       <use xlink:href="#DejaVuSans-30" x="254.492188"/>
      </g>
     </g>
    </g>
    <g id="ytick_6">
     <g id="line2d_15">
      <g>
       <use xlink:href="#mf556e8d963" x="57.6" y="54.341336" style="stroke: #000000; stroke-width: 0.8"/>
      </g>
     </g>
     <g id="text_15">
      <!-- 25000 -->
      <g transform="translate(18.7875 58.140555) scale(0.1 -0.1)">
       <use xlink:href="#DejaVuSans-32"/>
       <use xlink:href="#DejaVuSans-35" x="63.623047"/>
       <use xlink:href="#DejaVuSans-30" x="127.246094"/>
       <use xlink:href="#DejaVuSans-30" x="190.869141"/>
       <use xlink:href="#DejaVuSans-30" x="254.492188"/>
      </g>
     </g>
    </g>
   </g>
   <g id="line2d_16">
    <path d="M 73.832727 295.470998 
L 75.387665 295.480539 
L 82.016608 295.461695 
L 86.517742 295.464142 
L 112.296966 295.439846 
L 113.279032 295.431234 
L 139.303772 295.444005 
L 141.922614 295.445723 
L 146.260071 295.419044 
L 162.79151 295.443502 
L 167.62 295.449325 
L 172.039295 295.455038 
L 175.640203 295.461101 
L 181.205241 295.447936 
L 183.496728 295.474193 
L 189.5528 295.443532 
L 203.465397 295.459764 
L 207.721015 295.465886 
L 212.631343 295.464159 
L 216.068573 295.455361 
L 227.689684 295.434998 
L 232.845528 295.429098 
L 234.482304 295.439016 
L 243.075379 295.451025 
L 245.694221 295.43751 
L 247.576514 295.437032 
L 267.381505 295.466351 
L 270.655057 295.461998 
L 274.419642 295.44026 
L 279.902842 295.458129 
L 289.150627 295.44001 
L 291.03292 295.441764 
L 293.242568 295.462333 
L 309.119296 295.466176 
L 315.01169 295.469768 
L 318.939953 295.448572 
L 328.678771 295.435543 
L 330.724741 295.459477 
L 336.94449 295.418763 
L 340.299881 295.438947 
L 356.83132 295.478215 
L 359.286484 295.451445 
L 361.577971 295.452117 
L 393.986138 295.447944 
L 398.487273 295.416522 
L 398.487273 295.416522 
" clip-path="url(#p0b98259074)" style="fill: none; stroke: #1f77b4; stroke-width: 1.5; stroke-linecap: square"/>
   </g>
   <g id="line2d_17">
    <path d="M 73.832727 295.470998 
L 75.387665 295.480539 
L 82.016608 295.461695 
L 86.517742 295.464142 
L 112.296966 295.439846 
L 113.279032 295.431234 
L 139.303772 295.444005 
L 141.922614 295.445723 
L 146.260071 295.419044 
L 162.79151 295.443502 
L 167.62 295.449325 
L 172.039295 295.455038 
L 175.640203 295.461101 
L 181.205241 295.447936 
L 183.496728 295.474193 
L 189.5528 295.443532 
L 203.465397 295.459764 
L 207.721015 295.465886 
L 212.631343 295.464159 
L 216.068573 295.455361 
L 227.689684 295.434998 
L 232.845528 295.429098 
L 234.482304 295.439016 
L 235.300693 295.359975 
L 235.628048 295.012743 
L 235.873564 294.458256 
L 236.119081 293.479326 
L 236.446436 291.186653 
L 236.85563 286.340872 
L 237.346663 277.040287 
L 237.919534 261.345913 
L 238.737922 232.012929 
L 239.883666 184.289808 
L 241.111248 128.804663 
L 242.011475 91.205849 
L 242.829863 66.738821 
L 243.320896 57.486502 
L 243.648251 53.952341 
L 243.811928 53.568 
L 243.893767 53.644612 
L 244.221122 55.14713 
L 244.466639 57.542744 
L 244.793994 62.91663 
L 245.121349 71.756306 
L 245.612382 87.612787 
L 246.348931 113.218427 
L 248.47674 191.008311 
L 249.376967 213.832328 
L 250.195355 229.39829 
L 250.686388 235.49496 
L 251.504776 243.645915 
L 251.91397 246.235994 
L 252.241325 247.31017 
L 252.486842 247.611386 
L 252.732358 247.440699 
L 253.468908 245.907322 
L 254.287296 241.483517 
L 255.596717 230.929835 
L 258.952108 199.914306 
L 259.606818 195.726861 
L 259.934173 194.353461 
L 260.343367 193.595922 
L 260.588884 193.538784 
L 260.752561 193.552626 
L 260.916239 193.391119 
L 261.079917 193.465205 
L 261.734627 194.344731 
L 262.061982 195.323921 
L 263.944275 203.375502 
L 265.335535 211.308644 
L 267.217827 219.488226 
L 267.545182 220.323306 
L 268.527248 223.06206 
L 268.936442 223.815047 
L 270.000346 226.113101 
L 270.245863 226.165638 
L 270.491379 226.096316 
L 271.309767 224.546383 
L 271.637123 223.34525 
L 272.373672 220.860152 
L 272.537349 220.53881 
L 273.19206 218.682789 
L 274.010448 217.728548 
L 274.419642 217.385227 
L 274.746997 217.107036 
L 275.647224 215.850546 
L 275.810902 215.777323 
L 276.138257 215.157659 
L 276.383773 214.82987 
L 277.529517 213.564324 
L 277.856872 213.504842 
L 278.266066 213.410553 
L 278.429744 213.279884 
L 278.838938 213.568974 
L 279.248132 213.852585 
L 279.32997 213.863813 
L 279.657326 214.205262 
L 279.984681 214.580694 
L 280.475714 215.199628 
L 281.048585 216.251741 
L 281.948812 217.157708 
L 282.930878 217.791878 
L 284.649493 218.292878 
L 284.81317 218.245759 
L 285.140526 218.367174 
L 285.386042 218.25645 
L 286.040753 218.303705 
L 286.449947 218.420572 
L 286.695463 218.376657 
L 287.350173 218.371083 
L 287.923045 217.954568 
L 288.086723 217.881608 
L 289.068788 216.727422 
L 289.559821 216.339658 
L 289.969015 215.920552 
L 290.623726 216.078012 
L 290.787403 216.172934 
L 291.114759 216.448695 
L 291.68763 216.312175 
L 291.933147 216.468338 
L 292.833374 216.269489 
L 293.160729 216.047531 
L 293.488084 216.070592 
L 293.651762 216.025721 
L 294.224633 216.277881 
L 294.47015 216.220705 
L 294.879344 216.325718 
L 295.697732 216.992154 
L 295.943248 216.973036 
L 296.597959 216.604411 
L 296.761636 216.683994 
L 296.925314 216.863011 
L 297.334508 216.86387 
L 297.661863 216.869192 
L 297.989218 216.885125 
L 298.316574 216.915815 
L 299.134962 217.544101 
L 299.462317 217.528977 
L 299.707833 217.628491 
L 299.95335 217.764504 
L 300.935415 217.774733 
L 301.344609 217.607678 
L 302.081159 217.79938 
L 302.408514 217.900272 
L 302.817708 218.030491 
L 303.226902 218.484763 
L 303.717935 218.526808 
L 304.372645 218.554167 
L 304.618162 218.227935 
L 305.272872 217.149824 
L 305.43655 216.850781 
L 305.682066 216.352348 
L 306.173099 215.780353 
L 306.664132 215.702326 
L 307.400681 216.274337 
L 307.564359 216.386092 
L 308.13723 216.31174 
L 308.464586 216.138168 
L 308.87378 215.930266 
L 309.119296 216.047241 
L 309.446651 215.966826 
L 309.855845 216.239123 
L 310.019523 216.273837 
L 310.510556 216.707543 
L 310.674233 216.809702 
L 311.247105 217.452571 
L 311.410783 217.346049 
L 312.883881 215.395093 
L 313.293075 215.310374 
L 313.456753 215.47059 
L 314.438818 216.837751 
L 314.766174 217.0863 
L 314.929851 217.266425 
L 315.420884 217.968433 
L 315.748239 218.063471 
L 315.911917 218.169805 
L 316.157433 217.99839 
L 316.40295 217.852886 
L 316.648466 217.95734 
L 318.039726 218.779017 
L 318.285242 218.99243 
L 318.694436 219.240765 
L 318.939953 219.438217 
L 319.676502 219.498032 
L 319.84018 219.584216 
L 320.003857 219.539174 
L 320.167535 219.638989 
L 320.49489 219.394958 
L 320.822245 218.99552 
L 321.067762 219.061743 
L 321.231439 219.000404 
L 321.558795 218.476292 
L 322.049827 217.741559 
L 322.54086 217.125939 
L 324.095798 214.447029 
L 324.504992 214.446873 
L 325.405219 214.697133 
L 325.568896 214.798256 
L 325.732574 214.839733 
L 326.141768 215.09785 
L 326.387284 214.992249 
L 326.550962 214.990166 
L 326.960156 215.244456 
L 327.533027 215.157642 
L 327.778544 215.182534 
L 328.105899 215.264789 
L 329.660836 216.785089 
L 330.07003 217.482415 
L 330.888419 218.625346 
L 331.379451 218.464587 
L 331.706807 218.428743 
L 332.361517 218.468633 
L 332.85255 218.003263 
L 333.589099 217.280864 
L 333.916454 217.275178 
L 334.734842 216.751871 
L 335.225875 216.086112 
L 335.471392 215.953703 
L 335.880586 215.898131 
L 336.126102 215.886473 
L 336.453457 215.933816 
L 336.698974 215.999456 
L 336.94449 215.906687 
L 337.926556 215.920204 
L 338.33575 215.845025 
L 338.826783 216.063931 
L 339.154138 216.379829 
L 339.72701 217.436819 
L 340.545398 218.625645 
L 340.872753 218.795415 
L 341.363786 218.810012 
L 341.609302 218.704531 
L 342.345851 217.883641 
L 343.409756 217.415774 
L 343.982628 217.468766 
L 344.882854 216.518668 
L 345.046532 216.430107 
L 345.292048 216.227198 
L 346.192275 216.191163 
L 346.355953 216.122622 
L 346.601469 215.742868 
L 347.174341 216.094515 
L 347.501696 216.22899 
L 347.747213 216.126105 
L 348.156407 215.682502 
L 348.64744 215.204535 
L 348.974795 215.010451 
L 349.383989 215.330877 
L 349.875022 215.61798 
L 351.34812 217.542912 
L 351.675475 217.559648 
L 352.166508 217.555388 
L 352.657541 217.721149 
L 352.903057 217.770725 
L 353.066735 217.948196 
L 353.230413 217.935735 
L 353.557768 218.166919 
L 353.721446 218.181141 
L 353.885123 218.116583 
L 354.703511 218.508544 
L 355.112705 218.068921 
L 355.603738 217.60238 
L 356.340287 217.695027 
L 356.667643 217.925029 
L 356.83132 217.932586 
L 357.404192 217.383362 
L 357.649708 217.355516 
L 358.713613 216.65897 
L 358.959129 216.896394 
L 359.368323 216.548788 
L 359.695678 216.761145 
L 359.941195 216.691505 
L 360.186711 216.804561 
L 360.432228 216.713149 
L 361.005099 216.196126 
L 361.414293 215.61418 
L 361.823487 214.939649 
L 362.232681 214.687243 
L 362.560037 214.912986 
L 362.805553 214.801027 
L 362.969231 214.898963 
L 363.70578 215.856995 
L 363.869458 215.891232 
L 364.524168 216.473825 
L 365.260717 216.169438 
L 365.506234 216.328143 
L 365.669911 216.423363 
L 365.915428 216.218438 
L 366.160944 216.501359 
L 366.570138 217.057462 
L 367.14301 217.240237 
L 367.388526 217.556004 
L 367.879559 217.857391 
L 368.288753 217.529435 
L 368.779786 217.732244 
L 369.352658 217.473106 
L 369.598174 217.599462 
L 369.925529 217.425547 
L 371.071273 217.296468 
L 371.398628 217.064414 
L 371.644144 217.40599 
L 371.889661 217.655348 
L 372.135177 217.74395 
L 373.608276 220.310737 
L 374.01747 220.501677 
L 374.508502 219.907132 
L 374.754019 219.852697 
L 375.163213 219.505413 
L 375.572407 219.094511 
L 375.899762 219.043188 
L 376.472634 219.035828 
L 376.636311 219.05747 
L 376.881828 219.220094 
L 377.372861 219.13238 
L 378.354926 217.585427 
L 379.336992 215.629434 
L 379.991702 215.214291 
L 380.646413 214.74978 
L 381.055607 214.648014 
L 381.219285 214.752398 
L 381.792156 215.43925 
L 382.037673 215.386734 
L 382.283189 215.337495 
L 382.446867 215.493689 
L 383.183416 216.233518 
L 383.510771 216.250806 
L 384.165482 216.736373 
L 384.329159 216.729278 
L 384.574676 216.614442 
L 384.902031 216.52932 
L 385.393064 216.339345 
L 385.802258 216.786623 
L 386.047774 217.003159 
L 386.211452 216.983768 
L 386.620646 216.866971 
L 386.948001 217.011311 
L 387.275356 217.465159 
L 387.68455 217.587747 
L 388.011905 217.467505 
L 388.584777 217.029755 
L 389.485004 216.615921 
L 390.057876 215.906526 
L 390.876264 215.678514 
L 391.12178 215.684862 
L 391.612813 215.536363 
L 392.185685 215.847292 
L 392.51304 216.349994 
L 392.676717 216.485782 
L 393.004073 216.7594 
L 393.249589 216.846903 
L 393.740622 217.031767 
L 394.55901 218.379211 
L 394.804526 218.364668 
L 395.622914 218.08732 
L 395.786592 218.119199 
L 396.195786 218.387037 
L 396.441303 218.3218 
L 397.259691 217.236665 
L 398.405434 216.474784 
L 398.487273 216.377844 
L 398.487273 216.377844 
" clip-path="url(#p0b98259074)" style="fill: none; stroke: #ff7f0e; stroke-width: 1.5; stroke-linecap: square"/>
   </g>
   <g id="patch_3">
    <path d="M 57.6 307.584 
L 57.6 41.472 
" style="fill: none; stroke: #000000; stroke-width: 0.8; stroke-linejoin: miter; stroke-linecap: square"/>
   </g>
   <g id="patch_4">
    <path d="M 414.72 307.584 
L 414.72 41.472 
" style="fill: none; stroke: #000000; stroke-width: 0.8; stroke-linejoin: miter; stroke-linecap: square"/>
   </g>
   <g id="patch_5">
    <path d="M 57.6 307.584 
L 414.72 307.584 
" style="fill: none; stroke: #000000; stroke-width: 0.8; stroke-linejoin: miter; stroke-linecap: square"/>
   </g>
   <g id="patch_6">
    <path d="M 57.6 41.472 
L 414.72 41.472 
" style="fill: none; stroke: #000000; stroke-width: 0.8; stroke-linejoin: miter; stroke-linecap: square"/>
   </g>
  </g>
 </g>
 <defs>
  <clipPath id="p0b98259074">
   <rect x="57.6" y="41.472" width="357.12" height="266.112"/>
  </clipPath>
 </defs>
</svg>
