<?xml version="1.0" encoding="utf-8" standalone="no"?>
<!DOCTYPE svg PUBLIC "-//W3C//DTD SVG 1.1//EN"
  "http://www.w3.org/Graphics/SVG/1.1/DTD/svg11.dtd">
<svg xmlns:xlink="http://www.w3.org/1999/xlink" width="460.8pt" height="345.6pt" viewBox="0 0 460.8 345.6" xmlns="http://www.w3.org/2000/svg" version="1.1">
 <metadata>
  <rdf:RDF xmlns:dc="http://purl.org/dc/elements/1.1/" xmlns:cc="http://creativecommons.org/ns#" xmlns:rdf="http://www.w3.org/1999/02/22-rdf-syntax-ns#">
   <cc:Work>
    <dc:type rdf:resource="http://purl.org/dc/dcmitype/StillImage"/>
    <dc:date>2023-03-27T22:32:07.700393</dc:date>
    <dc:format>image/svg+xml</dc:format>
    <dc:creator>
     <cc:Agent>
      <dc:title>Matplotlib v3.7.1, https://matplotlib.org/</dc:title>
     </cc:Agent>
    </dc:creator>
   </cc:Work>
  </rdf:RDF>
 </metadata>
 <defs>
  <style type="text/css">*{stroke-linejoin: round; stroke-linecap: butt}</style>
 </defs>
 <g id="figure_1">
  <g id="patch_1">
   <path d="M 0 345.6 
L 460.8 345.6 
L 460.8 0 
L 0 0 
z
" style="fill: #ffffff"/>
  </g>
  <g id="axes_1">
   <g id="patch_2">
    <path d="M 57.6 307.584 
L 414.72 307.584 
L 414.72 41.472 
L 57.6 41.472 
z
" style="fill: #ffffff"/>
   </g>
   <g id="patch_3">
    <path d="M -401.037488 778.258286 
L -377.414583 778.258286 
L -377.414583 774.912878 
L -401.037488 774.912878 
z
" clip-path="url(#p043a3917ce)" style="fill: #1f77b4"/>
   </g>
   <g id="patch_4">
    <path d="M -377.414583 778.258286 
L -353.791677 778.258286 
L -353.791677 761.531246 
L -377.414583 761.531246 
z
" clip-path="url(#p043a3917ce)" style="fill: #1f77b4"/>
   </g>
   <g id="patch_5">
    <path d="M -353.791677 778.258286 
L -330.168772 778.258286 
L -330.168772 774.912878 
L -353.791677 774.912878 
z
" clip-path="url(#p043a3917ce)" style="fill: #1f77b4"/>
   </g>
   <g id="patch_6">
    <path d="M -330.168772 778.258286 
L -306.545866 778.258286 
L -306.545866 768.222062 
L -330.168772 768.222062 
z
" clip-path="url(#p043a3917ce)" style="fill: #1f77b4"/>
   </g>
   <g id="patch_7">
    <path d="M -306.545866 778.258286 
L -282.92296 778.258286 
L -282.92296 778.258286 
L -306.545866 778.258286 
z
" clip-path="url(#p043a3917ce)" style="fill: #1f77b4"/>
   </g>
   <g id="patch_8">
    <path d="M -282.92296 778.258286 
L -259.300055 778.258286 
L -259.300055 758.185838 
L -282.92296 758.185838 
z
" clip-path="url(#p043a3917ce)" style="fill: #1f77b4"/>
   </g>
   <g id="patch_9">
    <path d="M -259.300055 778.258286 
L -235.677149 778.258286 
L -235.677149 761.531246 
L -259.300055 761.531246 
z
" clip-path="url(#p043a3917ce)" style="fill: #1f77b4"/>
   </g>
   <g id="patch_10">
    <path d="M -235.677149 778.258286 
L -212.054244 778.258286 
L -212.054244 758.185838 
L -235.677149 758.185838 
z
" clip-path="url(#p043a3917ce)" style="fill: #1f77b4"/>
   </g>
   <g id="patch_11">
    <path d="M -212.054244 778.258286 
L -188.431338 778.258286 
L -188.431338 731.422574 
L -212.054244 731.422574 
z
" clip-path="url(#p043a3917ce)" style="fill: #1f77b4"/>
   </g>
   <g id="patch_12">
    <path d="M -188.431338 778.258286 
L -164.808433 778.258286 
L -164.808433 728.077166 
L -188.431338 728.077166 
z
" clip-path="url(#p043a3917ce)" style="fill: #1f77b4"/>
   </g>
   <g id="patch_13">
    <path d="M -164.808433 778.258286 
L -141.185527 778.258286 
L -141.185527 748.149614 
L -164.808433 748.149614 
z
" clip-path="url(#p043a3917ce)" style="fill: #1f77b4"/>
   </g>
   <g id="patch_14">
    <path d="M -141.185527 778.258286 
L -117.562622 778.258286 
L -117.562622 674.550638 
L -141.185527 674.550638 
z
" clip-path="url(#p043a3917ce)" style="fill: #1f77b4"/>
   </g>
   <g id="patch_15">
    <path d="M -117.562622 778.258286 
L -93.939716 778.258286 
L -93.939716 691.277678 
L -117.562622 691.277678 
z
" clip-path="url(#p043a3917ce)" style="fill: #1f77b4"/>
   </g>
   <g id="patch_16">
    <path d="M -93.939716 778.258286 
L -70.316811 778.258286 
L -70.316811 627.714926 
L -93.939716 627.714926 
z
" clip-path="url(#p043a3917ce)" style="fill: #1f77b4"/>
   </g>
   <g id="patch_17">
    <path d="M -70.316811 778.258286 
L -46.693905 778.258286 
L -46.693905 590.915438 
L -70.316811 590.915438 
z
" clip-path="url(#p043a3917ce)" style="fill: #1f77b4"/>
   </g>
   <g id="patch_18">
    <path d="M -46.693905 778.258286 
L -23.071 778.258286 
L -23.071 610.987886 
L -46.693905 610.987886 
z
" clip-path="url(#p043a3917ce)" style="fill: #1f77b4"/>
   </g>
   <g id="patch_19">
    <path d="M -23.071 778.258286 
L 0.551906 778.258286 
L 0.551906 560.806766 
L -23.071 560.806766 
z
" clip-path="url(#p043a3917ce)" style="fill: #1f77b4"/>
   </g>
   <g id="patch_20">
    <path d="M 0.551906 778.258286 
L 24.174811 778.258286 
L 24.174811 437.02667 
L 0.551906 437.02667 
z
" clip-path="url(#p043a3917ce)" style="fill: #1f77b4"/>
   </g>
   <g id="patch_21">
    <path d="M 24.174811 778.258286 
L 47.797717 778.258286 
L 47.797717 413.608814 
L 24.174811 413.608814 
z
" clip-path="url(#p043a3917ce)" style="fill: #1f77b4"/>
   </g>
   <g id="patch_22">
    <path d="M 47.797717 778.258286 
L 71.420622 778.258286 
L 71.420622 366.773102 
L 47.797717 366.773102 
z
" clip-path="url(#p043a3917ce)" style="fill: #1f77b4"/>
   </g>
   <g id="patch_23">
    <path d="M 71.420622 778.258286 
L 95.043528 778.258286 
L 95.043528 316.591982 
L 71.420622 316.591982 
z
" clip-path="url(#p043a3917ce)" style="fill: #1f77b4"/>
   </g>
   <g id="patch_24">
    <path d="M 95.043528 778.258286 
L 118.666433 778.258286 
L 118.666433 239.647598 
L 95.043528 239.647598 
z
" clip-path="url(#p043a3917ce)" style="fill: #1f77b4"/>
   </g>
   <g id="patch_25">
    <path d="M 118.666433 778.258286 
L 142.289339 778.258286 
L 142.289339 232.956782 
L 118.666433 232.956782 
z
" clip-path="url(#p043a3917ce)" style="fill: #1f77b4"/>
   </g>
   <g id="patch_26">
    <path d="M 142.289339 778.258286 
L 165.912244 778.258286 
L 165.912244 209.538926 
L 142.289339 209.538926 
z
" clip-path="url(#p043a3917ce)" style="fill: #1f77b4"/>
   </g>
   <g id="patch_27">
    <path d="M 165.912244 778.258286 
L 189.53515 778.258286 
L 189.53515 55.650158 
L 165.912244 55.650158 
z
" clip-path="url(#p043a3917ce)" style="fill: #1f77b4"/>
   </g>
   <g id="patch_28">
    <path d="M 189.53515 778.258286 
L 213.158055 778.258286 
L 213.158055 156.012398 
L 189.53515 156.012398 
z
" clip-path="url(#p043a3917ce)" style="fill: #1f77b4"/>
   </g>
   <g id="patch_29">
    <path d="M 213.158055 778.258286 
L 236.780961 778.258286 
L 236.780961 102.48587 
L 213.158055 102.48587 
z
" clip-path="url(#p043a3917ce)" style="fill: #1f77b4"/>
   </g>
   <g id="patch_30">
    <path d="M 236.780961 778.258286 
L 260.403866 778.258286 
L 260.403866 192.811886 
L 236.780961 192.811886 
z
" clip-path="url(#p043a3917ce)" style="fill: #1f77b4"/>
   </g>
   <g id="patch_31">
    <path d="M 260.403866 778.258286 
L 284.026772 778.258286 
L 284.026772 52.30475 
L 260.403866 52.30475 
z
" clip-path="url(#p043a3917ce)" style="fill: #1f77b4"/>
   </g>
   <g id="patch_32">
    <path d="M 284.026772 778.258286 
L 307.649677 778.258286 
L 307.649677 145.976174 
L 284.026772 145.976174 
z
" clip-path="url(#p043a3917ce)" style="fill: #1f77b4"/>
   </g>
   <g id="patch_33">
    <path d="M 307.649677 778.258286 
L 331.272583 778.258286 
L 331.272583 102.48587 
L 307.649677 102.48587 
z
" clip-path="url(#p043a3917ce)" style="fill: #1f77b4"/>
   </g>
   <g id="patch_34">
    <path d="M 331.272583 778.258286 
L 354.895488 778.258286 
L 354.895488 319.93739 
L 331.272583 319.93739 
z
" clip-path="url(#p043a3917ce)" style="fill: #1f77b4"/>
   </g>
   <g id="patch_35">
    <path d="M 354.895488 778.258286 
L 378.518394 778.258286 
L 378.518394 242.993006 
L 354.895488 242.993006 
z
" clip-path="url(#p043a3917ce)" style="fill: #1f77b4"/>
   </g>
   <g id="patch_36">
    <path d="M 378.518394 778.258286 
L 402.141299 778.258286 
L 402.141299 296.519534 
L 378.518394 296.519534 
z
" clip-path="url(#p043a3917ce)" style="fill: #1f77b4"/>
   </g>
   <g id="patch_37">
    <path d="M 402.141299 778.258286 
L 425.764205 778.258286 
L 425.764205 296.519534 
L 402.141299 296.519534 
z
" clip-path="url(#p043a3917ce)" style="fill: #1f77b4"/>
   </g>
   <g id="patch_38">
    <path d="M 425.764205 778.258286 
L 449.387111 778.258286 
L 449.387111 356.736878 
L 425.764205 356.736878 
z
" clip-path="url(#p043a3917ce)" style="fill: #1f77b4"/>
   </g>
   <g id="patch_39">
    <path d="M 449.387111 778.258286 
L 473.010016 778.258286 
L 473.010016 403.57259 
L 449.387111 403.57259 
z
" clip-path="url(#p043a3917ce)" style="fill: #1f77b4"/>
   </g>
   <g id="patch_40">
    <path d="M 473.010016 778.258286 
L 496.632922 778.258286 
L 496.632922 453.75371 
L 473.010016 453.75371 
z
" clip-path="url(#p043a3917ce)" style="fill: #1f77b4"/>
   </g>
   <g id="patch_41">
    <path d="M 496.632922 778.258286 
L 520.255827 778.258286 
L 520.255827 460.444526 
L 496.632922 460.444526 
z
" clip-path="url(#p043a3917ce)" style="fill: #1f77b4"/>
   </g>
   <g id="patch_42">
    <path d="M 520.255827 778.258286 
L 543.878733 778.258286 
L 543.878733 524.007278 
L 520.255827 524.007278 
z
" clip-path="url(#p043a3917ce)" style="fill: #1f77b4"/>
   </g>
   <g id="patch_43">
    <path d="M 543.878733 778.258286 
L 567.501638 778.258286 
L 567.501638 621.02411 
L 543.878733 621.02411 
z
" clip-path="url(#p043a3917ce)" style="fill: #1f77b4"/>
   </g>
   <g id="patch_44">
    <path d="M 567.501638 778.258286 
L 591.124544 778.258286 
L 591.124544 624.369518 
L 567.501638 624.369518 
z
" clip-path="url(#p043a3917ce)" style="fill: #1f77b4"/>
   </g>
   <g id="patch_45">
    <path d="M 591.124544 778.258286 
L 614.747449 778.258286 
L 614.747449 651.132782 
L 591.124544 651.132782 
z
" clip-path="url(#p043a3917ce)" style="fill: #1f77b4"/>
   </g>
   <g id="patch_46">
    <path d="M 614.747449 778.258286 
L 638.370355 778.258286 
L 638.370355 694.623086 
L 614.747449 694.623086 
z
" clip-path="url(#p043a3917ce)" style="fill: #1f77b4"/>
   </g>
   <g id="patch_47">
    <path d="M 638.370355 778.258286 
L 661.99326 778.258286 
L 661.99326 721.38635 
L 638.370355 721.38635 
z
" clip-path="url(#p043a3917ce)" style="fill: #1f77b4"/>
   </g>
   <g id="patch_48">
    <path d="M 661.99326 778.258286 
L 685.616166 778.258286 
L 685.616166 718.040942 
L 661.99326 718.040942 
z
" clip-path="url(#p043a3917ce)" style="fill: #1f77b4"/>
   </g>
   <g id="patch_49">
    <path d="M 685.616166 778.258286 
L 709.239071 778.258286 
L 709.239071 744.804206 
L 685.616166 744.804206 
z
" clip-path="url(#p043a3917ce)" style="fill: #1f77b4"/>
   </g>
   <g id="patch_50">
    <path d="M 709.239071 778.258286 
L 732.861977 778.258286 
L 732.861977 748.149614 
L 709.239071 748.149614 
z
" clip-path="url(#p043a3917ce)" style="fill: #1f77b4"/>
   </g>
   <g id="patch_51">
    <path d="M 732.861977 778.258286 
L 756.484882 778.258286 
L 756.484882 764.876654 
L 732.861977 764.876654 
z
" clip-path="url(#p043a3917ce)" style="fill: #1f77b4"/>
   </g>
   <g id="patch_52">
    <path d="M 756.484882 778.258286 
L 780.107788 778.258286 
L 780.107788 764.876654 
L 756.484882 764.876654 
z
" clip-path="url(#p043a3917ce)" style="fill: #1f77b4"/>
   </g>
   <g id="matplotlib.axis_1">
    <g id="xtick_1">
     <g id="line2d_1">
      <defs>
       <path id="m4a93749043" d="M 0 0 
L 0 3.5 
" style="stroke: #000000; stroke-width: 0.8"/>
      </defs>
      <g>
       <use xlink:href="#m4a93749043" x="114.61916" y="307.584" style="stroke: #000000; stroke-width: 0.8"/>
      </g>
     </g>
     <g id="text_1">
      <!-- 66.60 -->
      <g transform="translate(100.305097 322.182437) scale(0.1 -0.1)">
       <defs>
        <path id="DejaVuSans-36" d="M 2113 2584 
Q 1688 2584 1439 2293 
Q 1191 2003 1191 1497 
Q 1191 994 1439 701 
Q 1688 409 2113 409 
Q 2538 409 2786 701 
Q 3034 994 3034 1497 
Q 3034 2003 2786 2293 
Q 2538 2584 2113 2584 
z
M 3366 4563 
L 3366 3988 
Q 3128 4100 2886 4159 
Q 2644 4219 2406 4219 
Q 1781 4219 1451 3797 
Q 1122 3375 1075 2522 
Q 1259 2794 1537 2939 
Q 1816 3084 2150 3084 
Q 2853 3084 3261 2657 
Q 3669 2231 3669 1497 
Q 3669 778 3244 343 
Q 2819 -91 2113 -91 
Q 1303 -91 875 529 
Q 447 1150 447 2328 
Q 447 3434 972 4092 
Q 1497 4750 2381 4750 
Q 2619 4750 2861 4703 
Q 3103 4656 3366 4563 
z
" transform="scale(0.015625)"/>
        <path id="DejaVuSans-2e" d="M 684 794 
L 1344 794 
L 1344 0 
L 684 0 
L 684 794 
z
" transform="scale(0.015625)"/>
        <path id="DejaVuSans-30" d="M 2034 4250 
Q 1547 4250 1301 3770 
Q 1056 3291 1056 2328 
Q 1056 1369 1301 889 
Q 1547 409 2034 409 
Q 2525 409 2770 889 
Q 3016 1369 3016 2328 
Q 3016 3291 2770 3770 
Q 2525 4250 2034 4250 
z
M 2034 4750 
Q 2819 4750 3233 4129 
Q 3647 3509 3647 2328 
Q 3647 1150 3233 529 
Q 2819 -91 2034 -91 
Q 1250 -91 836 529 
Q 422 1150 422 2328 
Q 422 3509 836 4129 
Q 1250 4750 2034 4750 
z
" transform="scale(0.015625)"/>
       </defs>
       <use xlink:href="#DejaVuSans-36"/>
       <use xlink:href="#DejaVuSans-36" x="63.623047"/>
       <use xlink:href="#DejaVuSans-2e" x="127.246094"/>
       <use xlink:href="#DejaVuSans-36" x="159.033203"/>
       <use xlink:href="#DejaVuSans-30" x="222.65625"/>
      </g>
     </g>
    </g>
    <g id="xtick_2">
     <g id="line2d_2">
      <g>
       <use xlink:href="#m4a93749043" x="189.044168" y="307.584" style="stroke: #000000; stroke-width: 0.8"/>
      </g>
     </g>
     <g id="text_2">
      <!-- 66.62 -->
      <g transform="translate(174.730106 322.182437) scale(0.1 -0.1)">
       <defs>
        <path id="DejaVuSans-32" d="M 1228 531 
L 3431 531 
L 3431 0 
L 469 0 
L 469 531 
Q 828 903 1448 1529 
Q 2069 2156 2228 2338 
Q 2531 2678 2651 2914 
Q 2772 3150 2772 3378 
Q 2772 3750 2511 3984 
Q 2250 4219 1831 4219 
Q 1534 4219 1204 4116 
Q 875 4013 500 3803 
L 500 4441 
Q 881 4594 1212 4672 
Q 1544 4750 1819 4750 
Q 2544 4750 2975 4387 
Q 3406 4025 3406 3419 
Q 3406 3131 3298 2873 
Q 3191 2616 2906 2266 
Q 2828 2175 2409 1742 
Q 1991 1309 1228 531 
z
" transform="scale(0.015625)"/>
       </defs>
       <use xlink:href="#DejaVuSans-36"/>
       <use xlink:href="#DejaVuSans-36" x="63.623047"/>
       <use xlink:href="#DejaVuSans-2e" x="127.246094"/>
       <use xlink:href="#DejaVuSans-36" x="159.033203"/>
       <use xlink:href="#DejaVuSans-32" x="222.65625"/>
      </g>
     </g>
    </g>
    <g id="xtick_3">
     <g id="line2d_3">
      <g>
       <use xlink:href="#m4a93749043" x="263.469176" y="307.584" style="stroke: #000000; stroke-width: 0.8"/>
      </g>
     </g>
     <g id="text_3">
      <!-- 66.64 -->
      <g transform="translate(249.155114 322.182437) scale(0.1 -0.1)">
       <defs>
        <path id="DejaVuSans-34" d="M 2419 4116 
L 825 1625 
L 2419 1625 
L 2419 4116 
z
M 2253 4666 
L 3047 4666 
L 3047 1625 
L 3713 1625 
L 3713 1100 
L 3047 1100 
L 3047 0 
L 2419 0 
L 2419 1100 
L 313 1100 
L 313 1709 
L 2253 4666 
z
" transform="scale(0.015625)"/>
       </defs>
       <use xlink:href="#DejaVuSans-36"/>
       <use xlink:href="#DejaVuSans-36" x="63.623047"/>
       <use xlink:href="#DejaVuSans-2e" x="127.246094"/>
       <use xlink:href="#DejaVuSans-36" x="159.033203"/>
       <use xlink:href="#DejaVuSans-34" x="222.65625"/>
      </g>
     </g>
    </g>
    <g id="xtick_4">
     <g id="line2d_4">
      <g>
       <use xlink:href="#m4a93749043" x="337.894185" y="307.584" style="stroke: #000000; stroke-width: 0.8"/>
      </g>
     </g>
     <g id="text_4">
      <!-- 66.66 -->
      <g transform="translate(323.580122 322.182437) scale(0.1 -0.1)">
       <use xlink:href="#DejaVuSans-36"/>
       <use xlink:href="#DejaVuSans-36" x="63.623047"/>
       <use xlink:href="#DejaVuSans-2e" x="127.246094"/>
       <use xlink:href="#DejaVuSans-36" x="159.033203"/>
       <use xlink:href="#DejaVuSans-36" x="222.65625"/>
      </g>
     </g>
    </g>
    <g id="xtick_5">
     <g id="line2d_5">
      <g>
       <use xlink:href="#m4a93749043" x="412.319193" y="307.584" style="stroke: #000000; stroke-width: 0.8"/>
      </g>
     </g>
     <g id="text_5">
      <!-- 66.68 -->
      <g transform="translate(398.005131 322.182437) scale(0.1 -0.1)">
       <defs>
        <path id="DejaVuSans-38" d="M 2034 2216 
Q 1584 2216 1326 1975 
Q 1069 1734 1069 1313 
Q 1069 891 1326 650 
Q 1584 409 2034 409 
Q 2484 409 2743 651 
Q 3003 894 3003 1313 
Q 3003 1734 2745 1975 
Q 2488 2216 2034 2216 
z
M 1403 2484 
Q 997 2584 770 2862 
Q 544 3141 544 3541 
Q 544 4100 942 4425 
Q 1341 4750 2034 4750 
Q 2731 4750 3128 4425 
Q 3525 4100 3525 3541 
Q 3525 3141 3298 2862 
Q 3072 2584 2669 2484 
Q 3125 2378 3379 2068 
Q 3634 1759 3634 1313 
Q 3634 634 3220 271 
Q 2806 -91 2034 -91 
Q 1263 -91 848 271 
Q 434 634 434 1313 
Q 434 1759 690 2068 
Q 947 2378 1403 2484 
z
M 1172 3481 
Q 1172 3119 1398 2916 
Q 1625 2713 2034 2713 
Q 2441 2713 2670 2916 
Q 2900 3119 2900 3481 
Q 2900 3844 2670 4047 
Q 2441 4250 2034 4250 
Q 1625 4250 1398 4047 
Q 1172 3844 1172 3481 
z
" transform="scale(0.015625)"/>
       </defs>
       <use xlink:href="#DejaVuSans-36"/>
       <use xlink:href="#DejaVuSans-36" x="63.623047"/>
       <use xlink:href="#DejaVuSans-2e" x="127.246094"/>
       <use xlink:href="#DejaVuSans-36" x="159.033203"/>
       <use xlink:href="#DejaVuSans-38" x="222.65625"/>
      </g>
     </g>
    </g>
   </g>
   <g id="matplotlib.axis_2">
    <g id="ytick_1">
     <g id="line2d_6">
      <defs>
       <path id="m23cd4c54e1" d="M 0 0 
L -3.5 0 
" style="stroke: #000000; stroke-width: 0.8"/>
      </defs>
      <g>
       <use xlink:href="#m23cd4c54e1" x="57.6" y="276.447086" style="stroke: #000000; stroke-width: 0.8"/>
      </g>
     </g>
     <g id="text_6">
      <!-- 150 -->
      <g transform="translate(31.5125 280.246304) scale(0.1 -0.1)">
       <defs>
        <path id="DejaVuSans-31" d="M 794 531 
L 1825 531 
L 1825 4091 
L 703 3866 
L 703 4441 
L 1819 4666 
L 2450 4666 
L 2450 531 
L 3481 531 
L 3481 0 
L 794 0 
L 794 531 
z
" transform="scale(0.015625)"/>
        <path id="DejaVuSans-35" d="M 691 4666 
L 3169 4666 
L 3169 4134 
L 1269 4134 
L 1269 2991 
Q 1406 3038 1543 3061 
Q 1681 3084 1819 3084 
Q 2600 3084 3056 2656 
Q 3513 2228 3513 1497 
Q 3513 744 3044 326 
Q 2575 -91 1722 -91 
Q 1428 -91 1123 -41 
Q 819 9 494 109 
L 494 744 
Q 775 591 1075 516 
Q 1375 441 1709 441 
Q 2250 441 2565 725 
Q 2881 1009 2881 1497 
Q 2881 1984 2565 2268 
Q 2250 2553 1709 2553 
Q 1456 2553 1204 2497 
Q 953 2441 691 2322 
L 691 4666 
z
" transform="scale(0.015625)"/>
       </defs>
       <use xlink:href="#DejaVuSans-31"/>
       <use xlink:href="#DejaVuSans-35" x="63.623047"/>
       <use xlink:href="#DejaVuSans-30" x="127.246094"/>
      </g>
     </g>
    </g>
    <g id="ytick_2">
     <g id="line2d_7">
      <g>
       <use xlink:href="#m23cd4c54e1" x="57.6" y="242.993006" style="stroke: #000000; stroke-width: 0.8"/>
      </g>
     </g>
     <g id="text_7">
      <!-- 160 -->
      <g transform="translate(31.5125 246.792224) scale(0.1 -0.1)">
       <use xlink:href="#DejaVuSans-31"/>
       <use xlink:href="#DejaVuSans-36" x="63.623047"/>
       <use xlink:href="#DejaVuSans-30" x="127.246094"/>
      </g>
     </g>
    </g>
    <g id="ytick_3">
     <g id="line2d_8">
      <g>
       <use xlink:href="#m23cd4c54e1" x="57.6" y="209.538926" style="stroke: #000000; stroke-width: 0.8"/>
      </g>
     </g>
     <g id="text_8">
      <!-- 170 -->
      <g transform="translate(31.5125 213.338144) scale(0.1 -0.1)">
       <defs>
        <path id="DejaVuSans-37" d="M 525 4666 
L 3525 4666 
L 3525 4397 
L 1831 0 
L 1172 0 
L 2766 4134 
L 525 4134 
L 525 4666 
z
" transform="scale(0.015625)"/>
       </defs>
       <use xlink:href="#DejaVuSans-31"/>
       <use xlink:href="#DejaVuSans-37" x="63.623047"/>
       <use xlink:href="#DejaVuSans-30" x="127.246094"/>
      </g>
     </g>
    </g>
    <g id="ytick_4">
     <g id="line2d_9">
      <g>
       <use xlink:href="#m23cd4c54e1" x="57.6" y="176.084846" style="stroke: #000000; stroke-width: 0.8"/>
      </g>
     </g>
     <g id="text_9">
      <!-- 180 -->
      <g transform="translate(31.5125 179.884064) scale(0.1 -0.1)">
       <use xlink:href="#DejaVuSans-31"/>
       <use xlink:href="#DejaVuSans-38" x="63.623047"/>
       <use xlink:href="#DejaVuSans-30" x="127.246094"/>
      </g>
     </g>
    </g>
    <g id="ytick_5">
     <g id="line2d_10">
      <g>
       <use xlink:href="#m23cd4c54e1" x="57.6" y="142.630766" style="stroke: #000000; stroke-width: 0.8"/>
      </g>
     </g>
     <g id="text_10">
      <!-- 190 -->
      <g transform="translate(31.5125 146.429984) scale(0.1 -0.1)">
       <defs>
        <path id="DejaVuSans-39" d="M 703 97 
L 703 672 
Q 941 559 1184 500 
Q 1428 441 1663 441 
Q 2288 441 2617 861 
Q 2947 1281 2994 2138 
Q 2813 1869 2534 1725 
Q 2256 1581 1919 1581 
Q 1219 1581 811 2004 
Q 403 2428 403 3163 
Q 403 3881 828 4315 
Q 1253 4750 1959 4750 
Q 2769 4750 3195 4129 
Q 3622 3509 3622 2328 
Q 3622 1225 3098 567 
Q 2575 -91 1691 -91 
Q 1453 -91 1209 -44 
Q 966 3 703 97 
z
M 1959 2075 
Q 2384 2075 2632 2365 
Q 2881 2656 2881 3163 
Q 2881 3666 2632 3958 
Q 2384 4250 1959 4250 
Q 1534 4250 1286 3958 
Q 1038 3666 1038 3163 
Q 1038 2656 1286 2365 
Q 1534 2075 1959 2075 
z
" transform="scale(0.015625)"/>
       </defs>
       <use xlink:href="#DejaVuSans-31"/>
       <use xlink:href="#DejaVuSans-39" x="63.623047"/>
       <use xlink:href="#DejaVuSans-30" x="127.246094"/>
      </g>
     </g>
    </g>
    <g id="ytick_6">
     <g id="line2d_11">
      <g>
       <use xlink:href="#m23cd4c54e1" x="57.6" y="109.176686" style="stroke: #000000; stroke-width: 0.8"/>
      </g>
     </g>
     <g id="text_11">
      <!-- 200 -->
      <g transform="translate(31.5125 112.975904) scale(0.1 -0.1)">
       <use xlink:href="#DejaVuSans-32"/>
       <use xlink:href="#DejaVuSans-30" x="63.623047"/>
       <use xlink:href="#DejaVuSans-30" x="127.246094"/>
      </g>
     </g>
    </g>
    <g id="ytick_7">
     <g id="line2d_12">
      <g>
       <use xlink:href="#m23cd4c54e1" x="57.6" y="75.722606" style="stroke: #000000; stroke-width: 0.8"/>
      </g>
     </g>
     <g id="text_12">
      <!-- 210 -->
      <g transform="translate(31.5125 79.521824) scale(0.1 -0.1)">
       <use xlink:href="#DejaVuSans-32"/>
       <use xlink:href="#DejaVuSans-31" x="63.623047"/>
       <use xlink:href="#DejaVuSans-30" x="127.246094"/>
      </g>
     </g>
    </g>
    <g id="ytick_8">
     <g id="line2d_13">
      <g>
       <use xlink:href="#m23cd4c54e1" x="57.6" y="42.268526" style="stroke: #000000; stroke-width: 0.8"/>
      </g>
     </g>
     <g id="text_13">
      <!-- 220 -->
      <g transform="translate(31.5125 46.067744) scale(0.1 -0.1)">
       <use xlink:href="#DejaVuSans-32"/>
       <use xlink:href="#DejaVuSans-32" x="63.623047"/>
       <use xlink:href="#DejaVuSans-30" x="127.246094"/>
      </g>
     </g>
    </g>
   </g>
   <g id="line2d_14">
    <path d="M 70.180864 346.6 
L 73.685405 337.082606 
L 77.406655 331.855406 
L 81.127906 323.840366 
L 84.849156 315.128366 
L 88.570407 305.719406 
L 92.291657 300.492206 
L 96.012908 293.174126 
L 99.734158 287.249966 
L 107.176659 271.916846 
L 110.897909 264.598766 
L 114.61916 261.113966 
L 118.34041 252.053486 
L 122.061661 251.008046 
L 125.782911 249.614126 
L 129.504161 246.826286 
L 133.225412 243.341486 
L 136.946662 234.281006 
L 140.667913 231.493166 
L 144.389163 226.614446 
L 148.110413 223.478126 
L 151.831664 217.553966 
L 159.274165 202.220846 
L 162.995415 196.645166 
L 166.716666 192.114926 
L 170.437916 191.417966 
L 174.159166 191.069486 
L 177.880417 183.402926 
L 181.601667 177.130286 
L 185.322918 179.221166 
L 189.044168 175.039406 
L 192.765418 170.509166 
L 196.486669 162.494126 
L 200.207919 155.873006 
L 207.65042 156.569966 
L 211.371671 158.312366 
L 215.092921 150.994286 
L 218.814171 153.782126 
L 222.535422 155.873006 
L 226.256672 159.357806 
L 229.977923 158.660846 
L 233.699173 155.524526 
L 237.420424 159.009326 
L 241.141674 161.448686 
L 244.862924 158.660846 
L 248.584175 160.403246 
L 252.305425 161.797166 
L 256.026676 164.585006 
L 259.747926 163.888046 
L 263.469176 165.281966 
L 267.190427 163.539566 
L 270.911677 164.933486 
L 274.632928 169.115246 
L 278.354178 173.993966 
L 282.075429 176.084846 
L 285.796679 178.524206 
L 289.517929 178.524206 
L 293.23918 184.796846 
L 296.96043 189.675566 
L 300.681681 192.463406 
L 304.402931 196.296686 
L 308.124182 199.781486 
L 311.845432 202.917806 
L 315.566682 205.705646 
L 323.009183 209.190446 
L 326.730434 215.811566 
L 330.451684 218.947886 
L 334.172934 227.659886 
L 337.894185 233.235566 
L 341.615435 236.371886 
L 345.336686 237.068846 
L 349.057936 240.205166 
L 352.779187 244.386926 
L 356.500437 244.038446 
L 360.221687 251.008046 
L 363.942938 256.932206 
L 367.664188 265.295726 
L 371.385439 267.386606 
L 375.106689 276.795566 
L 378.827939 284.810606 
L 382.54919 290.734766 
L 386.27044 297.007406 
L 389.991691 305.370926 
L 393.712941 308.507246 
L 397.434192 308.855726 
L 401.155442 320.355566 
L 404.876692 326.628206 
L 408.597943 331.855406 
L 412.319193 338.825006 
L 416.040444 344.749166 
L 416.699249 346.6 
L 416.699249 346.6 
" clip-path="url(#p043a3917ce)" style="fill: none; stroke: #ff7f0e; stroke-width: 1.5; stroke-linecap: square"/>
   </g>
   <g id="line2d_15">
    <path d="M 69.279944 346.6 
L 73.685405 337.544536 
L 88.570407 307.881378 
L 99.734158 286.41494 
L 110.897909 265.405077 
L 125.782911 238.231402 
L 136.946662 218.475541 
L 144.389163 205.947251 
L 151.831664 194.052351 
L 155.552914 188.334738 
L 159.274165 182.85674 
L 162.995415 177.695744 
L 166.716666 172.878251 
L 170.437916 168.462489 
L 174.159166 164.422 
L 177.880417 160.611996 
L 181.601667 157.20449 
L 185.322918 154.379515 
L 189.044168 151.787743 
L 192.765418 149.554016 
L 196.486669 147.572339 
L 200.207919 145.907682 
L 203.92917 144.700818 
L 207.65042 143.66805 
L 215.092921 141.930388 
L 233.699173 139.163152 
L 241.141674 138.226036 
L 244.862924 137.629653 
L 252.305425 136.803498 
L 259.747926 136.464676 
L 263.469176 136.630778 
L 267.190427 137.002098 
L 270.911677 137.801216 
L 274.632928 139.098266 
L 278.354178 140.876066 
L 282.075429 143.059303 
L 285.796679 145.768969 
L 289.517929 148.934093 
L 293.23918 152.790157 
L 296.96043 157.096007 
L 300.681681 161.841322 
L 304.402931 167.128701 
L 308.124182 172.826415 
L 311.845432 178.880967 
L 319.287933 191.763467 
L 326.730434 205.439313 
L 337.894185 226.048585 
L 341.615435 232.63435 
L 349.057936 245.077844 
L 352.779187 251.034766 
L 360.221687 262.276634 
L 367.664188 272.771157 
L 382.54919 292.067171 
L 397.434192 310.755533 
L 408.597943 326.181558 
L 416.040444 337.253664 
L 421.936199 346.6 
L 421.936199 346.6 
" clip-path="url(#p043a3917ce)" style="fill: none; stroke: #2ca02c; stroke-width: 1.5; stroke-linecap: square"/>
   </g>
   <g id="LineCollection_1">
    <path clip-path="url(#p043a3917ce)" style="fill: none; stroke-dasharray: 5.55,2.4; stroke-dashoffset: 0; stroke: #ffa500; stroke-width: 1.5"/>
    <path clip-path="url(#p043a3917ce)" style="fill: none; stroke-dasharray: 5.55,2.4; stroke-dashoffset: 0; stroke: #ffa500; stroke-width: 1.5"/>
   </g>
   <g id="LineCollection_2">
    <path clip-path="url(#p043a3917ce)" style="fill: none; stroke-dasharray: 1.5,2.475; stroke-dashoffset: 0; stroke: #008000; stroke-width: 1.5"/>
    <path clip-path="url(#p043a3917ce)" style="fill: none; stroke-dasharray: 1.5,2.475; stroke-dashoffset: 0; stroke: #008000; stroke-width: 1.5"/>
   </g>
   <g id="patch_53">
    <path d="M 57.6 307.584 
L 57.6 41.472 
" style="fill: none; stroke: #000000; stroke-width: 0.8; stroke-linejoin: miter; stroke-linecap: square"/>
   </g>
   <g id="patch_54">
    <path d="M 414.72 307.584 
L 414.72 41.472 
" style="fill: none; stroke: #000000; stroke-width: 0.8; stroke-linejoin: miter; stroke-linecap: square"/>
   </g>
   <g id="patch_55">
    <path d="M 57.6 307.584 
L 414.72 307.584 
" style="fill: none; stroke: #000000; stroke-width: 0.8; stroke-linejoin: miter; stroke-linecap: square"/>
   </g>
   <g id="patch_56">
    <path d="M 57.6 41.472 
L 414.72 41.472 
" style="fill: none; stroke: #000000; stroke-width: 0.8; stroke-linejoin: miter; stroke-linecap: square"/>
   </g>
   <g id="legend_1">
    <g id="patch_57">
     <path d="M 345.087188 78.82825 
L 407.72 78.82825 
Q 409.72 78.82825 409.72 76.82825 
L 409.72 48.472 
Q 409.72 46.472 407.72 46.472 
L 345.087188 46.472 
Q 343.087188 46.472 343.087188 48.472 
L 343.087188 76.82825 
Q 343.087188 78.82825 345.087188 78.82825 
z
" style="fill: #ffffff; opacity: 0.8; stroke: #cccccc; stroke-linejoin: miter"/>
    </g>
    <g id="line2d_16">
     <path d="M 347.087188 54.570437 
L 357.087188 54.570437 
L 367.087188 54.570437 
" style="fill: none; stroke: #ff7f0e; stroke-width: 1.5; stroke-linecap: square"/>
    </g>
    <g id="text_14">
     <!-- Even -->
     <g transform="translate(375.087188 58.070437) scale(0.1 -0.1)">
      <defs>
       <path id="DejaVuSans-45" d="M 628 4666 
L 3578 4666 
L 3578 4134 
L 1259 4134 
L 1259 2753 
L 3481 2753 
L 3481 2222 
L 1259 2222 
L 1259 531 
L 3634 531 
L 3634 0 
L 628 0 
L 628 4666 
z
" transform="scale(0.015625)"/>
       <path id="DejaVuSans-76" d="M 191 3500 
L 800 3500 
L 1894 563 
L 2988 3500 
L 3597 3500 
L 2284 0 
L 1503 0 
L 191 3500 
z
" transform="scale(0.015625)"/>
       <path id="DejaVuSans-65" d="M 3597 1894 
L 3597 1613 
L 953 1613 
Q 991 1019 1311 708 
Q 1631 397 2203 397 
Q 2534 397 2845 478 
Q 3156 559 3463 722 
L 3463 178 
Q 3153 47 2828 -22 
Q 2503 -91 2169 -91 
Q 1331 -91 842 396 
Q 353 884 353 1716 
Q 353 2575 817 3079 
Q 1281 3584 2069 3584 
Q 2775 3584 3186 3129 
Q 3597 2675 3597 1894 
z
M 3022 2063 
Q 3016 2534 2758 2815 
Q 2500 3097 2075 3097 
Q 1594 3097 1305 2825 
Q 1016 2553 972 2059 
L 3022 2063 
z
" transform="scale(0.015625)"/>
       <path id="DejaVuSans-6e" d="M 3513 2113 
L 3513 0 
L 2938 0 
L 2938 2094 
Q 2938 2591 2744 2837 
Q 2550 3084 2163 3084 
Q 1697 3084 1428 2787 
Q 1159 2491 1159 1978 
L 1159 0 
L 581 0 
L 581 3500 
L 1159 3500 
L 1159 2956 
Q 1366 3272 1645 3428 
Q 1925 3584 2291 3584 
Q 2894 3584 3203 3211 
Q 3513 2838 3513 2113 
z
" transform="scale(0.015625)"/>
      </defs>
      <use xlink:href="#DejaVuSans-45"/>
      <use xlink:href="#DejaVuSans-76" x="63.183594"/>
      <use xlink:href="#DejaVuSans-65" x="122.363281"/>
      <use xlink:href="#DejaVuSans-6e" x="183.886719"/>
     </g>
    </g>
    <g id="line2d_17">
     <path d="M 347.087188 69.248562 
L 357.087188 69.248562 
L 367.087188 69.248562 
" style="fill: none; stroke: #2ca02c; stroke-width: 1.5; stroke-linecap: square"/>
    </g>
    <g id="text_15">
     <!-- Gauss -->
     <g transform="translate(375.087188 72.748562) scale(0.1 -0.1)">
      <defs>
       <path id="DejaVuSans-47" d="M 3809 666 
L 3809 1919 
L 2778 1919 
L 2778 2438 
L 4434 2438 
L 4434 434 
Q 4069 175 3628 42 
Q 3188 -91 2688 -91 
Q 1594 -91 976 548 
Q 359 1188 359 2328 
Q 359 3472 976 4111 
Q 1594 4750 2688 4750 
Q 3144 4750 3555 4637 
Q 3966 4525 4313 4306 
L 4313 3634 
Q 3963 3931 3569 4081 
Q 3175 4231 2741 4231 
Q 1884 4231 1454 3753 
Q 1025 3275 1025 2328 
Q 1025 1384 1454 906 
Q 1884 428 2741 428 
Q 3075 428 3337 486 
Q 3600 544 3809 666 
z
" transform="scale(0.015625)"/>
       <path id="DejaVuSans-61" d="M 2194 1759 
Q 1497 1759 1228 1600 
Q 959 1441 959 1056 
Q 959 750 1161 570 
Q 1363 391 1709 391 
Q 2188 391 2477 730 
Q 2766 1069 2766 1631 
L 2766 1759 
L 2194 1759 
z
M 3341 1997 
L 3341 0 
L 2766 0 
L 2766 531 
Q 2569 213 2275 61 
Q 1981 -91 1556 -91 
Q 1019 -91 701 211 
Q 384 513 384 1019 
Q 384 1609 779 1909 
Q 1175 2209 1959 2209 
L 2766 2209 
L 2766 2266 
Q 2766 2663 2505 2880 
Q 2244 3097 1772 3097 
Q 1472 3097 1187 3025 
Q 903 2953 641 2809 
L 641 3341 
Q 956 3463 1253 3523 
Q 1550 3584 1831 3584 
Q 2591 3584 2966 3190 
Q 3341 2797 3341 1997 
z
" transform="scale(0.015625)"/>
       <path id="DejaVuSans-75" d="M 544 1381 
L 544 3500 
L 1119 3500 
L 1119 1403 
Q 1119 906 1312 657 
Q 1506 409 1894 409 
Q 2359 409 2629 706 
Q 2900 1003 2900 1516 
L 2900 3500 
L 3475 3500 
L 3475 0 
L 2900 0 
L 2900 538 
Q 2691 219 2414 64 
Q 2138 -91 1772 -91 
Q 1169 -91 856 284 
Q 544 659 544 1381 
z
M 1991 3584 
L 1991 3584 
z
" transform="scale(0.015625)"/>
       <path id="DejaVuSans-73" d="M 2834 3397 
L 2834 2853 
Q 2591 2978 2328 3040 
Q 2066 3103 1784 3103 
Q 1356 3103 1142 2972 
Q 928 2841 928 2578 
Q 928 2378 1081 2264 
Q 1234 2150 1697 2047 
L 1894 2003 
Q 2506 1872 2764 1633 
Q 3022 1394 3022 966 
Q 3022 478 2636 193 
Q 2250 -91 1575 -91 
Q 1294 -91 989 -36 
Q 684 19 347 128 
L 347 722 
Q 666 556 975 473 
Q 1284 391 1588 391 
Q 1994 391 2212 530 
Q 2431 669 2431 922 
Q 2431 1156 2273 1281 
Q 2116 1406 1581 1522 
L 1381 1569 
Q 847 1681 609 1914 
Q 372 2147 372 2553 
Q 372 3047 722 3315 
Q 1072 3584 1716 3584 
Q 2034 3584 2315 3537 
Q 2597 3491 2834 3397 
z
" transform="scale(0.015625)"/>
      </defs>
      <use xlink:href="#DejaVuSans-47"/>
      <use xlink:href="#DejaVuSans-61" x="77.490234"/>
      <use xlink:href="#DejaVuSans-75" x="138.769531"/>
      <use xlink:href="#DejaVuSans-73" x="202.148438"/>
      <use xlink:href="#DejaVuSans-73" x="254.248047"/>
     </g>
    </g>
   </g>
  </g>
 </g>
 <defs>
  <clipPath id="p043a3917ce">
   <rect x="57.6" y="41.472" width="357.12" height="266.112"/>
  </clipPath>
 </defs>
</svg>
