<?xml version="1.0" encoding="utf-8" standalone="no"?>
<!DOCTYPE svg PUBLIC "-//W3C//DTD SVG 1.1//EN"
  "http://www.w3.org/Graphics/SVG/1.1/DTD/svg11.dtd">
<svg xmlns:xlink="http://www.w3.org/1999/xlink" width="460.8pt" height="345.6pt" viewBox="0 0 460.8 345.6" xmlns="http://www.w3.org/2000/svg" version="1.1">
 <metadata>
  <rdf:RDF xmlns:dc="http://purl.org/dc/elements/1.1/" xmlns:cc="http://creativecommons.org/ns#" xmlns:rdf="http://www.w3.org/1999/02/22-rdf-syntax-ns#">
   <cc:Work>
    <dc:type rdf:resource="http://purl.org/dc/dcmitype/StillImage"/>
    <dc:date>2023-03-27T22:30:06.903570</dc:date>
    <dc:format>image/svg+xml</dc:format>
    <dc:creator>
     <cc:Agent>
      <dc:title>Matplotlib v3.7.1, https://matplotlib.org/</dc:title>
     </cc:Agent>
    </dc:creator>
   </cc:Work>
  </rdf:RDF>
 </metadata>
 <defs>
  <style type="text/css">*{stroke-linejoin: round; stroke-linecap: butt}</style>
 </defs>
 <g id="figure_1">
  <g id="patch_1">
   <path d="M 0 345.6 
L 460.8 345.6 
L 460.8 0 
L 0 0 
z
" style="fill: #ffffff"/>
  </g>
  <g id="axes_1">
   <g id="patch_2">
    <path d="M 57.6 307.584 
L 414.72 307.584 
L 414.72 41.472 
L 57.6 41.472 
z
" style="fill: #ffffff"/>
   </g>
   <g id="matplotlib.axis_1">
    <g id="xtick_1">
     <g id="line2d_1">
      <defs>
       <path id="m1a0704ceb1" d="M 0 0 
L 0 3.5 
" style="stroke: #000000; stroke-width: 0.8"/>
      </defs>
      <g>
       <use xlink:href="#m1a0704ceb1" x="93.312" y="307.584" style="stroke: #000000; stroke-width: 0.8"/>
      </g>
     </g>
     <g id="text_1">
      <!-- 0 -->
      <g transform="translate(90.13075 322.182437) scale(0.1 -0.1)">
       <defs>
        <path id="DejaVuSans-30" d="M 2034 4250 
Q 1547 4250 1301 3770 
Q 1056 3291 1056 2328 
Q 1056 1369 1301 889 
Q 1547 409 2034 409 
Q 2525 409 2770 889 
Q 3016 1369 3016 2328 
Q 3016 3291 2770 3770 
Q 2525 4250 2034 4250 
z
M 2034 4750 
Q 2819 4750 3233 4129 
Q 3647 3509 3647 2328 
Q 3647 1150 3233 529 
Q 2819 -91 2034 -91 
Q 1250 -91 836 529 
Q 422 1150 422 2328 
Q 422 3509 836 4129 
Q 1250 4750 2034 4750 
z
" transform="scale(0.015625)"/>
       </defs>
       <use xlink:href="#DejaVuSans-30"/>
      </g>
     </g>
    </g>
    <g id="xtick_2">
     <g id="line2d_2">
      <g>
       <use xlink:href="#m1a0704ceb1" x="164.736" y="307.584" style="stroke: #000000; stroke-width: 0.8"/>
      </g>
     </g>
     <g id="text_2">
      <!-- 1000 -->
      <g transform="translate(152.011 322.182437) scale(0.1 -0.1)">
       <defs>
        <path id="DejaVuSans-31" d="M 794 531 
L 1825 531 
L 1825 4091 
L 703 3866 
L 703 4441 
L 1819 4666 
L 2450 4666 
L 2450 531 
L 3481 531 
L 3481 0 
L 794 0 
L 794 531 
z
" transform="scale(0.015625)"/>
       </defs>
       <use xlink:href="#DejaVuSans-31"/>
       <use xlink:href="#DejaVuSans-30" x="63.623047"/>
       <use xlink:href="#DejaVuSans-30" x="127.246094"/>
       <use xlink:href="#DejaVuSans-30" x="190.869141"/>
      </g>
     </g>
    </g>
    <g id="xtick_3">
     <g id="line2d_3">
      <g>
       <use xlink:href="#m1a0704ceb1" x="236.16" y="307.584" style="stroke: #000000; stroke-width: 0.8"/>
      </g>
     </g>
     <g id="text_3">
      <!-- 2000 -->
      <g transform="translate(223.435 322.182437) scale(0.1 -0.1)">
       <defs>
        <path id="DejaVuSans-32" d="M 1228 531 
L 3431 531 
L 3431 0 
L 469 0 
L 469 531 
Q 828 903 1448 1529 
Q 2069 2156 2228 2338 
Q 2531 2678 2651 2914 
Q 2772 3150 2772 3378 
Q 2772 3750 2511 3984 
Q 2250 4219 1831 4219 
Q 1534 4219 1204 4116 
Q 875 4013 500 3803 
L 500 4441 
Q 881 4594 1212 4672 
Q 1544 4750 1819 4750 
Q 2544 4750 2975 4387 
Q 3406 4025 3406 3419 
Q 3406 3131 3298 2873 
Q 3191 2616 2906 2266 
Q 2828 2175 2409 1742 
Q 1991 1309 1228 531 
z
" transform="scale(0.015625)"/>
       </defs>
       <use xlink:href="#DejaVuSans-32"/>
       <use xlink:href="#DejaVuSans-30" x="63.623047"/>
       <use xlink:href="#DejaVuSans-30" x="127.246094"/>
       <use xlink:href="#DejaVuSans-30" x="190.869141"/>
      </g>
     </g>
    </g>
    <g id="xtick_4">
     <g id="line2d_4">
      <g>
       <use xlink:href="#m1a0704ceb1" x="307.584" y="307.584" style="stroke: #000000; stroke-width: 0.8"/>
      </g>
     </g>
     <g id="text_4">
      <!-- 3000 -->
      <g transform="translate(294.859 322.182437) scale(0.1 -0.1)">
       <defs>
        <path id="DejaVuSans-33" d="M 2597 2516 
Q 3050 2419 3304 2112 
Q 3559 1806 3559 1356 
Q 3559 666 3084 287 
Q 2609 -91 1734 -91 
Q 1441 -91 1130 -33 
Q 819 25 488 141 
L 488 750 
Q 750 597 1062 519 
Q 1375 441 1716 441 
Q 2309 441 2620 675 
Q 2931 909 2931 1356 
Q 2931 1769 2642 2001 
Q 2353 2234 1838 2234 
L 1294 2234 
L 1294 2753 
L 1863 2753 
Q 2328 2753 2575 2939 
Q 2822 3125 2822 3475 
Q 2822 3834 2567 4026 
Q 2313 4219 1838 4219 
Q 1578 4219 1281 4162 
Q 984 4106 628 3988 
L 628 4550 
Q 988 4650 1302 4700 
Q 1616 4750 1894 4750 
Q 2613 4750 3031 4423 
Q 3450 4097 3450 3541 
Q 3450 3153 3228 2886 
Q 3006 2619 2597 2516 
z
" transform="scale(0.015625)"/>
       </defs>
       <use xlink:href="#DejaVuSans-33"/>
       <use xlink:href="#DejaVuSans-30" x="63.623047"/>
       <use xlink:href="#DejaVuSans-30" x="127.246094"/>
       <use xlink:href="#DejaVuSans-30" x="190.869141"/>
      </g>
     </g>
    </g>
    <g id="xtick_5">
     <g id="line2d_5">
      <g>
       <use xlink:href="#m1a0704ceb1" x="379.008" y="307.584" style="stroke: #000000; stroke-width: 0.8"/>
      </g>
     </g>
     <g id="text_5">
      <!-- 4000 -->
      <g transform="translate(366.283 322.182437) scale(0.1 -0.1)">
       <defs>
        <path id="DejaVuSans-34" d="M 2419 4116 
L 825 1625 
L 2419 1625 
L 2419 4116 
z
M 2253 4666 
L 3047 4666 
L 3047 1625 
L 3713 1625 
L 3713 1100 
L 3047 1100 
L 3047 0 
L 2419 0 
L 2419 1100 
L 313 1100 
L 313 1709 
L 2253 4666 
z
" transform="scale(0.015625)"/>
       </defs>
       <use xlink:href="#DejaVuSans-34"/>
       <use xlink:href="#DejaVuSans-30" x="63.623047"/>
       <use xlink:href="#DejaVuSans-30" x="127.246094"/>
       <use xlink:href="#DejaVuSans-30" x="190.869141"/>
      </g>
     </g>
    </g>
   </g>
   <g id="matplotlib.axis_2">
    <g id="ytick_1">
     <g id="line2d_6">
      <defs>
       <path id="m65163f846e" d="M 0 0 
L -3.5 0 
" style="stroke: #000000; stroke-width: 0.8"/>
      </defs>
      <g>
       <use xlink:href="#m65163f846e" x="57.6" y="307.584" style="stroke: #000000; stroke-width: 0.8"/>
      </g>
     </g>
     <g id="text_6">
      <!-- −5.0 -->
      <g transform="translate(26.317187 311.383219) scale(0.1 -0.1)">
       <defs>
        <path id="DejaVuSans-2212" d="M 678 2272 
L 4684 2272 
L 4684 1741 
L 678 1741 
L 678 2272 
z
" transform="scale(0.015625)"/>
        <path id="DejaVuSans-35" d="M 691 4666 
L 3169 4666 
L 3169 4134 
L 1269 4134 
L 1269 2991 
Q 1406 3038 1543 3061 
Q 1681 3084 1819 3084 
Q 2600 3084 3056 2656 
Q 3513 2228 3513 1497 
Q 3513 744 3044 326 
Q 2575 -91 1722 -91 
Q 1428 -91 1123 -41 
Q 819 9 494 109 
L 494 744 
Q 775 591 1075 516 
Q 1375 441 1709 441 
Q 2250 441 2565 725 
Q 2881 1009 2881 1497 
Q 2881 1984 2565 2268 
Q 2250 2553 1709 2553 
Q 1456 2553 1204 2497 
Q 953 2441 691 2322 
L 691 4666 
z
" transform="scale(0.015625)"/>
        <path id="DejaVuSans-2e" d="M 684 794 
L 1344 794 
L 1344 0 
L 684 0 
L 684 794 
z
" transform="scale(0.015625)"/>
       </defs>
       <use xlink:href="#DejaVuSans-2212"/>
       <use xlink:href="#DejaVuSans-35" x="83.789062"/>
       <use xlink:href="#DejaVuSans-2e" x="147.412109"/>
       <use xlink:href="#DejaVuSans-30" x="179.199219"/>
      </g>
     </g>
    </g>
    <g id="ytick_2">
     <g id="line2d_7">
      <g>
       <use xlink:href="#m65163f846e" x="57.6" y="274.32" style="stroke: #000000; stroke-width: 0.8"/>
      </g>
     </g>
     <g id="text_7">
      <!-- −2.5 -->
      <g transform="translate(26.317187 278.119219) scale(0.1 -0.1)">
       <use xlink:href="#DejaVuSans-2212"/>
       <use xlink:href="#DejaVuSans-32" x="83.789062"/>
       <use xlink:href="#DejaVuSans-2e" x="147.412109"/>
       <use xlink:href="#DejaVuSans-35" x="179.199219"/>
      </g>
     </g>
    </g>
    <g id="ytick_3">
     <g id="line2d_8">
      <g>
       <use xlink:href="#m65163f846e" x="57.6" y="241.056" style="stroke: #000000; stroke-width: 0.8"/>
      </g>
     </g>
     <g id="text_8">
      <!-- 0.0 -->
      <g transform="translate(34.696875 244.855219) scale(0.1 -0.1)">
       <use xlink:href="#DejaVuSans-30"/>
       <use xlink:href="#DejaVuSans-2e" x="63.623047"/>
       <use xlink:href="#DejaVuSans-30" x="95.410156"/>
      </g>
     </g>
    </g>
    <g id="ytick_4">
     <g id="line2d_9">
      <g>
       <use xlink:href="#m65163f846e" x="57.6" y="207.792" style="stroke: #000000; stroke-width: 0.8"/>
      </g>
     </g>
     <g id="text_9">
      <!-- 2.5 -->
      <g transform="translate(34.696875 211.591219) scale(0.1 -0.1)">
       <use xlink:href="#DejaVuSans-32"/>
       <use xlink:href="#DejaVuSans-2e" x="63.623047"/>
       <use xlink:href="#DejaVuSans-35" x="95.410156"/>
      </g>
     </g>
    </g>
    <g id="ytick_5">
     <g id="line2d_10">
      <g>
       <use xlink:href="#m65163f846e" x="57.6" y="174.528" style="stroke: #000000; stroke-width: 0.8"/>
      </g>
     </g>
     <g id="text_10">
      <!-- 5.0 -->
      <g transform="translate(34.696875 178.327219) scale(0.1 -0.1)">
       <use xlink:href="#DejaVuSans-35"/>
       <use xlink:href="#DejaVuSans-2e" x="63.623047"/>
       <use xlink:href="#DejaVuSans-30" x="95.410156"/>
      </g>
     </g>
    </g>
    <g id="ytick_6">
     <g id="line2d_11">
      <g>
       <use xlink:href="#m65163f846e" x="57.6" y="141.264" style="stroke: #000000; stroke-width: 0.8"/>
      </g>
     </g>
     <g id="text_11">
      <!-- 7.5 -->
      <g transform="translate(34.696875 145.063219) scale(0.1 -0.1)">
       <defs>
        <path id="DejaVuSans-37" d="M 525 4666 
L 3525 4666 
L 3525 4397 
L 1831 0 
L 1172 0 
L 2766 4134 
L 525 4134 
L 525 4666 
z
" transform="scale(0.015625)"/>
       </defs>
       <use xlink:href="#DejaVuSans-37"/>
       <use xlink:href="#DejaVuSans-2e" x="63.623047"/>
       <use xlink:href="#DejaVuSans-35" x="95.410156"/>
      </g>
     </g>
    </g>
    <g id="ytick_7">
     <g id="line2d_12">
      <g>
       <use xlink:href="#m65163f846e" x="57.6" y="108" style="stroke: #000000; stroke-width: 0.8"/>
      </g>
     </g>
     <g id="text_12">
      <!-- 10.0 -->
      <g transform="translate(28.334375 111.799219) scale(0.1 -0.1)">
       <use xlink:href="#DejaVuSans-31"/>
       <use xlink:href="#DejaVuSans-30" x="63.623047"/>
       <use xlink:href="#DejaVuSans-2e" x="127.246094"/>
       <use xlink:href="#DejaVuSans-30" x="159.033203"/>
      </g>
     </g>
    </g>
    <g id="ytick_8">
     <g id="line2d_13">
      <g>
       <use xlink:href="#m65163f846e" x="57.6" y="74.736" style="stroke: #000000; stroke-width: 0.8"/>
      </g>
     </g>
     <g id="text_13">
      <!-- 12.5 -->
      <g transform="translate(28.334375 78.535219) scale(0.1 -0.1)">
       <use xlink:href="#DejaVuSans-31"/>
       <use xlink:href="#DejaVuSans-32" x="63.623047"/>
       <use xlink:href="#DejaVuSans-2e" x="127.246094"/>
       <use xlink:href="#DejaVuSans-35" x="159.033203"/>
      </g>
     </g>
    </g>
    <g id="ytick_9">
     <g id="line2d_14">
      <g>
       <use xlink:href="#m65163f846e" x="57.6" y="41.472" style="stroke: #000000; stroke-width: 0.8"/>
      </g>
     </g>
     <g id="text_14">
      <!-- 15.0 -->
      <g transform="translate(28.334375 45.271219) scale(0.1 -0.1)">
       <use xlink:href="#DejaVuSans-31"/>
       <use xlink:href="#DejaVuSans-35" x="63.623047"/>
       <use xlink:href="#DejaVuSans-2e" x="127.246094"/>
       <use xlink:href="#DejaVuSans-30" x="159.033203"/>
      </g>
     </g>
    </g>
   </g>
   <g id="line2d_15">
    <path d="M 93.383424 237.244237 
L 93.454848 237.365198 
L 93.526272 237.024378 
L 93.66912 237.628771 
L 93.811968 237.259388 
L 93.883392 237.263328 
L 93.954816 237.033853 
L 94.097664 237.409582 
L 94.169088 237.544744 
L 94.311936 237.282223 
L 94.454784 237.698114 
L 94.597632 237.398225 
L 94.669056 237.585507 
L 94.74048 237.481065 
L 94.954752 237.37369 
L 95.026176 237.004893 
L 95.240448 237.51108 
L 95.311872 237.199253 
L 95.383296 237.253411 
L 95.45472 237.568941 
L 95.526144 237.048681 
L 95.597568 237.30049 
L 95.81184 236.293851 
L 95.954688 237.222342 
L 96.026112 237.034592 
L 96.16896 236.976892 
L 96.240384 237.031488 
L 96.311808 236.605268 
L 96.383232 237.284978 
L 96.454656 236.535202 
L 96.52608 236.680197 
L 96.597504 236.824478 
L 96.740352 236.08562 
L 96.811776 236.499744 
L 96.8832 236.482495 
L 97.097472 237.005922 
L 97.24032 237.716643 
L 97.311744 237.671363 
L 97.383168 237.53054 
L 97.454592 237.699657 
L 97.740288 236.845819 
L 97.811712 237.214234 
L 97.95456 236.383389 
L 98.097408 236.848505 
L 98.168832 236.644226 
L 98.240256 236.675612 
L 98.31168 236.990888 
L 98.383104 236.834279 
L 98.454528 236.824276 
L 98.525952 236.411554 
L 98.597376 237.331714 
L 98.6688 236.806586 
L 98.740224 237.172293 
L 98.811648 237.036943 
L 98.883072 236.972797 
L 99.097344 237.31719 
L 99.168768 236.965839 
L 99.240192 237.370973 
L 99.311616 237.319296 
L 99.38304 236.876092 
L 99.597312 237.431507 
L 99.668736 237.50621 
L 99.811584 236.944997 
L 99.883008 237.232082 
L 99.954432 236.786731 
L 100.025856 236.858014 
L 100.168704 237.533076 
L 100.311552 236.934009 
L 100.382976 237.413506 
L 100.4544 237.369063 
L 100.525824 237.186274 
L 100.597248 237.532369 
L 100.740096 236.709453 
L 100.81152 237.473486 
L 100.882944 237.194898 
L 100.954368 236.540926 
L 101.097216 237.389565 
L 101.240064 237.568108 
L 101.311488 237.199509 
L 101.454336 237.613504 
L 101.668608 236.850178 
L 101.740032 237.076988 
L 101.811456 236.605883 
L 101.954304 237.126211 
L 102.025728 236.965328 
L 102.097152 237.450623 
L 102.168576 237.365573 
L 102.24 237.514454 
L 102.454272 237.103258 
L 102.525696 237.455886 
L 102.59712 237.393335 
L 102.668544 237.216414 
L 102.739968 237.446881 
L 102.811392 237.016415 
L 102.882816 237.314771 
L 102.95424 237.251688 
L 103.025664 236.522524 
L 103.097088 236.875876 
L 103.239936 237.464362 
L 103.31136 237.234114 
L 103.382784 237.368022 
L 103.454208 237.175793 
L 103.525632 237.437102 
L 103.597056 237.3072 
L 103.66848 237.231483 
L 103.811328 237.500834 
L 103.882752 237.353847 
L 104.0256 237.715562 
L 104.311296 237.45426 
L 104.38272 236.897662 
L 104.454144 237.195202 
L 104.525568 237.624246 
L 104.596992 237.473105 
L 104.73984 237.383341 
L 104.954112 237.800755 
L 105.09696 237.653611 
L 105.168384 237.735904 
L 105.311232 237.41453 
L 105.45408 237.538651 
L 105.525504 237.228089 
L 105.668352 237.589885 
L 105.8112 237.272997 
L 105.954048 237.676027 
L 106.025472 237.499645 
L 106.096896 237.874774 
L 106.16832 237.78098 
L 106.239744 237.28543 
L 106.311168 237.36916 
L 106.454016 237.869042 
L 106.739712 237.270141 
L 106.811136 237.310014 
L 106.953984 236.968267 
L 107.025408 237.548689 
L 107.096832 237.539146 
L 107.382528 236.655393 
L 107.453952 236.94305 
L 107.525376 236.404043 
L 107.5968 236.631195 
L 107.882496 234.894958 
L 107.95392 235.522391 
L 108.025344 236.214288 
L 108.096768 236.19106 
L 108.239616 236.551565 
L 108.382464 237.245524 
L 108.453888 237.033716 
L 108.525312 237.170323 
L 108.596736 237.583907 
L 108.66816 237.530791 
L 108.739584 237.233011 
L 108.882432 237.616621 
L 108.953856 237.593148 
L 109.02528 237.239422 
L 109.096704 237.576915 
L 109.239552 237.0397 
L 109.310976 237.125271 
L 109.3824 236.897542 
L 109.596672 237.395029 
L 109.882368 236.871688 
L 109.953792 237.429581 
L 110.025216 237.361815 
L 110.09664 236.753119 
L 110.168064 237.044204 
L 110.239488 237.034833 
L 110.382336 237.611697 
L 110.45376 237.466058 
L 110.525184 236.774964 
L 110.596608 237.07783 
L 110.668032 237.51746 
L 110.739456 237.217569 
L 110.81088 237.529585 
L 110.882304 237.351126 
L 110.953728 237.041387 
L 111.025152 237.111584 
L 111.096576 237.123797 
L 111.168 237.323597 
L 111.239424 237.189738 
L 111.382272 237.445737 
L 111.739392 236.904515 
L 111.810816 236.869747 
L 111.953664 237.407097 
L 112.096512 237.388337 
L 112.453632 237.843486 
L 112.59648 238.10909 
L 112.9536 237.793068 
L 113.025024 237.953901 
L 113.167872 237.526987 
L 113.239296 237.745787 
L 113.382144 237.215481 
L 113.453568 237.670555 
L 113.524992 237.211174 
L 113.596416 237.45736 
L 113.810688 236.853007 
L 113.953536 237.342598 
L 114.02496 236.81087 
L 114.096384 237.077411 
L 114.167808 237.339754 
L 114.239232 237.131724 
L 114.38208 237.305037 
L 114.524928 236.22256 
L 114.7392 237.165539 
L 114.810624 236.907685 
L 114.953472 237.806697 
L 115.09632 237.51028 
L 115.167744 237.62645 
L 115.239168 237.221626 
L 115.310592 237.44065 
L 115.382016 237.276154 
L 115.524864 237.597917 
L 115.596288 237.246791 
L 115.667712 237.335433 
L 115.81056 237.760094 
L 115.953408 237.51229 
L 116.024832 237.591595 
L 116.096256 237.480042 
L 116.16768 237.6897 
L 116.239104 237.070991 
L 116.453376 237.997213 
L 116.596224 237.929683 
L 116.667648 238.059206 
L 116.810496 237.809076 
L 116.88192 237.906817 
L 116.953344 237.824398 
L 117.024768 237.879807 
L 117.096192 237.592752 
L 117.167616 237.779946 
L 117.23904 237.745368 
L 117.310464 237.452712 
L 117.453312 237.743952 
L 117.667584 237.188441 
L 117.810432 237.710566 
L 118.024704 237.368239 
L 118.167552 237.83068 
L 118.3104 237.100297 
L 118.453248 237.491434 
L 118.524672 237.440257 
L 118.66752 237.734913 
L 118.881792 237.132138 
L 119.096064 237.106473 
L 119.167488 236.714573 
L 119.238912 237.630325 
L 119.310336 237.386194 
L 119.524608 237.822091 
L 119.73888 237.825363 
L 119.953152 237.224261 
L 120.024576 237.587365 
L 120.096 237.284217 
L 120.167424 237.669449 
L 120.310272 237.320163 
L 120.381696 237.432201 
L 120.524544 236.913359 
L 120.595968 237.523672 
L 120.738816 236.960189 
L 120.81024 236.872457 
L 120.881664 236.968156 
L 120.953088 237.258544 
L 121.024512 237.137644 
L 121.238784 236.411234 
L 121.310208 237.028295 
L 121.381632 236.995344 
L 121.453056 237.036486 
L 121.52448 236.705055 
L 121.595904 237.404345 
L 121.667328 237.301814 
L 121.810176 236.922973 
L 121.8816 237.118741 
L 121.953024 237.52136 
L 122.024448 237.365291 
L 122.095872 237.187538 
L 122.167296 237.239973 
L 122.310144 237.22851 
L 122.452992 236.192845 
L 122.524416 236.077741 
L 122.59584 236.601432 
L 122.667264 236.531576 
L 122.810112 235.994591 
L 122.881536 236.018068 
L 122.95296 236.389598 
L 123.095808 235.271079 
L 123.167232 235.872639 
L 123.238656 235.667701 
L 123.381504 235.229963 
L 123.452928 234.87885 
L 123.524352 235.286332 
L 123.595776 234.559391 
L 123.738624 235.787903 
L 123.881472 234.463303 
L 124.02432 235.246741 
L 124.167168 233.207376 
L 124.238592 233.937656 
L 124.310016 233.421023 
L 124.38144 234.63282 
L 124.452864 234.397804 
L 124.524288 233.625292 
L 124.595712 233.942838 
L 124.667136 233.545627 
L 124.881408 234.778601 
L 125.024256 234.096262 
L 125.09568 234.994131 
L 125.167104 234.291513 
L 125.238528 234.822315 
L 125.381376 234.183186 
L 125.595648 235.238357 
L 125.667072 235.157564 
L 125.738496 234.990165 
L 125.80992 235.746303 
L 125.952768 233.271552 
L 126.16704 233.761086 
L 126.238464 235.143035 
L 126.381312 234.268728 
L 126.52416 234.009425 
L 126.595584 234.15066 
L 126.88128 236.443335 
L 126.952704 235.992917 
L 127.024128 234.780629 
L 127.166976 235.834281 
L 127.381248 234.194732 
L 127.452672 235.038422 
L 127.524096 234.314221 
L 127.59552 234.692912 
L 127.666944 234.579248 
L 127.809792 235.52508 
L 127.881216 234.09675 
L 127.95264 234.798719 
L 128.024064 235.671601 
L 128.095488 235.603716 
L 128.166912 235.274706 
L 128.381184 236.62533 
L 128.452608 235.777506 
L 128.595456 236.577257 
L 128.66688 236.230531 
L 128.881152 236.910523 
L 129.024 236.405705 
L 129.095424 236.77733 
L 129.166848 235.92768 
L 129.238272 236.188215 
L 129.309696 236.785727 
L 129.38112 236.424568 
L 129.595392 237.001314 
L 129.73824 236.515214 
L 130.023936 236.509952 
L 130.09536 236.771234 
L 130.166784 236.478565 
L 130.523904 237.363111 
L 130.595328 237.041648 
L 130.8096 237.88638 
L 131.238144 237.707436 
L 131.309568 237.996925 
L 131.52384 237.130882 
L 131.666688 237.236786 
L 131.809536 236.688954 
L 131.88096 236.723969 
L 131.952384 236.589109 
L 132.023808 236.630383 
L 132.095232 237.193154 
L 132.166656 237.04178 
L 132.23808 237.010869 
L 132.309504 237.12256 
L 132.380928 236.680327 
L 132.452352 236.858529 
L 132.95232 237.566435 
L 133.023744 237.489237 
L 133.095168 237.32129 
L 133.166592 237.704348 
L 133.238016 237.50017 
L 133.380864 237.690428 
L 133.452288 237.417059 
L 133.66656 237.903838 
L 133.952256 238.133352 
L 134.02368 238.059096 
L 134.095104 238.155393 
L 134.237952 237.713477 
L 134.3808 238.241818 
L 134.666496 237.803739 
L 134.73792 237.970186 
L 135.09504 237.18402 
L 135.166464 237.805989 
L 135.237888 237.636231 
L 135.380736 237.718564 
L 135.737856 237.811231 
L 135.880704 237.237665 
L 135.952128 237.488874 
L 136.023552 237.649131 
L 136.094976 237.314609 
L 136.1664 237.398058 
L 136.380672 237.153181 
L 136.452096 237.619013 
L 136.52352 237.251361 
L 136.594944 237.548478 
L 136.666368 237.280975 
L 136.737792 237.43537 
L 136.809216 237.3909 
L 137.023488 237.926192 
L 137.166336 237.759747 
L 137.309184 237.640013 
L 137.380608 237.358144 
L 137.523456 237.775901 
L 137.59488 237.658685 
L 137.809152 237.381912 
L 137.952 236.997129 
L 138.023424 236.997184 
L 138.094848 236.747843 
L 138.166272 237.337158 
L 138.237696 237.021424 
L 138.380544 236.802076 
L 138.451968 237.196776 
L 138.523392 237.012055 
L 138.66624 237.617671 
L 138.809088 237.006117 
L 138.880512 237.363907 
L 139.094784 235.933297 
L 139.166208 236.176589 
L 139.309056 235.848541 
L 139.451904 236.932715 
L 139.594752 236.972045 
L 139.666176 236.540265 
L 139.7376 236.704485 
L 139.809024 236.501426 
L 139.880448 236.924437 
L 139.951872 236.75502 
L 140.09472 237.094352 
L 140.166144 236.19865 
L 140.237568 236.468653 
L 140.308992 236.530455 
L 140.380416 237.04207 
L 140.45184 236.284595 
L 140.594688 236.71684 
L 140.666112 236.77353 
L 140.737536 236.996027 
L 140.80896 236.392364 
L 140.880384 237.31113 
L 140.951808 237.004777 
L 141.023232 236.857878 
L 141.094656 236.920639 
L 141.308928 237.244235 
L 141.380352 236.87705 
L 141.451776 237.188938 
L 141.5232 236.899496 
L 141.594624 237.407705 
L 141.666048 237.201208 
L 141.737472 237.410545 
L 141.808896 237.370856 
L 141.88032 237.073219 
L 142.23744 237.748738 
L 142.308864 237.724691 
L 142.380288 237.561192 
L 142.523136 237.679169 
L 142.665984 237.846146 
L 142.808832 238.00815 
L 142.880256 237.926652 
L 143.023104 237.96705 
L 143.094528 237.858419 
L 143.165952 237.996463 
L 143.237376 237.841845 
L 143.380224 237.960973 
L 143.737344 238.103866 
L 143.880192 237.972677 
L 143.951616 238.051303 
L 144.02304 237.824418 
L 144.165888 238.006201 
L 144.451584 237.962359 
L 144.73728 237.603594 
L 144.808704 237.656673 
L 144.880128 237.552669 
L 145.022976 237.879084 
L 145.0944 237.646307 
L 145.165824 237.846936 
L 145.237248 237.702598 
L 145.308672 237.955985 
L 145.380096 237.83774 
L 145.522944 238.009269 
L 145.665792 237.550345 
L 145.737216 237.663375 
L 145.80864 237.649397 
L 145.880064 237.867443 
L 145.951488 237.429224 
L 146.022912 237.670362 
L 146.308608 238.126247 
L 146.380032 238.106997 
L 146.451456 238.276939 
L 146.52288 238.221183 
L 146.665728 238.297391 
L 146.737152 238.16242 
L 146.808576 238.242357 
L 146.951424 238.21907 
L 147.379968 237.990822 
L 147.737088 238.110002 
L 148.022784 237.894122 
L 148.094208 237.558406 
L 148.165632 237.673535 
L 148.379904 238.059715 
L 148.6656 237.63058 
L 148.808448 238.01076 
L 148.879872 237.935722 
L 148.951296 237.613406 
L 149.094144 237.859786 
L 149.165568 237.621639 
L 149.236992 237.816392 
L 149.308416 237.71217 
L 149.522688 238.004446 
L 149.665536 237.837553 
L 149.73696 238.034574 
L 150.022656 237.584033 
L 150.09408 237.784036 
L 150.308352 237.282274 
L 150.379776 237.469807 
L 150.4512 237.427459 
L 150.522624 237.479063 
L 150.665472 237.072091 
L 150.736896 237.481716 
L 150.951168 236.634936 
L 151.16544 237.323939 
L 151.236864 236.901276 
L 151.308288 237.020444 
L 151.52256 236.342784 
L 151.665408 236.852614 
L 151.736832 236.771555 
L 151.808256 236.826262 
L 151.87968 236.580631 
L 151.951104 235.774011 
L 152.022528 236.428977 
L 152.093952 236.245067 
L 152.308224 236.065694 
L 152.451072 234.111591 
L 152.522496 235.089926 
L 152.59392 235.688275 
L 152.665344 235.087406 
L 152.808192 235.818597 
L 152.879616 235.271475 
L 153.093888 236.499523 
L 153.236736 236.321452 
L 153.30816 234.564678 
L 153.379584 234.839406 
L 153.593856 235.840506 
L 153.66528 235.318908 
L 153.736704 236.348567 
L 153.879552 235.34619 
L 154.0224 235.977643 
L 154.093824 234.966438 
L 154.165248 235.018102 
L 154.236672 234.575004 
L 154.450944 236.181841 
L 154.522368 236.137375 
L 154.73664 235.586109 
L 154.950912 235.93189 
L 155.09376 234.875493 
L 155.165184 236.010293 
L 155.236608 235.722758 
L 155.308032 235.008216 
L 155.45088 235.965384 
L 155.593728 235.116061 
L 155.665152 235.450579 
L 155.736576 236.091031 
L 156.022272 234.386262 
L 156.093696 235.345664 
L 156.16512 234.82539 
L 156.307968 233.483305 
L 156.52224 235.729399 
L 156.736512 235.546655 
L 156.807936 235.568629 
L 156.87936 234.730697 
L 157.022208 235.915319 
L 157.093632 235.419131 
L 157.165056 235.539166 
L 157.379328 236.785443 
L 157.450752 235.974219 
L 157.522176 236.015956 
L 157.5936 236.624878 
L 157.665024 236.103735 
L 157.736448 236.196693 
L 157.879296 235.899002 
L 158.093568 236.398488 
L 158.164992 236.532003 
L 158.236416 236.021862 
L 158.30784 236.573355 
L 158.379264 236.364542 
L 158.66496 237.44098 
L 158.807808 237.312801 
L 158.879232 237.160487 
L 159.02208 237.468174 
L 159.093504 237.441949 
L 159.236352 236.789053 
L 159.307776 237.366045 
L 159.3792 236.758551 
L 159.450624 236.874542 
L 159.593472 236.450678 
L 159.664896 237.059145 
L 159.73632 236.795219 
L 159.879168 236.955405 
L 159.950592 236.575691 
L 160.022016 236.853946 
L 160.236288 236.102528 
L 160.379136 236.410526 
L 160.45056 236.280007 
L 160.521984 236.881344 
L 160.664832 236.384056 
L 160.736256 236.389319 
L 160.80768 236.224333 
L 161.021952 236.64258 
L 161.093376 236.001626 
L 161.1648 237.240214 
L 161.236224 237.162799 
L 161.379072 237.43453 
L 161.450496 237.376235 
L 161.593344 237.074686 
L 161.664768 237.22305 
L 161.736192 236.777117 
L 161.807616 237.093256 
L 161.950464 236.661999 
L 162.021888 236.707817 
L 162.164736 237.025438 
L 162.23616 237.564361 
L 162.307584 237.273259 
L 162.379008 237.187781 
L 162.450432 237.370134 
L 162.59328 236.597166 
L 162.736128 237.061969 
L 162.807552 236.791718 
L 162.878976 237.127333 
L 162.9504 237.014388 
L 163.021824 236.701456 
L 163.164672 237.417702 
L 163.236096 237.035058 
L 163.30752 237.503361 
L 163.378944 237.203071 
L 163.450368 237.259793 
L 163.521792 237.519365 
L 163.593216 237.404302 
L 163.736064 237.002213 
L 163.950336 237.329284 
L 164.093184 236.572277 
L 164.164608 236.605636 
L 164.236032 236.842558 
L 164.307456 237.505608 
L 164.37888 237.379481 
L 164.450304 237.547201 
L 164.521728 237.059276 
L 164.593152 237.314954 
L 164.664576 237.674207 
L 164.807424 237.37872 
L 164.878848 237.545633 
L 164.950272 237.465061 
L 165.021696 237.431601 
L 165.235968 237.776816 
L 165.307392 237.731194 
L 165.378816 237.506397 
L 165.45024 237.592855 
L 165.664512 237.840329 
L 165.878784 237.00245 
L 165.950208 237.707931 
L 166.021632 237.382997 
L 166.16448 237.633188 
L 166.235904 237.364922 
L 166.307328 237.508178 
L 166.807296 236.618889 
L 166.87872 236.822183 
L 167.307264 237.545762 
L 167.378688 236.93194 
L 167.450112 237.234191 
L 167.521536 237.29975 
L 167.59296 237.155971 
L 167.735808 237.480792 
L 167.807232 237.433922 
L 167.878656 237.009442 
L 167.95008 237.116374 
L 168.021504 237.315537 
L 168.092928 237.169146 
L 168.235776 237.617908 
L 168.3072 236.899975 
L 168.378624 237.529164 
L 168.450048 236.966774 
L 168.521472 237.166515 
L 168.592896 236.940417 
L 168.807168 237.359265 
L 168.878592 237.231817 
L 169.092864 237.620955 
L 169.307136 237.925073 
L 169.521408 238.074367 
L 169.664256 237.993977 
L 169.73568 238.049381 
L 169.949952 237.74523 
L 170.021376 237.724358 
L 170.0928 237.878979 
L 170.378496 237.496707 
L 170.521344 237.811423 
L 170.664192 237.650191 
L 170.949888 237.824933 
L 171.021312 237.791747 
L 171.092736 238.000345 
L 171.16416 237.956425 
L 171.378432 237.695915 
L 171.52128 238.042318 
L 171.592704 237.923207 
L 171.735552 238.06238 
L 171.806976 237.924226 
L 171.8784 237.965862 
L 172.021248 238.005578 
L 172.164096 237.982345 
L 172.23552 238.084338 
L 172.306944 237.847479 
L 172.378368 237.922556 
L 172.521216 238.18147 
L 172.59264 238.089458 
L 172.735488 238.136022 
L 172.94976 237.972953 
L 173.021184 238.029609 
L 173.092608 237.939554 
L 173.235456 238.164527 
L 173.378304 238.131012 
L 173.449728 238.021386 
L 173.592576 238.218681 
L 173.664 238.006926 
L 173.735424 238.197772 
L 173.878272 237.825848 
L 173.949696 237.941414 
L 174.163968 237.448558 
L 174.235392 237.62872 
L 174.306816 237.132423 
L 174.449664 237.714424 
L 174.663936 237.46902 
L 174.806784 237.809133 
L 174.949632 237.574443 
L 175.163904 237.859647 
L 175.235328 237.848455 
L 175.378176 237.932783 
L 175.4496 237.772204 
L 175.521024 237.811213 
L 175.592448 237.929176 
L 175.663872 237.470387 
L 175.735296 237.607219 
L 175.878144 237.493306 
L 176.16384 238.035497 
L 176.306688 238.186559 
L 176.378112 238.060984 
L 176.592384 237.730935 
L 176.806656 238.048981 
L 177.020928 237.963195 
L 177.092352 237.507999 
L 177.163776 237.792023 
L 177.2352 237.715823 
L 177.449472 237.111036 
L 177.59232 237.269994 
L 177.735168 237.906241 
L 177.878016 237.571908 
L 177.94944 237.570905 
L 178.092288 237.166068 
L 178.377984 237.95985 
L 178.592256 237.874549 
L 178.66368 237.717135 
L 178.877952 237.8868 
L 179.37792 237.130507 
L 179.520768 237.544602 
L 179.592192 237.494126 
L 179.663616 237.853207 
L 179.73504 237.622626 
L 179.877888 237.804702 
L 179.949312 237.78737 
L 180.020736 237.551242 
L 180.235008 237.93825 
L 180.306432 237.683741 
L 180.377856 237.788816 
L 180.8064 238.190122 
L 180.877824 238.006961 
L 180.949248 238.13237 
L 181.16352 237.596131 
L 181.234944 237.669651 
L 181.306368 237.507988 
L 181.377792 237.584285 
L 181.449216 237.645902 
L 181.52064 237.195969 
L 181.592064 237.398755 
L 181.663488 237.737486 
L 181.734912 237.657183 
L 181.87776 237.219693 
L 181.949184 237.354041 
L 182.092032 237.370694 
L 182.163456 237.782569 
L 182.23488 237.618647 
L 182.306304 237.635549 
L 182.449152 237.937751 
L 182.592 237.840524 
L 182.663424 237.824733 
L 182.734848 237.419916 
L 182.806272 237.668981 
L 182.877696 237.528383 
L 183.091968 237.764123 
L 183.449088 237.67617 
L 183.520512 237.955408 
L 183.591936 237.843792 
L 183.734784 237.09486 
L 183.806208 237.356954 
L 183.877632 237.489242 
L 183.949056 237.133125 
L 184.02048 237.458877 
L 184.091904 237.341865 
L 184.234752 237.09769 
L 184.306176 237.452166 
L 184.3776 237.325521 
L 184.449024 237.087093 
L 184.520448 237.492971 
L 184.591872 237.410105 
L 184.73472 237.522834 
L 184.877568 236.919114 
L 184.948992 236.796082 
L 185.020416 236.879355 
L 185.163264 237.847742 
L 185.234688 237.631376 
L 185.377536 237.849399 
L 185.520384 237.363183 
L 185.663232 237.356047 
L 185.734656 237.383906 
L 185.80608 236.781711 
L 186.091776 237.822928 
L 186.1632 237.480354 
L 186.234624 237.631387 
L 186.52032 237.469082 
L 186.591744 237.814915 
L 186.663168 237.358083 
L 186.734592 237.435628 
L 186.806016 237.827336 
L 186.87744 237.653904 
L 187.020288 237.625457 
L 187.091712 237.418508 
L 187.23456 237.800448 
L 187.377408 237.207843 
L 187.448832 237.356427 
L 187.520256 237.640974 
L 187.59168 237.506428 
L 187.734528 237.382008 
L 187.877376 237.327407 
L 188.020224 237.356492 
L 188.30592 237.76119 
L 188.520192 237.360357 
L 188.591616 237.513747 
L 188.66304 237.474143 
L 188.805888 236.626032 
L 188.948736 236.709995 
L 189.02016 236.581205 
L 189.163008 235.777141 
L 189.305856 236.88074 
L 189.37728 236.870542 
L 189.448704 235.942186 
L 189.520128 235.950315 
L 189.591552 236.517244 
L 189.662976 236.46577 
L 189.7344 236.593279 
L 189.805824 236.231096 
L 189.877248 236.325598 
L 190.020096 236.677671 
L 190.09152 236.795151 
L 190.162944 236.711358 
L 190.234368 236.5308 
L 190.305792 236.802075 
L 190.377216 235.681393 
L 190.44864 236.393035 
L 190.520064 235.908208 
L 190.734336 237.270052 
L 190.80576 237.323372 
L 190.877184 237.206904 
L 190.948608 236.873213 
L 191.020032 236.983333 
L 191.16288 236.77076 
L 191.305728 236.235134 
L 191.448576 236.407455 
L 191.591424 235.88828 
L 191.734272 236.537034 
L 191.948544 237.12842 
L 192.019968 236.996348 
L 192.23424 236.211173 
L 192.448512 237.135716 
L 192.59136 235.953416 
L 192.805632 236.952144 
L 192.877056 236.506691 
L 192.94848 236.817438 
L 193.091328 235.682995 
L 193.162752 235.745816 
L 193.377024 236.639229 
L 193.448448 235.826753 
L 193.591296 236.643545 
L 193.66272 236.005952 
L 193.948416 236.956143 
L 194.01984 236.160234 
L 194.162688 237.116374 
L 194.234112 237.201266 
L 194.305536 236.423158 
L 194.37696 237.30339 
L 194.519808 236.171704 
L 194.591232 237.150128 
L 194.662656 236.792164 
L 194.73408 237.018679 
L 194.876928 236.458221 
L 194.948352 236.901481 
L 195.0912 236.587446 
L 195.234048 237.011767 
L 195.376896 236.325993 
L 195.519744 236.956554 
L 195.662592 237.020475 
L 195.734016 236.590538 
L 195.80544 237.314202 
L 195.876864 237.305784 
L 196.019712 237.435765 
L 196.091136 237.526102 
L 196.16256 237.222214 
L 196.233984 237.585315 
L 196.305408 237.410013 
L 196.51968 237.029523 
L 196.591104 237.038793 
L 196.662528 236.895145 
L 196.805376 237.415397 
L 196.8768 237.065278 
L 196.948224 237.336093 
L 197.019648 237.176054 
L 197.091072 237.327108 
L 197.162496 236.854293 
L 197.23392 237.178771 
L 197.305344 236.488821 
L 197.376768 236.597607 
L 197.448192 236.731411 
L 197.519616 237.209929 
L 197.733888 236.387022 
L 197.805312 236.446182 
L 197.876736 236.3095 
L 197.94816 236.379653 
L 198.162432 235.189476 
L 198.448128 236.305593 
L 198.519552 236.23856 
L 198.6624 236.834827 
L 198.733824 236.653235 
L 198.876672 237.112012 
L 198.948096 236.878808 
L 199.01952 237.060705 
L 199.090944 237.025767 
L 199.162368 236.533317 
L 199.233792 237.088337 
L 199.305216 237.046096 
L 199.448064 237.307919 
L 199.662336 237.093158 
L 199.73376 237.334374 
L 199.805184 237.249788 
L 199.876608 237.063743 
L 199.948032 237.098622 
L 200.019456 237.21499 
L 200.09088 237.104192 
L 200.162304 237.388009 
L 200.376576 236.938142 
L 200.448 237.261355 
L 200.519424 237.100545 
L 200.590848 236.020996 
L 200.662272 236.421404 
L 200.733696 236.748031 
L 200.80512 236.526136 
L 200.876544 236.598344 
L 200.947968 236.528334 
L 201.019392 235.825174 
L 201.090816 236.132814 
L 201.16224 235.743779 
L 201.590784 237.276615 
L 201.87648 237.674221 
L 202.019328 237.130864 
L 202.162176 237.761607 
L 202.305024 237.194941 
L 202.376448 237.238467 
L 202.519296 237.689514 
L 202.59072 237.606189 
L 202.733568 237.299082 
L 202.804992 236.450955 
L 202.876416 237.061315 
L 202.94784 236.89936 
L 203.019264 236.886051 
L 203.090688 237.330729 
L 203.162112 237.141286 
L 203.30496 237.22721 
L 203.376384 237.590576 
L 203.447808 237.520012 
L 203.590656 237.657998 
L 203.66208 237.502297 
L 203.733504 237.579354 
L 204.0192 237.211753 
L 204.162048 236.512819 
L 204.37632 237.300356 
L 204.519168 236.802753 
L 204.662016 237.548263 
L 204.73344 237.397769 
L 204.804864 237.756 
L 204.876288 237.351435 
L 204.947712 237.471627 
L 205.019136 237.723244 
L 205.09056 237.461965 
L 205.161984 237.55686 
L 205.233408 237.690148 
L 205.304832 237.09388 
L 205.376256 237.532461 
L 205.519104 236.992978 
L 205.733376 237.680262 
L 205.8048 237.636386 
L 206.019072 237.964308 
L 206.304768 237.292392 
L 206.51904 237.850683 
L 206.590464 237.952539 
L 206.804736 237.570751 
L 206.87616 237.790111 
L 206.947584 237.327609 
L 207.019008 237.505041 
L 207.161856 237.512467 
L 207.23328 237.824863 
L 207.304704 237.77812 
L 207.447552 237.331662 
L 207.5904 237.782278 
L 207.804672 237.626816 
L 207.876096 237.550731 
L 207.94752 237.96043 
L 208.018944 237.811086 
L 208.090368 237.736706 
L 208.161792 237.86316 
L 208.30464 237.244544 
L 208.376064 237.504409 
L 208.518912 237.85791 
L 208.66176 237.533401 
L 208.733184 237.827883 
L 208.876032 237.552999 
L 209.090304 237.858487 
L 209.304576 237.608226 
L 209.447424 237.568633 
L 209.518848 237.537118 
L 209.73312 237.040004 
L 209.804544 237.102178 
L 209.875968 237.633288 
L 209.947392 237.151894 
L 210.09024 237.70365 
L 210.233088 237.300891 
L 210.375936 237.349914 
L 210.590208 237.909062 
L 210.733056 237.620028 
L 210.80448 237.402154 
L 211.018752 237.836761 
L 211.233024 237.535501 
L 211.304448 237.762148 
L 211.375872 237.223251 
L 211.447296 237.287274 
L 211.51872 237.199759 
L 211.732992 237.677337 
L 211.804416 237.311983 
L 211.87584 237.598069 
L 211.947264 237.401798 
L 212.018688 237.646681 
L 212.161536 237.347656 
L 212.23296 237.695363 
L 212.304384 237.373436 
L 212.375808 237.5289 
L 212.447232 237.798621 
L 212.875776 237.052885 
L 213.018624 237.414594 
L 213.090048 237.381694 
L 213.232896 236.964139 
L 213.375744 237.20301 
L 213.518592 237.591111 
L 213.590016 237.703473 
L 213.66144 237.225552 
L 213.732864 237.249931 
L 213.804288 237.324035 
L 213.875712 237.725148 
L 213.947136 237.217667 
L 214.01856 237.424222 
L 214.161408 237.48639 
L 214.232832 237.157384 
L 214.37568 237.51217 
L 214.447104 237.221761 
L 214.518528 237.389934 
L 214.661376 237.837244 
L 214.7328 237.491367 
L 214.804224 237.673961 
L 214.875648 237.743041 
L 215.44704 236.623246 
L 215.518464 237.225567 
L 215.732736 236.178593 
L 215.80416 236.37158 
L 215.947008 236.063921 
L 216.089856 236.925193 
L 216.16128 236.831142 
L 216.232704 237.465077 
L 216.304128 236.787785 
L 216.375552 236.942872 
L 216.446976 236.6896 
L 216.5184 236.751691 
L 216.589824 237.358103 
L 216.661248 236.967577 
L 216.87552 237.400158 
L 217.018368 237.073592 
L 217.089792 237.51403 
L 217.161216 237.440644 
L 217.304064 237.531422 
L 217.375488 237.260092 
L 217.446912 237.492745 
L 217.58976 237.226929 
L 217.661184 237.609828 
L 217.732608 237.075222 
L 217.804032 237.360916 
L 217.875456 237.46412 
L 217.94688 237.37216 
L 218.304 237.561889 
L 218.518272 237.429891 
L 218.589696 237.626753 
L 218.66112 237.294659 
L 218.732544 237.853804 
L 218.803968 237.771904 
L 218.875392 237.665948 
L 219.01824 237.910644 
L 219.161088 237.752438 
L 219.232512 237.880757 
L 219.303936 237.552191 
L 219.37536 237.722047 
L 219.446784 237.687785 
L 219.518208 237.404383 
L 219.589632 237.448178 
L 219.661056 237.730458 
L 219.73248 237.580747 
L 219.803904 237.515339 
L 219.946752 237.844085 
L 220.018176 237.576478 
L 220.0896 237.678761 
L 220.161024 237.531626 
L 220.303872 237.750727 
L 220.375296 237.607868 
L 220.44672 237.706684 
L 220.518144 237.851684 
L 220.660992 237.49031 
L 220.732416 237.543842 
L 220.80384 237.426954 
L 220.875264 237.54523 
L 220.946688 237.242104 
L 221.018112 237.51299 
L 221.16096 237.056923 
L 221.232384 237.372504 
L 221.303808 237.303109 
L 221.375232 236.909745 
L 221.589504 237.572869 
L 221.660928 237.098408 
L 221.732352 237.309456 
L 221.803776 237.583339 
L 222.018048 237.233224 
L 222.446592 237.746124 
L 222.518016 237.748655 
L 222.660864 237.380944 
L 222.732288 237.612077 
L 222.94656 237.109412 
L 223.017984 237.520448 
L 223.089408 237.360765 
L 223.160832 237.536382 
L 223.517952 236.786074 
L 223.6608 236.883017 
L 223.732224 236.90283 
L 223.803648 236.382186 
L 223.875072 236.412152 
L 223.946496 236.783708 
L 224.01792 236.307527 
L 224.089344 236.671817 
L 224.232192 236.219768 
L 224.303616 236.461725 
L 224.37504 236.267687 
L 224.446464 235.288484 
L 224.589312 236.565444 
L 224.660736 236.569974 
L 224.875008 235.128239 
L 224.946432 235.855169 
L 225.017856 235.682592 
L 225.160704 236.188293 
L 225.232128 235.76689 
L 225.303552 235.878078 
L 225.4464 236.757164 
L 225.517824 236.035742 
L 225.589248 236.425842 
L 225.732096 235.981412 
L 225.80352 236.50387 
L 225.874944 236.214315 
L 226.017792 235.848752 
L 226.089216 236.100898 
L 226.232064 235.77523 
L 226.303488 236.509009 
L 226.374912 235.562457 
L 226.446336 235.633867 
L 226.51776 235.446587 
L 226.660608 236.021381 
L 226.732032 235.237962 
L 226.803456 235.333097 
L 226.87488 235.346489 
L 227.017728 234.418324 
L 227.089152 235.321903 
L 227.160576 234.686537 
L 227.232 235.192537 
L 227.374848 234.150684 
L 227.517696 235.757062 
L 227.58912 234.578549 
L 227.731968 236.01308 
L 227.874816 234.614531 
L 227.94624 234.738052 
L 228.017664 235.415853 
L 228.089088 233.828848 
L 228.30336 235.529805 
L 228.446208 235.915037 
L 228.517632 235.977506 
L 228.589056 234.95989 
L 228.66048 235.724147 
L 228.731904 235.400999 
L 228.803328 235.85769 
L 228.946176 235.281459 
L 229.0176 235.228485 
L 229.089024 235.457047 
L 229.160448 236.268883 
L 229.231872 236.048107 
L 229.303296 235.761259 
L 229.37472 236.133336 
L 229.517568 235.208322 
L 229.874688 235.756862 
L 229.946112 236.365863 
L 230.017536 235.789626 
L 230.08896 236.028493 
L 230.160384 235.753405 
L 230.231808 236.155497 
L 230.303232 236.083205 
L 230.374656 234.79932 
L 230.44608 235.685863 
L 230.517504 235.609286 
L 230.660352 234.600956 
L 230.731776 235.786754 
L 230.8032 234.981551 
L 230.946048 236.364043 
L 231.017472 235.416897 
L 231.088896 235.648981 
L 231.16032 235.598274 
L 231.231744 235.803413 
L 231.303168 235.711131 
L 231.374592 235.571685 
L 231.446016 235.069391 
L 231.51744 235.693076 
L 231.588864 235.666501 
L 231.731712 234.345759 
L 231.87456 235.510616 
L 232.017408 233.935237 
L 232.088832 235.372418 
L 232.160256 235.123728 
L 232.374528 235.599484 
L 232.517376 234.603747 
L 232.5888 235.519226 
L 232.660224 235.040891 
L 232.731648 235.02542 
L 232.94592 236.766344 
L 233.160192 236.176338 
L 233.30304 236.952057 
L 233.445888 236.174134 
L 233.517312 236.212235 
L 233.588736 236.004443 
L 233.66016 234.470005 
L 233.731584 234.574032 
L 233.945856 236.2643 
L 234.01728 236.171297 
L 234.160128 235.862666 
L 234.302976 235.773329 
L 234.3744 234.979562 
L 234.445824 235.829342 
L 234.517248 234.301336 
L 234.588672 236.074933 
L 234.660096 234.669162 
L 234.73152 235.113229 
L 234.874368 236.657944 
L 235.08864 236.161722 
L 235.160064 236.678205 
L 235.302912 235.657445 
L 235.44576 236.698816 
L 235.517184 235.680601 
L 235.588608 235.778528 
L 235.660032 235.465555 
L 235.731456 236.228859 
L 235.80288 235.872166 
L 236.017152 236.764837 
L 236.088576 235.915377 
L 236.302848 237.169626 
L 236.374272 236.999199 
L 237.017088 238.339114 
L 237.302784 238.394854 
L 238.159872 238.505273 
L 238.374144 238.678445 
L 238.516992 238.721528 
L 238.588416 238.676945 
L 239.159808 240.981519 
L 239.37408 243.672252 
L 239.945472 267.6409 
L 240.08832 291.961048 
L 240.325567 346.6 
M 242.656734 346.6 
L 242.802432 298.420008 
L 243.230976 245.331154 
L 243.445248 239.274189 
L 243.588096 238.596944 
L 243.802368 238.398196 
L 244.445184 238.328767 
L 244.588032 238.048491 
L 244.802304 236.793085 
L 245.016576 233.575893 
L 245.159424 230.423347 
L 245.516544 209.37608 
L 245.587968 207.840312 
L 246.230784 149.155327 
L 246.696852 -1 
M 250.381731 -1 
L 250.587648 71.417581 
L 250.730496 79.764694 
L 250.80192 78.965222 
L 250.873344 55.428031 
L 250.944768 58.172275 
L 251.087616 85.676636 
L 251.230464 63.933845 
L 251.301888 82.848501 
L 251.51616 60.264221 
L 251.587584 86.069743 
L 251.659008 69.629575 
L 251.730432 91.778441 
L 251.801856 79.371809 
L 251.944704 121.729037 
L 252.016128 121.180592 
L 252.087552 117.843209 
L 252.2304 141.862276 
L 252.301824 132.596625 
L 252.373248 135.875181 
L 252.444672 153.294083 
L 252.516096 145.054657 
L 252.58752 142.327202 
L 252.94464 191.710408 
L 253.016064 186.161149 
L 253.158912 177.511405 
L 253.230336 169.215211 
L 253.30176 176.971584 
L 253.373184 176.961191 
L 253.444608 167.589982 
L 253.516032 170.000637 
L 253.873152 191.942834 
L 253.944576 198.989549 
L 254.016 196.820138 
L 254.158848 205.840483 
L 254.37312 193.142988 
L 254.444544 191.383477 
L 254.587392 198.764784 
L 254.658816 207.184412 
L 254.73024 204.739784 
L 254.801664 210.255891 
L 254.873088 201.206136 
L 254.944512 210.568772 
L 255.015936 206.820844 
L 255.230208 196.783669 
L 255.301632 195.379442 
L 255.373056 190.983271 
L 255.44448 191.747617 
L 255.515904 190.064021 
L 255.587328 192.452628 
L 255.658752 191.551103 
L 255.730176 191.644465 
L 255.8016 193.065081 
L 255.944448 189.234081 
L 256.087296 174.827018 
L 256.15872 182.058838 
L 256.230144 181.404082 
L 256.301568 181.468593 
L 256.372992 184.233992 
L 256.587264 176.73096 
L 256.658688 161.011354 
L 256.730112 165.067955 
L 256.801536 157.221935 
L 256.87296 157.646264 
L 256.944384 154.584088 
L 257.015808 161.059332 
L 257.087232 148.902091 
L 257.158656 160.148506 
L 257.23008 155.175404 
L 257.444352 119.055659 
L 257.515776 130.071217 
L 257.658624 87.551867 
L 257.872896 54.781694 
L 257.94432 68.400322 
L 258.015744 66.201729 
L 258.087168 67.211082 
L 258.158592 65.85732 
L 258.372864 18.698344 
L 258.444288 34.562392 
L 258.587136 3.629701 
L 258.65856 3.12217 
L 258.66969 -1 
M 265.711432 -1 
L 265.729536 11.338584 
L 265.80096 -0.8311 
L 265.943808 13.946073 
L 266.015232 42.393486 
L 266.086656 25.214712 
L 266.15808 31.101973 
L 266.443776 85.856918 
L 266.5152 83.496464 
L 266.729472 66.737825 
L 266.943744 109.672124 
L 267.015168 85.519563 
L 267.086592 93.080909 
L 267.158016 119.958438 
L 267.22944 106.671935 
L 267.300864 97.851428 
L 267.372288 97.995607 
L 267.443712 112.692746 
L 267.515136 108.216852 
L 267.58656 116.540573 
L 267.657984 109.631908 
L 267.800832 135.590386 
L 267.94368 118.582913 
L 268.015104 123.871098 
L 268.229376 154.422961 
L 268.3008 147.451882 
L 268.443648 175.001893 
L 268.515072 157.407422 
L 268.65792 171.557726 
L 268.729344 171.994197 
L 268.800768 171.073583 
L 268.943616 186.214043 
L 269.01504 185.465713 
L 269.229312 166.243104 
L 269.37216 178.103672 
L 269.443584 171.171292 
L 269.515008 171.775328 
L 269.586432 171.486622 
L 269.657856 175.529442 
L 269.72928 168.854731 
L 269.872128 180.597572 
L 270.157824 153.386234 
L 270.229248 178.73301 
L 270.300672 175.142093 
L 270.372096 167.717762 
L 270.44352 178.238744 
L 270.514944 167.571076 
L 270.586368 171.955656 
L 270.729216 162.584582 
L 270.872064 176.328377 
L 270.943488 176.489987 
L 271.014912 166.800015 
L 271.086336 169.232067 
L 271.15776 177.267451 
L 271.372032 158.361656 
L 271.443456 168.237889 
L 271.51488 162.651528 
L 271.586304 174.591484 
L 271.657728 174.074441 
L 271.729152 174.492818 
L 271.800576 173.320834 
L 271.943424 194.93289 
L 272.086272 186.721616 
L 272.157696 187.817776 
L 272.371968 175.600262 
L 272.514816 180.304213 
L 272.58624 168.532803 
L 272.657664 169.216638 
L 272.729088 171.695326 
L 272.871936 184.140392 
L 272.94336 175.707628 
L 273.014784 178.183933 
L 273.229056 160.442158 
L 273.30048 165.386071 
L 273.371904 168.573954 
L 273.6576 131.685989 
L 273.729024 142.2378 
L 273.800448 129.860334 
L 273.871872 133.754362 
L 273.943296 142.240598 
L 274.01472 141.041626 
L 274.086144 140.416611 
L 274.157568 148.855642 
L 274.228992 143.077633 
L 274.37184 164.082576 
L 274.514688 138.763869 
L 274.657536 156.229159 
L 274.72896 135.861727 
L 274.871808 155.142456 
L 275.014656 137.428897 
L 275.08608 141.848939 
L 275.157504 128.399981 
L 275.228928 131.503379 
L 275.300352 124.82229 
L 275.514624 150.554722 
L 275.586048 147.105179 
L 275.657472 129.79403 
L 275.80032 154.54943 
L 275.871744 135.346886 
L 275.943168 147.927514 
L 276.228864 125.230272 
L 276.300288 126.184492 
L 276.443136 120.040247 
L 276.51456 112.427422 
L 276.585984 126.783159 
L 276.657408 102.922484 
L 276.728832 122.933572 
L 276.87168 93.645996 
L 276.943104 114.872716 
L 277.014528 105.752707 
L 277.157376 88.253623 
L 277.300224 95.533128 
L 277.371648 124.538156 
L 277.443072 103.873445 
L 277.514496 107.103923 
L 277.58592 107.428782 
L 277.657344 104.955093 
L 277.728768 106.666173 
L 277.800192 113.05267 
L 277.871616 84.962861 
L 277.94304 85.133029 
L 278.085888 79.228054 
L 278.371584 120.162961 
L 278.443008 105.284897 
L 278.514432 124.688438 
L 278.585856 120.421773 
L 278.65728 127.207598 
L 278.800128 118.854705 
L 278.871552 117.193745 
L 278.942976 92.765227 
L 279.0144 120.124952 
L 279.157248 99.353066 
L 279.228672 108.305283 
L 279.300096 74.820541 
L 279.37152 83.909509 
L 279.442944 79.882822 
L 279.514368 83.814809 
L 279.72864 107.820417 
L 279.800064 103.488478 
L 280.014336 121.71069 
L 280.08576 127.044931 
L 280.157184 107.316273 
L 280.228608 118.641207 
L 280.300032 98.416526 
L 280.514304 123.902702 
L 280.585728 123.373344 
L 280.728576 103.176575 
L 280.8 132.344749 
L 280.871424 111.883257 
L 280.942848 121.622322 
L 281.014272 118.305171 
L 281.085696 131.52929 
L 281.15712 121.738197 
L 281.299968 129.52818 
L 281.585664 108.415026 
L 281.799936 137.777484 
L 281.87136 121.842979 
L 281.942784 135.996279 
L 282.085632 113.242101 
L 282.22848 129.391757 
L 282.299904 122.771618 
L 282.442752 140.70869 
L 282.728448 89.067627 
L 282.871296 84.876356 
L 282.94272 107.08941 
L 283.014144 106.859222 
L 283.085568 112.529685 
L 283.156992 98.163569 
L 283.228416 106.01666 
L 283.29984 116.918943 
L 283.371264 85.786235 
L 283.442688 105.464602 
L 283.514112 97.221813 
L 283.585536 98.805636 
L 283.65696 123.454345 
L 283.728384 122.567105 
L 283.799808 115.062549 
L 283.871232 126.261805 
L 284.01408 87.649668 
L 284.085504 103.764162 
L 284.3712 144.182835 
L 284.442624 136.282424 
L 284.514048 144.350078 
L 284.799744 112.402192 
L 285.014016 142.062968 
L 285.08544 135.279132 
L 285.156864 160.435296 
L 285.228288 138.087954 
L 285.299712 140.78544 
L 285.371136 132.56479 
L 285.44256 135.444445 
L 285.513984 135.307957 
L 285.585408 144.511583 
L 285.656832 126.84899 
L 285.728256 128.335539 
L 285.79968 124.234674 
L 285.942528 142.884011 
L 286.013952 122.607709 
L 286.085376 131.826029 
L 286.1568 126.522359 
L 286.228224 130.960092 
L 286.371072 125.222436 
L 286.51392 138.463352 
L 286.585344 132.651526 
L 286.656768 134.678459 
L 286.799616 153.58683 
L 286.87104 151.682322 
L 286.942464 146.268043 
L 287.085312 157.598156 
L 287.156736 142.084282 
L 287.22816 146.7111 
L 287.299584 148.084852 
L 287.513856 129.554202 
L 287.58528 134.887949 
L 287.799552 121.84695 
L 287.9424 132.99379 
L 288.085248 108.145995 
L 288.228096 119.160979 
L 288.29952 129.139882 
L 288.442368 100.335943 
L 288.585216 108.909497 
L 288.799488 123.853755 
L 288.942336 115.184947 
L 289.01376 117.744003 
L 289.085184 133.280839 
L 289.228032 107.407672 
L 289.299456 115.768203 
L 289.37088 137.075814 
L 289.442304 126.805384 
L 289.585152 135.83469 
L 289.799424 106.378205 
L 289.870848 111.738766 
L 289.942272 107.86425 
L 290.156544 133.630051 
L 290.227968 116.773039 
L 290.370816 130.890624 
L 290.513664 97.690806 
L 290.585088 126.144858 
L 290.656512 114.403524 
L 290.79936 124.740843 
L 290.942208 100.181813 
L 291.013632 107.472335 
L 291.085056 84.875791 
L 291.227904 132.584999 
L 291.442176 111.903748 
L 291.656448 137.862715 
L 291.727872 134.113698 
L 291.87072 120.575483 
L 291.942144 128.164572 
L 292.013568 121.038151 
L 292.084992 97.148217 
L 292.156416 101.511787 
L 292.22784 97.653666 
L 292.370688 127.640096 
L 292.513536 116.585719 
L 292.727808 100.203745 
L 292.870656 116.614378 
L 292.94208 113.53147 
L 293.013504 103.988791 
L 293.084928 108.274952 
L 293.156352 102.754651 
L 293.2992 125.099383 
L 293.442048 111.638352 
L 293.513472 120.110061 
L 293.584896 117.636577 
L 293.65632 121.39679 
L 293.870592 148.527269 
L 294.01344 139.433538 
L 294.084864 139.897674 
L 294.156288 132.652905 
L 294.227712 144.600883 
L 294.37056 119.009793 
L 294.441984 136.220619 
L 294.513408 132.975374 
L 294.656256 136.759732 
L 294.72768 136.067098 
L 294.799104 137.139527 
L 294.870528 142.612035 
L 294.941952 160.746945 
L 295.013376 151.191967 
L 295.0848 137.216809 
L 295.156224 146.955764 
L 295.227648 142.05226 
L 295.370496 122.489025 
L 295.44192 142.179174 
L 295.513344 137.59072 
L 295.584768 133.468805 
L 295.656192 142.866571 
L 296.084736 109.371727 
L 296.15616 120.250005 
L 296.299008 99.738682 
L 296.370432 100.839435 
L 296.51328 115.35018 
L 296.656128 95.788364 
L 296.798976 110.499769 
L 296.941824 80.072885 
L 297.013248 83.948561 
L 297.084672 109.80332 
L 297.156096 105.599728 
L 297.22752 94.167915 
L 297.298944 117.161225 
L 297.370368 107.250812 
L 297.441792 105.881192 
L 297.513216 117.480081 
L 297.58464 112.136723 
L 297.656064 114.19564 
L 297.870336 86.739807 
L 297.94176 123.362528 
L 298.013184 102.000872 
L 298.084608 123.514254 
L 298.227456 82.326247 
L 298.370304 121.762049 
L 298.513152 112.870469 
L 298.584576 126.419265 
L 298.656 122.50438 
L 298.941696 147.985839 
L 299.01312 111.238433 
L 299.084544 123.872941 
L 299.298816 105.804989 
L 299.37024 115.881832 
L 299.441664 90.80772 
L 299.513088 96.96889 
L 299.584512 105.387205 
L 299.655936 103.505653 
L 299.798784 96.922293 
L 299.870208 99.132122 
L 299.941632 96.252874 
L 300.013056 116.492047 
L 300.08448 109.834318 
L 300.155904 97.238238 
L 300.370176 131.477569 
L 300.4416 131.972142 
L 300.584448 146.904036 
L 300.727296 119.628641 
L 300.79872 145.04827 
L 300.870144 137.600687 
L 300.941568 122.864215 
L 301.012992 129.634202 
L 301.15584 137.17086 
L 301.227264 135.73253 
L 301.298688 147.266624 
L 301.370112 134.486739 
L 301.441536 141.791281 
L 301.584384 129.261293 
L 301.655808 126.849955 
L 301.727232 138.077877 
L 301.798656 136.325601 
L 301.941504 121.236304 
L 302.012928 122.896309 
L 302.155776 110.373778 
L 302.2272 98.447926 
L 302.298624 120.533666 
L 302.370048 118.866492 
L 302.441472 110.153071 
L 302.512896 121.71348 
L 302.58432 118.187678 
L 302.727168 129.972206 
L 302.798592 125.174722 
L 303.012864 100.943937 
L 303.155712 123.675125 
L 303.227136 112.070309 
L 303.29856 124.390978 
L 303.369984 117.254474 
L 303.512832 121.883592 
L 303.65568 146.817764 
L 303.798528 128.553292 
L 303.869952 137.905313 
L 303.941376 125.600218 
L 304.084224 152.378896 
L 304.155648 149.75854 
L 304.227072 147.186407 
L 304.298496 152.284125 
L 304.512768 132.734409 
L 304.655616 150.836645 
L 304.72704 151.016081 
L 304.798464 156.561762 
L 304.869888 155.340059 
L 305.08416 139.639575 
L 305.155584 144.975543 
L 305.227008 142.941133 
L 305.369856 126.407968 
L 305.44128 108.505954 
L 305.512704 110.031862 
L 305.655552 133.174156 
L 305.726976 131.419068 
L 305.869824 118.175854 
L 305.941248 127.399117 
L 306.226944 111.517567 
L 306.298368 125.367958 
L 306.584064 89.495321 
L 306.655488 114.86353 
L 306.726912 111.039962 
L 306.798336 101.894542 
L 306.941184 121.99316 
L 307.155456 95.476937 
L 307.22688 95.669651 
L 307.441152 147.411679 
L 307.584 138.102946 
L 307.655424 147.910056 
L 307.798272 137.006246 
L 307.869696 142.098395 
L 307.94112 117.511091 
L 308.012544 121.734255 
L 308.083968 127.250193 
L 308.155392 121.941726 
L 308.226816 123.721556 
L 308.29824 122.309431 
L 308.441088 135.737197 
L 308.512512 130.9714 
L 308.583936 140.202738 
L 308.65536 138.715984 
L 308.726784 135.217077 
L 308.798208 140.656035 
L 308.941056 106.179368 
L 309.01248 131.97275 
L 309.083904 122.920214 
L 309.155328 125.91559 
L 309.3696 149.28229 
L 309.441024 146.073546 
L 309.655296 122.568605 
L 309.869568 145.202545 
L 309.940992 136.742555 
L 310.08384 125.70493 
L 310.155264 132.395328 
L 310.226688 128.966361 
L 310.298112 118.76796 
L 310.512384 157.057147 
L 310.583808 156.163509 
L 310.655232 157.053719 
L 310.79808 147.558807 
L 310.869504 158.908179 
L 310.940928 156.122489 
L 311.1552 157.96458 
L 311.226624 174.662745 
L 311.298048 163.938018 
L 311.369472 165.23246 
L 311.51232 147.468414 
L 311.583744 158.698264 
L 311.655168 152.201774 
L 311.726592 153.892666 
L 311.798016 153.993346 
L 312.012288 138.904753 
L 312.155136 147.519417 
L 312.22656 141.281778 
L 312.297984 148.719415 
L 312.369408 146.691714 
L 312.440832 151.783843 
L 312.512256 121.698803 
L 312.58368 135.50976 
L 312.655104 133.832179 
L 312.797952 120.347292 
L 313.012224 147.207041 
L 313.155072 141.068289 
L 313.226496 127.723438 
L 313.29792 130.066121 
L 313.369344 141.369837 
L 313.440768 140.864466 
L 313.512192 145.612547 
L 313.65504 134.587214 
L 313.726464 132.648187 
L 313.797888 142.249019 
L 313.869312 137.930733 
L 313.940736 114.634531 
L 314.01216 130.113121 
L 314.083584 115.278416 
L 314.297856 145.786876 
L 314.512128 113.090621 
L 314.654976 133.801999 
L 314.797824 110.956109 
L 314.869248 132.002 
L 314.940672 110.99742 
L 315.012096 118.662953 
L 315.154944 111.654102 
L 315.297792 119.706395 
L 315.369216 102.647693 
L 315.44064 118.20222 
L 315.512064 115.012015 
L 315.583488 109.637613 
L 315.654912 126.467709 
L 315.726336 119.969902 
L 315.79776 117.559381 
L 315.869184 131.971388 
L 316.012032 120.744166 
L 316.083456 118.517678 
L 316.15488 138.81478 
L 316.226304 137.00902 
L 316.512 110.642098 
L 316.654848 125.990653 
L 316.726272 106.570526 
L 316.797696 111.779967 
L 316.86912 117.075501 
L 316.940544 104.652257 
L 317.011968 106.059463 
L 317.083392 119.130984 
L 317.154816 113.219187 
L 317.22624 110.235814 
L 317.297664 98.584941 
L 317.369088 98.791592 
L 317.440512 96.910514 
L 317.58336 113.424225 
L 317.654784 89.94404 
L 317.726208 97.392497 
L 317.869056 91.337396 
L 317.94048 76.222374 
L 318.154752 99.746249 
L 318.2976 62.812283 
L 318.511872 111.794982 
L 318.583296 102.276636 
L 318.726144 116.191548 
L 318.868992 99.223272 
L 319.083264 123.987217 
L 319.154688 124.033037 
L 319.226112 128.912679 
L 319.297536 109.894386 
L 319.36896 125.274338 
L 319.440384 117.853106 
L 319.583232 122.524107 
L 319.654656 120.796236 
L 319.72608 116.77068 
L 319.797504 121.58483 
L 319.940352 98.011866 
L 320.011776 105.939227 
L 320.0832 87.22535 
L 320.154624 103.126668 
L 320.226048 66.025311 
L 320.297472 85.892917 
L 320.44032 99.560275 
L 320.511744 73.353831 
L 320.654592 97.442606 
L 320.726016 85.885608 
L 320.868864 103.394174 
L 320.940288 93.893268 
L 321.083136 119.395342 
L 321.225984 123.278517 
L 321.368832 114.86808 
L 321.51168 101.383682 
L 321.583104 112.248517 
L 321.654528 108.427559 
L 321.725952 103.420655 
L 321.797376 114.330625 
L 321.8688 103.697553 
L 321.940224 114.46227 
L 322.011648 113.321851 
L 322.083072 116.242851 
L 322.154496 115.275447 
L 322.22592 113.402594 
L 322.368768 127.334196 
L 322.440192 118.605955 
L 322.511616 135.25402 
L 322.58304 113.049693 
L 322.654464 120.003531 
L 322.725888 120.05601 
L 322.797312 122.156131 
L 322.868736 136.53777 
L 322.94016 129.705776 
L 323.011584 132.725503 
L 323.083008 132.252798 
L 323.154432 108.912583 
L 323.29728 132.759022 
L 323.368704 98.063961 
L 323.440128 118.335868 
L 323.511552 100.680525 
L 323.582976 119.967254 
L 323.6544 114.862675 
L 323.725824 113.009218 
L 323.868672 128.681587 
L 323.940096 125.046392 
L 324.01152 127.12178 
L 324.297216 98.612405 
L 324.440064 109.47245 
L 324.511488 98.927184 
L 324.72576 118.43583 
L 324.868608 98.798028 
L 324.940032 116.297792 
L 325.154304 72.426179 
L 325.225728 112.609092 
L 325.297152 103.719383 
L 325.44 132.988067 
L 325.511424 108.060803 
L 325.582848 113.332129 
L 325.654272 118.908985 
L 325.725696 112.644819 
L 325.79712 117.276405 
L 325.868544 108.195265 
L 326.15424 132.520645 
L 326.225664 127.565148 
L 326.297088 139.8153 
L 326.368512 132.10616 
L 326.439936 133.079927 
L 326.654208 155.175185 
L 326.797056 148.750754 
L 326.86848 150.21303 
L 326.939904 139.953133 
L 327.2256 163.037487 
L 327.511296 137.742073 
L 327.58272 111.721159 
L 327.654144 132.037506 
L 327.725568 106.50614 
L 327.796992 107.855447 
L 327.868416 126.748637 
L 327.93984 118.153633 
L 328.082688 134.164811 
L 328.154112 125.191403 
L 328.225536 138.356436 
L 328.29696 132.762533 
L 328.368384 136.272484 
L 328.439808 135.202329 
L 328.511232 114.415127 
L 328.582656 114.97737 
L 328.65408 114.73196 
L 328.725504 121.421511 
L 328.796928 101.273504 
L 328.939776 118.065162 
L 329.0112 116.149395 
L 329.082624 138.01505 
L 329.154048 134.957986 
L 329.296896 126.814495 
L 329.439744 138.046602 
L 329.511168 136.968588 
L 329.582592 144.431875 
L 329.654016 142.157997 
L 329.868288 156.699403 
L 329.939712 136.736821 
L 330.011136 141.434701 
L 330.225408 169.879359 
L 330.296832 172.304529 
L 330.511104 141.109007 
L 330.582528 151.305677 
L 330.653952 135.226398 
L 330.725376 143.625963 
L 330.7968 140.877602 
L 330.868224 150.619844 
L 331.082496 118.801899 
L 331.225344 152.592754 
L 331.296768 152.236286 
L 331.51104 129.890028 
L 331.582464 151.439663 
L 331.653888 143.735219 
L 331.725312 157.401853 
L 331.939584 137.239643 
L 332.011008 141.974405 
L 332.082432 121.200889 
L 332.22528 154.766346 
L 332.368128 152.153932 
L 332.439552 156.122084 
L 332.510976 152.61393 
L 332.5824 165.48764 
L 332.653824 153.402993 
L 332.725248 157.929277 
L 332.868096 154.046097 
L 332.93952 135.887282 
L 333.010944 141.653341 
L 333.082368 142.457432 
L 333.153792 138.592531 
L 333.225216 139.483492 
L 333.29664 144.934318 
L 333.368064 139.356322 
L 333.439488 142.923678 
L 333.582336 132.073032 
L 333.65376 135.36894 
L 334.01088 115.055997 
L 334.082304 124.302894 
L 334.153728 105.979908 
L 334.225152 114.564934 
L 334.296576 106.903747 
L 334.368 118.666094 
L 334.439424 113.264343 
L 334.510848 116.082788 
L 334.582272 129.893135 
L 334.796544 109.240126 
L 334.867968 110.687415 
L 335.010816 98.079755 
L 335.08224 111.700425 
L 335.153664 110.887747 
L 335.225088 97.549739 
L 335.296512 114.904736 
L 335.367936 114.288209 
L 335.43936 109.884748 
L 335.653632 146.883552 
L 335.79648 137.582561 
L 335.867904 146.761632 
L 335.939328 140.365689 
L 336.010752 144.074709 
L 336.082176 131.315021 
L 336.1536 142.239357 
L 336.225024 138.212601 
L 336.296448 141.83746 
L 336.367872 140.496572 
L 336.439296 127.889185 
L 336.51072 142.36157 
L 336.582144 130.33306 
L 336.653568 139.613764 
L 336.724992 137.43814 
L 336.796416 142.160523 
L 336.939264 121.177275 
L 337.010688 84.879225 
L 337.082112 100.746899 
L 337.153536 117.84397 
L 337.22496 105.152402 
L 337.296384 108.848379 
L 337.367808 109.731546 
L 337.439232 88.163112 
L 337.724928 133.771282 
L 337.9392 105.984437 
L 338.010624 97.462004 
L 338.082048 117.113885 
L 338.153472 110.751528 
L 338.29632 114.970758 
L 338.367744 92.986329 
L 338.582016 139.807933 
L 338.65344 137.788209 
L 338.796288 159.127642 
L 339.01056 135.026944 
L 339.153408 142.984832 
L 339.224832 140.960613 
L 339.439104 131.148762 
L 339.581952 142.039794 
L 339.653376 138.264421 
L 339.7248 140.782453 
L 339.939072 110.129998 
L 340.010496 111.238131 
L 340.153344 105.061737 
L 340.296192 81.536902 
L 340.367616 94.151589 
L 340.43904 85.380929 
L 340.510464 93.914583 
L 340.581888 81.954684 
L 340.653312 117.089403 
L 340.724736 115.391443 
L 340.79616 127.4864 
L 340.867584 109.753256 
L 341.010432 122.351793 
L 341.081856 114.007501 
L 341.15328 115.073085 
L 341.224704 111.847975 
L 341.438976 139.738498 
L 341.5104 124.665855 
L 341.581824 152.043451 
L 341.653248 139.214274 
L 341.796096 145.39527 
L 341.86752 125.505757 
L 341.938944 134.740173 
L 342.010368 145.736454 
L 342.081792 135.349779 
L 342.153216 137.236199 
L 342.22464 138.230861 
L 342.296064 129.864749 
L 342.510336 145.039978 
L 342.653184 122.937449 
L 342.724608 127.923175 
L 342.796032 124.628007 
L 342.867456 146.428101 
L 342.93888 141.066881 
L 343.010304 136.217915 
L 343.224576 153.36142 
L 343.296 143.783488 
L 343.438848 158.404244 
L 343.65312 129.167276 
L 343.724544 129.587318 
L 343.795968 126.445446 
L 343.867392 144.334181 
L 343.938816 134.22024 
L 344.081664 153.434409 
L 344.153088 148.53325 
L 344.295936 164.734607 
L 344.438784 144.973692 
L 344.510208 160.259446 
L 344.653056 141.114394 
L 344.72448 148.47131 
L 344.795904 136.591839 
L 344.867328 150.690513 
L 344.938752 144.134356 
L 345.010176 134.161723 
L 345.0816 143.830457 
L 345.153024 139.34566 
L 345.295872 116.959616 
L 345.43872 142.662105 
L 345.652992 128.22818 
L 345.724416 128.353337 
L 345.79584 137.0181 
L 345.867264 129.181797 
L 346.010112 154.946579 
L 346.15296 139.364968 
L 346.224384 137.794688 
L 346.438656 108.875146 
L 346.51008 110.701632 
L 346.652928 119.882338 
L 346.724352 118.920388 
L 346.795776 109.118802 
L 346.8672 114.398011 
L 347.152896 136.624548 
L 347.22432 103.650288 
L 347.295744 124.102704 
L 347.438592 105.567267 
L 347.58144 115.149092 
L 347.652864 106.154002 
L 347.724288 128.258809 
L 347.867136 107.179333 
L 348.009984 110.672644 
L 348.081408 92.354574 
L 348.224256 116.641616 
L 348.438528 93.790047 
L 348.509952 76.577137 
L 348.581376 81.519635 
L 348.6528 81.205531 
L 348.724224 89.387372 
L 348.795648 72.706336 
L 348.867072 74.238507 
L 349.00992 108.194084 
L 349.081344 92.31237 
L 349.152768 104.168522 
L 349.36704 65.813539 
L 349.652736 115.445574 
L 349.72416 89.556158 
L 349.795584 91.913547 
L 349.867008 88.289155 
L 350.009856 63.303466 
L 350.224128 97.602147 
L 350.295552 79.589248 
L 350.366976 98.887499 
L 350.4384 75.380347 
L 350.652672 113.085182 
L 350.724096 107.859156 
L 350.79552 123.781045 
L 350.866944 105.105774 
L 350.938368 131.837858 
L 351.009792 120.906366 
L 351.295488 77.536067 
L 351.438336 91.386077 
L 351.50976 89.524829 
L 351.581184 90.784061 
L 351.724032 83.396852 
L 351.795456 110.987442 
L 351.938304 86.07074 
L 352.009728 95.1845 
L 352.081152 75.501384 
L 352.152576 76.771488 
L 352.224 67.59558 
L 352.438272 96.201059 
L 352.509696 96.89469 
L 352.652544 123.053676 
L 352.795392 96.516648 
L 352.93824 130.576173 
L 353.009664 128.793782 
L 353.081088 131.681871 
L 353.152512 130.69275 
L 353.223936 129.018908 
L 353.29536 130.937969 
L 353.438208 109.255393 
L 353.581056 134.881557 
L 353.795328 111.173374 
L 354.0096 137.383733 
L 354.152448 117.317306 
L 354.223872 121.969788 
L 354.295296 127.586014 
L 354.36672 120.774794 
L 354.438144 122.477271 
L 354.509568 118.336803 
L 354.580992 127.89388 
L 354.652416 118.838054 
L 354.72384 122.936092 
L 354.866688 114.877685 
L 355.009536 134.782234 
L 355.08096 131.867947 
L 355.152384 130.768789 
L 355.223808 127.857516 
L 355.652352 159.882919 
L 355.723776 154.498517 
L 355.7952 156.338688 
L 355.866624 138.557374 
L 355.938048 147.530065 
L 356.080896 171.479393 
L 356.15232 169.829626 
L 356.295168 155.192099 
L 356.438016 164.910981 
L 356.652288 155.949217 
L 356.86656 173.532401 
L 357.080832 162.228214 
L 357.152256 174.663825 
L 357.295104 154.337359 
L 357.437952 175.165515 
L 357.509376 161.755087 
L 357.5808 179.383485 
L 357.652224 178.885112 
L 357.795072 166.323494 
L 357.866496 171.599061 
L 358.009344 158.318395 
L 358.29504 186.89066 
L 358.366464 186.651366 
L 358.437888 184.725419 
L 358.65216 169.80874 
L 358.723584 170.507849 
L 358.795008 168.412619 
L 358.866432 173.942045 
L 358.937856 156.668859 
L 359.00928 170.161401 
L 359.080704 164.320687 
L 359.152128 162.87842 
L 359.223552 170.113861 
L 359.437824 156.751199 
L 359.509248 162.332898 
L 359.652096 150.404301 
L 359.72352 152.434976 
L 359.794944 161.27719 
L 359.866368 131.189403 
L 359.937792 151.580492 
L 360.009216 149.127807 
L 360.08064 150.601127 
L 360.152064 155.380312 
L 360.223488 143.481197 
L 360.294912 157.721447 
L 360.366336 155.953219 
L 360.43776 146.08254 
L 360.509184 148.099094 
L 360.723456 178.920778 
L 360.79488 173.470532 
L 360.866304 162.237928 
L 360.937728 163.068504 
L 361.152 173.716522 
L 361.366272 150.953238 
L 361.437696 168.493259 
L 361.50912 164.228836 
L 361.580544 162.312828 
L 361.651968 167.180519 
L 361.723392 181.77022 
L 361.794816 176.30116 
L 361.86624 177.322481 
L 361.937664 184.554621 
L 362.009088 173.258613 
L 362.080512 183.967475 
L 362.151936 180.490285 
L 362.294784 187.324576 
L 362.366208 174.802607 
L 362.509056 190.06575 
L 362.58048 178.495139 
L 362.651904 184.007985 
L 362.723328 185.52246 
L 362.794752 184.376491 
L 362.866176 181.184218 
L 363.080448 146.415155 
L 363.151872 170.871631 
L 363.223296 169.957447 
L 363.29472 167.264025 
L 363.366144 174.025651 
L 363.437568 171.941167 
L 363.508992 171.977495 
L 363.723264 156.834828 
L 363.794688 153.83924 
L 363.866112 156.362523 
L 364.080384 176.372054 
L 364.223232 161.148701 
L 364.294656 166.41872 
L 364.36608 171.790119 
L 364.437504 147.824818 
L 364.508928 151.376734 
L 364.580352 159.904316 
L 364.651776 138.855969 
L 364.7232 149.665115 
L 364.794624 158.499298 
L 364.866048 146.226867 
L 364.937472 147.825842 
L 365.008896 164.809186 
L 365.08032 158.833743 
L 365.151744 137.405182 
L 365.223168 142.320064 
L 365.294592 156.247452 
L 365.580288 97.440914 
L 365.651712 116.430845 
L 365.723136 108.624299 
L 365.79456 114.264062 
L 365.865984 106.73597 
L 366.15168 132.655749 
L 366.223104 129.458627 
L 366.294528 119.868145 
L 366.365952 133.322508 
L 366.437376 126.771207 
L 366.5088 127.758527 
L 366.651648 141.771552 
L 366.794496 127.456908 
L 366.86592 131.563158 
L 367.080192 154.418879 
L 367.151616 144.353131 
L 367.22304 151.307637 
L 367.365888 145.11595 
L 367.437312 163.647198 
L 367.508736 162.870723 
L 367.58016 155.30418 
L 367.651584 166.66826 
L 367.794432 142.778659 
L 367.865856 142.989983 
L 367.93728 141.731428 
L 368.080128 112.67036 
L 368.151552 116.241061 
L 368.2944 128.388436 
L 368.365824 128.08269 
L 368.437248 128.116861 
L 368.508672 132.774423 
L 368.65152 127.455397 
L 368.722944 149.597345 
L 368.794368 139.748295 
L 368.865792 144.913293 
L 368.937216 130.699627 
L 369.151488 147.836267 
L 369.222912 153.948394 
L 369.294336 148.439391 
L 369.36576 155.692142 
L 369.580032 145.366812 
L 369.651456 157.412675 
L 369.794304 132.889124 
L 369.937152 136.875253 
L 370.08 101.515677 
L 370.151424 115.344939 
L 370.222848 118.391189 
L 370.365696 112.637286 
L 370.579968 135.503261 
L 370.722816 117.239874 
L 370.865664 125.299414 
L 370.937088 120.448104 
L 371.008512 139.196932 
L 371.079936 131.828197 
L 371.294208 128.2791 
L 371.365632 122.248465 
L 371.50848 137.889914 
L 371.651328 97.461085 
L 371.722752 102.060158 
L 371.8656 123.603487 
L 371.937024 115.48345 
L 372.008448 116.707929 
L 372.079872 123.298068 
L 372.22272 113.156943 
L 372.294144 120.619712 
L 372.365568 117.098719 
L 372.436992 104.077473 
L 372.508416 122.112655 
L 372.57984 120.077682 
L 372.722688 90.082849 
L 372.865536 100.964076 
L 373.079808 122.734792 
L 373.151232 102.494355 
L 373.222656 110.827243 
L 373.365504 131.841926 
L 373.436928 124.125451 
L 373.508352 130.560664 
L 373.579776 126.363926 
L 373.6512 112.852805 
L 373.722624 114.696946 
L 373.794048 120.725641 
L 373.865472 98.600414 
L 373.936896 121.976568 
L 374.151168 91.002919 
L 374.222592 105.901301 
L 374.294016 99.521063 
L 374.436864 73.999663 
L 374.508288 75.129949 
L 374.579712 78.630444 
L 374.651136 69.81859 
L 374.793984 99.231871 
L 374.936832 74.718468 
L 375.151104 103.362578 
L 375.222528 95.825579 
L 375.365376 137.905903 
L 375.508224 106.827021 
L 375.579648 112.425743 
L 375.722496 123.34467 
L 375.79392 105.669125 
L 375.865344 113.772725 
L 375.936768 121.240606 
L 376.15104 90.842448 
L 376.222464 118.447279 
L 376.293888 103.140356 
L 376.365312 105.148078 
L 376.436736 86.335292 
L 376.50816 94.70339 
L 376.579584 81.846974 
L 376.651008 82.903404 
L 376.722432 89.556467 
L 376.793856 87.108923 
L 376.86528 91.464562 
L 377.008128 77.868994 
L 377.079552 73.282162 
L 377.2224 96.30756 
L 377.293824 91.687023 
L 377.365248 77.574817 
L 377.436672 84.053105 
L 377.508096 81.023193 
L 377.57952 62.124466 
L 377.650944 68.14385 
L 377.865216 120.819432 
L 377.93664 103.260626 
L 378.008064 117.307369 
L 378.079488 110.037792 
L 378.150912 102.928474 
L 378.222336 112.862454 
L 378.29376 110.598566 
L 378.365184 107.396568 
L 378.436608 91.116115 
L 378.508032 114.539917 
L 378.579456 90.984828 
L 378.65088 92.702076 
L 378.865152 126.56035 
L 378.936576 124.157994 
L 379.008 117.752479 
L 379.008 117.752479 
" clip-path="url(#p5e2c3b721d)" style="fill: none; stroke: #1f77b4; stroke-width: 1.5; stroke-linecap: square"/>
   </g>
   <g id="LineCollection_1">
    <path d="M 93.312 234.564717 
L 379.008 234.564717 
" clip-path="url(#p5e2c3b721d)" style="fill: none; stroke-dasharray: 5.55,2.4; stroke-dashoffset: 0; stroke: #ffa500; stroke-width: 1.5"/>
    <path d="M 93.312 239.362197 
L 379.008 239.362197 
" clip-path="url(#p5e2c3b721d)" style="fill: none; stroke-dasharray: 5.55,2.4; stroke-dashoffset: 0; stroke: #ffa500; stroke-width: 1.5"/>
   </g>
   <g id="LineCollection_2">
    <path d="M 93.312 233.591558 
L 379.008 233.591558 
" clip-path="url(#p5e2c3b721d)" style="fill: none; stroke-dasharray: 1.5,2.475; stroke-dashoffset: 0; stroke: #008000; stroke-width: 1.5"/>
    <path d="M 93.312 238.368269 
L 379.008 238.368269 
" clip-path="url(#p5e2c3b721d)" style="fill: none; stroke-dasharray: 1.5,2.475; stroke-dashoffset: 0; stroke: #008000; stroke-width: 1.5"/>
   </g>
   <g id="patch_3">
    <path d="M 57.6 307.584 
L 57.6 41.472 
" style="fill: none; stroke: #000000; stroke-width: 0.8; stroke-linejoin: miter; stroke-linecap: square"/>
   </g>
   <g id="patch_4">
    <path d="M 414.72 307.584 
L 414.72 41.472 
" style="fill: none; stroke: #000000; stroke-width: 0.8; stroke-linejoin: miter; stroke-linecap: square"/>
   </g>
   <g id="patch_5">
    <path d="M 57.6 307.584 
L 414.72 307.584 
" style="fill: none; stroke: #000000; stroke-width: 0.8; stroke-linejoin: miter; stroke-linecap: square"/>
   </g>
   <g id="patch_6">
    <path d="M 57.6 41.472 
L 414.72 41.472 
" style="fill: none; stroke: #000000; stroke-width: 0.8; stroke-linejoin: miter; stroke-linecap: square"/>
   </g>
   <g id="legend_1">
    <g id="patch_7">
     <path d="M 64.6 78.82825 
L 117.176562 78.82825 
Q 119.176562 78.82825 119.176562 76.82825 
L 119.176562 48.472 
Q 119.176562 46.472 117.176562 46.472 
L 64.6 46.472 
Q 62.6 46.472 62.6 48.472 
L 62.6 76.82825 
Q 62.6 78.82825 64.6 78.82825 
z
" style="fill: #ffffff; opacity: 0.8; stroke: #cccccc; stroke-linejoin: miter"/>
    </g>
    <g id="line2d_16">
     <path d="M 66.6 54.570437 
L 86.6 54.570437 
" style="fill: none; stroke-dasharray: 5.55,2.4; stroke-dashoffset: 0; stroke: #ffa500; stroke-width: 1.5"/>
    </g>
    <g id="text_15">
     <!-- MLE -->
     <g transform="translate(94.6 58.070437) scale(0.1 -0.1)">
      <defs>
       <path id="DejaVuSans-4d" d="M 628 4666 
L 1569 4666 
L 2759 1491 
L 3956 4666 
L 4897 4666 
L 4897 0 
L 4281 0 
L 4281 4097 
L 3078 897 
L 2444 897 
L 1241 4097 
L 1241 0 
L 628 0 
L 628 4666 
z
" transform="scale(0.015625)"/>
       <path id="DejaVuSans-4c" d="M 628 4666 
L 1259 4666 
L 1259 531 
L 3531 531 
L 3531 0 
L 628 0 
L 628 4666 
z
" transform="scale(0.015625)"/>
       <path id="DejaVuSans-45" d="M 628 4666 
L 3578 4666 
L 3578 4134 
L 1259 4134 
L 1259 2753 
L 3481 2753 
L 3481 2222 
L 1259 2222 
L 1259 531 
L 3634 531 
L 3634 0 
L 628 0 
L 628 4666 
z
" transform="scale(0.015625)"/>
      </defs>
      <use xlink:href="#DejaVuSans-4d"/>
      <use xlink:href="#DejaVuSans-4c" x="86.279297"/>
      <use xlink:href="#DejaVuSans-45" x="141.992188"/>
     </g>
    </g>
    <g id="line2d_17">
     <path d="M 66.6 69.248562 
L 86.6 69.248562 
" style="fill: none; stroke-dasharray: 1.5,2.475; stroke-dashoffset: 0; stroke: #008000; stroke-width: 1.5"/>
    </g>
    <g id="text_16">
     <!-- KDE -->
     <g transform="translate(94.6 72.748562) scale(0.1 -0.1)">
      <defs>
       <path id="DejaVuSans-4b" d="M 628 4666 
L 1259 4666 
L 1259 2694 
L 3353 4666 
L 4166 4666 
L 1850 2491 
L 4331 0 
L 3500 0 
L 1259 2247 
L 1259 0 
L 628 0 
L 628 4666 
z
" transform="scale(0.015625)"/>
       <path id="DejaVuSans-44" d="M 1259 4147 
L 1259 519 
L 2022 519 
Q 2988 519 3436 956 
Q 3884 1394 3884 2338 
Q 3884 3275 3436 3711 
Q 2988 4147 2022 4147 
L 1259 4147 
z
M 628 4666 
L 1925 4666 
Q 3281 4666 3915 4102 
Q 4550 3538 4550 2338 
Q 4550 1131 3912 565 
Q 3275 0 1925 0 
L 628 0 
L 628 4666 
z
" transform="scale(0.015625)"/>
      </defs>
      <use xlink:href="#DejaVuSans-4b"/>
      <use xlink:href="#DejaVuSans-44" x="65.576172"/>
      <use xlink:href="#DejaVuSans-45" x="142.578125"/>
     </g>
    </g>
   </g>
  </g>
 </g>
 <defs>
  <clipPath id="p5e2c3b721d">
   <rect x="57.6" y="41.472" width="357.12" height="266.112"/>
  </clipPath>
 </defs>
</svg>
