<?xml version="1.0" encoding="utf-8" standalone="no"?>
<!DOCTYPE svg PUBLIC "-//W3C//DTD SVG 1.1//EN"
  "http://www.w3.org/Graphics/SVG/1.1/DTD/svg11.dtd">
<svg xmlns:xlink="http://www.w3.org/1999/xlink" width="460.8pt" height="345.6pt" viewBox="0 0 460.8 345.6" xmlns="http://www.w3.org/2000/svg" version="1.1">
 <metadata>
  <rdf:RDF xmlns:dc="http://purl.org/dc/elements/1.1/" xmlns:cc="http://creativecommons.org/ns#" xmlns:rdf="http://www.w3.org/1999/02/22-rdf-syntax-ns#">
   <cc:Work>
    <dc:type rdf:resource="http://purl.org/dc/dcmitype/StillImage"/>
    <dc:date>2023-03-27T22:29:37.826145</dc:date>
    <dc:format>image/svg+xml</dc:format>
    <dc:creator>
     <cc:Agent>
      <dc:title>Matplotlib v3.7.1, https://matplotlib.org/</dc:title>
     </cc:Agent>
    </dc:creator>
   </cc:Work>
  </rdf:RDF>
 </metadata>
 <defs>
  <style type="text/css">*{stroke-linejoin: round; stroke-linecap: butt}</style>
 </defs>
 <g id="figure_1">
  <g id="patch_1">
   <path d="M 0 345.6 
L 460.8 345.6 
L 460.8 0 
L 0 0 
z
" style="fill: #ffffff"/>
  </g>
  <g id="axes_1">
   <g id="patch_2">
    <path d="M 57.6 307.584 
L 414.72 307.584 
L 414.72 41.472 
L 57.6 41.472 
z
" style="fill: #ffffff"/>
   </g>
   <g id="patch_3">
    <path d="M 203.064591 307.584 
L 205.796894 307.584 
L 205.796894 291.61728 
L 203.064591 291.61728 
z
" clip-path="url(#p4b53a3bd21)" style="fill: #1f77b4"/>
   </g>
   <g id="patch_4">
    <path d="M 205.796894 307.584 
L 208.529196 307.584 
L 208.529196 270.32832 
L 205.796894 270.32832 
z
" clip-path="url(#p4b53a3bd21)" style="fill: #1f77b4"/>
   </g>
   <g id="patch_5">
    <path d="M 208.529196 307.584 
L 211.261498 307.584 
L 211.261498 225.08928 
L 208.529196 225.08928 
z
" clip-path="url(#p4b53a3bd21)" style="fill: #1f77b4"/>
   </g>
   <g id="patch_6">
    <path d="M 211.261498 307.584 
L 213.9938 307.584 
L 213.9938 200.25216 
L 211.261498 200.25216 
z
" clip-path="url(#p4b53a3bd21)" style="fill: #1f77b4"/>
   </g>
   <g id="patch_7">
    <path d="M 213.9938 307.584 
L 216.726103 307.584 
L 216.726103 148.80384 
L 213.9938 148.80384 
z
" clip-path="url(#p4b53a3bd21)" style="fill: #1f77b4"/>
   </g>
   <g id="patch_8">
    <path d="M 216.726103 307.584 
L 219.458405 307.584 
L 219.458405 104.45184 
L 216.726103 104.45184 
z
" clip-path="url(#p4b53a3bd21)" style="fill: #1f77b4"/>
   </g>
   <g id="patch_9">
    <path d="M 219.458405 307.584 
L 222.190707 307.584 
L 222.190707 91.14624 
L 219.458405 91.14624 
z
" clip-path="url(#p4b53a3bd21)" style="fill: #1f77b4"/>
   </g>
   <g id="patch_10">
    <path d="M 222.190707 307.584 
L 224.923009 307.584 
L 224.923009 92.03328 
L 222.190707 92.03328 
z
" clip-path="url(#p4b53a3bd21)" style="fill: #1f77b4"/>
   </g>
   <g id="patch_11">
    <path d="M 224.923009 307.584 
L 227.655312 307.584 
L 227.655312 80.50176 
L 224.923009 80.50176 
z
" clip-path="url(#p4b53a3bd21)" style="fill: #1f77b4"/>
   </g>
   <g id="patch_12">
    <path d="M 227.655312 307.584 
L 230.387614 307.584 
L 230.387614 82.27584 
L 227.655312 82.27584 
z
" clip-path="url(#p4b53a3bd21)" style="fill: #1f77b4"/>
   </g>
   <g id="patch_13">
    <path d="M 230.387614 307.584 
L 233.119916 307.584 
L 233.119916 99.1296 
L 230.387614 99.1296 
z
" clip-path="url(#p4b53a3bd21)" style="fill: #1f77b4"/>
   </g>
   <g id="patch_14">
    <path d="M 233.119916 307.584 
L 235.852218 307.584 
L 235.852218 134.6112 
L 233.119916 134.6112 
z
" clip-path="url(#p4b53a3bd21)" style="fill: #1f77b4"/>
   </g>
   <g id="patch_15">
    <path d="M 235.852218 307.584 
L 238.584521 307.584 
L 238.584521 116.8704 
L 235.852218 116.8704 
z
" clip-path="url(#p4b53a3bd21)" style="fill: #1f77b4"/>
   </g>
   <g id="patch_16">
    <path d="M 238.584521 307.584 
L 241.316823 307.584 
L 241.316823 120.41856 
L 238.584521 120.41856 
z
" clip-path="url(#p4b53a3bd21)" style="fill: #1f77b4"/>
   </g>
   <g id="patch_17">
    <path d="M 241.316823 307.584 
L 244.049125 307.584 
L 244.049125 155.01312 
L 241.316823 155.01312 
z
" clip-path="url(#p4b53a3bd21)" style="fill: #1f77b4"/>
   </g>
   <g id="patch_18">
    <path d="M 244.049125 307.584 
L 246.781428 307.584 
L 246.781428 202.02624 
L 244.049125 202.02624 
z
" clip-path="url(#p4b53a3bd21)" style="fill: #1f77b4"/>
   </g>
   <g id="patch_19">
    <path d="M 246.781428 307.584 
L 249.51373 307.584 
L 249.51373 184.28544 
L 246.781428 184.28544 
z
" clip-path="url(#p4b53a3bd21)" style="fill: #1f77b4"/>
   </g>
   <g id="patch_20">
    <path d="M 249.51373 307.584 
L 252.246032 307.584 
L 252.246032 208.23552 
L 249.51373 208.23552 
z
" clip-path="url(#p4b53a3bd21)" style="fill: #1f77b4"/>
   </g>
   <g id="patch_21">
    <path d="M 252.246032 307.584 
L 254.978334 307.584 
L 254.978334 197.59104 
L 252.246032 197.59104 
z
" clip-path="url(#p4b53a3bd21)" style="fill: #1f77b4"/>
   </g>
   <g id="patch_22">
    <path d="M 254.978334 307.584 
L 257.710637 307.584 
L 257.710637 221.54112 
L 254.978334 221.54112 
z
" clip-path="url(#p4b53a3bd21)" style="fill: #1f77b4"/>
   </g>
   <g id="patch_23">
    <path d="M 257.710637 307.584 
L 260.442939 307.584 
L 260.442939 225.08928 
L 257.710637 225.08928 
z
" clip-path="url(#p4b53a3bd21)" style="fill: #1f77b4"/>
   </g>
   <g id="patch_24">
    <path d="M 260.442939 307.584 
L 263.175241 307.584 
L 263.175241 237.50784 
L 260.442939 237.50784 
z
" clip-path="url(#p4b53a3bd21)" style="fill: #1f77b4"/>
   </g>
   <g id="patch_25">
    <path d="M 263.175241 307.584 
L 265.907543 307.584 
L 265.907543 250.81344 
L 263.175241 250.81344 
z
" clip-path="url(#p4b53a3bd21)" style="fill: #1f77b4"/>
   </g>
   <g id="patch_26">
    <path d="M 265.907543 307.584 
L 268.639846 307.584 
L 268.639846 257.02272 
L 265.907543 257.02272 
z
" clip-path="url(#p4b53a3bd21)" style="fill: #1f77b4"/>
   </g>
   <g id="patch_27">
    <path d="M 268.639846 307.584 
L 271.372148 307.584 
L 271.372148 249.03936 
L 268.639846 249.03936 
z
" clip-path="url(#p4b53a3bd21)" style="fill: #1f77b4"/>
   </g>
   <g id="patch_28">
    <path d="M 271.372148 307.584 
L 274.10445 307.584 
L 274.10445 261.45792 
L 271.372148 261.45792 
z
" clip-path="url(#p4b53a3bd21)" style="fill: #1f77b4"/>
   </g>
   <g id="patch_29">
    <path d="M 274.10445 307.584 
L 276.836752 307.584 
L 276.836752 271.21536 
L 274.10445 271.21536 
z
" clip-path="url(#p4b53a3bd21)" style="fill: #1f77b4"/>
   </g>
   <g id="patch_30">
    <path d="M 276.836752 307.584 
L 279.569055 307.584 
L 279.569055 272.98944 
L 276.836752 272.98944 
z
" clip-path="url(#p4b53a3bd21)" style="fill: #1f77b4"/>
   </g>
   <g id="patch_31">
    <path d="M 279.569055 307.584 
L 282.301357 307.584 
L 282.301357 282.74688 
L 279.569055 282.74688 
z
" clip-path="url(#p4b53a3bd21)" style="fill: #1f77b4"/>
   </g>
   <g id="patch_32">
    <path d="M 282.301357 307.584 
L 285.033659 307.584 
L 285.033659 282.74688 
L 282.301357 282.74688 
z
" clip-path="url(#p4b53a3bd21)" style="fill: #1f77b4"/>
   </g>
   <g id="patch_33">
    <path d="M 285.033659 307.584 
L 287.765961 307.584 
L 287.765961 285.408 
L 285.033659 285.408 
z
" clip-path="url(#p4b53a3bd21)" style="fill: #1f77b4"/>
   </g>
   <g id="patch_34">
    <path d="M 287.765961 307.584 
L 290.498264 307.584 
L 290.498264 289.8432 
L 287.765961 289.8432 
z
" clip-path="url(#p4b53a3bd21)" style="fill: #1f77b4"/>
   </g>
   <g id="patch_35">
    <path d="M 290.498264 307.584 
L 293.230566 307.584 
L 293.230566 288.06912 
L 290.498264 288.06912 
z
" clip-path="url(#p4b53a3bd21)" style="fill: #1f77b4"/>
   </g>
   <g id="patch_36">
    <path d="M 293.230566 307.584 
L 295.962868 307.584 
L 295.962868 298.7136 
L 293.230566 298.7136 
z
" clip-path="url(#p4b53a3bd21)" style="fill: #1f77b4"/>
   </g>
   <g id="patch_37">
    <path d="M 295.962868 307.584 
L 298.695171 307.584 
L 298.695171 296.05248 
L 295.962868 296.05248 
z
" clip-path="url(#p4b53a3bd21)" style="fill: #1f77b4"/>
   </g>
   <g id="patch_38">
    <path d="M 298.695171 307.584 
L 301.427473 307.584 
L 301.427473 300.48768 
L 298.695171 300.48768 
z
" clip-path="url(#p4b53a3bd21)" style="fill: #1f77b4"/>
   </g>
   <g id="patch_39">
    <path d="M 301.427473 307.584 
L 304.159775 307.584 
L 304.159775 298.7136 
L 301.427473 298.7136 
z
" clip-path="url(#p4b53a3bd21)" style="fill: #1f77b4"/>
   </g>
   <g id="patch_40">
    <path d="M 304.159775 307.584 
L 306.892077 307.584 
L 306.892077 302.26176 
L 304.159775 302.26176 
z
" clip-path="url(#p4b53a3bd21)" style="fill: #1f77b4"/>
   </g>
   <g id="patch_41">
    <path d="M 306.892077 307.584 
L 309.62438 307.584 
L 309.62438 300.48768 
L 306.892077 300.48768 
z
" clip-path="url(#p4b53a3bd21)" style="fill: #1f77b4"/>
   </g>
   <g id="patch_42">
    <path d="M 309.62438 307.584 
L 312.356682 307.584 
L 312.356682 302.26176 
L 309.62438 302.26176 
z
" clip-path="url(#p4b53a3bd21)" style="fill: #1f77b4"/>
   </g>
   <g id="patch_43">
    <path d="M 312.356682 307.584 
L 315.088984 307.584 
L 315.088984 304.03584 
L 312.356682 304.03584 
z
" clip-path="url(#p4b53a3bd21)" style="fill: #1f77b4"/>
   </g>
   <g id="patch_44">
    <path d="M 315.088984 307.584 
L 317.821286 307.584 
L 317.821286 303.1488 
L 315.088984 303.1488 
z
" clip-path="url(#p4b53a3bd21)" style="fill: #1f77b4"/>
   </g>
   <g id="patch_45">
    <path d="M 317.821286 307.584 
L 320.553589 307.584 
L 320.553589 303.1488 
L 317.821286 303.1488 
z
" clip-path="url(#p4b53a3bd21)" style="fill: #1f77b4"/>
   </g>
   <g id="patch_46">
    <path d="M 320.553589 307.584 
L 323.285891 307.584 
L 323.285891 304.92288 
L 320.553589 304.92288 
z
" clip-path="url(#p4b53a3bd21)" style="fill: #1f77b4"/>
   </g>
   <g id="patch_47">
    <path d="M 323.285891 307.584 
L 326.018193 307.584 
L 326.018193 305.80992 
L 323.285891 305.80992 
z
" clip-path="url(#p4b53a3bd21)" style="fill: #1f77b4"/>
   </g>
   <g id="patch_48">
    <path d="M 326.018193 307.584 
L 328.750495 307.584 
L 328.750495 305.80992 
L 326.018193 305.80992 
z
" clip-path="url(#p4b53a3bd21)" style="fill: #1f77b4"/>
   </g>
   <g id="patch_49">
    <path d="M 328.750495 307.584 
L 331.482798 307.584 
L 331.482798 305.80992 
L 328.750495 305.80992 
z
" clip-path="url(#p4b53a3bd21)" style="fill: #1f77b4"/>
   </g>
   <g id="patch_50">
    <path d="M 331.482798 307.584 
L 334.2151 307.584 
L 334.2151 305.80992 
L 331.482798 305.80992 
z
" clip-path="url(#p4b53a3bd21)" style="fill: #1f77b4"/>
   </g>
   <g id="patch_51">
    <path d="M 334.2151 307.584 
L 336.947402 307.584 
L 336.947402 307.584 
L 334.2151 307.584 
z
" clip-path="url(#p4b53a3bd21)" style="fill: #1f77b4"/>
   </g>
   <g id="patch_52">
    <path d="M 336.947402 307.584 
L 339.679705 307.584 
L 339.679705 305.80992 
L 336.947402 305.80992 
z
" clip-path="url(#p4b53a3bd21)" style="fill: #1f77b4"/>
   </g>
   <g id="matplotlib.axis_1">
    <g id="xtick_1">
     <g id="line2d_1">
      <defs>
       <path id="mc265579cca" d="M 0 0 
L 0 3.5 
" style="stroke: #000000; stroke-width: 0.8"/>
      </defs>
      <g>
       <use xlink:href="#mc265579cca" x="57.6" y="307.584" style="stroke: #000000; stroke-width: 0.8"/>
      </g>
     </g>
     <g id="text_1">
      <!-- −0.2 -->
      <g transform="translate(45.458594 322.182437) scale(0.1 -0.1)">
       <defs>
        <path id="DejaVuSans-2212" d="M 678 2272 
L 4684 2272 
L 4684 1741 
L 678 1741 
L 678 2272 
z
" transform="scale(0.015625)"/>
        <path id="DejaVuSans-30" d="M 2034 4250 
Q 1547 4250 1301 3770 
Q 1056 3291 1056 2328 
Q 1056 1369 1301 889 
Q 1547 409 2034 409 
Q 2525 409 2770 889 
Q 3016 1369 3016 2328 
Q 3016 3291 2770 3770 
Q 2525 4250 2034 4250 
z
M 2034 4750 
Q 2819 4750 3233 4129 
Q 3647 3509 3647 2328 
Q 3647 1150 3233 529 
Q 2819 -91 2034 -91 
Q 1250 -91 836 529 
Q 422 1150 422 2328 
Q 422 3509 836 4129 
Q 1250 4750 2034 4750 
z
" transform="scale(0.015625)"/>
        <path id="DejaVuSans-2e" d="M 684 794 
L 1344 794 
L 1344 0 
L 684 0 
L 684 794 
z
" transform="scale(0.015625)"/>
        <path id="DejaVuSans-32" d="M 1228 531 
L 3431 531 
L 3431 0 
L 469 0 
L 469 531 
Q 828 903 1448 1529 
Q 2069 2156 2228 2338 
Q 2531 2678 2651 2914 
Q 2772 3150 2772 3378 
Q 2772 3750 2511 3984 
Q 2250 4219 1831 4219 
Q 1534 4219 1204 4116 
Q 875 4013 500 3803 
L 500 4441 
Q 881 4594 1212 4672 
Q 1544 4750 1819 4750 
Q 2544 4750 2975 4387 
Q 3406 4025 3406 3419 
Q 3406 3131 3298 2873 
Q 3191 2616 2906 2266 
Q 2828 2175 2409 1742 
Q 1991 1309 1228 531 
z
" transform="scale(0.015625)"/>
       </defs>
       <use xlink:href="#DejaVuSans-2212"/>
       <use xlink:href="#DejaVuSans-30" x="83.789062"/>
       <use xlink:href="#DejaVuSans-2e" x="147.412109"/>
       <use xlink:href="#DejaVuSans-32" x="179.199219"/>
      </g>
     </g>
    </g>
    <g id="xtick_2">
     <g id="line2d_2">
      <g>
       <use xlink:href="#mc265579cca" x="129.024" y="307.584" style="stroke: #000000; stroke-width: 0.8"/>
      </g>
     </g>
     <g id="text_2">
      <!-- 0.0 -->
      <g transform="translate(121.072438 322.182437) scale(0.1 -0.1)">
       <use xlink:href="#DejaVuSans-30"/>
       <use xlink:href="#DejaVuSans-2e" x="63.623047"/>
       <use xlink:href="#DejaVuSans-30" x="95.410156"/>
      </g>
     </g>
    </g>
    <g id="xtick_3">
     <g id="line2d_3">
      <g>
       <use xlink:href="#mc265579cca" x="200.448" y="307.584" style="stroke: #000000; stroke-width: 0.8"/>
      </g>
     </g>
     <g id="text_3">
      <!-- 0.2 -->
      <g transform="translate(192.496438 322.182437) scale(0.1 -0.1)">
       <use xlink:href="#DejaVuSans-30"/>
       <use xlink:href="#DejaVuSans-2e" x="63.623047"/>
       <use xlink:href="#DejaVuSans-32" x="95.410156"/>
      </g>
     </g>
    </g>
    <g id="xtick_4">
     <g id="line2d_4">
      <g>
       <use xlink:href="#mc265579cca" x="271.872" y="307.584" style="stroke: #000000; stroke-width: 0.8"/>
      </g>
     </g>
     <g id="text_4">
      <!-- 0.4 -->
      <g transform="translate(263.920438 322.182437) scale(0.1 -0.1)">
       <defs>
        <path id="DejaVuSans-34" d="M 2419 4116 
L 825 1625 
L 2419 1625 
L 2419 4116 
z
M 2253 4666 
L 3047 4666 
L 3047 1625 
L 3713 1625 
L 3713 1100 
L 3047 1100 
L 3047 0 
L 2419 0 
L 2419 1100 
L 313 1100 
L 313 1709 
L 2253 4666 
z
" transform="scale(0.015625)"/>
       </defs>
       <use xlink:href="#DejaVuSans-30"/>
       <use xlink:href="#DejaVuSans-2e" x="63.623047"/>
       <use xlink:href="#DejaVuSans-34" x="95.410156"/>
      </g>
     </g>
    </g>
    <g id="xtick_5">
     <g id="line2d_5">
      <g>
       <use xlink:href="#mc265579cca" x="343.296" y="307.584" style="stroke: #000000; stroke-width: 0.8"/>
      </g>
     </g>
     <g id="text_5">
      <!-- 0.6 -->
      <g transform="translate(335.344438 322.182437) scale(0.1 -0.1)">
       <defs>
        <path id="DejaVuSans-36" d="M 2113 2584 
Q 1688 2584 1439 2293 
Q 1191 2003 1191 1497 
Q 1191 994 1439 701 
Q 1688 409 2113 409 
Q 2538 409 2786 701 
Q 3034 994 3034 1497 
Q 3034 2003 2786 2293 
Q 2538 2584 2113 2584 
z
M 3366 4563 
L 3366 3988 
Q 3128 4100 2886 4159 
Q 2644 4219 2406 4219 
Q 1781 4219 1451 3797 
Q 1122 3375 1075 2522 
Q 1259 2794 1537 2939 
Q 1816 3084 2150 3084 
Q 2853 3084 3261 2657 
Q 3669 2231 3669 1497 
Q 3669 778 3244 343 
Q 2819 -91 2113 -91 
Q 1303 -91 875 529 
Q 447 1150 447 2328 
Q 447 3434 972 4092 
Q 1497 4750 2381 4750 
Q 2619 4750 2861 4703 
Q 3103 4656 3366 4563 
z
" transform="scale(0.015625)"/>
       </defs>
       <use xlink:href="#DejaVuSans-30"/>
       <use xlink:href="#DejaVuSans-2e" x="63.623047"/>
       <use xlink:href="#DejaVuSans-36" x="95.410156"/>
      </g>
     </g>
    </g>
    <g id="xtick_6">
     <g id="line2d_6">
      <g>
       <use xlink:href="#mc265579cca" x="414.72" y="307.584" style="stroke: #000000; stroke-width: 0.8"/>
      </g>
     </g>
     <g id="text_6">
      <!-- 0.8 -->
      <g transform="translate(406.768438 322.182437) scale(0.1 -0.1)">
       <defs>
        <path id="DejaVuSans-38" d="M 2034 2216 
Q 1584 2216 1326 1975 
Q 1069 1734 1069 1313 
Q 1069 891 1326 650 
Q 1584 409 2034 409 
Q 2484 409 2743 651 
Q 3003 894 3003 1313 
Q 3003 1734 2745 1975 
Q 2488 2216 2034 2216 
z
M 1403 2484 
Q 997 2584 770 2862 
Q 544 3141 544 3541 
Q 544 4100 942 4425 
Q 1341 4750 2034 4750 
Q 2731 4750 3128 4425 
Q 3525 4100 3525 3541 
Q 3525 3141 3298 2862 
Q 3072 2584 2669 2484 
Q 3125 2378 3379 2068 
Q 3634 1759 3634 1313 
Q 3634 634 3220 271 
Q 2806 -91 2034 -91 
Q 1263 -91 848 271 
Q 434 634 434 1313 
Q 434 1759 690 2068 
Q 947 2378 1403 2484 
z
M 1172 3481 
Q 1172 3119 1398 2916 
Q 1625 2713 2034 2713 
Q 2441 2713 2670 2916 
Q 2900 3119 2900 3481 
Q 2900 3844 2670 4047 
Q 2441 4250 2034 4250 
Q 1625 4250 1398 4047 
Q 1172 3844 1172 3481 
z
" transform="scale(0.015625)"/>
       </defs>
       <use xlink:href="#DejaVuSans-30"/>
       <use xlink:href="#DejaVuSans-2e" x="63.623047"/>
       <use xlink:href="#DejaVuSans-38" x="95.410156"/>
      </g>
     </g>
    </g>
   </g>
   <g id="matplotlib.axis_2">
    <g id="ytick_1">
     <g id="line2d_7">
      <defs>
       <path id="m9dc671b446" d="M 0 0 
L -3.5 0 
" style="stroke: #000000; stroke-width: 0.8"/>
      </defs>
      <g>
       <use xlink:href="#m9dc671b446" x="57.6" y="307.584" style="stroke: #000000; stroke-width: 0.8"/>
      </g>
     </g>
     <g id="text_7">
      <!-- 0 -->
      <g transform="translate(44.2375 311.383219) scale(0.1 -0.1)">
       <use xlink:href="#DejaVuSans-30"/>
      </g>
     </g>
    </g>
    <g id="ytick_2">
     <g id="line2d_8">
      <g>
       <use xlink:href="#m9dc671b446" x="57.6" y="263.232" style="stroke: #000000; stroke-width: 0.8"/>
      </g>
     </g>
     <g id="text_8">
      <!-- 50 -->
      <g transform="translate(37.875 267.031219) scale(0.1 -0.1)">
       <defs>
        <path id="DejaVuSans-35" d="M 691 4666 
L 3169 4666 
L 3169 4134 
L 1269 4134 
L 1269 2991 
Q 1406 3038 1543 3061 
Q 1681 3084 1819 3084 
Q 2600 3084 3056 2656 
Q 3513 2228 3513 1497 
Q 3513 744 3044 326 
Q 2575 -91 1722 -91 
Q 1428 -91 1123 -41 
Q 819 9 494 109 
L 494 744 
Q 775 591 1075 516 
Q 1375 441 1709 441 
Q 2250 441 2565 725 
Q 2881 1009 2881 1497 
Q 2881 1984 2565 2268 
Q 2250 2553 1709 2553 
Q 1456 2553 1204 2497 
Q 953 2441 691 2322 
L 691 4666 
z
" transform="scale(0.015625)"/>
       </defs>
       <use xlink:href="#DejaVuSans-35"/>
       <use xlink:href="#DejaVuSans-30" x="63.623047"/>
      </g>
     </g>
    </g>
    <g id="ytick_3">
     <g id="line2d_9">
      <g>
       <use xlink:href="#m9dc671b446" x="57.6" y="218.88" style="stroke: #000000; stroke-width: 0.8"/>
      </g>
     </g>
     <g id="text_9">
      <!-- 100 -->
      <g transform="translate(31.5125 222.679219) scale(0.1 -0.1)">
       <defs>
        <path id="DejaVuSans-31" d="M 794 531 
L 1825 531 
L 1825 4091 
L 703 3866 
L 703 4441 
L 1819 4666 
L 2450 4666 
L 2450 531 
L 3481 531 
L 3481 0 
L 794 0 
L 794 531 
z
" transform="scale(0.015625)"/>
       </defs>
       <use xlink:href="#DejaVuSans-31"/>
       <use xlink:href="#DejaVuSans-30" x="63.623047"/>
       <use xlink:href="#DejaVuSans-30" x="127.246094"/>
      </g>
     </g>
    </g>
    <g id="ytick_4">
     <g id="line2d_10">
      <g>
       <use xlink:href="#m9dc671b446" x="57.6" y="174.528" style="stroke: #000000; stroke-width: 0.8"/>
      </g>
     </g>
     <g id="text_10">
      <!-- 150 -->
      <g transform="translate(31.5125 178.327219) scale(0.1 -0.1)">
       <use xlink:href="#DejaVuSans-31"/>
       <use xlink:href="#DejaVuSans-35" x="63.623047"/>
       <use xlink:href="#DejaVuSans-30" x="127.246094"/>
      </g>
     </g>
    </g>
    <g id="ytick_5">
     <g id="line2d_11">
      <g>
       <use xlink:href="#m9dc671b446" x="57.6" y="130.176" style="stroke: #000000; stroke-width: 0.8"/>
      </g>
     </g>
     <g id="text_11">
      <!-- 200 -->
      <g transform="translate(31.5125 133.975219) scale(0.1 -0.1)">
       <use xlink:href="#DejaVuSans-32"/>
       <use xlink:href="#DejaVuSans-30" x="63.623047"/>
       <use xlink:href="#DejaVuSans-30" x="127.246094"/>
      </g>
     </g>
    </g>
    <g id="ytick_6">
     <g id="line2d_12">
      <g>
       <use xlink:href="#m9dc671b446" x="57.6" y="85.824" style="stroke: #000000; stroke-width: 0.8"/>
      </g>
     </g>
     <g id="text_12">
      <!-- 250 -->
      <g transform="translate(31.5125 89.623219) scale(0.1 -0.1)">
       <use xlink:href="#DejaVuSans-32"/>
       <use xlink:href="#DejaVuSans-35" x="63.623047"/>
       <use xlink:href="#DejaVuSans-30" x="127.246094"/>
      </g>
     </g>
    </g>
    <g id="ytick_7">
     <g id="line2d_13">
      <g>
       <use xlink:href="#m9dc671b446" x="57.6" y="41.472" style="stroke: #000000; stroke-width: 0.8"/>
      </g>
     </g>
     <g id="text_13">
      <!-- 300 -->
      <g transform="translate(31.5125 45.271219) scale(0.1 -0.1)">
       <defs>
        <path id="DejaVuSans-33" d="M 2597 2516 
Q 3050 2419 3304 2112 
Q 3559 1806 3559 1356 
Q 3559 666 3084 287 
Q 2609 -91 1734 -91 
Q 1441 -91 1130 -33 
Q 819 25 488 141 
L 488 750 
Q 750 597 1062 519 
Q 1375 441 1716 441 
Q 2309 441 2620 675 
Q 2931 909 2931 1356 
Q 2931 1769 2642 2001 
Q 2353 2234 1838 2234 
L 1294 2234 
L 1294 2753 
L 1863 2753 
Q 2328 2753 2575 2939 
Q 2822 3125 2822 3475 
Q 2822 3834 2567 4026 
Q 2313 4219 1838 4219 
Q 1578 4219 1281 4162 
Q 984 4106 628 3988 
L 628 4550 
Q 988 4650 1302 4700 
Q 1616 4750 1894 4750 
Q 2613 4750 3031 4423 
Q 3450 4097 3450 3541 
Q 3450 3153 3228 2886 
Q 3006 2619 2597 2516 
z
" transform="scale(0.015625)"/>
       </defs>
       <use xlink:href="#DejaVuSans-33"/>
       <use xlink:href="#DejaVuSans-30" x="63.623047"/>
       <use xlink:href="#DejaVuSans-30" x="127.246094"/>
      </g>
     </g>
    </g>
   </g>
   <g id="line2d_14">
    <path d="M 129.024 307.583638 
L 156.52224 307.471764 
L 163.30752 307.224832 
L 167.95008 306.832511 
L 171.52128 306.299521 
L 174.37824 305.650645 
L 176.87808 304.858888 
L 179.0208 303.965982 
L 181.16352 302.828156 
L 182.94912 301.656323 
L 184.73472 300.246723 
L 186.52032 298.564578 
L 188.30592 296.573274 
L 190.09152 294.235065 
L 191.87712 291.511969 
L 193.66272 288.366878 
L 195.44832 284.764856 
L 197.23392 280.674612 
L 199.01952 276.070131 
L 201.16224 269.839772 
L 203.30496 262.826075 
L 205.44768 255.035553 
L 207.94752 245.010148 
L 210.44736 234.076263 
L 213.66144 218.950638 
L 219.37536 190.630178 
L 223.30368 171.770702 
L 225.80352 160.79838 
L 227.94624 152.37592 
L 229.73184 146.222672 
L 231.16032 141.952534 
L 232.5888 138.321 
L 234.01728 135.37453 
L 235.08864 133.63757 
L 236.16 132.320431 
L 237.23136 131.432874 
L 237.9456 131.083221 
L 238.65984 130.928656 
L 239.37408 130.969692 
L 240.08832 131.206192 
L 240.80256 131.637372 
L 241.5168 132.261803 
L 242.58816 133.556102 
L 243.65952 135.270825 
L 244.73088 137.393336 
L 246.15936 140.830461 
L 247.58784 144.920471 
L 249.37344 150.871657 
L 251.15904 157.646709 
L 253.30176 166.684727 
L 256.15872 179.889304 
L 260.44416 201.013367 
L 265.80096 227.210053 
L 268.65792 240.17685 
L 271.15776 250.628714 
L 273.6576 260.108532 
L 275.80032 267.404066 
L 277.94304 273.915813 
L 280.08576 279.652079 
L 281.87136 283.85964 
L 283.65696 287.572409 
L 285.44256 290.820596 
L 287.22816 293.638432 
L 289.01376 296.062642 
L 290.79936 298.131111 
L 292.58496 299.881727 
L 294.37056 301.351436 
L 296.51328 302.793781 
L 298.656 303.938856 
L 300.79872 304.837722 
L 303.29856 305.63502 
L 306.15552 306.288678 
L 309.3696 306.783117 
L 313.29792 307.152352 
L 318.65472 307.407954 
L 326.86848 307.54457 
L 347.22432 307.583486 
L 461.8 307.584 
L 461.8 307.584 
" clip-path="url(#p4b53a3bd21)" style="fill: none; stroke: #ff7f0e; stroke-width: 1.5; stroke-linecap: square"/>
   </g>
   <g id="line2d_15">
    <path d="M 129.024 307.584 
L 194.37696 307.479417 
L 195.80544 307.239807 
L 196.8768 306.836683 
L 197.94816 306.133261 
L 198.6624 305.386539 
L 199.37664 304.393116 
L 200.09088 303.031999 
L 200.80512 301.293852 
L 201.51936 299.080357 
L 202.59072 294.76214 
L 203.66208 289.121635 
L 204.73344 281.945232 
L 205.8048 273.235692 
L 207.23328 259.292021 
L 208.66176 243.010829 
L 210.80448 215.621396 
L 215.80416 149.09258 
L 217.23264 132.867882 
L 218.66112 119.37192 
L 219.73248 111.181211 
L 220.80384 104.654331 
L 221.8752 99.608412 
L 222.94656 95.930365 
L 223.6608 94.116055 
L 224.37504 92.798795 
L 225.08928 92.008696 
L 225.4464 91.806015 
L 225.80352 91.763455 
L 226.16064 91.840346 
L 226.87488 92.393102 
L 227.58912 93.599443 
L 228.30336 95.287652 
L 229.0176 97.538365 
L 230.08896 101.67791 
L 232.23168 110.973592 
L 233.66016 116.739849 
L 235.08864 121.90644 
L 236.87424 128.290055 
L 237.9456 132.852985 
L 239.01696 138.289035 
L 240.08832 144.704376 
L 241.5168 154.582615 
L 244.37376 175.26963 
L 245.80224 184.073706 
L 247.23072 191.100092 
L 248.30208 195.343717 
L 250.08768 201.131548 
L 256.51584 220.626936 
L 263.65824 244.703864 
L 265.08672 248.507747 
L 266.15808 250.85001 
L 267.58656 253.460488 
L 271.15776 259.690906 
L 272.58624 262.743455 
L 278.65728 276.57531 
L 280.08576 279.05067 
L 281.51424 281.005223 
L 284.01408 283.900533 
L 290.44224 290.854481 
L 296.8704 297.276468 
L 298.656 298.539323 
L 300.4416 299.460321 
L 302.2272 300.163148 
L 304.72704 300.825659 
L 309.72672 301.938229 
L 316.86912 303.880359 
L 325.79712 305.579309 
L 329.36832 305.891206 
L 332.93952 306.221205 
L 342.93888 307.314375 
L 346.51008 307.533182 
L 352.224 307.584 
L 461.8 307.584 
L 461.8 307.584 
" clip-path="url(#p4b53a3bd21)" style="fill: none; stroke: #2ca02c; stroke-width: 1.5; stroke-linecap: square"/>
   </g>
   <g id="LineCollection_1">
    <path d="M 303.248925 307.584 
L 303.248925 41.472 
" clip-path="url(#p4b53a3bd21)" style="fill: none; stroke-dasharray: 5.55,2.4; stroke-dashoffset: 0; stroke: #ffa500; stroke-width: 1.5"/>
    <path d="M 174.485386 307.584 
L 174.485386 41.472 
" clip-path="url(#p4b53a3bd21)" style="fill: none; stroke-dasharray: 5.55,2.4; stroke-dashoffset: 0; stroke: #ffa500; stroke-width: 1.5"/>
   </g>
   <g id="LineCollection_2">
    <path d="M 329.36832 307.584 
L 329.36832 41.472 
" clip-path="url(#p4b53a3bd21)" style="fill: none; stroke-dasharray: 1.5,2.475; stroke-dashoffset: 0; stroke: #008000; stroke-width: 1.5"/>
    <path d="M 201.16224 307.584 
L 201.16224 41.472 
" clip-path="url(#p4b53a3bd21)" style="fill: none; stroke-dasharray: 1.5,2.475; stroke-dashoffset: 0; stroke: #008000; stroke-width: 1.5"/>
   </g>
   <g id="patch_53">
    <path d="M 57.6 307.584 
L 57.6 41.472 
" style="fill: none; stroke: #000000; stroke-width: 0.8; stroke-linejoin: miter; stroke-linecap: square"/>
   </g>
   <g id="patch_54">
    <path d="M 414.72 307.584 
L 414.72 41.472 
" style="fill: none; stroke: #000000; stroke-width: 0.8; stroke-linejoin: miter; stroke-linecap: square"/>
   </g>
   <g id="patch_55">
    <path d="M 57.6 307.584 
L 414.72 307.584 
" style="fill: none; stroke: #000000; stroke-width: 0.8; stroke-linejoin: miter; stroke-linecap: square"/>
   </g>
   <g id="patch_56">
    <path d="M 57.6 41.472 
L 414.72 41.472 
" style="fill: none; stroke: #000000; stroke-width: 0.8; stroke-linejoin: miter; stroke-linecap: square"/>
   </g>
   <g id="legend_1">
    <g id="patch_57">
     <path d="M 355.143438 78.82825 
L 407.72 78.82825 
Q 409.72 78.82825 409.72 76.82825 
L 409.72 48.472 
Q 409.72 46.472 407.72 46.472 
L 355.143438 46.472 
Q 353.143438 46.472 353.143438 48.472 
L 353.143438 76.82825 
Q 353.143438 78.82825 355.143438 78.82825 
z
" style="fill: #ffffff; opacity: 0.8; stroke: #cccccc; stroke-linejoin: miter"/>
    </g>
    <g id="line2d_16">
     <path d="M 357.143438 54.570437 
L 377.143438 54.570437 
" style="fill: none; stroke-dasharray: 5.55,2.4; stroke-dashoffset: 0; stroke: #ffa500; stroke-width: 1.5"/>
    </g>
    <g id="text_14">
     <!-- MLE -->
     <g transform="translate(385.143438 58.070437) scale(0.1 -0.1)">
      <defs>
       <path id="DejaVuSans-4d" d="M 628 4666 
L 1569 4666 
L 2759 1491 
L 3956 4666 
L 4897 4666 
L 4897 0 
L 4281 0 
L 4281 4097 
L 3078 897 
L 2444 897 
L 1241 4097 
L 1241 0 
L 628 0 
L 628 4666 
z
" transform="scale(0.015625)"/>
       <path id="DejaVuSans-4c" d="M 628 4666 
L 1259 4666 
L 1259 531 
L 3531 531 
L 3531 0 
L 628 0 
L 628 4666 
z
" transform="scale(0.015625)"/>
       <path id="DejaVuSans-45" d="M 628 4666 
L 3578 4666 
L 3578 4134 
L 1259 4134 
L 1259 2753 
L 3481 2753 
L 3481 2222 
L 1259 2222 
L 1259 531 
L 3634 531 
L 3634 0 
L 628 0 
L 628 4666 
z
" transform="scale(0.015625)"/>
      </defs>
      <use xlink:href="#DejaVuSans-4d"/>
      <use xlink:href="#DejaVuSans-4c" x="86.279297"/>
      <use xlink:href="#DejaVuSans-45" x="141.992188"/>
     </g>
    </g>
    <g id="line2d_17">
     <path d="M 357.143438 69.248562 
L 377.143438 69.248562 
" style="fill: none; stroke-dasharray: 1.5,2.475; stroke-dashoffset: 0; stroke: #008000; stroke-width: 1.5"/>
    </g>
    <g id="text_15">
     <!-- KDE -->
     <g transform="translate(385.143438 72.748562) scale(0.1 -0.1)">
      <defs>
       <path id="DejaVuSans-4b" d="M 628 4666 
L 1259 4666 
L 1259 2694 
L 3353 4666 
L 4166 4666 
L 1850 2491 
L 4331 0 
L 3500 0 
L 1259 2247 
L 1259 0 
L 628 0 
L 628 4666 
z
" transform="scale(0.015625)"/>
       <path id="DejaVuSans-44" d="M 1259 4147 
L 1259 519 
L 2022 519 
Q 2988 519 3436 956 
Q 3884 1394 3884 2338 
Q 3884 3275 3436 3711 
Q 2988 4147 2022 4147 
L 1259 4147 
z
M 628 4666 
L 1925 4666 
Q 3281 4666 3915 4102 
Q 4550 3538 4550 2338 
Q 4550 1131 3912 565 
Q 3275 0 1925 0 
L 628 0 
L 628 4666 
z
" transform="scale(0.015625)"/>
      </defs>
      <use xlink:href="#DejaVuSans-4b"/>
      <use xlink:href="#DejaVuSans-44" x="65.576172"/>
      <use xlink:href="#DejaVuSans-45" x="142.578125"/>
     </g>
    </g>
   </g>
  </g>
 </g>
 <defs>
  <clipPath id="p4b53a3bd21">
   <rect x="57.6" y="41.472" width="357.12" height="266.112"/>
  </clipPath>
 </defs>
</svg>
