<?xml version="1.0" encoding="utf-8" standalone="no"?>
<!DOCTYPE svg PUBLIC "-//W3C//DTD SVG 1.1//EN"
  "http://www.w3.org/Graphics/SVG/1.1/DTD/svg11.dtd">
<svg xmlns:xlink="http://www.w3.org/1999/xlink" width="460.8pt" height="345.6pt" viewBox="0 0 460.8 345.6" xmlns="http://www.w3.org/2000/svg" version="1.1">
 <metadata>
  <rdf:RDF xmlns:dc="http://purl.org/dc/elements/1.1/" xmlns:cc="http://creativecommons.org/ns#" xmlns:rdf="http://www.w3.org/1999/02/22-rdf-syntax-ns#">
   <cc:Work>
    <dc:type rdf:resource="http://purl.org/dc/dcmitype/StillImage"/>
    <dc:date>2023-03-27T22:28:50.315877</dc:date>
    <dc:format>image/svg+xml</dc:format>
    <dc:creator>
     <cc:Agent>
      <dc:title>Matplotlib v3.7.1, https://matplotlib.org/</dc:title>
     </cc:Agent>
    </dc:creator>
   </cc:Work>
  </rdf:RDF>
 </metadata>
 <defs>
  <style type="text/css">*{stroke-linejoin: round; stroke-linecap: butt}</style>
 </defs>
 <g id="figure_1">
  <g id="patch_1">
   <path d="M 0 345.6 
L 460.8 345.6 
L 460.8 0 
L 0 0 
z
" style="fill: #ffffff"/>
  </g>
  <g id="axes_1">
   <g id="patch_2">
    <path d="M 57.6 307.584 
L 414.72 307.584 
L 414.72 41.472 
L 57.6 41.472 
z
" style="fill: #ffffff"/>
   </g>
   <g id="patch_3">
    <path d="M 101.475192 307.584 
L 106.009266 307.584 
L 106.009266 306.519552 
L 101.475192 306.519552 
z
" clip-path="url(#p0ed1b9dd97)" style="fill: #1f77b4"/>
   </g>
   <g id="patch_4">
    <path d="M 106.009266 307.584 
L 110.543339 307.584 
L 110.543339 302.26176 
L 106.009266 302.26176 
z
" clip-path="url(#p0ed1b9dd97)" style="fill: #1f77b4"/>
   </g>
   <g id="patch_5">
    <path d="M 110.543339 307.584 
L 115.077413 307.584 
L 115.077413 306.519552 
L 110.543339 306.519552 
z
" clip-path="url(#p0ed1b9dd97)" style="fill: #1f77b4"/>
   </g>
   <g id="patch_6">
    <path d="M 115.077413 307.584 
L 119.611487 307.584 
L 119.611487 304.390656 
L 115.077413 304.390656 
z
" clip-path="url(#p0ed1b9dd97)" style="fill: #1f77b4"/>
   </g>
   <g id="patch_7">
    <path d="M 119.611487 307.584 
L 124.145561 307.584 
L 124.145561 307.584 
L 119.611487 307.584 
z
" clip-path="url(#p0ed1b9dd97)" style="fill: #1f77b4"/>
   </g>
   <g id="patch_8">
    <path d="M 124.145561 307.584 
L 128.679635 307.584 
L 128.679635 301.197312 
L 124.145561 301.197312 
z
" clip-path="url(#p0ed1b9dd97)" style="fill: #1f77b4"/>
   </g>
   <g id="patch_9">
    <path d="M 128.679635 307.584 
L 133.213708 307.584 
L 133.213708 302.26176 
L 128.679635 302.26176 
z
" clip-path="url(#p0ed1b9dd97)" style="fill: #1f77b4"/>
   </g>
   <g id="patch_10">
    <path d="M 133.213708 307.584 
L 137.747782 307.584 
L 137.747782 301.197312 
L 133.213708 301.197312 
z
" clip-path="url(#p0ed1b9dd97)" style="fill: #1f77b4"/>
   </g>
   <g id="patch_11">
    <path d="M 137.747782 307.584 
L 142.281856 307.584 
L 142.281856 292.681728 
L 137.747782 292.681728 
z
" clip-path="url(#p0ed1b9dd97)" style="fill: #1f77b4"/>
   </g>
   <g id="patch_12">
    <path d="M 142.281856 307.584 
L 146.81593 307.584 
L 146.81593 291.61728 
L 142.281856 291.61728 
z
" clip-path="url(#p0ed1b9dd97)" style="fill: #1f77b4"/>
   </g>
   <g id="patch_13">
    <path d="M 146.81593 307.584 
L 151.350004 307.584 
L 151.350004 298.003968 
L 146.81593 298.003968 
z
" clip-path="url(#p0ed1b9dd97)" style="fill: #1f77b4"/>
   </g>
   <g id="patch_14">
    <path d="M 151.350004 307.584 
L 155.884077 307.584 
L 155.884077 274.586112 
L 151.350004 274.586112 
z
" clip-path="url(#p0ed1b9dd97)" style="fill: #1f77b4"/>
   </g>
   <g id="patch_15">
    <path d="M 155.884077 307.584 
L 160.418151 307.584 
L 160.418151 279.908352 
L 155.884077 279.908352 
z
" clip-path="url(#p0ed1b9dd97)" style="fill: #1f77b4"/>
   </g>
   <g id="patch_16">
    <path d="M 160.418151 307.584 
L 164.952225 307.584 
L 164.952225 259.68384 
L 160.418151 259.68384 
z
" clip-path="url(#p0ed1b9dd97)" style="fill: #1f77b4"/>
   </g>
   <g id="patch_17">
    <path d="M 164.952225 307.584 
L 169.486299 307.584 
L 169.486299 247.974912 
L 164.952225 247.974912 
z
" clip-path="url(#p0ed1b9dd97)" style="fill: #1f77b4"/>
   </g>
   <g id="patch_18">
    <path d="M 169.486299 307.584 
L 174.020373 307.584 
L 174.020373 254.3616 
L 169.486299 254.3616 
z
" clip-path="url(#p0ed1b9dd97)" style="fill: #1f77b4"/>
   </g>
   <g id="patch_19">
    <path d="M 174.020373 307.584 
L 178.554446 307.584 
L 178.554446 238.39488 
L 174.020373 238.39488 
z
" clip-path="url(#p0ed1b9dd97)" style="fill: #1f77b4"/>
   </g>
   <g id="patch_20">
    <path d="M 178.554446 307.584 
L 183.08852 307.584 
L 183.08852 199.010304 
L 178.554446 199.010304 
z
" clip-path="url(#p0ed1b9dd97)" style="fill: #1f77b4"/>
   </g>
   <g id="patch_21">
    <path d="M 183.08852 307.584 
L 187.622594 307.584 
L 187.622594 191.559168 
L 183.08852 191.559168 
z
" clip-path="url(#p0ed1b9dd97)" style="fill: #1f77b4"/>
   </g>
   <g id="patch_22">
    <path d="M 187.622594 307.584 
L 192.156668 307.584 
L 192.156668 176.656896 
L 187.622594 176.656896 
z
" clip-path="url(#p0ed1b9dd97)" style="fill: #1f77b4"/>
   </g>
   <g id="patch_23">
    <path d="M 192.156668 307.584 
L 196.690742 307.584 
L 196.690742 160.690176 
L 192.156668 160.690176 
z
" clip-path="url(#p0ed1b9dd97)" style="fill: #1f77b4"/>
   </g>
   <g id="patch_24">
    <path d="M 196.690742 307.584 
L 201.224815 307.584 
L 201.224815 136.207872 
L 196.690742 136.207872 
z
" clip-path="url(#p0ed1b9dd97)" style="fill: #1f77b4"/>
   </g>
   <g id="patch_25">
    <path d="M 201.224815 307.584 
L 205.758889 307.584 
L 205.758889 134.078976 
L 201.224815 134.078976 
z
" clip-path="url(#p0ed1b9dd97)" style="fill: #1f77b4"/>
   </g>
   <g id="patch_26">
    <path d="M 205.758889 307.584 
L 210.292963 307.584 
L 210.292963 126.62784 
L 205.758889 126.62784 
z
" clip-path="url(#p0ed1b9dd97)" style="fill: #1f77b4"/>
   </g>
   <g id="patch_27">
    <path d="M 210.292963 307.584 
L 214.827037 307.584 
L 214.827037 77.663232 
L 210.292963 77.663232 
z
" clip-path="url(#p0ed1b9dd97)" style="fill: #1f77b4"/>
   </g>
   <g id="patch_28">
    <path d="M 214.827037 307.584 
L 219.361111 307.584 
L 219.361111 109.596672 
L 214.827037 109.596672 
z
" clip-path="url(#p0ed1b9dd97)" style="fill: #1f77b4"/>
   </g>
   <g id="patch_29">
    <path d="M 219.361111 307.584 
L 223.895184 307.584 
L 223.895184 92.565504 
L 219.361111 92.565504 
z
" clip-path="url(#p0ed1b9dd97)" style="fill: #1f77b4"/>
   </g>
   <g id="patch_30">
    <path d="M 223.895184 307.584 
L 228.429258 307.584 
L 228.429258 121.3056 
L 223.895184 121.3056 
z
" clip-path="url(#p0ed1b9dd97)" style="fill: #1f77b4"/>
   </g>
   <g id="patch_31">
    <path d="M 228.429258 307.584 
L 232.963332 307.584 
L 232.963332 76.598784 
L 228.429258 76.598784 
z
" clip-path="url(#p0ed1b9dd97)" style="fill: #1f77b4"/>
   </g>
   <g id="patch_32">
    <path d="M 232.963332 307.584 
L 237.497406 307.584 
L 237.497406 106.403328 
L 232.963332 106.403328 
z
" clip-path="url(#p0ed1b9dd97)" style="fill: #1f77b4"/>
   </g>
   <g id="patch_33">
    <path d="M 237.497406 307.584 
L 242.03148 307.584 
L 242.03148 92.565504 
L 237.497406 92.565504 
z
" clip-path="url(#p0ed1b9dd97)" style="fill: #1f77b4"/>
   </g>
   <g id="patch_34">
    <path d="M 242.03148 307.584 
L 246.565553 307.584 
L 246.565553 161.754624 
L 242.03148 161.754624 
z
" clip-path="url(#p0ed1b9dd97)" style="fill: #1f77b4"/>
   </g>
   <g id="patch_35">
    <path d="M 246.565553 307.584 
L 251.099627 307.584 
L 251.099627 137.27232 
L 246.565553 137.27232 
z
" clip-path="url(#p0ed1b9dd97)" style="fill: #1f77b4"/>
   </g>
   <g id="patch_36">
    <path d="M 251.099627 307.584 
L 255.633701 307.584 
L 255.633701 154.303488 
L 251.099627 154.303488 
z
" clip-path="url(#p0ed1b9dd97)" style="fill: #1f77b4"/>
   </g>
   <g id="patch_37">
    <path d="M 255.633701 307.584 
L 260.167775 307.584 
L 260.167775 154.303488 
L 255.633701 154.303488 
z
" clip-path="url(#p0ed1b9dd97)" style="fill: #1f77b4"/>
   </g>
   <g id="patch_38">
    <path d="M 260.167775 307.584 
L 264.701849 307.584 
L 264.701849 173.463552 
L 260.167775 173.463552 
z
" clip-path="url(#p0ed1b9dd97)" style="fill: #1f77b4"/>
   </g>
   <g id="patch_39">
    <path d="M 264.701849 307.584 
L 269.235922 307.584 
L 269.235922 188.365824 
L 264.701849 188.365824 
z
" clip-path="url(#p0ed1b9dd97)" style="fill: #1f77b4"/>
   </g>
   <g id="patch_40">
    <path d="M 269.235922 307.584 
L 273.769996 307.584 
L 273.769996 204.332544 
L 269.235922 204.332544 
z
" clip-path="url(#p0ed1b9dd97)" style="fill: #1f77b4"/>
   </g>
   <g id="patch_41">
    <path d="M 273.769996 307.584 
L 278.30407 307.584 
L 278.30407 206.46144 
L 273.769996 206.46144 
z
" clip-path="url(#p0ed1b9dd97)" style="fill: #1f77b4"/>
   </g>
   <g id="patch_42">
    <path d="M 278.30407 307.584 
L 282.838144 307.584 
L 282.838144 226.685952 
L 278.30407 226.685952 
z
" clip-path="url(#p0ed1b9dd97)" style="fill: #1f77b4"/>
   </g>
   <g id="patch_43">
    <path d="M 282.838144 307.584 
L 287.372218 307.584 
L 287.372218 257.554944 
L 282.838144 257.554944 
z
" clip-path="url(#p0ed1b9dd97)" style="fill: #1f77b4"/>
   </g>
   <g id="patch_44">
    <path d="M 287.372218 307.584 
L 291.906291 307.584 
L 291.906291 258.619392 
L 287.372218 258.619392 
z
" clip-path="url(#p0ed1b9dd97)" style="fill: #1f77b4"/>
   </g>
   <g id="patch_45">
    <path d="M 291.906291 307.584 
L 296.440365 307.584 
L 296.440365 267.134976 
L 291.906291 267.134976 
z
" clip-path="url(#p0ed1b9dd97)" style="fill: #1f77b4"/>
   </g>
   <g id="patch_46">
    <path d="M 296.440365 307.584 
L 300.974439 307.584 
L 300.974439 280.9728 
L 296.440365 280.9728 
z
" clip-path="url(#p0ed1b9dd97)" style="fill: #1f77b4"/>
   </g>
   <g id="patch_47">
    <path d="M 300.974439 307.584 
L 305.508513 307.584 
L 305.508513 289.488384 
L 300.974439 289.488384 
z
" clip-path="url(#p0ed1b9dd97)" style="fill: #1f77b4"/>
   </g>
   <g id="patch_48">
    <path d="M 305.508513 307.584 
L 310.042587 307.584 
L 310.042587 288.423936 
L 305.508513 288.423936 
z
" clip-path="url(#p0ed1b9dd97)" style="fill: #1f77b4"/>
   </g>
   <g id="patch_49">
    <path d="M 310.042587 307.584 
L 314.57666 307.584 
L 314.57666 296.93952 
L 310.042587 296.93952 
z
" clip-path="url(#p0ed1b9dd97)" style="fill: #1f77b4"/>
   </g>
   <g id="patch_50">
    <path d="M 314.57666 307.584 
L 319.110734 307.584 
L 319.110734 298.003968 
L 314.57666 298.003968 
z
" clip-path="url(#p0ed1b9dd97)" style="fill: #1f77b4"/>
   </g>
   <g id="patch_51">
    <path d="M 319.110734 307.584 
L 323.644808 307.584 
L 323.644808 303.326208 
L 319.110734 303.326208 
z
" clip-path="url(#p0ed1b9dd97)" style="fill: #1f77b4"/>
   </g>
   <g id="patch_52">
    <path d="M 323.644808 307.584 
L 328.178882 307.584 
L 328.178882 303.326208 
L 323.644808 303.326208 
z
" clip-path="url(#p0ed1b9dd97)" style="fill: #1f77b4"/>
   </g>
   <g id="matplotlib.axis_1">
    <g id="xtick_1">
     <g id="line2d_1">
      <defs>
       <path id="m89ad80af27" d="M 0 0 
L 0 3.5 
" style="stroke: #000000; stroke-width: 0.8"/>
      </defs>
      <g>
       <use xlink:href="#m89ad80af27" x="57.6" y="307.584" style="stroke: #000000; stroke-width: 0.8"/>
      </g>
     </g>
     <g id="text_1">
      <!-- 66.4 -->
      <g transform="translate(46.467187 322.182437) scale(0.1 -0.1)">
       <defs>
        <path id="DejaVuSans-36" d="M 2113 2584 
Q 1688 2584 1439 2293 
Q 1191 2003 1191 1497 
Q 1191 994 1439 701 
Q 1688 409 2113 409 
Q 2538 409 2786 701 
Q 3034 994 3034 1497 
Q 3034 2003 2786 2293 
Q 2538 2584 2113 2584 
z
M 3366 4563 
L 3366 3988 
Q 3128 4100 2886 4159 
Q 2644 4219 2406 4219 
Q 1781 4219 1451 3797 
Q 1122 3375 1075 2522 
Q 1259 2794 1537 2939 
Q 1816 3084 2150 3084 
Q 2853 3084 3261 2657 
Q 3669 2231 3669 1497 
Q 3669 778 3244 343 
Q 2819 -91 2113 -91 
Q 1303 -91 875 529 
Q 447 1150 447 2328 
Q 447 3434 972 4092 
Q 1497 4750 2381 4750 
Q 2619 4750 2861 4703 
Q 3103 4656 3366 4563 
z
" transform="scale(0.015625)"/>
        <path id="DejaVuSans-2e" d="M 684 794 
L 1344 794 
L 1344 0 
L 684 0 
L 684 794 
z
" transform="scale(0.015625)"/>
        <path id="DejaVuSans-34" d="M 2419 4116 
L 825 1625 
L 2419 1625 
L 2419 4116 
z
M 2253 4666 
L 3047 4666 
L 3047 1625 
L 3713 1625 
L 3713 1100 
L 3047 1100 
L 3047 0 
L 2419 0 
L 2419 1100 
L 313 1100 
L 313 1709 
L 2253 4666 
z
" transform="scale(0.015625)"/>
       </defs>
       <use xlink:href="#DejaVuSans-36"/>
       <use xlink:href="#DejaVuSans-36" x="63.623047"/>
       <use xlink:href="#DejaVuSans-2e" x="127.246094"/>
       <use xlink:href="#DejaVuSans-34" x="159.033203"/>
      </g>
     </g>
    </g>
    <g id="xtick_2">
     <g id="line2d_2">
      <g>
       <use xlink:href="#m89ad80af27" x="129.024" y="307.584" style="stroke: #000000; stroke-width: 0.8"/>
      </g>
     </g>
     <g id="text_2">
      <!-- 66.5 -->
      <g transform="translate(117.891187 322.182437) scale(0.1 -0.1)">
       <defs>
        <path id="DejaVuSans-35" d="M 691 4666 
L 3169 4666 
L 3169 4134 
L 1269 4134 
L 1269 2991 
Q 1406 3038 1543 3061 
Q 1681 3084 1819 3084 
Q 2600 3084 3056 2656 
Q 3513 2228 3513 1497 
Q 3513 744 3044 326 
Q 2575 -91 1722 -91 
Q 1428 -91 1123 -41 
Q 819 9 494 109 
L 494 744 
Q 775 591 1075 516 
Q 1375 441 1709 441 
Q 2250 441 2565 725 
Q 2881 1009 2881 1497 
Q 2881 1984 2565 2268 
Q 2250 2553 1709 2553 
Q 1456 2553 1204 2497 
Q 953 2441 691 2322 
L 691 4666 
z
" transform="scale(0.015625)"/>
       </defs>
       <use xlink:href="#DejaVuSans-36"/>
       <use xlink:href="#DejaVuSans-36" x="63.623047"/>
       <use xlink:href="#DejaVuSans-2e" x="127.246094"/>
       <use xlink:href="#DejaVuSans-35" x="159.033203"/>
      </g>
     </g>
    </g>
    <g id="xtick_3">
     <g id="line2d_3">
      <g>
       <use xlink:href="#m89ad80af27" x="200.448" y="307.584" style="stroke: #000000; stroke-width: 0.8"/>
      </g>
     </g>
     <g id="text_3">
      <!-- 66.6 -->
      <g transform="translate(189.315187 322.182437) scale(0.1 -0.1)">
       <use xlink:href="#DejaVuSans-36"/>
       <use xlink:href="#DejaVuSans-36" x="63.623047"/>
       <use xlink:href="#DejaVuSans-2e" x="127.246094"/>
       <use xlink:href="#DejaVuSans-36" x="159.033203"/>
      </g>
     </g>
    </g>
    <g id="xtick_4">
     <g id="line2d_4">
      <g>
       <use xlink:href="#m89ad80af27" x="271.872" y="307.584" style="stroke: #000000; stroke-width: 0.8"/>
      </g>
     </g>
     <g id="text_4">
      <!-- 66.7 -->
      <g transform="translate(260.739187 322.182437) scale(0.1 -0.1)">
       <defs>
        <path id="DejaVuSans-37" d="M 525 4666 
L 3525 4666 
L 3525 4397 
L 1831 0 
L 1172 0 
L 2766 4134 
L 525 4134 
L 525 4666 
z
" transform="scale(0.015625)"/>
       </defs>
       <use xlink:href="#DejaVuSans-36"/>
       <use xlink:href="#DejaVuSans-36" x="63.623047"/>
       <use xlink:href="#DejaVuSans-2e" x="127.246094"/>
       <use xlink:href="#DejaVuSans-37" x="159.033203"/>
      </g>
     </g>
    </g>
    <g id="xtick_5">
     <g id="line2d_5">
      <g>
       <use xlink:href="#m89ad80af27" x="343.296" y="307.584" style="stroke: #000000; stroke-width: 0.8"/>
      </g>
     </g>
     <g id="text_5">
      <!-- 66.8 -->
      <g transform="translate(332.163188 322.182437) scale(0.1 -0.1)">
       <defs>
        <path id="DejaVuSans-38" d="M 2034 2216 
Q 1584 2216 1326 1975 
Q 1069 1734 1069 1313 
Q 1069 891 1326 650 
Q 1584 409 2034 409 
Q 2484 409 2743 651 
Q 3003 894 3003 1313 
Q 3003 1734 2745 1975 
Q 2488 2216 2034 2216 
z
M 1403 2484 
Q 997 2584 770 2862 
Q 544 3141 544 3541 
Q 544 4100 942 4425 
Q 1341 4750 2034 4750 
Q 2731 4750 3128 4425 
Q 3525 4100 3525 3541 
Q 3525 3141 3298 2862 
Q 3072 2584 2669 2484 
Q 3125 2378 3379 2068 
Q 3634 1759 3634 1313 
Q 3634 634 3220 271 
Q 2806 -91 2034 -91 
Q 1263 -91 848 271 
Q 434 634 434 1313 
Q 434 1759 690 2068 
Q 947 2378 1403 2484 
z
M 1172 3481 
Q 1172 3119 1398 2916 
Q 1625 2713 2034 2713 
Q 2441 2713 2670 2916 
Q 2900 3119 2900 3481 
Q 2900 3844 2670 4047 
Q 2441 4250 2034 4250 
Q 1625 4250 1398 4047 
Q 1172 3844 1172 3481 
z
" transform="scale(0.015625)"/>
       </defs>
       <use xlink:href="#DejaVuSans-36"/>
       <use xlink:href="#DejaVuSans-36" x="63.623047"/>
       <use xlink:href="#DejaVuSans-2e" x="127.246094"/>
       <use xlink:href="#DejaVuSans-38" x="159.033203"/>
      </g>
     </g>
    </g>
    <g id="xtick_6">
     <g id="line2d_6">
      <g>
       <use xlink:href="#m89ad80af27" x="414.72" y="307.584" style="stroke: #000000; stroke-width: 0.8"/>
      </g>
     </g>
     <g id="text_6">
      <!-- 66.9 -->
      <g transform="translate(403.587187 322.182437) scale(0.1 -0.1)">
       <defs>
        <path id="DejaVuSans-39" d="M 703 97 
L 703 672 
Q 941 559 1184 500 
Q 1428 441 1663 441 
Q 2288 441 2617 861 
Q 2947 1281 2994 2138 
Q 2813 1869 2534 1725 
Q 2256 1581 1919 1581 
Q 1219 1581 811 2004 
Q 403 2428 403 3163 
Q 403 3881 828 4315 
Q 1253 4750 1959 4750 
Q 2769 4750 3195 4129 
Q 3622 3509 3622 2328 
Q 3622 1225 3098 567 
Q 2575 -91 1691 -91 
Q 1453 -91 1209 -44 
Q 966 3 703 97 
z
M 1959 2075 
Q 2384 2075 2632 2365 
Q 2881 2656 2881 3163 
Q 2881 3666 2632 3958 
Q 2384 4250 1959 4250 
Q 1534 4250 1286 3958 
Q 1038 3666 1038 3163 
Q 1038 2656 1286 2365 
Q 1534 2075 1959 2075 
z
" transform="scale(0.015625)"/>
       </defs>
       <use xlink:href="#DejaVuSans-36"/>
       <use xlink:href="#DejaVuSans-36" x="63.623047"/>
       <use xlink:href="#DejaVuSans-2e" x="127.246094"/>
       <use xlink:href="#DejaVuSans-39" x="159.033203"/>
      </g>
     </g>
    </g>
   </g>
   <g id="matplotlib.axis_2">
    <g id="ytick_1">
     <g id="line2d_7">
      <defs>
       <path id="m25b2d75a0a" d="M 0 0 
L -3.5 0 
" style="stroke: #000000; stroke-width: 0.8"/>
      </defs>
      <g>
       <use xlink:href="#m25b2d75a0a" x="57.6" y="307.584" style="stroke: #000000; stroke-width: 0.8"/>
      </g>
     </g>
     <g id="text_7">
      <!-- 0 -->
      <g transform="translate(44.2375 311.383219) scale(0.1 -0.1)">
       <defs>
        <path id="DejaVuSans-30" d="M 2034 4250 
Q 1547 4250 1301 3770 
Q 1056 3291 1056 2328 
Q 1056 1369 1301 889 
Q 1547 409 2034 409 
Q 2525 409 2770 889 
Q 3016 1369 3016 2328 
Q 3016 3291 2770 3770 
Q 2525 4250 2034 4250 
z
M 2034 4750 
Q 2819 4750 3233 4129 
Q 3647 3509 3647 2328 
Q 3647 1150 3233 529 
Q 2819 -91 2034 -91 
Q 1250 -91 836 529 
Q 422 1150 422 2328 
Q 422 3509 836 4129 
Q 1250 4750 2034 4750 
z
" transform="scale(0.015625)"/>
       </defs>
       <use xlink:href="#DejaVuSans-30"/>
      </g>
     </g>
    </g>
    <g id="ytick_2">
     <g id="line2d_8">
      <g>
       <use xlink:href="#m25b2d75a0a" x="57.6" y="254.3616" style="stroke: #000000; stroke-width: 0.8"/>
      </g>
     </g>
     <g id="text_8">
      <!-- 50 -->
      <g transform="translate(37.875 258.160819) scale(0.1 -0.1)">
       <use xlink:href="#DejaVuSans-35"/>
       <use xlink:href="#DejaVuSans-30" x="63.623047"/>
      </g>
     </g>
    </g>
    <g id="ytick_3">
     <g id="line2d_9">
      <g>
       <use xlink:href="#m25b2d75a0a" x="57.6" y="201.1392" style="stroke: #000000; stroke-width: 0.8"/>
      </g>
     </g>
     <g id="text_9">
      <!-- 100 -->
      <g transform="translate(31.5125 204.938419) scale(0.1 -0.1)">
       <defs>
        <path id="DejaVuSans-31" d="M 794 531 
L 1825 531 
L 1825 4091 
L 703 3866 
L 703 4441 
L 1819 4666 
L 2450 4666 
L 2450 531 
L 3481 531 
L 3481 0 
L 794 0 
L 794 531 
z
" transform="scale(0.015625)"/>
       </defs>
       <use xlink:href="#DejaVuSans-31"/>
       <use xlink:href="#DejaVuSans-30" x="63.623047"/>
       <use xlink:href="#DejaVuSans-30" x="127.246094"/>
      </g>
     </g>
    </g>
    <g id="ytick_4">
     <g id="line2d_10">
      <g>
       <use xlink:href="#m25b2d75a0a" x="57.6" y="147.9168" style="stroke: #000000; stroke-width: 0.8"/>
      </g>
     </g>
     <g id="text_10">
      <!-- 150 -->
      <g transform="translate(31.5125 151.716019) scale(0.1 -0.1)">
       <use xlink:href="#DejaVuSans-31"/>
       <use xlink:href="#DejaVuSans-35" x="63.623047"/>
       <use xlink:href="#DejaVuSans-30" x="127.246094"/>
      </g>
     </g>
    </g>
    <g id="ytick_5">
     <g id="line2d_11">
      <g>
       <use xlink:href="#m25b2d75a0a" x="57.6" y="94.6944" style="stroke: #000000; stroke-width: 0.8"/>
      </g>
     </g>
     <g id="text_11">
      <!-- 200 -->
      <g transform="translate(31.5125 98.493619) scale(0.1 -0.1)">
       <defs>
        <path id="DejaVuSans-32" d="M 1228 531 
L 3431 531 
L 3431 0 
L 469 0 
L 469 531 
Q 828 903 1448 1529 
Q 2069 2156 2228 2338 
Q 2531 2678 2651 2914 
Q 2772 3150 2772 3378 
Q 2772 3750 2511 3984 
Q 2250 4219 1831 4219 
Q 1534 4219 1204 4116 
Q 875 4013 500 3803 
L 500 4441 
Q 881 4594 1212 4672 
Q 1544 4750 1819 4750 
Q 2544 4750 2975 4387 
Q 3406 4025 3406 3419 
Q 3406 3131 3298 2873 
Q 3191 2616 2906 2266 
Q 2828 2175 2409 1742 
Q 1991 1309 1228 531 
z
" transform="scale(0.015625)"/>
       </defs>
       <use xlink:href="#DejaVuSans-32"/>
       <use xlink:href="#DejaVuSans-30" x="63.623047"/>
       <use xlink:href="#DejaVuSans-30" x="127.246094"/>
      </g>
     </g>
    </g>
    <g id="ytick_6">
     <g id="line2d_12">
      <g>
       <use xlink:href="#m25b2d75a0a" x="57.6" y="41.472" style="stroke: #000000; stroke-width: 0.8"/>
      </g>
     </g>
     <g id="text_12">
      <!-- 250 -->
      <g transform="translate(31.5125 45.271219) scale(0.1 -0.1)">
       <use xlink:href="#DejaVuSans-32"/>
       <use xlink:href="#DejaVuSans-35" x="63.623047"/>
       <use xlink:href="#DejaVuSans-30" x="127.246094"/>
      </g>
     </g>
    </g>
   </g>
   <g id="line2d_13">
    <path d="M -1 307.584 
L 87.59808 307.477982 
L 99.02592 307.231999 
L 106.16832 306.87677 
L 111.88224 306.383406 
L 116.88192 305.716199 
L 121.16736 304.898454 
L 124.73856 303.98943 
L 128.30976 302.820854 
L 131.16672 301.660929 
L 134.02368 300.26579 
L 136.88064 298.600043 
L 139.7376 296.625897 
L 142.59456 294.303698 
L 144.73728 292.30911 
L 146.88 290.078441 
L 149.02272 287.594514 
L 151.16544 284.84062 
L 153.30816 281.80084 
L 155.45088 278.460402 
L 158.30784 273.51617 
L 161.1648 267.98823 
L 164.02176 261.858548 
L 166.87872 255.118707 
L 169.73568 247.771619 
L 172.59264 239.833118 
L 176.16384 229.125653 
L 179.73504 217.635074 
L 184.02048 203.001444 
L 189.7344 182.569408 
L 198.30528 151.898015 
L 201.87648 139.885699 
L 204.73344 130.895831 
L 207.5904 122.618315 
L 209.73312 116.963484 
L 211.87584 111.845677 
L 214.01856 107.316797 
L 216.16128 103.42358 
L 217.58976 101.201649 
L 219.01824 99.29095 
L 220.44672 97.700535 
L 221.8752 96.437983 
L 223.30368 95.509339 
L 224.73216 94.919063 
L 226.16064 94.669999 
L 227.58912 94.763346 
L 229.0176 95.198655 
L 230.44608 95.973829 
L 231.87456 97.085138 
L 233.30304 98.527253 
L 234.73152 100.293287 
L 236.16 102.37485 
L 237.58848 104.762112 
L 239.7312 108.891371 
L 241.87392 113.639959 
L 244.01664 118.959165 
L 246.15936 124.795424 
L 249.01632 133.281522 
L 251.87328 142.43994 
L 255.44448 154.605087 
L 261.1584 175.034766 
L 269.72928 205.717278 
L 274.01472 220.201117 
L 277.58592 231.530834 
L 281.15712 242.053897 
L 284.01408 249.833574 
L 286.87104 257.016158 
L 289.728 263.589486 
L 292.58496 269.553896 
L 295.44192 274.9206 
L 298.29888 279.709945 
L 301.15584 283.949643 
L 304.0128 287.673034 
L 306.15552 290.149101 
L 309.01248 293.060326 
L 311.86944 295.563059 
L 314.7264 297.698348 
L 317.58336 299.506499 
L 320.44032 301.026268 
L 323.29728 302.29425 
L 326.15424 303.344433 
L 329.72544 304.397977 
L 333.29664 305.21367 
L 337.58208 305.943728 
L 342.58176 306.535845 
L 348.29568 306.970706 
L 355.43808 307.281308 
L 365.43744 307.478727 
L 383.29344 307.570876 
L 461.8 307.584 
L 461.8 307.584 
" clip-path="url(#p0ed1b9dd97)" style="fill: none; stroke: #ff7f0e; stroke-width: 1.5; stroke-linecap: square"/>
   </g>
   <g id="line2d_14">
    <path d="M -1 307.584 
L 89.02656 307.483256 
L 94.02624 307.219955 
L 98.31168 306.762637 
L 109.02528 305.410344 
L 119.73888 304.587287 
L 123.31008 303.856209 
L 126.16704 303.004441 
L 129.024 301.940575 
L 131.88096 300.624653 
L 134.73792 299.056122 
L 138.30912 296.863286 
L 141.16608 294.868098 
L 144.02304 292.588142 
L 146.16576 290.513965 
L 148.30848 288.011262 
L 150.4512 285.03123 
L 152.59392 281.587917 
L 155.45088 276.486424 
L 165.45024 257.618743 
L 167.59296 253.211194 
L 169.73568 248.196668 
L 171.8784 242.381668 
L 174.02112 235.739618 
L 176.16384 228.239654 
L 179.0208 217.372186 
L 186.1632 189.90553 
L 190.44864 174.691603 
L 195.44832 157.91862 
L 200.448 142.223603 
L 203.30496 133.643613 
L 206.16192 125.485034 
L 208.30464 119.881053 
L 209.73312 116.495919 
L 211.1616 113.558065 
L 212.59008 111.060181 
L 214.01856 109.077119 
L 215.44704 107.541732 
L 216.87552 106.381535 
L 218.304 105.668925 
L 220.44672 104.937772 
L 226.16064 103.609216 
L 227.58912 103.417573 
L 229.0176 103.429793 
L 229.73184 103.54794 
L 230.44608 103.802205 
L 231.16032 104.214903 
L 232.5888 105.475233 
L 234.01728 107.344484 
L 235.44576 109.941457 
L 236.87424 113.133678 
L 238.30272 116.873035 
L 240.44544 123.11276 
L 244.01664 133.976384 
L 246.15936 139.831062 
L 249.01632 146.747186 
L 254.016 157.343927 
L 255.44448 160.462726 
L 257.5872 165.480587 
L 259.72992 171.021784 
L 262.58688 179.013696 
L 274.72896 214.70787 
L 280.44288 231.998382 
L 284.72832 244.900203 
L 288.29952 254.886605 
L 291.87072 263.927143 
L 294.72768 270.53856 
L 297.58464 276.450204 
L 299.72736 280.356566 
L 301.87008 283.841407 
L 304.0128 286.863726 
L 306.15552 289.453414 
L 308.29824 291.763655 
L 310.44096 293.800717 
L 313.29792 296.194395 
L 316.15488 298.368053 
L 319.72608 300.72575 
L 322.58304 302.378759 
L 325.44 303.821883 
L 328.29696 305.02906 
L 330.43968 305.778378 
L 333.29664 306.521834 
L 335.43936 306.923478 
L 338.29632 307.266647 
L 341.86752 307.480296 
L 347.58144 307.574774 
L 363.29472 307.584 
L 461.8 307.584 
L 461.8 307.584 
" clip-path="url(#p0ed1b9dd97)" style="fill: none; stroke: #2ca02c; stroke-width: 1.5; stroke-linecap: square"/>
   </g>
   <g id="LineCollection_1">
    <path d="M 333.321563 307.584 
L 333.321563 41.472 
" clip-path="url(#p0ed1b9dd97)" style="fill: none; stroke-dasharray: 5.55,2.4; stroke-dashoffset: 0; stroke: #ffa500; stroke-width: 1.5"/>
    <path d="M 119.649547 307.584 
L 119.649547 41.472 
" clip-path="url(#p0ed1b9dd97)" style="fill: none; stroke-dasharray: 5.55,2.4; stroke-dashoffset: 0; stroke: #ffa500; stroke-width: 1.5"/>
   </g>
   <g id="LineCollection_2">
    <path d="M 324.01152 307.584 
L 324.01152 41.472 
" clip-path="url(#p0ed1b9dd97)" style="fill: none; stroke-dasharray: 1.5,2.475; stroke-dashoffset: 0; stroke: #008000; stroke-width: 1.5"/>
    <path d="M 112.59648 307.584 
L 112.59648 41.472 
" clip-path="url(#p0ed1b9dd97)" style="fill: none; stroke-dasharray: 1.5,2.475; stroke-dashoffset: 0; stroke: #008000; stroke-width: 1.5"/>
   </g>
   <g id="patch_53">
    <path d="M 57.6 307.584 
L 57.6 41.472 
" style="fill: none; stroke: #000000; stroke-width: 0.8; stroke-linejoin: miter; stroke-linecap: square"/>
   </g>
   <g id="patch_54">
    <path d="M 414.72 307.584 
L 414.72 41.472 
" style="fill: none; stroke: #000000; stroke-width: 0.8; stroke-linejoin: miter; stroke-linecap: square"/>
   </g>
   <g id="patch_55">
    <path d="M 57.6 307.584 
L 414.72 307.584 
" style="fill: none; stroke: #000000; stroke-width: 0.8; stroke-linejoin: miter; stroke-linecap: square"/>
   </g>
   <g id="patch_56">
    <path d="M 57.6 41.472 
L 414.72 41.472 
" style="fill: none; stroke: #000000; stroke-width: 0.8; stroke-linejoin: miter; stroke-linecap: square"/>
   </g>
   <g id="legend_1">
    <g id="patch_57">
     <path d="M 355.143438 78.82825 
L 407.72 78.82825 
Q 409.72 78.82825 409.72 76.82825 
L 409.72 48.472 
Q 409.72 46.472 407.72 46.472 
L 355.143438 46.472 
Q 353.143438 46.472 353.143438 48.472 
L 353.143438 76.82825 
Q 353.143438 78.82825 355.143438 78.82825 
z
" style="fill: #ffffff; opacity: 0.8; stroke: #cccccc; stroke-linejoin: miter"/>
    </g>
    <g id="line2d_15">
     <path d="M 357.143438 54.570437 
L 377.143438 54.570437 
" style="fill: none; stroke-dasharray: 5.55,2.4; stroke-dashoffset: 0; stroke: #ffa500; stroke-width: 1.5"/>
    </g>
    <g id="text_13">
     <!-- MLE -->
     <g transform="translate(385.143438 58.070437) scale(0.1 -0.1)">
      <defs>
       <path id="DejaVuSans-4d" d="M 628 4666 
L 1569 4666 
L 2759 1491 
L 3956 4666 
L 4897 4666 
L 4897 0 
L 4281 0 
L 4281 4097 
L 3078 897 
L 2444 897 
L 1241 4097 
L 1241 0 
L 628 0 
L 628 4666 
z
" transform="scale(0.015625)"/>
       <path id="DejaVuSans-4c" d="M 628 4666 
L 1259 4666 
L 1259 531 
L 3531 531 
L 3531 0 
L 628 0 
L 628 4666 
z
" transform="scale(0.015625)"/>
       <path id="DejaVuSans-45" d="M 628 4666 
L 3578 4666 
L 3578 4134 
L 1259 4134 
L 1259 2753 
L 3481 2753 
L 3481 2222 
L 1259 2222 
L 1259 531 
L 3634 531 
L 3634 0 
L 628 0 
L 628 4666 
z
" transform="scale(0.015625)"/>
      </defs>
      <use xlink:href="#DejaVuSans-4d"/>
      <use xlink:href="#DejaVuSans-4c" x="86.279297"/>
      <use xlink:href="#DejaVuSans-45" x="141.992188"/>
     </g>
    </g>
    <g id="line2d_16">
     <path d="M 357.143438 69.248562 
L 377.143438 69.248562 
" style="fill: none; stroke-dasharray: 1.5,2.475; stroke-dashoffset: 0; stroke: #008000; stroke-width: 1.5"/>
    </g>
    <g id="text_14">
     <!-- KDE -->
     <g transform="translate(385.143438 72.748562) scale(0.1 -0.1)">
      <defs>
       <path id="DejaVuSans-4b" d="M 628 4666 
L 1259 4666 
L 1259 2694 
L 3353 4666 
L 4166 4666 
L 1850 2491 
L 4331 0 
L 3500 0 
L 1259 2247 
L 1259 0 
L 628 0 
L 628 4666 
z
" transform="scale(0.015625)"/>
       <path id="DejaVuSans-44" d="M 1259 4147 
L 1259 519 
L 2022 519 
Q 2988 519 3436 956 
Q 3884 1394 3884 2338 
Q 3884 3275 3436 3711 
Q 2988 4147 2022 4147 
L 1259 4147 
z
M 628 4666 
L 1925 4666 
Q 3281 4666 3915 4102 
Q 4550 3538 4550 2338 
Q 4550 1131 3912 565 
Q 3275 0 1925 0 
L 628 0 
L 628 4666 
z
" transform="scale(0.015625)"/>
      </defs>
      <use xlink:href="#DejaVuSans-4b"/>
      <use xlink:href="#DejaVuSans-44" x="65.576172"/>
      <use xlink:href="#DejaVuSans-45" x="142.578125"/>
     </g>
    </g>
   </g>
  </g>
 </g>
 <defs>
  <clipPath id="p0ed1b9dd97">
   <rect x="57.6" y="41.472" width="357.12" height="266.112"/>
  </clipPath>
 </defs>
</svg>
