<?xml version="1.0" encoding="utf-8" standalone="no"?>
<!DOCTYPE svg PUBLIC "-//W3C//DTD SVG 1.1//EN"
  "http://www.w3.org/Graphics/SVG/1.1/DTD/svg11.dtd">
<svg xmlns:xlink="http://www.w3.org/1999/xlink" width="460.8pt" height="345.6pt" viewBox="0 0 460.8 345.6" xmlns="http://www.w3.org/2000/svg" version="1.1">
 <metadata>
  <rdf:RDF xmlns:dc="http://purl.org/dc/elements/1.1/" xmlns:cc="http://creativecommons.org/ns#" xmlns:rdf="http://www.w3.org/1999/02/22-rdf-syntax-ns#">
   <cc:Work>
    <dc:type rdf:resource="http://purl.org/dc/dcmitype/StillImage"/>
    <dc:date>2023-03-27T22:30:56.982496</dc:date>
    <dc:format>image/svg+xml</dc:format>
    <dc:creator>
     <cc:Agent>
      <dc:title>Matplotlib v3.7.1, https://matplotlib.org/</dc:title>
     </cc:Agent>
    </dc:creator>
   </cc:Work>
  </rdf:RDF>
 </metadata>
 <defs>
  <style type="text/css">*{stroke-linejoin: round; stroke-linecap: butt}</style>
 </defs>
 <g id="figure_1">
  <g id="patch_1">
   <path d="M 0 345.6 
L 460.8 345.6 
L 460.8 0 
L 0 0 
z
" style="fill: #ffffff"/>
  </g>
  <g id="axes_1">
   <g id="patch_2">
    <path d="M 57.6 307.584 
L 414.72 307.584 
L 414.72 41.472 
L 57.6 41.472 
z
" style="fill: #ffffff"/>
   </g>
   <g id="patch_3">
    <path d="M 101.475192 307.584 
L 106.009266 307.584 
L 106.009266 306.519552 
L 101.475192 306.519552 
z
" clip-path="url(#pb07e3a3bfb)" style="fill: #1f77b4"/>
   </g>
   <g id="patch_4">
    <path d="M 106.009266 307.584 
L 110.543339 307.584 
L 110.543339 302.26176 
L 106.009266 302.26176 
z
" clip-path="url(#pb07e3a3bfb)" style="fill: #1f77b4"/>
   </g>
   <g id="patch_5">
    <path d="M 110.543339 307.584 
L 115.077413 307.584 
L 115.077413 306.519552 
L 110.543339 306.519552 
z
" clip-path="url(#pb07e3a3bfb)" style="fill: #1f77b4"/>
   </g>
   <g id="patch_6">
    <path d="M 115.077413 307.584 
L 119.611487 307.584 
L 119.611487 304.390656 
L 115.077413 304.390656 
z
" clip-path="url(#pb07e3a3bfb)" style="fill: #1f77b4"/>
   </g>
   <g id="patch_7">
    <path d="M 119.611487 307.584 
L 124.145561 307.584 
L 124.145561 307.584 
L 119.611487 307.584 
z
" clip-path="url(#pb07e3a3bfb)" style="fill: #1f77b4"/>
   </g>
   <g id="patch_8">
    <path d="M 124.145561 307.584 
L 128.679635 307.584 
L 128.679635 301.197312 
L 124.145561 301.197312 
z
" clip-path="url(#pb07e3a3bfb)" style="fill: #1f77b4"/>
   </g>
   <g id="patch_9">
    <path d="M 128.679635 307.584 
L 133.213708 307.584 
L 133.213708 302.26176 
L 128.679635 302.26176 
z
" clip-path="url(#pb07e3a3bfb)" style="fill: #1f77b4"/>
   </g>
   <g id="patch_10">
    <path d="M 133.213708 307.584 
L 137.747782 307.584 
L 137.747782 301.197312 
L 133.213708 301.197312 
z
" clip-path="url(#pb07e3a3bfb)" style="fill: #1f77b4"/>
   </g>
   <g id="patch_11">
    <path d="M 137.747782 307.584 
L 142.281856 307.584 
L 142.281856 292.681728 
L 137.747782 292.681728 
z
" clip-path="url(#pb07e3a3bfb)" style="fill: #1f77b4"/>
   </g>
   <g id="patch_12">
    <path d="M 142.281856 307.584 
L 146.81593 307.584 
L 146.81593 291.61728 
L 142.281856 291.61728 
z
" clip-path="url(#pb07e3a3bfb)" style="fill: #1f77b4"/>
   </g>
   <g id="patch_13">
    <path d="M 146.81593 307.584 
L 151.350004 307.584 
L 151.350004 298.003968 
L 146.81593 298.003968 
z
" clip-path="url(#pb07e3a3bfb)" style="fill: #1f77b4"/>
   </g>
   <g id="patch_14">
    <path d="M 151.350004 307.584 
L 155.884077 307.584 
L 155.884077 274.586112 
L 151.350004 274.586112 
z
" clip-path="url(#pb07e3a3bfb)" style="fill: #1f77b4"/>
   </g>
   <g id="patch_15">
    <path d="M 155.884077 307.584 
L 160.418151 307.584 
L 160.418151 279.908352 
L 155.884077 279.908352 
z
" clip-path="url(#pb07e3a3bfb)" style="fill: #1f77b4"/>
   </g>
   <g id="patch_16">
    <path d="M 160.418151 307.584 
L 164.952225 307.584 
L 164.952225 259.68384 
L 160.418151 259.68384 
z
" clip-path="url(#pb07e3a3bfb)" style="fill: #1f77b4"/>
   </g>
   <g id="patch_17">
    <path d="M 164.952225 307.584 
L 169.486299 307.584 
L 169.486299 247.974912 
L 164.952225 247.974912 
z
" clip-path="url(#pb07e3a3bfb)" style="fill: #1f77b4"/>
   </g>
   <g id="patch_18">
    <path d="M 169.486299 307.584 
L 174.020373 307.584 
L 174.020373 254.3616 
L 169.486299 254.3616 
z
" clip-path="url(#pb07e3a3bfb)" style="fill: #1f77b4"/>
   </g>
   <g id="patch_19">
    <path d="M 174.020373 307.584 
L 178.554446 307.584 
L 178.554446 238.39488 
L 174.020373 238.39488 
z
" clip-path="url(#pb07e3a3bfb)" style="fill: #1f77b4"/>
   </g>
   <g id="patch_20">
    <path d="M 178.554446 307.584 
L 183.08852 307.584 
L 183.08852 199.010304 
L 178.554446 199.010304 
z
" clip-path="url(#pb07e3a3bfb)" style="fill: #1f77b4"/>
   </g>
   <g id="patch_21">
    <path d="M 183.08852 307.584 
L 187.622594 307.584 
L 187.622594 191.559168 
L 183.08852 191.559168 
z
" clip-path="url(#pb07e3a3bfb)" style="fill: #1f77b4"/>
   </g>
   <g id="patch_22">
    <path d="M 187.622594 307.584 
L 192.156668 307.584 
L 192.156668 176.656896 
L 187.622594 176.656896 
z
" clip-path="url(#pb07e3a3bfb)" style="fill: #1f77b4"/>
   </g>
   <g id="patch_23">
    <path d="M 192.156668 307.584 
L 196.690742 307.584 
L 196.690742 160.690176 
L 192.156668 160.690176 
z
" clip-path="url(#pb07e3a3bfb)" style="fill: #1f77b4"/>
   </g>
   <g id="patch_24">
    <path d="M 196.690742 307.584 
L 201.224815 307.584 
L 201.224815 136.207872 
L 196.690742 136.207872 
z
" clip-path="url(#pb07e3a3bfb)" style="fill: #1f77b4"/>
   </g>
   <g id="patch_25">
    <path d="M 201.224815 307.584 
L 205.758889 307.584 
L 205.758889 134.078976 
L 201.224815 134.078976 
z
" clip-path="url(#pb07e3a3bfb)" style="fill: #1f77b4"/>
   </g>
   <g id="patch_26">
    <path d="M 205.758889 307.584 
L 210.292963 307.584 
L 210.292963 126.62784 
L 205.758889 126.62784 
z
" clip-path="url(#pb07e3a3bfb)" style="fill: #1f77b4"/>
   </g>
   <g id="patch_27">
    <path d="M 210.292963 307.584 
L 214.827037 307.584 
L 214.827037 77.663232 
L 210.292963 77.663232 
z
" clip-path="url(#pb07e3a3bfb)" style="fill: #1f77b4"/>
   </g>
   <g id="patch_28">
    <path d="M 214.827037 307.584 
L 219.361111 307.584 
L 219.361111 109.596672 
L 214.827037 109.596672 
z
" clip-path="url(#pb07e3a3bfb)" style="fill: #1f77b4"/>
   </g>
   <g id="patch_29">
    <path d="M 219.361111 307.584 
L 223.895184 307.584 
L 223.895184 92.565504 
L 219.361111 92.565504 
z
" clip-path="url(#pb07e3a3bfb)" style="fill: #1f77b4"/>
   </g>
   <g id="patch_30">
    <path d="M 223.895184 307.584 
L 228.429258 307.584 
L 228.429258 121.3056 
L 223.895184 121.3056 
z
" clip-path="url(#pb07e3a3bfb)" style="fill: #1f77b4"/>
   </g>
   <g id="patch_31">
    <path d="M 228.429258 307.584 
L 232.963332 307.584 
L 232.963332 76.598784 
L 228.429258 76.598784 
z
" clip-path="url(#pb07e3a3bfb)" style="fill: #1f77b4"/>
   </g>
   <g id="patch_32">
    <path d="M 232.963332 307.584 
L 237.497406 307.584 
L 237.497406 106.403328 
L 232.963332 106.403328 
z
" clip-path="url(#pb07e3a3bfb)" style="fill: #1f77b4"/>
   </g>
   <g id="patch_33">
    <path d="M 237.497406 307.584 
L 242.03148 307.584 
L 242.03148 92.565504 
L 237.497406 92.565504 
z
" clip-path="url(#pb07e3a3bfb)" style="fill: #1f77b4"/>
   </g>
   <g id="patch_34">
    <path d="M 242.03148 307.584 
L 246.565553 307.584 
L 246.565553 161.754624 
L 242.03148 161.754624 
z
" clip-path="url(#pb07e3a3bfb)" style="fill: #1f77b4"/>
   </g>
   <g id="patch_35">
    <path d="M 246.565553 307.584 
L 251.099627 307.584 
L 251.099627 137.27232 
L 246.565553 137.27232 
z
" clip-path="url(#pb07e3a3bfb)" style="fill: #1f77b4"/>
   </g>
   <g id="patch_36">
    <path d="M 251.099627 307.584 
L 255.633701 307.584 
L 255.633701 154.303488 
L 251.099627 154.303488 
z
" clip-path="url(#pb07e3a3bfb)" style="fill: #1f77b4"/>
   </g>
   <g id="patch_37">
    <path d="M 255.633701 307.584 
L 260.167775 307.584 
L 260.167775 154.303488 
L 255.633701 154.303488 
z
" clip-path="url(#pb07e3a3bfb)" style="fill: #1f77b4"/>
   </g>
   <g id="patch_38">
    <path d="M 260.167775 307.584 
L 264.701849 307.584 
L 264.701849 173.463552 
L 260.167775 173.463552 
z
" clip-path="url(#pb07e3a3bfb)" style="fill: #1f77b4"/>
   </g>
   <g id="patch_39">
    <path d="M 264.701849 307.584 
L 269.235922 307.584 
L 269.235922 188.365824 
L 264.701849 188.365824 
z
" clip-path="url(#pb07e3a3bfb)" style="fill: #1f77b4"/>
   </g>
   <g id="patch_40">
    <path d="M 269.235922 307.584 
L 273.769996 307.584 
L 273.769996 204.332544 
L 269.235922 204.332544 
z
" clip-path="url(#pb07e3a3bfb)" style="fill: #1f77b4"/>
   </g>
   <g id="patch_41">
    <path d="M 273.769996 307.584 
L 278.30407 307.584 
L 278.30407 206.46144 
L 273.769996 206.46144 
z
" clip-path="url(#pb07e3a3bfb)" style="fill: #1f77b4"/>
   </g>
   <g id="patch_42">
    <path d="M 278.30407 307.584 
L 282.838144 307.584 
L 282.838144 226.685952 
L 278.30407 226.685952 
z
" clip-path="url(#pb07e3a3bfb)" style="fill: #1f77b4"/>
   </g>
   <g id="patch_43">
    <path d="M 282.838144 307.584 
L 287.372218 307.584 
L 287.372218 257.554944 
L 282.838144 257.554944 
z
" clip-path="url(#pb07e3a3bfb)" style="fill: #1f77b4"/>
   </g>
   <g id="patch_44">
    <path d="M 287.372218 307.584 
L 291.906291 307.584 
L 291.906291 258.619392 
L 287.372218 258.619392 
z
" clip-path="url(#pb07e3a3bfb)" style="fill: #1f77b4"/>
   </g>
   <g id="patch_45">
    <path d="M 291.906291 307.584 
L 296.440365 307.584 
L 296.440365 267.134976 
L 291.906291 267.134976 
z
" clip-path="url(#pb07e3a3bfb)" style="fill: #1f77b4"/>
   </g>
   <g id="patch_46">
    <path d="M 296.440365 307.584 
L 300.974439 307.584 
L 300.974439 280.9728 
L 296.440365 280.9728 
z
" clip-path="url(#pb07e3a3bfb)" style="fill: #1f77b4"/>
   </g>
   <g id="patch_47">
    <path d="M 300.974439 307.584 
L 305.508513 307.584 
L 305.508513 289.488384 
L 300.974439 289.488384 
z
" clip-path="url(#pb07e3a3bfb)" style="fill: #1f77b4"/>
   </g>
   <g id="patch_48">
    <path d="M 305.508513 307.584 
L 310.042587 307.584 
L 310.042587 288.423936 
L 305.508513 288.423936 
z
" clip-path="url(#pb07e3a3bfb)" style="fill: #1f77b4"/>
   </g>
   <g id="patch_49">
    <path d="M 310.042587 307.584 
L 314.57666 307.584 
L 314.57666 296.93952 
L 310.042587 296.93952 
z
" clip-path="url(#pb07e3a3bfb)" style="fill: #1f77b4"/>
   </g>
   <g id="patch_50">
    <path d="M 314.57666 307.584 
L 319.110734 307.584 
L 319.110734 298.003968 
L 314.57666 298.003968 
z
" clip-path="url(#pb07e3a3bfb)" style="fill: #1f77b4"/>
   </g>
   <g id="patch_51">
    <path d="M 319.110734 307.584 
L 323.644808 307.584 
L 323.644808 303.326208 
L 319.110734 303.326208 
z
" clip-path="url(#pb07e3a3bfb)" style="fill: #1f77b4"/>
   </g>
   <g id="patch_52">
    <path d="M 323.644808 307.584 
L 328.178882 307.584 
L 328.178882 303.326208 
L 323.644808 303.326208 
z
" clip-path="url(#pb07e3a3bfb)" style="fill: #1f77b4"/>
   </g>
   <g id="matplotlib.axis_1">
    <g id="xtick_1">
     <g id="line2d_1">
      <defs>
       <path id="m1924023959" d="M 0 0 
L 0 3.5 
" style="stroke: #000000; stroke-width: 0.8"/>
      </defs>
      <g>
       <use xlink:href="#m1924023959" x="57.6" y="307.584" style="stroke: #000000; stroke-width: 0.8"/>
      </g>
     </g>
     <g id="text_1">
      <!-- 66.4 -->
      <g transform="translate(46.467187 322.182437) scale(0.1 -0.1)">
       <defs>
        <path id="DejaVuSans-36" d="M 2113 2584 
Q 1688 2584 1439 2293 
Q 1191 2003 1191 1497 
Q 1191 994 1439 701 
Q 1688 409 2113 409 
Q 2538 409 2786 701 
Q 3034 994 3034 1497 
Q 3034 2003 2786 2293 
Q 2538 2584 2113 2584 
z
M 3366 4563 
L 3366 3988 
Q 3128 4100 2886 4159 
Q 2644 4219 2406 4219 
Q 1781 4219 1451 3797 
Q 1122 3375 1075 2522 
Q 1259 2794 1537 2939 
Q 1816 3084 2150 3084 
Q 2853 3084 3261 2657 
Q 3669 2231 3669 1497 
Q 3669 778 3244 343 
Q 2819 -91 2113 -91 
Q 1303 -91 875 529 
Q 447 1150 447 2328 
Q 447 3434 972 4092 
Q 1497 4750 2381 4750 
Q 2619 4750 2861 4703 
Q 3103 4656 3366 4563 
z
" transform="scale(0.015625)"/>
        <path id="DejaVuSans-2e" d="M 684 794 
L 1344 794 
L 1344 0 
L 684 0 
L 684 794 
z
" transform="scale(0.015625)"/>
        <path id="DejaVuSans-34" d="M 2419 4116 
L 825 1625 
L 2419 1625 
L 2419 4116 
z
M 2253 4666 
L 3047 4666 
L 3047 1625 
L 3713 1625 
L 3713 1100 
L 3047 1100 
L 3047 0 
L 2419 0 
L 2419 1100 
L 313 1100 
L 313 1709 
L 2253 4666 
z
" transform="scale(0.015625)"/>
       </defs>
       <use xlink:href="#DejaVuSans-36"/>
       <use xlink:href="#DejaVuSans-36" x="63.623047"/>
       <use xlink:href="#DejaVuSans-2e" x="127.246094"/>
       <use xlink:href="#DejaVuSans-34" x="159.033203"/>
      </g>
     </g>
    </g>
    <g id="xtick_2">
     <g id="line2d_2">
      <g>
       <use xlink:href="#m1924023959" x="129.024" y="307.584" style="stroke: #000000; stroke-width: 0.8"/>
      </g>
     </g>
     <g id="text_2">
      <!-- 66.5 -->
      <g transform="translate(117.891187 322.182437) scale(0.1 -0.1)">
       <defs>
        <path id="DejaVuSans-35" d="M 691 4666 
L 3169 4666 
L 3169 4134 
L 1269 4134 
L 1269 2991 
Q 1406 3038 1543 3061 
Q 1681 3084 1819 3084 
Q 2600 3084 3056 2656 
Q 3513 2228 3513 1497 
Q 3513 744 3044 326 
Q 2575 -91 1722 -91 
Q 1428 -91 1123 -41 
Q 819 9 494 109 
L 494 744 
Q 775 591 1075 516 
Q 1375 441 1709 441 
Q 2250 441 2565 725 
Q 2881 1009 2881 1497 
Q 2881 1984 2565 2268 
Q 2250 2553 1709 2553 
Q 1456 2553 1204 2497 
Q 953 2441 691 2322 
L 691 4666 
z
" transform="scale(0.015625)"/>
       </defs>
       <use xlink:href="#DejaVuSans-36"/>
       <use xlink:href="#DejaVuSans-36" x="63.623047"/>
       <use xlink:href="#DejaVuSans-2e" x="127.246094"/>
       <use xlink:href="#DejaVuSans-35" x="159.033203"/>
      </g>
     </g>
    </g>
    <g id="xtick_3">
     <g id="line2d_3">
      <g>
       <use xlink:href="#m1924023959" x="200.448" y="307.584" style="stroke: #000000; stroke-width: 0.8"/>
      </g>
     </g>
     <g id="text_3">
      <!-- 66.6 -->
      <g transform="translate(189.315187 322.182437) scale(0.1 -0.1)">
       <use xlink:href="#DejaVuSans-36"/>
       <use xlink:href="#DejaVuSans-36" x="63.623047"/>
       <use xlink:href="#DejaVuSans-2e" x="127.246094"/>
       <use xlink:href="#DejaVuSans-36" x="159.033203"/>
      </g>
     </g>
    </g>
    <g id="xtick_4">
     <g id="line2d_4">
      <g>
       <use xlink:href="#m1924023959" x="271.872" y="307.584" style="stroke: #000000; stroke-width: 0.8"/>
      </g>
     </g>
     <g id="text_4">
      <!-- 66.7 -->
      <g transform="translate(260.739187 322.182437) scale(0.1 -0.1)">
       <defs>
        <path id="DejaVuSans-37" d="M 525 4666 
L 3525 4666 
L 3525 4397 
L 1831 0 
L 1172 0 
L 2766 4134 
L 525 4134 
L 525 4666 
z
" transform="scale(0.015625)"/>
       </defs>
       <use xlink:href="#DejaVuSans-36"/>
       <use xlink:href="#DejaVuSans-36" x="63.623047"/>
       <use xlink:href="#DejaVuSans-2e" x="127.246094"/>
       <use xlink:href="#DejaVuSans-37" x="159.033203"/>
      </g>
     </g>
    </g>
    <g id="xtick_5">
     <g id="line2d_5">
      <g>
       <use xlink:href="#m1924023959" x="343.296" y="307.584" style="stroke: #000000; stroke-width: 0.8"/>
      </g>
     </g>
     <g id="text_5">
      <!-- 66.8 -->
      <g transform="translate(332.163188 322.182437) scale(0.1 -0.1)">
       <defs>
        <path id="DejaVuSans-38" d="M 2034 2216 
Q 1584 2216 1326 1975 
Q 1069 1734 1069 1313 
Q 1069 891 1326 650 
Q 1584 409 2034 409 
Q 2484 409 2743 651 
Q 3003 894 3003 1313 
Q 3003 1734 2745 1975 
Q 2488 2216 2034 2216 
z
M 1403 2484 
Q 997 2584 770 2862 
Q 544 3141 544 3541 
Q 544 4100 942 4425 
Q 1341 4750 2034 4750 
Q 2731 4750 3128 4425 
Q 3525 4100 3525 3541 
Q 3525 3141 3298 2862 
Q 3072 2584 2669 2484 
Q 3125 2378 3379 2068 
Q 3634 1759 3634 1313 
Q 3634 634 3220 271 
Q 2806 -91 2034 -91 
Q 1263 -91 848 271 
Q 434 634 434 1313 
Q 434 1759 690 2068 
Q 947 2378 1403 2484 
z
M 1172 3481 
Q 1172 3119 1398 2916 
Q 1625 2713 2034 2713 
Q 2441 2713 2670 2916 
Q 2900 3119 2900 3481 
Q 2900 3844 2670 4047 
Q 2441 4250 2034 4250 
Q 1625 4250 1398 4047 
Q 1172 3844 1172 3481 
z
" transform="scale(0.015625)"/>
       </defs>
       <use xlink:href="#DejaVuSans-36"/>
       <use xlink:href="#DejaVuSans-36" x="63.623047"/>
       <use xlink:href="#DejaVuSans-2e" x="127.246094"/>
       <use xlink:href="#DejaVuSans-38" x="159.033203"/>
      </g>
     </g>
    </g>
    <g id="xtick_6">
     <g id="line2d_6">
      <g>
       <use xlink:href="#m1924023959" x="414.72" y="307.584" style="stroke: #000000; stroke-width: 0.8"/>
      </g>
     </g>
     <g id="text_6">
      <!-- 66.9 -->
      <g transform="translate(403.587187 322.182437) scale(0.1 -0.1)">
       <defs>
        <path id="DejaVuSans-39" d="M 703 97 
L 703 672 
Q 941 559 1184 500 
Q 1428 441 1663 441 
Q 2288 441 2617 861 
Q 2947 1281 2994 2138 
Q 2813 1869 2534 1725 
Q 2256 1581 1919 1581 
Q 1219 1581 811 2004 
Q 403 2428 403 3163 
Q 403 3881 828 4315 
Q 1253 4750 1959 4750 
Q 2769 4750 3195 4129 
Q 3622 3509 3622 2328 
Q 3622 1225 3098 567 
Q 2575 -91 1691 -91 
Q 1453 -91 1209 -44 
Q 966 3 703 97 
z
M 1959 2075 
Q 2384 2075 2632 2365 
Q 2881 2656 2881 3163 
Q 2881 3666 2632 3958 
Q 2384 4250 1959 4250 
Q 1534 4250 1286 3958 
Q 1038 3666 1038 3163 
Q 1038 2656 1286 2365 
Q 1534 2075 1959 2075 
z
" transform="scale(0.015625)"/>
       </defs>
       <use xlink:href="#DejaVuSans-36"/>
       <use xlink:href="#DejaVuSans-36" x="63.623047"/>
       <use xlink:href="#DejaVuSans-2e" x="127.246094"/>
       <use xlink:href="#DejaVuSans-39" x="159.033203"/>
      </g>
     </g>
    </g>
   </g>
   <g id="matplotlib.axis_2">
    <g id="ytick_1">
     <g id="line2d_7">
      <defs>
       <path id="mf13233912d" d="M 0 0 
L -3.5 0 
" style="stroke: #000000; stroke-width: 0.8"/>
      </defs>
      <g>
       <use xlink:href="#mf13233912d" x="57.6" y="307.584" style="stroke: #000000; stroke-width: 0.8"/>
      </g>
     </g>
     <g id="text_7">
      <!-- 0 -->
      <g transform="translate(44.2375 311.383219) scale(0.1 -0.1)">
       <defs>
        <path id="DejaVuSans-30" d="M 2034 4250 
Q 1547 4250 1301 3770 
Q 1056 3291 1056 2328 
Q 1056 1369 1301 889 
Q 1547 409 2034 409 
Q 2525 409 2770 889 
Q 3016 1369 3016 2328 
Q 3016 3291 2770 3770 
Q 2525 4250 2034 4250 
z
M 2034 4750 
Q 2819 4750 3233 4129 
Q 3647 3509 3647 2328 
Q 3647 1150 3233 529 
Q 2819 -91 2034 -91 
Q 1250 -91 836 529 
Q 422 1150 422 2328 
Q 422 3509 836 4129 
Q 1250 4750 2034 4750 
z
" transform="scale(0.015625)"/>
       </defs>
       <use xlink:href="#DejaVuSans-30"/>
      </g>
     </g>
    </g>
    <g id="ytick_2">
     <g id="line2d_8">
      <g>
       <use xlink:href="#mf13233912d" x="57.6" y="254.3616" style="stroke: #000000; stroke-width: 0.8"/>
      </g>
     </g>
     <g id="text_8">
      <!-- 50 -->
      <g transform="translate(37.875 258.160819) scale(0.1 -0.1)">
       <use xlink:href="#DejaVuSans-35"/>
       <use xlink:href="#DejaVuSans-30" x="63.623047"/>
      </g>
     </g>
    </g>
    <g id="ytick_3">
     <g id="line2d_9">
      <g>
       <use xlink:href="#mf13233912d" x="57.6" y="201.1392" style="stroke: #000000; stroke-width: 0.8"/>
      </g>
     </g>
     <g id="text_9">
      <!-- 100 -->
      <g transform="translate(31.5125 204.938419) scale(0.1 -0.1)">
       <defs>
        <path id="DejaVuSans-31" d="M 794 531 
L 1825 531 
L 1825 4091 
L 703 3866 
L 703 4441 
L 1819 4666 
L 2450 4666 
L 2450 531 
L 3481 531 
L 3481 0 
L 794 0 
L 794 531 
z
" transform="scale(0.015625)"/>
       </defs>
       <use xlink:href="#DejaVuSans-31"/>
       <use xlink:href="#DejaVuSans-30" x="63.623047"/>
       <use xlink:href="#DejaVuSans-30" x="127.246094"/>
      </g>
     </g>
    </g>
    <g id="ytick_4">
     <g id="line2d_10">
      <g>
       <use xlink:href="#mf13233912d" x="57.6" y="147.9168" style="stroke: #000000; stroke-width: 0.8"/>
      </g>
     </g>
     <g id="text_10">
      <!-- 150 -->
      <g transform="translate(31.5125 151.716019) scale(0.1 -0.1)">
       <use xlink:href="#DejaVuSans-31"/>
       <use xlink:href="#DejaVuSans-35" x="63.623047"/>
       <use xlink:href="#DejaVuSans-30" x="127.246094"/>
      </g>
     </g>
    </g>
    <g id="ytick_5">
     <g id="line2d_11">
      <g>
       <use xlink:href="#mf13233912d" x="57.6" y="94.6944" style="stroke: #000000; stroke-width: 0.8"/>
      </g>
     </g>
     <g id="text_11">
      <!-- 200 -->
      <g transform="translate(31.5125 98.493619) scale(0.1 -0.1)">
       <defs>
        <path id="DejaVuSans-32" d="M 1228 531 
L 3431 531 
L 3431 0 
L 469 0 
L 469 531 
Q 828 903 1448 1529 
Q 2069 2156 2228 2338 
Q 2531 2678 2651 2914 
Q 2772 3150 2772 3378 
Q 2772 3750 2511 3984 
Q 2250 4219 1831 4219 
Q 1534 4219 1204 4116 
Q 875 4013 500 3803 
L 500 4441 
Q 881 4594 1212 4672 
Q 1544 4750 1819 4750 
Q 2544 4750 2975 4387 
Q 3406 4025 3406 3419 
Q 3406 3131 3298 2873 
Q 3191 2616 2906 2266 
Q 2828 2175 2409 1742 
Q 1991 1309 1228 531 
z
" transform="scale(0.015625)"/>
       </defs>
       <use xlink:href="#DejaVuSans-32"/>
       <use xlink:href="#DejaVuSans-30" x="63.623047"/>
       <use xlink:href="#DejaVuSans-30" x="127.246094"/>
      </g>
     </g>
    </g>
    <g id="ytick_6">
     <g id="line2d_12">
      <g>
       <use xlink:href="#mf13233912d" x="57.6" y="41.472" style="stroke: #000000; stroke-width: 0.8"/>
      </g>
     </g>
     <g id="text_12">
      <!-- 250 -->
      <g transform="translate(31.5125 45.271219) scale(0.1 -0.1)">
       <use xlink:href="#DejaVuSans-32"/>
       <use xlink:href="#DejaVuSans-35" x="63.623047"/>
       <use xlink:href="#DejaVuSans-30" x="127.246094"/>
      </g>
     </g>
    </g>
   </g>
   <g id="line2d_13">
    <path d="M -1 307.584 
L 84.74112 307.47312 
L 85.45536 307.25136 
L 87.59808 307.14048 
L 88.31232 306.91872 
L 94.74048 306.80784 
L 97.59744 306.4752 
L 102.59712 306.36432 
L 103.31136 306.14256 
L 105.45408 306.03168 
L 106.16832 305.80992 
L 106.88256 305.80992 
L 107.5968 305.58816 
L 109.73952 305.47728 
L 112.59648 305.14464 
L 113.31072 305.14464 
L 114.7392 304.812 
L 115.45344 304.70112 
L 116.88192 304.03584 
L 119.02464 303.59232 
L 119.73888 303.37056 
L 120.45312 302.92704 
L 122.59584 302.5944 
L 126.16704 301.04208 
L 126.88128 301.04208 
L 127.59552 300.82032 
L 129.73824 300.70944 
L 131.16672 300.26592 
L 131.88096 299.37888 
L 132.5952 298.93536 
L 133.30944 298.04832 
L 135.45216 296.93952 
L 136.88064 295.9416 
L 137.59488 295.16544 
L 138.30912 294.94368 
L 139.02336 293.94576 
L 139.7376 292.6152 
L 140.45184 291.72816 
L 141.16608 291.28464 
L 141.88032 290.61936 
L 142.59456 290.28672 
L 144.02304 288.62352 
L 145.45152 286.29504 
L 146.16576 286.07328 
L 146.88 285.18624 
L 147.59424 284.07744 
L 148.30848 283.52304 
L 149.73696 281.85984 
L 150.4512 281.19456 
L 151.16544 280.08576 
L 152.59392 278.64432 
L 153.30816 277.31376 
L 154.0224 276.98112 
L 155.45088 274.8744 
L 156.16512 273.43296 
L 157.5936 269.77392 
L 158.30784 268.66512 
L 159.73632 264.67344 
L 160.45056 263.34288 
L 161.1648 262.45584 
L 161.87904 261.12528 
L 162.59328 258.90768 
L 163.30752 257.24448 
L 164.02176 256.24656 
L 164.736 253.91808 
L 166.16448 250.4808 
L 166.87872 249.15024 
L 168.3072 244.3824 
L 169.02144 242.7192 
L 170.44992 238.50576 
L 171.16416 235.95552 
L 173.30688 229.968 
L 174.02112 228.8592 
L 175.4496 223.53696 
L 176.16384 221.54112 
L 176.87808 220.09968 
L 177.59232 216.77328 
L 178.30656 214.22304 
L 179.73504 210.0096 
L 180.44928 208.67904 
L 181.16352 205.79616 
L 181.87776 203.80032 
L 182.592 202.8024 
L 184.73472 195.0408 
L 186.1632 190.16208 
L 186.87744 188.388 
L 187.59168 186.94656 
L 188.30592 185.0616 
L 189.02016 181.62432 
L 191.16288 174.08448 
L 192.59136 167.20992 
L 193.3056 165.54672 
L 194.73408 160.22448 
L 195.44832 157.23072 
L 196.16256 155.56752 
L 196.8768 153.23904 
L 197.59104 151.35408 
L 199.73376 144.14688 
L 200.448 143.03808 
L 201.16224 140.1552 
L 202.59072 139.37904 
L 203.30496 138.492 
L 204.0192 137.3832 
L 204.73344 134.50032 
L 205.44768 133.61328 
L 206.16192 132.06096 
L 206.87616 131.06304 
L 207.5904 129.17808 
L 209.01888 124.29936 
L 209.73312 122.52528 
L 210.44736 121.08384 
L 211.87584 120.7512 
L 212.59008 118.31184 
L 213.30432 116.316 
L 214.01856 116.98128 
L 215.44704 114.20928 
L 216.16128 111.65904 
L 216.87552 109.55232 
L 218.304 109.77408 
L 219.01824 110.32848 
L 219.73248 108 
L 220.44672 108.88704 
L 221.16096 109.55232 
L 221.8752 110.66112 
L 222.58944 110.43936 
L 223.30368 109.44144 
L 224.01792 110.55024 
L 224.73216 111.3264 
L 225.4464 110.43936 
L 226.87488 111.43728 
L 227.58912 112.32432 
L 228.30336 112.10256 
L 229.0176 112.54608 
L 229.73184 111.99168 
L 230.44608 112.4352 
L 231.87456 115.31808 
L 233.30304 116.75952 
L 234.01728 116.75952 
L 234.73152 118.75536 
L 235.44576 120.30768 
L 236.16 121.19472 
L 237.58848 123.5232 
L 239.01696 125.40816 
L 240.44544 126.51696 
L 241.15968 128.62368 
L 241.87392 129.6216 
L 242.58816 132.3936 
L 243.3024 134.16768 
L 244.01664 135.1656 
L 244.73088 135.38736 
L 245.44512 136.38528 
L 246.15936 137.71584 
L 246.8736 137.60496 
L 249.01632 144.36864 
L 249.73056 145.03392 
L 251.15904 150.57792 
L 252.58752 154.45872 
L 253.30176 157.11984 
L 254.016 158.11776 
L 254.73024 158.22864 
L 255.44448 161.88768 
L 256.15872 163.88352 
L 256.87296 165.54672 
L 258.30144 169.64928 
L 259.01568 172.97568 
L 261.1584 179.40672 
L 261.87264 180.95904 
L 262.58688 184.39632 
L 263.30112 186.61392 
L 264.01536 187.8336 
L 264.7296 187.94448 
L 266.15808 191.82528 
L 266.87232 193.3776 
L 267.58656 194.4864 
L 269.01504 199.69776 
L 269.72928 201.25008 
L 272.58624 209.78784 
L 273.30048 211.00752 
L 274.01472 212.55984 
L 275.4432 216.6624 
L 276.87168 221.87376 
L 278.30016 226.30896 
L 279.0144 227.7504 
L 283.29984 240.39072 
L 284.01408 241.49952 
L 284.72832 244.16064 
L 285.44256 245.60208 
L 286.1568 246.26736 
L 286.87104 249.03936 
L 288.29952 252.92016 
L 289.01376 253.8072 
L 290.44224 257.90976 
L 291.87072 259.79472 
L 294.01344 263.89728 
L 294.72768 266.33664 
L 297.58464 272.6568 
L 298.29888 273.54384 
L 299.01312 275.76144 
L 299.72736 276.09408 
L 303.29856 282.74688 
L 304.0128 283.7448 
L 304.72704 284.52096 
L 306.15552 285.51888 
L 306.86976 286.62768 
L 307.584 287.95824 
L 308.29824 288.84528 
L 309.01248 290.06496 
L 309.72672 290.61936 
L 310.44096 291.72816 
L 311.1552 292.6152 
L 311.86944 292.94784 
L 312.58368 293.724 
L 313.29792 294.16752 
L 314.01216 294.8328 
L 315.44064 296.71776 
L 316.15488 297.6048 
L 317.58336 298.27008 
L 318.2976 298.82448 
L 319.01184 299.04624 
L 319.72608 299.71152 
L 321.15456 300.48768 
L 322.58304 301.04208 
L 324.01152 301.70736 
L 324.72576 302.37264 
L 325.44 302.37264 
L 328.29696 303.37056 
L 329.0112 303.92496 
L 330.43968 304.59024 
L 331.86816 304.70112 
L 333.29664 305.03376 
L 334.01088 305.58816 
L 335.43936 305.69904 
L 336.1536 305.80992 
L 336.86784 306.14256 
L 342.58176 306.91872 
L 343.296 306.91872 
L 344.72448 307.25136 
L 346.15296 307.36224 
L 348.29568 307.47312 
L 349.72416 307.584 
L 461.8 307.584 
L 461.8 307.584 
" clip-path="url(#pb07e3a3bfb)" style="fill: none; stroke: #ff7f0e; stroke-width: 1.5; stroke-linecap: square"/>
   </g>
   <g id="line2d_14">
    <path d="M -1 307.584 
L 89.02656 307.483256 
L 94.02624 307.219955 
L 98.31168 306.762637 
L 109.02528 305.410344 
L 119.73888 304.587287 
L 123.31008 303.856209 
L 126.16704 303.004441 
L 129.024 301.940575 
L 131.88096 300.624653 
L 134.73792 299.056122 
L 138.30912 296.863286 
L 141.16608 294.868098 
L 144.02304 292.588142 
L 146.16576 290.513965 
L 148.30848 288.011262 
L 150.4512 285.03123 
L 152.59392 281.587917 
L 155.45088 276.486424 
L 165.45024 257.618743 
L 167.59296 253.211194 
L 169.73568 248.196668 
L 171.8784 242.381668 
L 174.02112 235.739618 
L 176.16384 228.239654 
L 179.0208 217.372186 
L 186.1632 189.90553 
L 190.44864 174.691603 
L 195.44832 157.91862 
L 200.448 142.223603 
L 203.30496 133.643613 
L 206.16192 125.485034 
L 208.30464 119.881053 
L 209.73312 116.495919 
L 211.1616 113.558065 
L 212.59008 111.060181 
L 214.01856 109.077119 
L 215.44704 107.541732 
L 216.87552 106.381535 
L 218.304 105.668925 
L 220.44672 104.937772 
L 226.16064 103.609216 
L 227.58912 103.417573 
L 229.0176 103.429793 
L 229.73184 103.54794 
L 230.44608 103.802205 
L 231.16032 104.214903 
L 232.5888 105.475233 
L 234.01728 107.344484 
L 235.44576 109.941457 
L 236.87424 113.133678 
L 238.30272 116.873035 
L 240.44544 123.11276 
L 244.01664 133.976384 
L 246.15936 139.831062 
L 249.01632 146.747186 
L 254.016 157.343927 
L 255.44448 160.462726 
L 257.5872 165.480587 
L 259.72992 171.021784 
L 262.58688 179.013696 
L 274.72896 214.70787 
L 280.44288 231.998382 
L 284.72832 244.900203 
L 288.29952 254.886605 
L 291.87072 263.927143 
L 294.72768 270.53856 
L 297.58464 276.450204 
L 299.72736 280.356566 
L 301.87008 283.841407 
L 304.0128 286.863726 
L 306.15552 289.453414 
L 308.29824 291.763655 
L 310.44096 293.800717 
L 313.29792 296.194395 
L 316.15488 298.368053 
L 319.72608 300.72575 
L 322.58304 302.378759 
L 325.44 303.821883 
L 328.29696 305.02906 
L 330.43968 305.778378 
L 333.29664 306.521834 
L 335.43936 306.923478 
L 338.29632 307.266647 
L 341.86752 307.480296 
L 347.58144 307.574774 
L 363.29472 307.584 
L 461.8 307.584 
L 461.8 307.584 
" clip-path="url(#pb07e3a3bfb)" style="fill: none; stroke: #2ca02c; stroke-width: 1.5; stroke-linecap: square"/>
   </g>
   <g id="LineCollection_1">
    <path d="M 329.0112 307.584 
L 329.0112 -1 
" clip-path="url(#pb07e3a3bfb)" style="fill: none; stroke-dasharray: 5.55,2.4; stroke-dashoffset: 0; stroke: #ffa500; stroke-width: 1.5"/>
    <path d="M 110.45376 307.584 
L 110.45376 -1 
" clip-path="url(#pb07e3a3bfb)" style="fill: none; stroke-dasharray: 5.55,2.4; stroke-dashoffset: 0; stroke: #ffa500; stroke-width: 1.5"/>
   </g>
   <g id="LineCollection_2">
    <path d="M 324.01152 307.584 
L 324.01152 -1 
" clip-path="url(#pb07e3a3bfb)" style="fill: none; stroke-dasharray: 1.5,2.475; stroke-dashoffset: 0; stroke: #008000; stroke-width: 1.5"/>
    <path d="M 112.59648 307.584 
L 112.59648 -1 
" clip-path="url(#pb07e3a3bfb)" style="fill: none; stroke-dasharray: 1.5,2.475; stroke-dashoffset: 0; stroke: #008000; stroke-width: 1.5"/>
   </g>
   <g id="patch_53">
    <path d="M 57.6 307.584 
L 57.6 41.472 
" style="fill: none; stroke: #000000; stroke-width: 0.8; stroke-linejoin: miter; stroke-linecap: square"/>
   </g>
   <g id="patch_54">
    <path d="M 414.72 307.584 
L 414.72 41.472 
" style="fill: none; stroke: #000000; stroke-width: 0.8; stroke-linejoin: miter; stroke-linecap: square"/>
   </g>
   <g id="patch_55">
    <path d="M 57.6 307.584 
L 414.72 307.584 
" style="fill: none; stroke: #000000; stroke-width: 0.8; stroke-linejoin: miter; stroke-linecap: square"/>
   </g>
   <g id="patch_56">
    <path d="M 57.6 41.472 
L 414.72 41.472 
" style="fill: none; stroke: #000000; stroke-width: 0.8; stroke-linejoin: miter; stroke-linecap: square"/>
   </g>
   <g id="legend_1">
    <g id="patch_57">
     <path d="M 345.087188 78.82825 
L 407.72 78.82825 
Q 409.72 78.82825 409.72 76.82825 
L 409.72 48.472 
Q 409.72 46.472 407.72 46.472 
L 345.087188 46.472 
Q 343.087188 46.472 343.087188 48.472 
L 343.087188 76.82825 
Q 343.087188 78.82825 345.087188 78.82825 
z
" style="fill: #ffffff; opacity: 0.8; stroke: #cccccc; stroke-linejoin: miter"/>
    </g>
    <g id="line2d_15">
     <path d="M 347.087188 54.570437 
L 357.087188 54.570437 
L 367.087188 54.570437 
" style="fill: none; stroke: #ff7f0e; stroke-width: 1.5; stroke-linecap: square"/>
    </g>
    <g id="text_13">
     <!-- Even -->
     <g transform="translate(375.087188 58.070437) scale(0.1 -0.1)">
      <defs>
       <path id="DejaVuSans-45" d="M 628 4666 
L 3578 4666 
L 3578 4134 
L 1259 4134 
L 1259 2753 
L 3481 2753 
L 3481 2222 
L 1259 2222 
L 1259 531 
L 3634 531 
L 3634 0 
L 628 0 
L 628 4666 
z
" transform="scale(0.015625)"/>
       <path id="DejaVuSans-76" d="M 191 3500 
L 800 3500 
L 1894 563 
L 2988 3500 
L 3597 3500 
L 2284 0 
L 1503 0 
L 191 3500 
z
" transform="scale(0.015625)"/>
       <path id="DejaVuSans-65" d="M 3597 1894 
L 3597 1613 
L 953 1613 
Q 991 1019 1311 708 
Q 1631 397 2203 397 
Q 2534 397 2845 478 
Q 3156 559 3463 722 
L 3463 178 
Q 3153 47 2828 -22 
Q 2503 -91 2169 -91 
Q 1331 -91 842 396 
Q 353 884 353 1716 
Q 353 2575 817 3079 
Q 1281 3584 2069 3584 
Q 2775 3584 3186 3129 
Q 3597 2675 3597 1894 
z
M 3022 2063 
Q 3016 2534 2758 2815 
Q 2500 3097 2075 3097 
Q 1594 3097 1305 2825 
Q 1016 2553 972 2059 
L 3022 2063 
z
" transform="scale(0.015625)"/>
       <path id="DejaVuSans-6e" d="M 3513 2113 
L 3513 0 
L 2938 0 
L 2938 2094 
Q 2938 2591 2744 2837 
Q 2550 3084 2163 3084 
Q 1697 3084 1428 2787 
Q 1159 2491 1159 1978 
L 1159 0 
L 581 0 
L 581 3500 
L 1159 3500 
L 1159 2956 
Q 1366 3272 1645 3428 
Q 1925 3584 2291 3584 
Q 2894 3584 3203 3211 
Q 3513 2838 3513 2113 
z
" transform="scale(0.015625)"/>
      </defs>
      <use xlink:href="#DejaVuSans-45"/>
      <use xlink:href="#DejaVuSans-76" x="63.183594"/>
      <use xlink:href="#DejaVuSans-65" x="122.363281"/>
      <use xlink:href="#DejaVuSans-6e" x="183.886719"/>
     </g>
    </g>
    <g id="line2d_16">
     <path d="M 347.087188 69.248562 
L 357.087188 69.248562 
L 367.087188 69.248562 
" style="fill: none; stroke: #2ca02c; stroke-width: 1.5; stroke-linecap: square"/>
    </g>
    <g id="text_14">
     <!-- Gauss -->
     <g transform="translate(375.087188 72.748562) scale(0.1 -0.1)">
      <defs>
       <path id="DejaVuSans-47" d="M 3809 666 
L 3809 1919 
L 2778 1919 
L 2778 2438 
L 4434 2438 
L 4434 434 
Q 4069 175 3628 42 
Q 3188 -91 2688 -91 
Q 1594 -91 976 548 
Q 359 1188 359 2328 
Q 359 3472 976 4111 
Q 1594 4750 2688 4750 
Q 3144 4750 3555 4637 
Q 3966 4525 4313 4306 
L 4313 3634 
Q 3963 3931 3569 4081 
Q 3175 4231 2741 4231 
Q 1884 4231 1454 3753 
Q 1025 3275 1025 2328 
Q 1025 1384 1454 906 
Q 1884 428 2741 428 
Q 3075 428 3337 486 
Q 3600 544 3809 666 
z
" transform="scale(0.015625)"/>
       <path id="DejaVuSans-61" d="M 2194 1759 
Q 1497 1759 1228 1600 
Q 959 1441 959 1056 
Q 959 750 1161 570 
Q 1363 391 1709 391 
Q 2188 391 2477 730 
Q 2766 1069 2766 1631 
L 2766 1759 
L 2194 1759 
z
M 3341 1997 
L 3341 0 
L 2766 0 
L 2766 531 
Q 2569 213 2275 61 
Q 1981 -91 1556 -91 
Q 1019 -91 701 211 
Q 384 513 384 1019 
Q 384 1609 779 1909 
Q 1175 2209 1959 2209 
L 2766 2209 
L 2766 2266 
Q 2766 2663 2505 2880 
Q 2244 3097 1772 3097 
Q 1472 3097 1187 3025 
Q 903 2953 641 2809 
L 641 3341 
Q 956 3463 1253 3523 
Q 1550 3584 1831 3584 
Q 2591 3584 2966 3190 
Q 3341 2797 3341 1997 
z
" transform="scale(0.015625)"/>
       <path id="DejaVuSans-75" d="M 544 1381 
L 544 3500 
L 1119 3500 
L 1119 1403 
Q 1119 906 1312 657 
Q 1506 409 1894 409 
Q 2359 409 2629 706 
Q 2900 1003 2900 1516 
L 2900 3500 
L 3475 3500 
L 3475 0 
L 2900 0 
L 2900 538 
Q 2691 219 2414 64 
Q 2138 -91 1772 -91 
Q 1169 -91 856 284 
Q 544 659 544 1381 
z
M 1991 3584 
L 1991 3584 
z
" transform="scale(0.015625)"/>
       <path id="DejaVuSans-73" d="M 2834 3397 
L 2834 2853 
Q 2591 2978 2328 3040 
Q 2066 3103 1784 3103 
Q 1356 3103 1142 2972 
Q 928 2841 928 2578 
Q 928 2378 1081 2264 
Q 1234 2150 1697 2047 
L 1894 2003 
Q 2506 1872 2764 1633 
Q 3022 1394 3022 966 
Q 3022 478 2636 193 
Q 2250 -91 1575 -91 
Q 1294 -91 989 -36 
Q 684 19 347 128 
L 347 722 
Q 666 556 975 473 
Q 1284 391 1588 391 
Q 1994 391 2212 530 
Q 2431 669 2431 922 
Q 2431 1156 2273 1281 
Q 2116 1406 1581 1522 
L 1381 1569 
Q 847 1681 609 1914 
Q 372 2147 372 2553 
Q 372 3047 722 3315 
Q 1072 3584 1716 3584 
Q 2034 3584 2315 3537 
Q 2597 3491 2834 3397 
z
" transform="scale(0.015625)"/>
      </defs>
      <use xlink:href="#DejaVuSans-47"/>
      <use xlink:href="#DejaVuSans-61" x="77.490234"/>
      <use xlink:href="#DejaVuSans-75" x="138.769531"/>
      <use xlink:href="#DejaVuSans-73" x="202.148438"/>
      <use xlink:href="#DejaVuSans-73" x="254.248047"/>
     </g>
    </g>
   </g>
  </g>
 </g>
 <defs>
  <clipPath id="pb07e3a3bfb">
   <rect x="57.6" y="41.472" width="357.12" height="266.112"/>
  </clipPath>
 </defs>
</svg>
