<?xml version="1.0" encoding="utf-8" standalone="no"?>
<!DOCTYPE svg PUBLIC "-//W3C//DTD SVG 1.1//EN"
  "http://www.w3.org/Graphics/SVG/1.1/DTD/svg11.dtd">
<svg xmlns:xlink="http://www.w3.org/1999/xlink" width="460.8pt" height="345.6pt" viewBox="0 0 460.8 345.6" xmlns="http://www.w3.org/2000/svg" version="1.1">
 <metadata>
  <rdf:RDF xmlns:dc="http://purl.org/dc/elements/1.1/" xmlns:cc="http://creativecommons.org/ns#" xmlns:rdf="http://www.w3.org/1999/02/22-rdf-syntax-ns#">
   <cc:Work>
    <dc:type rdf:resource="http://purl.org/dc/dcmitype/StillImage"/>
    <dc:date>2023-03-27T22:31:48.028400</dc:date>
    <dc:format>image/svg+xml</dc:format>
    <dc:creator>
     <cc:Agent>
      <dc:title>Matplotlib v3.7.1, https://matplotlib.org/</dc:title>
     </cc:Agent>
    </dc:creator>
   </cc:Work>
  </rdf:RDF>
 </metadata>
 <defs>
  <style type="text/css">*{stroke-linejoin: round; stroke-linecap: butt}</style>
 </defs>
 <g id="figure_1">
  <g id="patch_1">
   <path d="M 0 345.6 
L 460.8 345.6 
L 460.8 0 
L 0 0 
z
" style="fill: #ffffff"/>
  </g>
  <g id="axes_1">
   <g id="patch_2">
    <path d="M 57.6 307.584 
L 414.72 307.584 
L 414.72 41.472 
L 57.6 41.472 
z
" style="fill: #ffffff"/>
   </g>
   <g id="patch_3">
    <path d="M -887.385747 307.584 
L -864.343732 307.584 
L -864.343732 300.753792 
L -887.385747 300.753792 
z
" clip-path="url(#p4ec9f3d37d)" style="fill: #1f77b4"/>
   </g>
   <g id="patch_4">
    <path d="M -864.343732 307.584 
L -841.301718 307.584 
L -841.301718 273.43296 
L -864.343732 273.43296 
z
" clip-path="url(#p4ec9f3d37d)" style="fill: #1f77b4"/>
   </g>
   <g id="patch_5">
    <path d="M -841.301718 307.584 
L -818.259703 307.584 
L -818.259703 300.753792 
L -841.301718 300.753792 
z
" clip-path="url(#p4ec9f3d37d)" style="fill: #1f77b4"/>
   </g>
   <g id="patch_6">
    <path d="M -818.259703 307.584 
L -795.217689 307.584 
L -795.217689 287.093376 
L -818.259703 287.093376 
z
" clip-path="url(#p4ec9f3d37d)" style="fill: #1f77b4"/>
   </g>
   <g id="patch_7">
    <path d="M -795.217689 307.584 
L -772.175675 307.584 
L -772.175675 307.584 
L -795.217689 307.584 
z
" clip-path="url(#p4ec9f3d37d)" style="fill: #1f77b4"/>
   </g>
   <g id="patch_8">
    <path d="M -772.175675 307.584 
L -749.13366 307.584 
L -749.13366 266.602752 
L -772.175675 266.602752 
z
" clip-path="url(#p4ec9f3d37d)" style="fill: #1f77b4"/>
   </g>
   <g id="patch_9">
    <path d="M -749.13366 307.584 
L -726.091646 307.584 
L -726.091646 273.43296 
L -749.13366 273.43296 
z
" clip-path="url(#p4ec9f3d37d)" style="fill: #1f77b4"/>
   </g>
   <g id="patch_10">
    <path d="M -726.091646 307.584 
L -703.049631 307.584 
L -703.049631 266.602752 
L -726.091646 266.602752 
z
" clip-path="url(#p4ec9f3d37d)" style="fill: #1f77b4"/>
   </g>
   <g id="patch_11">
    <path d="M -703.049631 307.584 
L -680.007617 307.584 
L -680.007617 211.961088 
L -703.049631 211.961088 
z
" clip-path="url(#p4ec9f3d37d)" style="fill: #1f77b4"/>
   </g>
   <g id="patch_12">
    <path d="M -680.007617 307.584 
L -656.965603 307.584 
L -656.965603 205.13088 
L -680.007617 205.13088 
z
" clip-path="url(#p4ec9f3d37d)" style="fill: #1f77b4"/>
   </g>
   <g id="patch_13">
    <path d="M -656.965603 307.584 
L -633.923588 307.584 
L -633.923588 246.112128 
L -656.965603 246.112128 
z
" clip-path="url(#p4ec9f3d37d)" style="fill: #1f77b4"/>
   </g>
   <g id="patch_14">
    <path d="M -633.923588 307.584 
L -610.881574 307.584 
L -610.881574 95.847552 
L -633.923588 95.847552 
z
" clip-path="url(#p4ec9f3d37d)" style="fill: #1f77b4"/>
   </g>
   <g id="patch_15">
    <path d="M -610.881574 307.584 
L -587.839559 307.584 
L -587.839559 129.998592 
L -610.881574 129.998592 
z
" clip-path="url(#p4ec9f3d37d)" style="fill: #1f77b4"/>
   </g>
   <g id="patch_16">
    <path d="M -587.839559 307.584 
L -564.797545 307.584 
L -564.797545 0.22464 
L -587.839559 0.22464 
z
" clip-path="url(#p4ec9f3d37d)" style="fill: #1f77b4"/>
   </g>
   <g id="patch_17">
    <path d="M -564.797545 307.584 
L -541.755531 307.584 
L -541.755531 -74.907648 
L -564.797545 -74.907648 
z
" clip-path="url(#p4ec9f3d37d)" style="fill: #1f77b4"/>
   </g>
   <g id="patch_18">
    <path d="M -541.755531 307.584 
L -518.713516 307.584 
L -518.713516 -33.9264 
L -541.755531 -33.9264 
z
" clip-path="url(#p4ec9f3d37d)" style="fill: #1f77b4"/>
   </g>
   <g id="patch_19">
    <path d="M -518.713516 307.584 
L -495.671502 307.584 
L -495.671502 -136.37952 
L -518.713516 -136.37952 
z
" clip-path="url(#p4ec9f3d37d)" style="fill: #1f77b4"/>
   </g>
   <g id="patch_20">
    <path d="M -495.671502 307.584 
L -472.629487 307.584 
L -472.629487 -389.097216 
L -495.671502 -389.097216 
z
" clip-path="url(#p4ec9f3d37d)" style="fill: #1f77b4"/>
   </g>
   <g id="patch_21">
    <path d="M -472.629487 307.584 
L -449.587473 307.584 
L -449.587473 -436.908672 
L -472.629487 -436.908672 
z
" clip-path="url(#p4ec9f3d37d)" style="fill: #1f77b4"/>
   </g>
   <g id="patch_22">
    <path d="M -449.587473 307.584 
L -426.545459 307.584 
L -426.545459 -532.531584 
L -449.587473 -532.531584 
z
" clip-path="url(#p4ec9f3d37d)" style="fill: #1f77b4"/>
   </g>
   <g id="patch_23">
    <path d="M -426.545459 307.584 
L -403.503444 307.584 
L -403.503444 -634.984704 
L -426.545459 -634.984704 
z
" clip-path="url(#p4ec9f3d37d)" style="fill: #1f77b4"/>
   </g>
   <g id="patch_24">
    <path d="M -403.503444 307.584 
L -380.46143 307.584 
L -380.46143 -792.079488 
L -403.503444 -792.079488 
z
" clip-path="url(#p4ec9f3d37d)" style="fill: #1f77b4"/>
   </g>
   <g id="patch_25">
    <path d="M -380.46143 307.584 
L -357.419415 307.584 
L -357.419415 -805.739904 
L -380.46143 -805.739904 
z
" clip-path="url(#p4ec9f3d37d)" style="fill: #1f77b4"/>
   </g>
   <g id="patch_26">
    <path d="M -357.419415 307.584 
L -334.377401 307.584 
L -334.377401 -853.55136 
L -357.419415 -853.55136 
z
" clip-path="url(#p4ec9f3d37d)" style="fill: #1f77b4"/>
   </g>
   <g id="patch_27">
    <path d="M -334.377401 307.584 
L -311.335387 307.584 
L -311.335387 -1167.740928 
L -334.377401 -1167.740928 
z
" clip-path="url(#p4ec9f3d37d)" style="fill: #1f77b4"/>
   </g>
   <g id="patch_28">
    <path d="M -311.335387 307.584 
L -288.293372 307.584 
L -288.293372 -962.834688 
L -311.335387 -962.834688 
z
" clip-path="url(#p4ec9f3d37d)" style="fill: #1f77b4"/>
   </g>
   <g id="patch_29">
    <path d="M -288.293372 307.584 
L -265.251358 307.584 
L -265.251358 -1072.118016 
L -288.293372 -1072.118016 
z
" clip-path="url(#p4ec9f3d37d)" style="fill: #1f77b4"/>
   </g>
   <g id="patch_30">
    <path d="M -265.251358 307.584 
L -242.209343 307.584 
L -242.209343 -887.7024 
L -265.251358 -887.7024 
z
" clip-path="url(#p4ec9f3d37d)" style="fill: #1f77b4"/>
   </g>
   <g id="patch_31">
    <path d="M -242.209343 307.584 
L -219.167329 307.584 
L -219.167329 -1174.571136 
L -242.209343 -1174.571136 
z
" clip-path="url(#p4ec9f3d37d)" style="fill: #1f77b4"/>
   </g>
   <g id="patch_32">
    <path d="M -219.167329 307.584 
L -196.125315 307.584 
L -196.125315 -983.325312 
L -219.167329 -983.325312 
z
" clip-path="url(#p4ec9f3d37d)" style="fill: #1f77b4"/>
   </g>
   <g id="patch_33">
    <path d="M -196.125315 307.584 
L -173.0833 307.584 
L -173.0833 -1072.118016 
L -196.125315 -1072.118016 
z
" clip-path="url(#p4ec9f3d37d)" style="fill: #1f77b4"/>
   </g>
   <g id="patch_34">
    <path d="M -173.0833 307.584 
L -150.041286 307.584 
L -150.041286 -628.154496 
L -173.0833 -628.154496 
z
" clip-path="url(#p4ec9f3d37d)" style="fill: #1f77b4"/>
   </g>
   <g id="patch_35">
    <path d="M -150.041286 307.584 
L -126.999271 307.584 
L -126.999271 -785.24928 
L -150.041286 -785.24928 
z
" clip-path="url(#p4ec9f3d37d)" style="fill: #1f77b4"/>
   </g>
   <g id="patch_36">
    <path d="M -126.999271 307.584 
L -103.957257 307.584 
L -103.957257 -675.965952 
L -126.999271 -675.965952 
z
" clip-path="url(#p4ec9f3d37d)" style="fill: #1f77b4"/>
   </g>
   <g id="patch_37">
    <path d="M -103.957257 307.584 
L -80.915243 307.584 
L -80.915243 -675.965952 
L -103.957257 -675.965952 
z
" clip-path="url(#p4ec9f3d37d)" style="fill: #1f77b4"/>
   </g>
   <g id="patch_38">
    <path d="M -80.915243 307.584 
L -57.873228 307.584 
L -57.873228 -553.022208 
L -80.915243 -553.022208 
z
" clip-path="url(#p4ec9f3d37d)" style="fill: #1f77b4"/>
   </g>
   <g id="patch_39">
    <path d="M -57.873228 307.584 
L -34.831214 307.584 
L -34.831214 -457.399296 
L -57.873228 -457.399296 
z
" clip-path="url(#p4ec9f3d37d)" style="fill: #1f77b4"/>
   </g>
   <g id="patch_40">
    <path d="M -34.831214 307.584 
L -11.789199 307.584 
L -11.789199 -354.946176 
L -34.831214 -354.946176 
z
" clip-path="url(#p4ec9f3d37d)" style="fill: #1f77b4"/>
   </g>
   <g id="patch_41">
    <path d="M -11.789199 307.584 
L 11.252815 307.584 
L 11.252815 -341.28576 
L -11.789199 -341.28576 
z
" clip-path="url(#p4ec9f3d37d)" style="fill: #1f77b4"/>
   </g>
   <g id="patch_42">
    <path d="M 11.252815 307.584 
L 34.294829 307.584 
L 34.294829 -211.511808 
L 11.252815 -211.511808 
z
" clip-path="url(#p4ec9f3d37d)" style="fill: #1f77b4"/>
   </g>
   <g id="patch_43">
    <path d="M 34.294829 307.584 
L 57.336844 307.584 
L 57.336844 -13.435776 
L 34.294829 -13.435776 
z
" clip-path="url(#p4ec9f3d37d)" style="fill: #1f77b4"/>
   </g>
   <g id="patch_44">
    <path d="M 57.336844 307.584 
L 80.378858 307.584 
L 80.378858 -6.605568 
L 57.336844 -6.605568 
z
" clip-path="url(#p4ec9f3d37d)" style="fill: #1f77b4"/>
   </g>
   <g id="patch_45">
    <path d="M 80.378858 307.584 
L 103.420873 307.584 
L 103.420873 48.036096 
L 80.378858 48.036096 
z
" clip-path="url(#p4ec9f3d37d)" style="fill: #1f77b4"/>
   </g>
   <g id="patch_46">
    <path d="M 103.420873 307.584 
L 126.462887 307.584 
L 126.462887 136.8288 
L 103.420873 136.8288 
z
" clip-path="url(#p4ec9f3d37d)" style="fill: #1f77b4"/>
   </g>
   <g id="patch_47">
    <path d="M 126.462887 307.584 
L 149.504901 307.584 
L 149.504901 191.470464 
L 126.462887 191.470464 
z
" clip-path="url(#p4ec9f3d37d)" style="fill: #1f77b4"/>
   </g>
   <g id="patch_48">
    <path d="M 149.504901 307.584 
L 172.546916 307.584 
L 172.546916 184.640256 
L 149.504901 184.640256 
z
" clip-path="url(#p4ec9f3d37d)" style="fill: #1f77b4"/>
   </g>
   <g id="patch_49">
    <path d="M 172.546916 307.584 
L 195.58893 307.584 
L 195.58893 239.28192 
L 172.546916 239.28192 
z
" clip-path="url(#p4ec9f3d37d)" style="fill: #1f77b4"/>
   </g>
   <g id="patch_50">
    <path d="M 195.58893 307.584 
L 218.630945 307.584 
L 218.630945 246.112128 
L 195.58893 246.112128 
z
" clip-path="url(#p4ec9f3d37d)" style="fill: #1f77b4"/>
   </g>
   <g id="patch_51">
    <path d="M 218.630945 307.584 
L 241.672959 307.584 
L 241.672959 280.263168 
L 218.630945 280.263168 
z
" clip-path="url(#p4ec9f3d37d)" style="fill: #1f77b4"/>
   </g>
   <g id="patch_52">
    <path d="M 241.672959 307.584 
L 264.714973 307.584 
L 264.714973 280.263168 
L 241.672959 280.263168 
z
" clip-path="url(#p4ec9f3d37d)" style="fill: #1f77b4"/>
   </g>
   <g id="matplotlib.axis_1">
    <g id="xtick_1">
     <g id="line2d_1">
      <defs>
       <path id="m350d247773" d="M 0 0 
L 0 3.5 
" style="stroke: #000000; stroke-width: 0.8"/>
      </defs>
      <g>
       <use xlink:href="#m350d247773" x="123.755016" y="307.584" style="stroke: #000000; stroke-width: 0.8"/>
      </g>
     </g>
     <g id="text_1">
      <!-- 66.74 -->
      <g transform="translate(109.440954 322.182437) scale(0.1 -0.1)">
       <defs>
        <path id="DejaVuSans-36" d="M 2113 2584 
Q 1688 2584 1439 2293 
Q 1191 2003 1191 1497 
Q 1191 994 1439 701 
Q 1688 409 2113 409 
Q 2538 409 2786 701 
Q 3034 994 3034 1497 
Q 3034 2003 2786 2293 
Q 2538 2584 2113 2584 
z
M 3366 4563 
L 3366 3988 
Q 3128 4100 2886 4159 
Q 2644 4219 2406 4219 
Q 1781 4219 1451 3797 
Q 1122 3375 1075 2522 
Q 1259 2794 1537 2939 
Q 1816 3084 2150 3084 
Q 2853 3084 3261 2657 
Q 3669 2231 3669 1497 
Q 3669 778 3244 343 
Q 2819 -91 2113 -91 
Q 1303 -91 875 529 
Q 447 1150 447 2328 
Q 447 3434 972 4092 
Q 1497 4750 2381 4750 
Q 2619 4750 2861 4703 
Q 3103 4656 3366 4563 
z
" transform="scale(0.015625)"/>
        <path id="DejaVuSans-2e" d="M 684 794 
L 1344 794 
L 1344 0 
L 684 0 
L 684 794 
z
" transform="scale(0.015625)"/>
        <path id="DejaVuSans-37" d="M 525 4666 
L 3525 4666 
L 3525 4397 
L 1831 0 
L 1172 0 
L 2766 4134 
L 525 4134 
L 525 4666 
z
" transform="scale(0.015625)"/>
        <path id="DejaVuSans-34" d="M 2419 4116 
L 825 1625 
L 2419 1625 
L 2419 4116 
z
M 2253 4666 
L 3047 4666 
L 3047 1625 
L 3713 1625 
L 3713 1100 
L 3047 1100 
L 3047 0 
L 2419 0 
L 2419 1100 
L 313 1100 
L 313 1709 
L 2253 4666 
z
" transform="scale(0.015625)"/>
       </defs>
       <use xlink:href="#DejaVuSans-36"/>
       <use xlink:href="#DejaVuSans-36" x="63.623047"/>
       <use xlink:href="#DejaVuSans-2e" x="127.246094"/>
       <use xlink:href="#DejaVuSans-37" x="159.033203"/>
       <use xlink:href="#DejaVuSans-34" x="222.65625"/>
      </g>
     </g>
    </g>
    <g id="xtick_2">
     <g id="line2d_2">
      <g>
       <use xlink:href="#m350d247773" x="196.349902" y="307.584" style="stroke: #000000; stroke-width: 0.8"/>
      </g>
     </g>
     <g id="text_2">
      <!-- 66.76 -->
      <g transform="translate(182.035839 322.182437) scale(0.1 -0.1)">
       <use xlink:href="#DejaVuSans-36"/>
       <use xlink:href="#DejaVuSans-36" x="63.623047"/>
       <use xlink:href="#DejaVuSans-2e" x="127.246094"/>
       <use xlink:href="#DejaVuSans-37" x="159.033203"/>
       <use xlink:href="#DejaVuSans-36" x="222.65625"/>
      </g>
     </g>
    </g>
    <g id="xtick_3">
     <g id="line2d_3">
      <g>
       <use xlink:href="#m350d247773" x="268.944787" y="307.584" style="stroke: #000000; stroke-width: 0.8"/>
      </g>
     </g>
     <g id="text_3">
      <!-- 66.78 -->
      <g transform="translate(254.630724 322.182437) scale(0.1 -0.1)">
       <defs>
        <path id="DejaVuSans-38" d="M 2034 2216 
Q 1584 2216 1326 1975 
Q 1069 1734 1069 1313 
Q 1069 891 1326 650 
Q 1584 409 2034 409 
Q 2484 409 2743 651 
Q 3003 894 3003 1313 
Q 3003 1734 2745 1975 
Q 2488 2216 2034 2216 
z
M 1403 2484 
Q 997 2584 770 2862 
Q 544 3141 544 3541 
Q 544 4100 942 4425 
Q 1341 4750 2034 4750 
Q 2731 4750 3128 4425 
Q 3525 4100 3525 3541 
Q 3525 3141 3298 2862 
Q 3072 2584 2669 2484 
Q 3125 2378 3379 2068 
Q 3634 1759 3634 1313 
Q 3634 634 3220 271 
Q 2806 -91 2034 -91 
Q 1263 -91 848 271 
Q 434 634 434 1313 
Q 434 1759 690 2068 
Q 947 2378 1403 2484 
z
M 1172 3481 
Q 1172 3119 1398 2916 
Q 1625 2713 2034 2713 
Q 2441 2713 2670 2916 
Q 2900 3119 2900 3481 
Q 2900 3844 2670 4047 
Q 2441 4250 2034 4250 
Q 1625 4250 1398 4047 
Q 1172 3844 1172 3481 
z
" transform="scale(0.015625)"/>
       </defs>
       <use xlink:href="#DejaVuSans-36"/>
       <use xlink:href="#DejaVuSans-36" x="63.623047"/>
       <use xlink:href="#DejaVuSans-2e" x="127.246094"/>
       <use xlink:href="#DejaVuSans-37" x="159.033203"/>
       <use xlink:href="#DejaVuSans-38" x="222.65625"/>
      </g>
     </g>
    </g>
    <g id="xtick_4">
     <g id="line2d_4">
      <g>
       <use xlink:href="#m350d247773" x="341.539672" y="307.584" style="stroke: #000000; stroke-width: 0.8"/>
      </g>
     </g>
     <g id="text_4">
      <!-- 66.80 -->
      <g transform="translate(327.22561 322.182437) scale(0.1 -0.1)">
       <defs>
        <path id="DejaVuSans-30" d="M 2034 4250 
Q 1547 4250 1301 3770 
Q 1056 3291 1056 2328 
Q 1056 1369 1301 889 
Q 1547 409 2034 409 
Q 2525 409 2770 889 
Q 3016 1369 3016 2328 
Q 3016 3291 2770 3770 
Q 2525 4250 2034 4250 
z
M 2034 4750 
Q 2819 4750 3233 4129 
Q 3647 3509 3647 2328 
Q 3647 1150 3233 529 
Q 2819 -91 2034 -91 
Q 1250 -91 836 529 
Q 422 1150 422 2328 
Q 422 3509 836 4129 
Q 1250 4750 2034 4750 
z
" transform="scale(0.015625)"/>
       </defs>
       <use xlink:href="#DejaVuSans-36"/>
       <use xlink:href="#DejaVuSans-36" x="63.623047"/>
       <use xlink:href="#DejaVuSans-2e" x="127.246094"/>
       <use xlink:href="#DejaVuSans-38" x="159.033203"/>
       <use xlink:href="#DejaVuSans-30" x="222.65625"/>
      </g>
     </g>
    </g>
    <g id="xtick_5">
     <g id="line2d_5">
      <g>
       <use xlink:href="#m350d247773" x="414.134557" y="307.584" style="stroke: #000000; stroke-width: 0.8"/>
      </g>
     </g>
     <g id="text_5">
      <!-- 66.82 -->
      <g transform="translate(399.820495 322.182437) scale(0.1 -0.1)">
       <defs>
        <path id="DejaVuSans-32" d="M 1228 531 
L 3431 531 
L 3431 0 
L 469 0 
L 469 531 
Q 828 903 1448 1529 
Q 2069 2156 2228 2338 
Q 2531 2678 2651 2914 
Q 2772 3150 2772 3378 
Q 2772 3750 2511 3984 
Q 2250 4219 1831 4219 
Q 1534 4219 1204 4116 
Q 875 4013 500 3803 
L 500 4441 
Q 881 4594 1212 4672 
Q 1544 4750 1819 4750 
Q 2544 4750 2975 4387 
Q 3406 4025 3406 3419 
Q 3406 3131 3298 2873 
Q 3191 2616 2906 2266 
Q 2828 2175 2409 1742 
Q 1991 1309 1228 531 
z
" transform="scale(0.015625)"/>
       </defs>
       <use xlink:href="#DejaVuSans-36"/>
       <use xlink:href="#DejaVuSans-36" x="63.623047"/>
       <use xlink:href="#DejaVuSans-2e" x="127.246094"/>
       <use xlink:href="#DejaVuSans-38" x="159.033203"/>
       <use xlink:href="#DejaVuSans-32" x="222.65625"/>
      </g>
     </g>
    </g>
   </g>
   <g id="matplotlib.axis_2">
    <g id="ytick_1">
     <g id="line2d_6">
      <defs>
       <path id="m0c8c2fed46" d="M 0 0 
L -3.5 0 
" style="stroke: #000000; stroke-width: 0.8"/>
      </defs>
      <g>
       <use xlink:href="#m0c8c2fed46" x="57.6" y="307.584" style="stroke: #000000; stroke-width: 0.8"/>
      </g>
     </g>
     <g id="text_6">
      <!-- 0 -->
      <g transform="translate(44.2375 311.383219) scale(0.1 -0.1)">
       <use xlink:href="#DejaVuSans-30"/>
      </g>
     </g>
    </g>
    <g id="ytick_2">
     <g id="line2d_7">
      <g>
       <use xlink:href="#m0c8c2fed46" x="57.6" y="273.43296" style="stroke: #000000; stroke-width: 0.8"/>
      </g>
     </g>
     <g id="text_7">
      <!-- 5 -->
      <g transform="translate(44.2375 277.232179) scale(0.1 -0.1)">
       <defs>
        <path id="DejaVuSans-35" d="M 691 4666 
L 3169 4666 
L 3169 4134 
L 1269 4134 
L 1269 2991 
Q 1406 3038 1543 3061 
Q 1681 3084 1819 3084 
Q 2600 3084 3056 2656 
Q 3513 2228 3513 1497 
Q 3513 744 3044 326 
Q 2575 -91 1722 -91 
Q 1428 -91 1123 -41 
Q 819 9 494 109 
L 494 744 
Q 775 591 1075 516 
Q 1375 441 1709 441 
Q 2250 441 2565 725 
Q 2881 1009 2881 1497 
Q 2881 1984 2565 2268 
Q 2250 2553 1709 2553 
Q 1456 2553 1204 2497 
Q 953 2441 691 2322 
L 691 4666 
z
" transform="scale(0.015625)"/>
       </defs>
       <use xlink:href="#DejaVuSans-35"/>
      </g>
     </g>
    </g>
    <g id="ytick_3">
     <g id="line2d_8">
      <g>
       <use xlink:href="#m0c8c2fed46" x="57.6" y="239.28192" style="stroke: #000000; stroke-width: 0.8"/>
      </g>
     </g>
     <g id="text_8">
      <!-- 10 -->
      <g transform="translate(37.875 243.081139) scale(0.1 -0.1)">
       <defs>
        <path id="DejaVuSans-31" d="M 794 531 
L 1825 531 
L 1825 4091 
L 703 3866 
L 703 4441 
L 1819 4666 
L 2450 4666 
L 2450 531 
L 3481 531 
L 3481 0 
L 794 0 
L 794 531 
z
" transform="scale(0.015625)"/>
       </defs>
       <use xlink:href="#DejaVuSans-31"/>
       <use xlink:href="#DejaVuSans-30" x="63.623047"/>
      </g>
     </g>
    </g>
    <g id="ytick_4">
     <g id="line2d_9">
      <g>
       <use xlink:href="#m0c8c2fed46" x="57.6" y="205.13088" style="stroke: #000000; stroke-width: 0.8"/>
      </g>
     </g>
     <g id="text_9">
      <!-- 15 -->
      <g transform="translate(37.875 208.930099) scale(0.1 -0.1)">
       <use xlink:href="#DejaVuSans-31"/>
       <use xlink:href="#DejaVuSans-35" x="63.623047"/>
      </g>
     </g>
    </g>
    <g id="ytick_5">
     <g id="line2d_10">
      <g>
       <use xlink:href="#m0c8c2fed46" x="57.6" y="170.97984" style="stroke: #000000; stroke-width: 0.8"/>
      </g>
     </g>
     <g id="text_10">
      <!-- 20 -->
      <g transform="translate(37.875 174.779059) scale(0.1 -0.1)">
       <use xlink:href="#DejaVuSans-32"/>
       <use xlink:href="#DejaVuSans-30" x="63.623047"/>
      </g>
     </g>
    </g>
    <g id="ytick_6">
     <g id="line2d_11">
      <g>
       <use xlink:href="#m0c8c2fed46" x="57.6" y="136.8288" style="stroke: #000000; stroke-width: 0.8"/>
      </g>
     </g>
     <g id="text_11">
      <!-- 25 -->
      <g transform="translate(37.875 140.628019) scale(0.1 -0.1)">
       <use xlink:href="#DejaVuSans-32"/>
       <use xlink:href="#DejaVuSans-35" x="63.623047"/>
      </g>
     </g>
    </g>
    <g id="ytick_7">
     <g id="line2d_12">
      <g>
       <use xlink:href="#m0c8c2fed46" x="57.6" y="102.67776" style="stroke: #000000; stroke-width: 0.8"/>
      </g>
     </g>
     <g id="text_12">
      <!-- 30 -->
      <g transform="translate(37.875 106.476979) scale(0.1 -0.1)">
       <defs>
        <path id="DejaVuSans-33" d="M 2597 2516 
Q 3050 2419 3304 2112 
Q 3559 1806 3559 1356 
Q 3559 666 3084 287 
Q 2609 -91 1734 -91 
Q 1441 -91 1130 -33 
Q 819 25 488 141 
L 488 750 
Q 750 597 1062 519 
Q 1375 441 1716 441 
Q 2309 441 2620 675 
Q 2931 909 2931 1356 
Q 2931 1769 2642 2001 
Q 2353 2234 1838 2234 
L 1294 2234 
L 1294 2753 
L 1863 2753 
Q 2328 2753 2575 2939 
Q 2822 3125 2822 3475 
Q 2822 3834 2567 4026 
Q 2313 4219 1838 4219 
Q 1578 4219 1281 4162 
Q 984 4106 628 3988 
L 628 4550 
Q 988 4650 1302 4700 
Q 1616 4750 1894 4750 
Q 2613 4750 3031 4423 
Q 3450 4097 3450 3541 
Q 3450 3153 3228 2886 
Q 3006 2619 2597 2516 
z
" transform="scale(0.015625)"/>
       </defs>
       <use xlink:href="#DejaVuSans-33"/>
       <use xlink:href="#DejaVuSans-30" x="63.623047"/>
      </g>
     </g>
    </g>
    <g id="ytick_8">
     <g id="line2d_13">
      <g>
       <use xlink:href="#m0c8c2fed46" x="57.6" y="68.52672" style="stroke: #000000; stroke-width: 0.8"/>
      </g>
     </g>
     <g id="text_13">
      <!-- 35 -->
      <g transform="translate(37.875 72.325939) scale(0.1 -0.1)">
       <use xlink:href="#DejaVuSans-33"/>
       <use xlink:href="#DejaVuSans-35" x="63.623047"/>
      </g>
     </g>
    </g>
   </g>
   <g id="line2d_14">
    <path d="M 79.100589 -1 
L 80.198085 0.93612 
L 87.457574 18.01164 
L 91.087318 27.26088 
L 94.717062 42.91344 
L 98.346807 52.87416 
L 101.976551 61.41192 
L 105.606295 71.37264 
L 109.236039 83.4678 
L 112.865784 89.15964 
L 116.495528 103.38924 
L 120.125272 105.52368 
L 123.755016 114.06144 
L 127.384761 123.31068 
L 131.014505 131.13696 
L 138.273993 148.21248 
L 141.903738 154.6158 
L 145.533482 159.59616 
L 149.163226 163.15356 
L 152.79297 165.99948 
L 156.422715 173.11428 
L 160.052459 181.65204 
L 163.682203 187.34388 
L 167.311948 195.17016 
L 170.941692 198.72756 
L 174.571436 205.84236 
L 178.20118 211.5342 
L 181.830925 213.66864 
L 185.460669 218.649 
L 189.090413 221.49492 
L 192.720157 225.7638 
L 196.349902 232.16712 
L 203.60939 243.5508 
L 210.868879 247.81968 
L 214.498623 251.37708 
L 218.128367 252.80004 
L 221.758111 257.06892 
L 225.387856 259.91484 
L 229.0176 262.04928 
L 232.647344 263.47224 
L 243.536577 269.87556 
L 247.166321 274.14444 
L 250.796066 274.14444 
L 254.42581 275.5674 
L 258.055554 277.70184 
L 265.315043 280.54776 
L 268.944787 284.10516 
L 276.204275 288.37404 
L 279.83402 288.37404 
L 287.093508 289.797 
L 290.723252 291.21996 
L 294.352997 294.77736 
L 297.982741 294.77736 
L 305.24223 296.20032 
L 308.871974 298.33476 
L 312.501718 299.04624 
L 316.131462 299.04624 
L 323.390951 301.89216 
L 330.650439 301.89216 
L 337.909928 303.31512 
L 341.539672 303.31512 
L 345.169416 304.73808 
L 352.428905 306.16104 
L 363.318138 306.16104 
L 370.577626 307.584 
L 461.8 307.584 
L 461.8 307.584 
" clip-path="url(#p4ec9f3d37d)" style="fill: none; stroke: #ff7f0e; stroke-width: 1.5; stroke-linecap: square"/>
   </g>
   <g id="line2d_15">
    <path d="M 71.041395 -1 
L 72.938597 5.112924 
L 80.198085 27.452504 
L 87.457574 49.059175 
L 94.717062 69.875763 
L 101.976551 89.36319 
L 109.236039 107.80881 
L 116.495528 124.989512 
L 123.755016 140.65804 
L 127.384761 148.139333 
L 131.014505 155.235698 
L 134.644249 162.030896 
L 138.273993 168.507001 
L 141.903738 174.628908 
L 145.533482 180.443572 
L 149.163226 185.972817 
L 156.422715 196.411979 
L 160.052459 201.387832 
L 167.311948 210.63254 
L 174.571436 219.141266 
L 178.20118 223.19328 
L 185.460669 230.846557 
L 196.349902 241.669755 
L 203.60939 248.448343 
L 210.868879 254.687845 
L 218.128367 260.656249 
L 225.387856 266.366698 
L 232.647344 271.648284 
L 239.906833 276.634661 
L 247.166321 281.331183 
L 254.42581 285.519061 
L 261.685298 289.404302 
L 268.944787 292.931611 
L 276.204275 295.997929 
L 283.463764 298.558851 
L 290.723252 300.768436 
L 294.352997 301.787179 
L 301.612485 303.345649 
L 308.871974 304.632471 
L 316.131462 305.547655 
L 323.390951 306.279457 
L 334.280184 306.918566 
L 345.169416 307.308275 
L 356.058649 307.48153 
L 385.096603 307.584 
L 461.8 307.584 
L 461.8 307.584 
" clip-path="url(#p4ec9f3d37d)" style="fill: none; stroke: #2ca02c; stroke-width: 1.5; stroke-linecap: square"/>
   </g>
   <g id="LineCollection_1">
    <path d="M 268.944787 307.584 
L 268.944787 -1 
" clip-path="url(#p4ec9f3d37d)" style="fill: none; stroke-dasharray: 5.55,2.4; stroke-dashoffset: 0; stroke: #ffa500; stroke-width: 1.5"/>
    <path clip-path="url(#p4ec9f3d37d)" style="fill: none; stroke-dasharray: 5.55,2.4; stroke-dashoffset: 0; stroke: #ffa500; stroke-width: 1.5"/>
   </g>
   <g id="LineCollection_2">
    <path d="M 243.536577 307.584 
L 243.536577 -1 
" clip-path="url(#p4ec9f3d37d)" style="fill: none; stroke-dasharray: 1.5,2.475; stroke-dashoffset: 0; stroke: #008000; stroke-width: 1.5"/>
    <path clip-path="url(#p4ec9f3d37d)" style="fill: none; stroke-dasharray: 1.5,2.475; stroke-dashoffset: 0; stroke: #008000; stroke-width: 1.5"/>
   </g>
   <g id="patch_53">
    <path d="M 57.6 307.584 
L 57.6 41.472 
" style="fill: none; stroke: #000000; stroke-width: 0.8; stroke-linejoin: miter; stroke-linecap: square"/>
   </g>
   <g id="patch_54">
    <path d="M 414.72 307.584 
L 414.72 41.472 
" style="fill: none; stroke: #000000; stroke-width: 0.8; stroke-linejoin: miter; stroke-linecap: square"/>
   </g>
   <g id="patch_55">
    <path d="M 57.6 307.584 
L 414.72 307.584 
" style="fill: none; stroke: #000000; stroke-width: 0.8; stroke-linejoin: miter; stroke-linecap: square"/>
   </g>
   <g id="patch_56">
    <path d="M 57.6 41.472 
L 414.72 41.472 
" style="fill: none; stroke: #000000; stroke-width: 0.8; stroke-linejoin: miter; stroke-linecap: square"/>
   </g>
   <g id="legend_1">
    <g id="patch_57">
     <path d="M 345.087188 78.82825 
L 407.72 78.82825 
Q 409.72 78.82825 409.72 76.82825 
L 409.72 48.472 
Q 409.72 46.472 407.72 46.472 
L 345.087188 46.472 
Q 343.087188 46.472 343.087188 48.472 
L 343.087188 76.82825 
Q 343.087188 78.82825 345.087188 78.82825 
z
" style="fill: #ffffff; opacity: 0.8; stroke: #cccccc; stroke-linejoin: miter"/>
    </g>
    <g id="line2d_16">
     <path d="M 347.087188 54.570437 
L 357.087188 54.570437 
L 367.087188 54.570437 
" style="fill: none; stroke: #ff7f0e; stroke-width: 1.5; stroke-linecap: square"/>
    </g>
    <g id="text_14">
     <!-- Even -->
     <g transform="translate(375.087188 58.070437) scale(0.1 -0.1)">
      <defs>
       <path id="DejaVuSans-45" d="M 628 4666 
L 3578 4666 
L 3578 4134 
L 1259 4134 
L 1259 2753 
L 3481 2753 
L 3481 2222 
L 1259 2222 
L 1259 531 
L 3634 531 
L 3634 0 
L 628 0 
L 628 4666 
z
" transform="scale(0.015625)"/>
       <path id="DejaVuSans-76" d="M 191 3500 
L 800 3500 
L 1894 563 
L 2988 3500 
L 3597 3500 
L 2284 0 
L 1503 0 
L 191 3500 
z
" transform="scale(0.015625)"/>
       <path id="DejaVuSans-65" d="M 3597 1894 
L 3597 1613 
L 953 1613 
Q 991 1019 1311 708 
Q 1631 397 2203 397 
Q 2534 397 2845 478 
Q 3156 559 3463 722 
L 3463 178 
Q 3153 47 2828 -22 
Q 2503 -91 2169 -91 
Q 1331 -91 842 396 
Q 353 884 353 1716 
Q 353 2575 817 3079 
Q 1281 3584 2069 3584 
Q 2775 3584 3186 3129 
Q 3597 2675 3597 1894 
z
M 3022 2063 
Q 3016 2534 2758 2815 
Q 2500 3097 2075 3097 
Q 1594 3097 1305 2825 
Q 1016 2553 972 2059 
L 3022 2063 
z
" transform="scale(0.015625)"/>
       <path id="DejaVuSans-6e" d="M 3513 2113 
L 3513 0 
L 2938 0 
L 2938 2094 
Q 2938 2591 2744 2837 
Q 2550 3084 2163 3084 
Q 1697 3084 1428 2787 
Q 1159 2491 1159 1978 
L 1159 0 
L 581 0 
L 581 3500 
L 1159 3500 
L 1159 2956 
Q 1366 3272 1645 3428 
Q 1925 3584 2291 3584 
Q 2894 3584 3203 3211 
Q 3513 2838 3513 2113 
z
" transform="scale(0.015625)"/>
      </defs>
      <use xlink:href="#DejaVuSans-45"/>
      <use xlink:href="#DejaVuSans-76" x="63.183594"/>
      <use xlink:href="#DejaVuSans-65" x="122.363281"/>
      <use xlink:href="#DejaVuSans-6e" x="183.886719"/>
     </g>
    </g>
    <g id="line2d_17">
     <path d="M 347.087188 69.248562 
L 357.087188 69.248562 
L 367.087188 69.248562 
" style="fill: none; stroke: #2ca02c; stroke-width: 1.5; stroke-linecap: square"/>
    </g>
    <g id="text_15">
     <!-- Gauss -->
     <g transform="translate(375.087188 72.748562) scale(0.1 -0.1)">
      <defs>
       <path id="DejaVuSans-47" d="M 3809 666 
L 3809 1919 
L 2778 1919 
L 2778 2438 
L 4434 2438 
L 4434 434 
Q 4069 175 3628 42 
Q 3188 -91 2688 -91 
Q 1594 -91 976 548 
Q 359 1188 359 2328 
Q 359 3472 976 4111 
Q 1594 4750 2688 4750 
Q 3144 4750 3555 4637 
Q 3966 4525 4313 4306 
L 4313 3634 
Q 3963 3931 3569 4081 
Q 3175 4231 2741 4231 
Q 1884 4231 1454 3753 
Q 1025 3275 1025 2328 
Q 1025 1384 1454 906 
Q 1884 428 2741 428 
Q 3075 428 3337 486 
Q 3600 544 3809 666 
z
" transform="scale(0.015625)"/>
       <path id="DejaVuSans-61" d="M 2194 1759 
Q 1497 1759 1228 1600 
Q 959 1441 959 1056 
Q 959 750 1161 570 
Q 1363 391 1709 391 
Q 2188 391 2477 730 
Q 2766 1069 2766 1631 
L 2766 1759 
L 2194 1759 
z
M 3341 1997 
L 3341 0 
L 2766 0 
L 2766 531 
Q 2569 213 2275 61 
Q 1981 -91 1556 -91 
Q 1019 -91 701 211 
Q 384 513 384 1019 
Q 384 1609 779 1909 
Q 1175 2209 1959 2209 
L 2766 2209 
L 2766 2266 
Q 2766 2663 2505 2880 
Q 2244 3097 1772 3097 
Q 1472 3097 1187 3025 
Q 903 2953 641 2809 
L 641 3341 
Q 956 3463 1253 3523 
Q 1550 3584 1831 3584 
Q 2591 3584 2966 3190 
Q 3341 2797 3341 1997 
z
" transform="scale(0.015625)"/>
       <path id="DejaVuSans-75" d="M 544 1381 
L 544 3500 
L 1119 3500 
L 1119 1403 
Q 1119 906 1312 657 
Q 1506 409 1894 409 
Q 2359 409 2629 706 
Q 2900 1003 2900 1516 
L 2900 3500 
L 3475 3500 
L 3475 0 
L 2900 0 
L 2900 538 
Q 2691 219 2414 64 
Q 2138 -91 1772 -91 
Q 1169 -91 856 284 
Q 544 659 544 1381 
z
M 1991 3584 
L 1991 3584 
z
" transform="scale(0.015625)"/>
       <path id="DejaVuSans-73" d="M 2834 3397 
L 2834 2853 
Q 2591 2978 2328 3040 
Q 2066 3103 1784 3103 
Q 1356 3103 1142 2972 
Q 928 2841 928 2578 
Q 928 2378 1081 2264 
Q 1234 2150 1697 2047 
L 1894 2003 
Q 2506 1872 2764 1633 
Q 3022 1394 3022 966 
Q 3022 478 2636 193 
Q 2250 -91 1575 -91 
Q 1294 -91 989 -36 
Q 684 19 347 128 
L 347 722 
Q 666 556 975 473 
Q 1284 391 1588 391 
Q 1994 391 2212 530 
Q 2431 669 2431 922 
Q 2431 1156 2273 1281 
Q 2116 1406 1581 1522 
L 1381 1569 
Q 847 1681 609 1914 
Q 372 2147 372 2553 
Q 372 3047 722 3315 
Q 1072 3584 1716 3584 
Q 2034 3584 2315 3537 
Q 2597 3491 2834 3397 
z
" transform="scale(0.015625)"/>
      </defs>
      <use xlink:href="#DejaVuSans-47"/>
      <use xlink:href="#DejaVuSans-61" x="77.490234"/>
      <use xlink:href="#DejaVuSans-75" x="138.769531"/>
      <use xlink:href="#DejaVuSans-73" x="202.148438"/>
      <use xlink:href="#DejaVuSans-73" x="254.248047"/>
     </g>
    </g>
   </g>
  </g>
 </g>
 <defs>
  <clipPath id="p4ec9f3d37d">
   <rect x="57.6" y="41.472" width="357.12" height="266.112"/>
  </clipPath>
 </defs>
</svg>
