<?xml version="1.0" encoding="utf-8" standalone="no"?>
<!DOCTYPE svg PUBLIC "-//W3C//DTD SVG 1.1//EN"
  "http://www.w3.org/Graphics/SVG/1.1/DTD/svg11.dtd">
<svg xmlns:xlink="http://www.w3.org/1999/xlink" width="460.8pt" height="345.6pt" viewBox="0 0 460.8 345.6" xmlns="http://www.w3.org/2000/svg" version="1.1">
 <metadata>
  <rdf:RDF xmlns:dc="http://purl.org/dc/elements/1.1/" xmlns:cc="http://creativecommons.org/ns#" xmlns:rdf="http://www.w3.org/1999/02/22-rdf-syntax-ns#">
   <cc:Work>
    <dc:type rdf:resource="http://purl.org/dc/dcmitype/StillImage"/>
    <dc:date>2023-03-27T22:29:17.184402</dc:date>
    <dc:format>image/svg+xml</dc:format>
    <dc:creator>
     <cc:Agent>
      <dc:title>Matplotlib v3.7.1, https://matplotlib.org/</dc:title>
     </cc:Agent>
    </dc:creator>
   </cc:Work>
  </rdf:RDF>
 </metadata>
 <defs>
  <style type="text/css">*{stroke-linejoin: round; stroke-linecap: butt}</style>
 </defs>
 <g id="figure_1">
  <g id="patch_1">
   <path d="M 0 345.6 
L 460.8 345.6 
L 460.8 0 
L 0 0 
z
" style="fill: #ffffff"/>
  </g>
  <g id="axes_1">
   <g id="patch_2">
    <path d="M 57.6 307.584 
L 414.72 307.584 
L 414.72 41.472 
L 57.6 41.472 
z
" style="fill: #ffffff"/>
   </g>
   <g id="matplotlib.axis_1">
    <g id="xtick_1">
     <g id="line2d_1">
      <defs>
       <path id="m1e78b0d7c6" d="M 0 0 
L 0 3.5 
" style="stroke: #000000; stroke-width: 0.8"/>
      </defs>
      <g>
       <use xlink:href="#m1e78b0d7c6" x="73.832727" y="307.584" style="stroke: #000000; stroke-width: 0.8"/>
      </g>
     </g>
     <g id="text_1">
      <!-- 0 -->
      <g transform="translate(70.651477 322.182437) scale(0.1 -0.1)">
       <defs>
        <path id="DejaVuSans-30" d="M 2034 4250 
Q 1547 4250 1301 3770 
Q 1056 3291 1056 2328 
Q 1056 1369 1301 889 
Q 1547 409 2034 409 
Q 2525 409 2770 889 
Q 3016 1369 3016 2328 
Q 3016 3291 2770 3770 
Q 2525 4250 2034 4250 
z
M 2034 4750 
Q 2819 4750 3233 4129 
Q 3647 3509 3647 2328 
Q 3647 1150 3233 529 
Q 2819 -91 2034 -91 
Q 1250 -91 836 529 
Q 422 1150 422 2328 
Q 422 3509 836 4129 
Q 1250 4750 2034 4750 
z
" transform="scale(0.015625)"/>
       </defs>
       <use xlink:href="#DejaVuSans-30"/>
      </g>
     </g>
    </g>
    <g id="xtick_2">
     <g id="line2d_2">
      <g>
       <use xlink:href="#m1e78b0d7c6" x="114.414545" y="307.584" style="stroke: #000000; stroke-width: 0.8"/>
      </g>
     </g>
     <g id="text_2">
      <!-- 500 -->
      <g transform="translate(104.870795 322.182437) scale(0.1 -0.1)">
       <defs>
        <path id="DejaVuSans-35" d="M 691 4666 
L 3169 4666 
L 3169 4134 
L 1269 4134 
L 1269 2991 
Q 1406 3038 1543 3061 
Q 1681 3084 1819 3084 
Q 2600 3084 3056 2656 
Q 3513 2228 3513 1497 
Q 3513 744 3044 326 
Q 2575 -91 1722 -91 
Q 1428 -91 1123 -41 
Q 819 9 494 109 
L 494 744 
Q 775 591 1075 516 
Q 1375 441 1709 441 
Q 2250 441 2565 725 
Q 2881 1009 2881 1497 
Q 2881 1984 2565 2268 
Q 2250 2553 1709 2553 
Q 1456 2553 1204 2497 
Q 953 2441 691 2322 
L 691 4666 
z
" transform="scale(0.015625)"/>
       </defs>
       <use xlink:href="#DejaVuSans-35"/>
       <use xlink:href="#DejaVuSans-30" x="63.623047"/>
       <use xlink:href="#DejaVuSans-30" x="127.246094"/>
      </g>
     </g>
    </g>
    <g id="xtick_3">
     <g id="line2d_3">
      <g>
       <use xlink:href="#m1e78b0d7c6" x="154.996364" y="307.584" style="stroke: #000000; stroke-width: 0.8"/>
      </g>
     </g>
     <g id="text_3">
      <!-- 1000 -->
      <g transform="translate(142.271364 322.182437) scale(0.1 -0.1)">
       <defs>
        <path id="DejaVuSans-31" d="M 794 531 
L 1825 531 
L 1825 4091 
L 703 3866 
L 703 4441 
L 1819 4666 
L 2450 4666 
L 2450 531 
L 3481 531 
L 3481 0 
L 794 0 
L 794 531 
z
" transform="scale(0.015625)"/>
       </defs>
       <use xlink:href="#DejaVuSans-31"/>
       <use xlink:href="#DejaVuSans-30" x="63.623047"/>
       <use xlink:href="#DejaVuSans-30" x="127.246094"/>
       <use xlink:href="#DejaVuSans-30" x="190.869141"/>
      </g>
     </g>
    </g>
    <g id="xtick_4">
     <g id="line2d_4">
      <g>
       <use xlink:href="#m1e78b0d7c6" x="195.578182" y="307.584" style="stroke: #000000; stroke-width: 0.8"/>
      </g>
     </g>
     <g id="text_4">
      <!-- 1500 -->
      <g transform="translate(182.853182 322.182437) scale(0.1 -0.1)">
       <use xlink:href="#DejaVuSans-31"/>
       <use xlink:href="#DejaVuSans-35" x="63.623047"/>
       <use xlink:href="#DejaVuSans-30" x="127.246094"/>
       <use xlink:href="#DejaVuSans-30" x="190.869141"/>
      </g>
     </g>
    </g>
    <g id="xtick_5">
     <g id="line2d_5">
      <g>
       <use xlink:href="#m1e78b0d7c6" x="236.16" y="307.584" style="stroke: #000000; stroke-width: 0.8"/>
      </g>
     </g>
     <g id="text_5">
      <!-- 2000 -->
      <g transform="translate(223.435 322.182437) scale(0.1 -0.1)">
       <defs>
        <path id="DejaVuSans-32" d="M 1228 531 
L 3431 531 
L 3431 0 
L 469 0 
L 469 531 
Q 828 903 1448 1529 
Q 2069 2156 2228 2338 
Q 2531 2678 2651 2914 
Q 2772 3150 2772 3378 
Q 2772 3750 2511 3984 
Q 2250 4219 1831 4219 
Q 1534 4219 1204 4116 
Q 875 4013 500 3803 
L 500 4441 
Q 881 4594 1212 4672 
Q 1544 4750 1819 4750 
Q 2544 4750 2975 4387 
Q 3406 4025 3406 3419 
Q 3406 3131 3298 2873 
Q 3191 2616 2906 2266 
Q 2828 2175 2409 1742 
Q 1991 1309 1228 531 
z
" transform="scale(0.015625)"/>
       </defs>
       <use xlink:href="#DejaVuSans-32"/>
       <use xlink:href="#DejaVuSans-30" x="63.623047"/>
       <use xlink:href="#DejaVuSans-30" x="127.246094"/>
       <use xlink:href="#DejaVuSans-30" x="190.869141"/>
      </g>
     </g>
    </g>
    <g id="xtick_6">
     <g id="line2d_6">
      <g>
       <use xlink:href="#m1e78b0d7c6" x="276.741818" y="307.584" style="stroke: #000000; stroke-width: 0.8"/>
      </g>
     </g>
     <g id="text_6">
      <!-- 2500 -->
      <g transform="translate(264.016818 322.182437) scale(0.1 -0.1)">
       <use xlink:href="#DejaVuSans-32"/>
       <use xlink:href="#DejaVuSans-35" x="63.623047"/>
       <use xlink:href="#DejaVuSans-30" x="127.246094"/>
       <use xlink:href="#DejaVuSans-30" x="190.869141"/>
      </g>
     </g>
    </g>
    <g id="xtick_7">
     <g id="line2d_7">
      <g>
       <use xlink:href="#m1e78b0d7c6" x="317.323636" y="307.584" style="stroke: #000000; stroke-width: 0.8"/>
      </g>
     </g>
     <g id="text_7">
      <!-- 3000 -->
      <g transform="translate(304.598636 322.182437) scale(0.1 -0.1)">
       <defs>
        <path id="DejaVuSans-33" d="M 2597 2516 
Q 3050 2419 3304 2112 
Q 3559 1806 3559 1356 
Q 3559 666 3084 287 
Q 2609 -91 1734 -91 
Q 1441 -91 1130 -33 
Q 819 25 488 141 
L 488 750 
Q 750 597 1062 519 
Q 1375 441 1716 441 
Q 2309 441 2620 675 
Q 2931 909 2931 1356 
Q 2931 1769 2642 2001 
Q 2353 2234 1838 2234 
L 1294 2234 
L 1294 2753 
L 1863 2753 
Q 2328 2753 2575 2939 
Q 2822 3125 2822 3475 
Q 2822 3834 2567 4026 
Q 2313 4219 1838 4219 
Q 1578 4219 1281 4162 
Q 984 4106 628 3988 
L 628 4550 
Q 988 4650 1302 4700 
Q 1616 4750 1894 4750 
Q 2613 4750 3031 4423 
Q 3450 4097 3450 3541 
Q 3450 3153 3228 2886 
Q 3006 2619 2597 2516 
z
" transform="scale(0.015625)"/>
       </defs>
       <use xlink:href="#DejaVuSans-33"/>
       <use xlink:href="#DejaVuSans-30" x="63.623047"/>
       <use xlink:href="#DejaVuSans-30" x="127.246094"/>
       <use xlink:href="#DejaVuSans-30" x="190.869141"/>
      </g>
     </g>
    </g>
    <g id="xtick_8">
     <g id="line2d_8">
      <g>
       <use xlink:href="#m1e78b0d7c6" x="357.905455" y="307.584" style="stroke: #000000; stroke-width: 0.8"/>
      </g>
     </g>
     <g id="text_8">
      <!-- 3500 -->
      <g transform="translate(345.180455 322.182437) scale(0.1 -0.1)">
       <use xlink:href="#DejaVuSans-33"/>
       <use xlink:href="#DejaVuSans-35" x="63.623047"/>
       <use xlink:href="#DejaVuSans-30" x="127.246094"/>
       <use xlink:href="#DejaVuSans-30" x="190.869141"/>
      </g>
     </g>
    </g>
    <g id="xtick_9">
     <g id="line2d_9">
      <g>
       <use xlink:href="#m1e78b0d7c6" x="398.487273" y="307.584" style="stroke: #000000; stroke-width: 0.8"/>
      </g>
     </g>
     <g id="text_9">
      <!-- 4000 -->
      <g transform="translate(385.762273 322.182437) scale(0.1 -0.1)">
       <defs>
        <path id="DejaVuSans-34" d="M 2419 4116 
L 825 1625 
L 2419 1625 
L 2419 4116 
z
M 2253 4666 
L 3047 4666 
L 3047 1625 
L 3713 1625 
L 3713 1100 
L 3047 1100 
L 3047 0 
L 2419 0 
L 2419 1100 
L 313 1100 
L 313 1709 
L 2253 4666 
z
" transform="scale(0.015625)"/>
       </defs>
       <use xlink:href="#DejaVuSans-34"/>
       <use xlink:href="#DejaVuSans-30" x="63.623047"/>
       <use xlink:href="#DejaVuSans-30" x="127.246094"/>
       <use xlink:href="#DejaVuSans-30" x="190.869141"/>
      </g>
     </g>
    </g>
   </g>
   <g id="matplotlib.axis_2">
    <g id="ytick_1">
     <g id="line2d_10">
      <defs>
       <path id="m55ea16161c" d="M 0 0 
L -3.5 0 
" style="stroke: #000000; stroke-width: 0.8"/>
      </defs>
      <g>
       <use xlink:href="#m55ea16161c" x="57.6" y="303.753748" style="stroke: #000000; stroke-width: 0.8"/>
      </g>
     </g>
     <g id="text_10">
      <!-- 64.5 -->
      <g transform="translate(28.334375 307.552967) scale(0.1 -0.1)">
       <defs>
        <path id="DejaVuSans-36" d="M 2113 2584 
Q 1688 2584 1439 2293 
Q 1191 2003 1191 1497 
Q 1191 994 1439 701 
Q 1688 409 2113 409 
Q 2538 409 2786 701 
Q 3034 994 3034 1497 
Q 3034 2003 2786 2293 
Q 2538 2584 2113 2584 
z
M 3366 4563 
L 3366 3988 
Q 3128 4100 2886 4159 
Q 2644 4219 2406 4219 
Q 1781 4219 1451 3797 
Q 1122 3375 1075 2522 
Q 1259 2794 1537 2939 
Q 1816 3084 2150 3084 
Q 2853 3084 3261 2657 
Q 3669 2231 3669 1497 
Q 3669 778 3244 343 
Q 2819 -91 2113 -91 
Q 1303 -91 875 529 
Q 447 1150 447 2328 
Q 447 3434 972 4092 
Q 1497 4750 2381 4750 
Q 2619 4750 2861 4703 
Q 3103 4656 3366 4563 
z
" transform="scale(0.015625)"/>
        <path id="DejaVuSans-2e" d="M 684 794 
L 1344 794 
L 1344 0 
L 684 0 
L 684 794 
z
" transform="scale(0.015625)"/>
       </defs>
       <use xlink:href="#DejaVuSans-36"/>
       <use xlink:href="#DejaVuSans-34" x="63.623047"/>
       <use xlink:href="#DejaVuSans-2e" x="127.246094"/>
       <use xlink:href="#DejaVuSans-35" x="159.033203"/>
      </g>
     </g>
    </g>
    <g id="ytick_2">
     <g id="line2d_11">
      <g>
       <use xlink:href="#m55ea16161c" x="57.6" y="267.831314" style="stroke: #000000; stroke-width: 0.8"/>
      </g>
     </g>
     <g id="text_11">
      <!-- 65.0 -->
      <g transform="translate(28.334375 271.630533) scale(0.1 -0.1)">
       <use xlink:href="#DejaVuSans-36"/>
       <use xlink:href="#DejaVuSans-35" x="63.623047"/>
       <use xlink:href="#DejaVuSans-2e" x="127.246094"/>
       <use xlink:href="#DejaVuSans-30" x="159.033203"/>
      </g>
     </g>
    </g>
    <g id="ytick_3">
     <g id="line2d_12">
      <g>
       <use xlink:href="#m55ea16161c" x="57.6" y="231.90888" style="stroke: #000000; stroke-width: 0.8"/>
      </g>
     </g>
     <g id="text_12">
      <!-- 65.5 -->
      <g transform="translate(28.334375 235.708099) scale(0.1 -0.1)">
       <use xlink:href="#DejaVuSans-36"/>
       <use xlink:href="#DejaVuSans-35" x="63.623047"/>
       <use xlink:href="#DejaVuSans-2e" x="127.246094"/>
       <use xlink:href="#DejaVuSans-35" x="159.033203"/>
      </g>
     </g>
    </g>
    <g id="ytick_4">
     <g id="line2d_13">
      <g>
       <use xlink:href="#m55ea16161c" x="57.6" y="195.986446" style="stroke: #000000; stroke-width: 0.8"/>
      </g>
     </g>
     <g id="text_13">
      <!-- 66.0 -->
      <g transform="translate(28.334375 199.785665) scale(0.1 -0.1)">
       <use xlink:href="#DejaVuSans-36"/>
       <use xlink:href="#DejaVuSans-36" x="63.623047"/>
       <use xlink:href="#DejaVuSans-2e" x="127.246094"/>
       <use xlink:href="#DejaVuSans-30" x="159.033203"/>
      </g>
     </g>
    </g>
    <g id="ytick_5">
     <g id="line2d_14">
      <g>
       <use xlink:href="#m55ea16161c" x="57.6" y="160.064012" style="stroke: #000000; stroke-width: 0.8"/>
      </g>
     </g>
     <g id="text_14">
      <!-- 66.5 -->
      <g transform="translate(28.334375 163.863231) scale(0.1 -0.1)">
       <use xlink:href="#DejaVuSans-36"/>
       <use xlink:href="#DejaVuSans-36" x="63.623047"/>
       <use xlink:href="#DejaVuSans-2e" x="127.246094"/>
       <use xlink:href="#DejaVuSans-35" x="159.033203"/>
      </g>
     </g>
    </g>
    <g id="ytick_6">
     <g id="line2d_15">
      <g>
       <use xlink:href="#m55ea16161c" x="57.6" y="124.141578" style="stroke: #000000; stroke-width: 0.8"/>
      </g>
     </g>
     <g id="text_15">
      <!-- 67.0 -->
      <g transform="translate(28.334375 127.940797) scale(0.1 -0.1)">
       <defs>
        <path id="DejaVuSans-37" d="M 525 4666 
L 3525 4666 
L 3525 4397 
L 1831 0 
L 1172 0 
L 2766 4134 
L 525 4134 
L 525 4666 
z
" transform="scale(0.015625)"/>
       </defs>
       <use xlink:href="#DejaVuSans-36"/>
       <use xlink:href="#DejaVuSans-37" x="63.623047"/>
       <use xlink:href="#DejaVuSans-2e" x="127.246094"/>
       <use xlink:href="#DejaVuSans-30" x="159.033203"/>
      </g>
     </g>
    </g>
    <g id="ytick_7">
     <g id="line2d_16">
      <g>
       <use xlink:href="#m55ea16161c" x="57.6" y="88.219144" style="stroke: #000000; stroke-width: 0.8"/>
      </g>
     </g>
     <g id="text_16">
      <!-- 67.5 -->
      <g transform="translate(28.334375 92.018363) scale(0.1 -0.1)">
       <use xlink:href="#DejaVuSans-36"/>
       <use xlink:href="#DejaVuSans-37" x="63.623047"/>
       <use xlink:href="#DejaVuSans-2e" x="127.246094"/>
       <use xlink:href="#DejaVuSans-35" x="159.033203"/>
      </g>
     </g>
    </g>
    <g id="ytick_8">
     <g id="line2d_17">
      <g>
       <use xlink:href="#m55ea16161c" x="57.6" y="52.29671" style="stroke: #000000; stroke-width: 0.8"/>
      </g>
     </g>
     <g id="text_17">
      <!-- 68.0 -->
      <g transform="translate(28.334375 56.095929) scale(0.1 -0.1)">
       <defs>
        <path id="DejaVuSans-38" d="M 2034 2216 
Q 1584 2216 1326 1975 
Q 1069 1734 1069 1313 
Q 1069 891 1326 650 
Q 1584 409 2034 409 
Q 2484 409 2743 651 
Q 3003 894 3003 1313 
Q 3003 1734 2745 1975 
Q 2488 2216 2034 2216 
z
M 1403 2484 
Q 997 2584 770 2862 
Q 544 3141 544 3541 
Q 544 4100 942 4425 
Q 1341 4750 2034 4750 
Q 2731 4750 3128 4425 
Q 3525 4100 3525 3541 
Q 3525 3141 3298 2862 
Q 3072 2584 2669 2484 
Q 3125 2378 3379 2068 
Q 3634 1759 3634 1313 
Q 3634 634 3220 271 
Q 2806 -91 2034 -91 
Q 1263 -91 848 271 
Q 434 634 434 1313 
Q 434 1759 690 2068 
Q 947 2378 1403 2484 
z
M 1172 3481 
Q 1172 3119 1398 2916 
Q 1625 2713 2034 2713 
Q 2441 2713 2670 2916 
Q 2900 3119 2900 3481 
Q 2900 3844 2670 4047 
Q 2441 4250 2034 4250 
Q 1625 4250 1398 4047 
Q 1172 3844 1172 3481 
z
" transform="scale(0.015625)"/>
       </defs>
       <use xlink:href="#DejaVuSans-36"/>
       <use xlink:href="#DejaVuSans-38" x="63.623047"/>
       <use xlink:href="#DejaVuSans-2e" x="127.246094"/>
       <use xlink:href="#DejaVuSans-30" x="159.033203"/>
      </g>
     </g>
    </g>
   </g>
   <g id="line2d_18">
    <path d="M 73.913891 150.846112 
L 73.995055 151.522132 
L 74.076218 149.750959 
L 74.238545 153.250253 
L 74.400873 150.927576 
L 74.482036 150.948902 
L 74.5632 149.795146 
L 74.644364 151.835243 
L 74.725527 151.786174 
L 74.806691 152.653626 
L 74.969018 151.05202 
L 75.131345 153.78345 
L 75.293673 151.71772 
L 75.374836 152.936866 
L 75.537164 152.140289 
L 75.618327 152.484119 
L 75.780655 149.660861 
L 76.024145 152.427789 
L 76.105309 150.609186 
L 76.186473 150.895333 
L 76.267636 152.820409 
L 76.3488 149.864787 
L 76.429964 151.153043 
L 76.673455 146.908238 
L 76.835782 150.729883 
L 76.916945 149.798603 
L 76.998109 149.455799 
L 77.079273 149.533132 
L 77.160436 149.784091 
L 77.2416 148.004233 
L 77.322764 151.06717 
L 77.403927 147.745059 
L 77.485091 148.290538 
L 77.566255 148.871281 
L 77.728582 146.245998 
L 77.809745 147.616864 
L 77.890909 147.555195 
L 78.1344 149.665593 
L 78.296727 153.933085 
L 78.377891 153.572933 
L 78.459055 152.557477 
L 78.540218 153.795786 
L 78.702545 149.089335 
L 78.783709 149.38072 
L 78.864873 148.960773 
L 78.946036 150.687284 
L 79.108364 147.20925 
L 79.270691 148.972103 
L 79.351855 148.151867 
L 79.433018 148.272734 
L 79.514182 149.596721 
L 79.757673 147.306153 
L 79.838836 151.328898 
L 79.92 148.797003 
L 80.001164 150.470591 
L 80.163491 149.51462 
L 80.406982 151.246591 
L 80.488145 149.483269 
L 80.569309 151.555971 
L 80.650473 151.258471 
L 80.731636 149.089421 
L 80.975127 151.920138 
L 81.056291 152.395688 
L 81.218618 149.390076 
L 81.299782 150.78137 
L 81.380945 148.715353 
L 81.462109 149.012353 
L 81.624436 152.574552 
L 81.786764 149.341378 
L 81.867927 151.809973 
L 81.949091 151.544763 
L 82.030255 150.542155 
L 82.111418 152.569784 
L 82.273745 148.405046 
L 82.354909 152.183581 
L 82.517236 147.765935 
L 82.679564 151.665938 
L 82.760727 152.98332 
L 82.841891 152.814604 
L 82.923055 150.610513 
L 83.085382 153.138089 
L 83.328873 148.979171 
L 83.410036 149.999462 
L 83.4912 148.006542 
L 83.653527 150.239253 
L 83.734691 149.480972 
L 83.815855 152.038938 
L 83.897018 151.524328 
L 83.978182 152.450108 
L 84.221673 150.126529 
L 84.302836 152.071986 
L 84.384 151.68844 
L 84.465164 150.698718 
L 84.546327 152.015535 
L 84.627491 149.714017 
L 84.708655 151.232969 
L 84.789818 150.886066 
L 84.870982 147.699 
L 85.114473 152.125517 
L 85.195636 150.792157 
L 85.2768 151.53866 
L 85.357964 150.488446 
L 85.439127 151.954712 
L 85.601455 150.778193 
L 85.763782 152.360418 
L 85.844945 151.45607 
L 86.007273 153.924271 
L 86.1696 153.018399 
L 86.250764 153.531875 
L 86.413091 149.182343 
L 86.494255 150.588203 
L 86.575418 153.216825 
L 86.737745 151.644847 
L 86.818909 151.628943 
L 87.0624 154.656586 
L 87.224727 153.43664 
L 87.305891 154.09214 
L 87.387055 151.776919 
L 87.468218 151.816198 
L 87.549382 151.906295 
L 87.630545 152.612222 
L 87.711709 150.76022 
L 87.874036 152.96796 
L 88.036364 151.001494 
L 88.198691 153.609181 
L 88.279855 152.352642 
L 88.361018 155.364593 
L 88.442182 154.479452 
L 88.523345 151.069655 
L 88.604509 151.54533 
L 88.766836 155.30698 
L 88.929164 152.298231 
L 89.010327 152.842071 
L 89.253818 149.485861 
L 89.334982 149.494196 
L 89.416145 152.680553 
L 89.497309 152.615577 
L 89.7408 148.742237 
L 89.821964 148.194671 
L 89.903127 149.381427 
L 89.984291 147.280202 
L 90.065455 148.102197 
L 90.390109 143.178633 
L 90.552436 146.649256 
L 90.6336 146.575074 
L 90.795927 147.804876 
L 90.958255 150.852998 
L 91.039418 149.794503 
L 91.120582 150.46056 
L 91.201745 152.925537 
L 91.282909 152.559168 
L 91.364073 150.786302 
L 91.5264 153.160848 
L 91.607564 152.99122 
L 91.688727 150.820401 
L 91.769891 152.876227 
L 91.932218 149.822531 
L 92.013382 150.234608 
L 92.094545 149.181823 
L 92.338036 151.698572 
L 92.662691 149.070581 
L 92.743855 151.90827 
L 92.825018 151.502386 
L 92.906182 148.57895 
L 93.230836 153.124926 
L 93.312 152.136277 
L 93.393164 148.667346 
L 93.555491 152.470052 
L 93.636655 150.70478 
L 93.717818 152.551057 
L 93.880145 149.830454 
L 93.961309 150.167232 
L 94.042473 150.227321 
L 94.123636 151.28279 
L 94.2048 150.559992 
L 94.367127 152.008393 
L 94.691782 149.441465 
L 94.854109 149.062288 
L 95.016436 151.771144 
L 95.0976 151.354936 
L 95.259927 152.20236 
L 95.341091 152.07733 
L 95.503418 155.549827 
L 95.584582 155.056068 
L 95.665745 158.408571 
L 95.746909 158.327556 
L 95.828073 157.544898 
L 95.909236 155.586572 
L 95.9904 157.203309 
L 96.152727 154.587174 
L 96.233891 156.216977 
L 96.396218 152.533628 
L 96.477382 154.175203 
L 96.639709 150.693824 
L 96.720873 153.566667 
L 96.802036 150.671269 
L 96.8832 152.081267 
L 97.126691 148.991133 
L 97.289018 151.39117 
L 97.370182 148.814728 
L 97.532509 151.374847 
L 97.613673 150.266571 
L 97.694836 151.300558 
L 97.776 151.1784 
L 97.938327 146.675825 
L 98.181818 150.436253 
L 98.262982 149.225888 
L 98.425309 154.710728 
L 98.587636 152.422507 
L 98.6688 153.233091 
L 98.749964 150.726114 
L 98.831127 151.976721 
L 98.912291 151.018747 
L 99.074618 153.02536 
L 99.155782 150.859783 
L 99.236945 151.350116 
L 99.399273 154.297259 
L 99.5616 152.435788 
L 99.642764 152.98014 
L 99.723927 152.22559 
L 99.805091 153.716545 
L 99.886255 149.970737 
L 100.129745 156.736777 
L 100.210909 155.884265 
L 100.292073 155.943921 
L 100.373236 157.565979 
L 100.535564 154.73253 
L 100.616727 155.696355 
L 100.697891 154.874664 
L 100.779055 155.415599 
L 100.860218 152.988397 
L 100.941382 154.470322 
L 101.022545 154.171664 
L 101.103709 152.052036 
L 101.266036 154.159709 
L 101.509527 150.553306 
L 101.671855 153.883655 
L 101.834182 152.194794 
L 101.915345 151.539929 
L 102.077673 154.933825 
L 102.24 150.112102 
L 102.402327 152.299153 
L 102.483491 151.974277 
L 102.564655 152.443734 
L 102.645818 154.083866 
L 102.808145 151.46005 
L 102.970473 150.267995 
L 103.051636 149.809974 
L 103.1328 150.142222 
L 103.213964 148.425251 
L 103.295127 153.261773 
L 103.376291 151.645882 
L 103.700945 155.265603 
L 103.782109 154.498348 
L 103.863273 154.883723 
L 104.106764 150.74 
L 104.187927 152.950046 
L 104.269091 151.06298 
L 104.350255 153.558107 
L 104.512582 151.263369 
L 104.593745 151.924416 
L 104.756073 149.250643 
L 104.837236 152.511441 
L 104.999564 149.457899 
L 105.080727 149.073867 
L 105.161891 149.493694 
L 105.243055 150.923017 
L 105.486545 149.355048 
L 105.567709 147.305046 
L 105.648873 149.769197 
L 105.730036 149.61707 
L 105.8112 149.807467 
L 105.892364 148.38773 
L 105.973527 151.754535 
L 106.054691 151.160421 
L 106.217018 149.29276 
L 106.298182 150.202392 
L 106.379345 152.496009 
L 106.541673 150.548657 
L 106.622836 150.823339 
L 106.704 150.896815 
L 106.785164 150.762452 
L 106.947491 146.580752 
L 107.028655 146.221892 
L 107.109818 147.989836 
L 107.190982 147.731858 
L 107.353309 145.971431 
L 107.434473 146.041437 
L 107.515636 147.230518 
L 107.677964 144.042794 
L 107.759127 145.616359 
L 107.840291 145.049462 
L 107.921455 144.727191 
L 108.083782 143.143314 
L 108.164945 144.079559 
L 108.246109 142.468284 
L 108.408436 145.377652 
L 108.570764 142.274065 
L 108.733091 143.984426 
L 108.895418 140.031171 
L 108.976582 141.274165 
L 109.057745 140.379504 
L 109.138909 142.619345 
L 109.220073 142.143841 
L 109.301236 140.723925 
L 109.3824 141.28355 
L 109.463564 140.588223 
L 109.707055 142.926381 
L 109.869382 141.565457 
L 109.950545 143.398984 
L 110.031709 141.9361 
L 110.112873 143.020376 
L 110.2752 141.728764 
L 110.518691 143.964403 
L 110.599855 143.773594 
L 110.681018 143.390073 
L 110.762182 145.262726 
L 110.924509 140.134578 
L 111.168 140.959478 
L 111.249164 143.739686 
L 111.411491 141.89213 
L 111.573818 141.404929 
L 111.654982 141.667344 
L 111.898473 144.689795 
L 111.979636 147.416825 
L 112.141964 142.93072 
L 112.223127 145.52023 
L 112.304291 145.507519 
L 112.547782 141.750659 
L 112.628945 143.499055 
L 112.710109 141.980117 
L 113.034764 144.674747 
L 113.115927 141.566366 
L 113.278255 145.059926 
L 113.359418 144.879457 
L 113.440582 144.051523 
L 113.684073 148.079936 
L 113.765236 145.348792 
L 113.927564 147.899662 
L 114.008727 146.701508 
L 114.252218 149.23826 
L 114.333382 147.254022 
L 114.414545 147.285938 
L 114.495709 148.676977 
L 114.576873 145.774874 
L 114.658036 146.56603 
L 114.7392 148.711248 
L 114.820364 147.351298 
L 115.063855 149.644419 
L 115.226182 147.672557 
L 115.388509 147.506948 
L 115.469673 147.157062 
L 115.632 148.652185 
L 115.713164 147.541207 
L 115.794327 148.503192 
L 115.875491 151.295725 
L 115.956655 150.003812 
L 116.037818 150.268543 
L 116.118982 151.509947 
L 116.200145 149.831679 
L 116.443636 155.482821 
L 116.687127 153.955924 
L 116.768291 154.120222 
L 116.849455 154.850222 
L 116.930618 153.858327 
L 117.011782 156.733176 
L 117.255273 150.262394 
L 117.4176 150.806362 
L 117.579927 148.324647 
L 117.661091 148.462454 
L 117.742255 147.943749 
L 117.823418 148.09911 
L 117.904582 150.577615 
L 117.985745 149.832299 
L 118.066909 149.688384 
L 118.148073 150.221214 
L 118.229236 148.291042 
L 118.391564 149.459639 
L 118.472727 149.372766 
L 118.716218 150.574872 
L 118.878545 152.802957 
L 118.959709 152.284912 
L 119.040873 151.269738 
L 119.122036 153.833437 
L 119.2032 152.356078 
L 119.365527 153.722307 
L 119.446691 151.83159 
L 119.852509 158.334589 
L 120.014836 158.737147 
L 120.096 157.564391 
L 120.177164 159.136512 
L 120.339491 153.907291 
L 120.501818 161.061783 
L 120.582982 158.924874 
L 120.664145 159.105018 
L 120.745309 158.158959 
L 120.826473 154.683719 
L 120.907636 156.407414 
L 121.069964 152.912295 
L 121.151127 154.47123 
L 121.313455 150.530576 
L 121.394618 154.704254 
L 121.475782 153.305721 
L 121.556945 153.219626 
L 121.719273 154.252023 
L 121.8816 154.236605 
L 121.962764 155.448355 
L 122.125091 153.349301 
L 122.206255 150.811039 
L 122.368582 153.402663 
L 122.449745 151.232059 
L 122.530909 151.71672 
L 122.693236 150.821243 
L 122.7744 150.373814 
L 122.855564 153.178357 
L 122.936727 150.884309 
L 123.017891 152.679108 
L 123.099055 151.045164 
L 123.504873 155.905504 
L 123.6672 154.294275 
L 123.748364 154.068459 
L 123.829527 153.334002 
L 123.910691 151.481012 
L 124.073018 154.4347 
L 124.154182 153.475329 
L 124.397673 151.62048 
L 124.56 149.625237 
L 124.641164 149.625492 
L 124.722327 148.557743 
L 124.803491 151.35998 
L 124.965818 149.055333 
L 125.046982 148.778386 
L 125.128145 150.59635 
L 125.209309 149.693859 
L 125.371636 153.168526 
L 125.533964 149.666488 
L 125.615127 151.51459 
L 125.858618 145.791211 
L 125.939782 146.529175 
L 126.020945 145.526378 
L 126.102109 145.547829 
L 126.264436 149.335664 
L 126.3456 149.235354 
L 126.426764 149.511225 
L 126.507927 147.763521 
L 126.589091 148.385492 
L 126.670255 147.622901 
L 126.751418 149.299192 
L 126.832582 148.586608 
L 126.913745 148.986151 
L 126.994909 150.083222 
L 127.076073 146.599244 
L 127.157236 147.506028 
L 127.2384 147.727784 
L 127.319564 149.83366 
L 127.400727 146.87771 
L 127.481891 148.474321 
L 127.563055 148.43421 
L 127.644218 148.661511 
L 127.725382 149.620198 
L 127.806545 147.24001 
L 127.887709 151.212512 
L 128.050036 149.011775 
L 128.1312 149.282513 
L 128.374691 150.846099 
L 128.455855 149.093528 
L 128.537018 150.555868 
L 128.618182 149.190294 
L 128.699345 151.774816 
L 128.780509 150.619332 
L 128.861673 151.792009 
L 128.942836 151.555281 
L 129.024 149.981398 
L 129.348655 154.235924 
L 129.429818 154.200202 
L 129.510982 153.999103 
L 129.592145 152.766577 
L 129.673309 153.858027 
L 129.754473 153.63371 
L 129.835636 153.869553 
L 130.079127 156.875166 
L 130.160291 155.910551 
L 130.241455 157.004203 
L 130.403782 155.201518 
L 130.484945 156.7274 
L 130.566109 155.040278 
L 130.647273 156.462888 
L 130.728436 156.298971 
L 130.8096 156.821101 
L 130.890764 156.587345 
L 131.134255 158.243021 
L 131.296582 156.437056 
L 131.377745 157.453771 
L 131.458909 154.874849 
L 131.621236 156.850282 
L 131.7024 156.694989 
L 131.783564 156.094072 
L 131.864727 156.901599 
L 131.945891 156.315169 
L 132.108218 154.525429 
L 132.189382 154.386966 
L 132.270545 153.066209 
L 132.351709 153.45996 
L 132.432873 152.707828 
L 132.5952 155.408241 
L 132.676364 153.381327 
L 132.757527 155.089394 
L 132.838691 153.819366 
L 132.919855 156.241035 
L 133.001018 155.000943 
L 133.163345 156.889506 
L 133.325673 152.691887 
L 133.406836 153.511275 
L 133.488 153.404677 
L 133.569164 155.290993 
L 133.650327 151.906075 
L 133.893818 157.50694 
L 133.974982 155.856609 
L 134.218473 162.105942 
L 134.299636 160.535223 
L 134.461964 162.835126 
L 134.543127 159.270012 
L 134.705455 161.821427 
L 134.948945 157.019606 
L 135.030109 158.143179 
L 135.192436 156.484099 
L 135.2736 156.657313 
L 135.354764 157.318947 
L 135.435927 159.078547 
L 135.517091 158.614434 
L 135.598255 159.192632 
L 135.841745 156.134905 
L 135.922909 157.035515 
L 136.085236 152.747317 
L 136.1664 153.589785 
L 136.409891 157.573272 
L 136.653382 154.087863 
L 136.734545 153.263666 
L 136.896873 156.908655 
L 136.978036 156.010929 
L 137.0592 153.137369 
L 137.221527 155.214997 
L 137.302691 153.197637 
L 137.383855 154.800027 
L 137.465018 153.896664 
L 137.708509 156.827948 
L 137.870836 154.99915 
L 137.952 157.222922 
L 138.195491 153.91761 
L 138.276655 152.926429 
L 138.357818 154.506523 
L 138.601309 151.052296 
L 138.682473 152.160113 
L 138.763636 151.895218 
L 138.8448 152.219297 
L 139.007127 149.975996 
L 139.088291 152.236351 
L 139.331782 148.116425 
L 139.575273 151.284727 
L 139.656436 149.198017 
L 139.7376 149.732686 
L 139.981091 147.071441 
L 140.143418 148.989471 
L 140.224582 148.653488 
L 140.305745 148.878726 
L 140.386909 147.912188 
L 140.468073 145.339111 
L 140.549236 147.366649 
L 140.6304 146.748532 
L 140.711564 146.389067 
L 140.792727 146.544733 
L 140.873891 146.185165 
L 141.036218 141.594064 
L 141.198545 145.104804 
L 141.279709 143.610971 
L 141.442036 145.463391 
L 141.5232 144.043745 
L 141.766691 147.616073 
L 141.929018 146.999915 
L 142.010182 142.479083 
L 142.091345 143.057377 
L 142.334836 145.525094 
L 142.416 144.158566 
L 142.497164 147.090936 
L 142.659491 144.225252 
L 142.821818 145.921234 
L 142.902982 143.336939 
L 142.984145 143.453015 
L 143.065309 142.50021 
L 143.3088 146.545805 
L 143.389964 146.405987 
L 143.471127 145.53014 
L 143.552291 145.880709 
L 143.633455 144.833226 
L 143.795782 145.844007 
L 143.876945 145.787116 
L 144.039273 143.13597 
L 144.120436 146.018191 
L 144.2016 145.198317 
L 144.282764 143.430692 
L 144.445091 145.8851 
L 144.607418 143.677055 
L 144.769745 146.262589 
L 145.0944 142.12107 
L 145.175564 144.22396 
L 145.419055 140.4833 
L 145.662545 145.216437 
L 145.906036 144.73046 
L 145.9872 144.787555 
L 146.068364 142.824412 
L 146.230691 145.739031 
L 146.311855 144.405915 
L 146.393018 144.711083 
L 146.636509 148.710084 
L 146.717673 145.911129 
L 146.798836 146.035114 
L 146.88 148.07822 
L 146.961164 146.301665 
L 147.042327 146.593005 
L 147.204655 145.691936 
L 147.366982 147.30387 
L 147.448145 147.261063 
L 147.529309 147.733412 
L 147.610473 146.0528 
L 147.691636 147.885199 
L 147.7728 147.145013 
L 148.097455 151.97877 
L 148.178618 151.849915 
L 148.340945 150.410666 
L 148.503273 152.149719 
L 148.584436 151.984797 
L 148.746764 148.724859 
L 148.827927 151.527085 
L 148.909091 148.600843 
L 148.990255 149.082784 
L 149.152582 147.4426 
L 149.233745 149.914304 
L 149.314909 148.75016 
L 149.477236 149.436482 
L 149.5584 147.893855 
L 149.639564 148.995108 
L 149.883055 146.297946 
L 150.045382 147.302597 
L 150.126545 146.86262 
L 150.207709 149.111949 
L 150.370036 147.211532 
L 150.4512 147.229562 
L 150.532364 146.68153 
L 150.613527 147.61899 
L 150.694691 147.521699 
L 150.775855 148.145579 
L 150.857018 145.99235 
L 150.938182 150.824621 
L 151.019345 150.422369 
L 151.181673 151.9388 
L 151.262836 151.586929 
L 151.425164 149.988421 
L 151.506327 150.733618 
L 151.587491 148.676108 
L 151.668655 150.077908 
L 151.830982 148.220095 
L 151.912145 148.398602 
L 152.074473 149.755889 
L 152.155636 152.788545 
L 152.317964 150.549912 
L 152.399127 151.551041 
L 152.561455 147.973851 
L 152.723782 149.927722 
L 152.804945 148.735784 
L 152.886109 150.244809 
L 152.967273 149.704636 
L 153.048436 148.373588 
L 153.210764 151.835505 
L 153.291927 149.800779 
L 153.373091 152.376978 
L 153.454255 150.629018 
L 153.535418 150.929766 
L 153.616582 152.482721 
L 153.860073 149.648545 
L 153.941236 150.361494 
L 154.103564 151.315067 
L 154.265891 147.881207 
L 154.347055 148.005613 
L 154.428218 148.947032 
L 154.509382 152.391731 
L 154.590545 151.606093 
L 154.671709 152.670381 
L 154.752873 149.914926 
L 154.9152 153.595013 
L 155.077527 151.601595 
L 155.158691 152.659684 
L 155.321018 151.920716 
L 155.564509 154.442743 
L 155.645673 154.052904 
L 155.726836 152.39692 
L 155.808 152.989129 
L 156.051491 155.025721 
L 156.294982 149.649634 
L 156.376145 153.862331 
L 156.457309 151.626906 
L 156.619636 153.283043 
L 156.7008 151.520524 
L 156.781964 152.408641 
L 156.944291 151.259049 
L 157.025455 151.372065 
L 157.187782 149.662211 
L 157.268945 149.387389 
L 157.350109 148.055554 
L 157.674764 151.019988 
L 157.755927 150.69192 
L 157.918255 152.660565 
L 157.999418 149.332239 
L 158.161745 151.148927 
L 158.242909 150.38787 
L 158.405236 152.230405 
L 158.4864 151.935038 
L 158.567564 149.681804 
L 158.648727 150.190743 
L 158.729891 151.237282 
L 158.811055 150.454576 
L 158.973382 153.170263 
L 159.054545 149.192371 
L 159.135709 152.548233 
L 159.216873 149.487476 
L 159.298036 150.441209 
L 159.3792 149.369745 
L 159.541527 151.204319 
L 159.622691 151.487533 
L 159.703855 150.779968 
L 159.866182 152.868727 
L 159.947345 153.192609 
L 160.028509 154.928668 
L 160.109673 153.81995 
L 160.353164 158.350779 
L 160.434327 157.787274 
L 160.515491 156.267961 
L 160.596655 156.696416 
L 160.677818 157.426803 
L 160.758982 155.651256 
L 160.840145 156.659573 
L 161.002473 153.99636 
L 161.083636 155.407174 
L 161.327127 152.375544 
L 161.408291 152.333456 
L 161.570618 154.754107 
L 161.732945 153.410688 
L 161.976436 155.521276 
L 162.138764 154.575321 
L 162.219927 156.77609 
L 162.301091 156.246115 
L 162.382255 155.747195 
L 162.463418 156.073218 
L 162.544582 153.7659 
L 162.706909 157.328686 
L 162.788073 155.872828 
L 162.9504 157.61163 
L 163.031564 155.88397 
L 163.112727 156.356289 
L 163.193891 157.013806 
L 163.275055 156.842346 
L 163.356218 156.3144 
L 163.437382 156.553453 
L 163.518545 157.937413 
L 163.599709 155.094646 
L 163.680873 155.865728 
L 163.8432 159.648906 
L 163.924364 158.016029 
L 164.086691 158.784056 
L 164.167855 157.668316 
L 164.249018 158.766971 
L 164.330182 156.440351 
L 164.411345 157.15605 
L 164.492509 156.053811 
L 164.654836 159.310671 
L 164.736 159.536417 
L 164.898327 157.046891 
L 165.060655 160.474827 
L 165.141818 156.859525 
L 165.222982 159.9953 
L 165.385309 154.88827 
L 165.466473 156.074727 
L 165.6288 153.227179 
L 165.709964 152.026013 
L 165.791127 153.249875 
L 165.872291 150.270045 
L 165.953455 153.969115 
L 166.034618 153.914997 
L 166.278109 152.155104 
L 166.440436 154.733055 
L 166.602764 152.858879 
L 166.683927 154.313102 
L 166.765091 153.342112 
L 166.846255 155.213622 
L 166.927418 155.104117 
L 167.008582 156.191226 
L 167.089745 155.978223 
L 167.170909 154.402302 
L 167.252073 154.752175 
L 167.333236 155.938326 
L 167.4144 152.16381 
L 167.495564 153.092421 
L 167.576727 152.970513 
L 167.657891 152.311317 
L 168.144873 159.754704 
L 168.469527 154.050753 
L 168.713018 157.421197 
L 168.794182 157.451736 
L 168.956509 156.32496 
L 169.037673 152.407463 
L 169.118836 154.577793 
L 169.2 153.926399 
L 169.443491 150.164544 
L 169.524655 150.796358 
L 169.605818 150.985124 
L 169.768145 155.69024 
L 169.930473 152.841126 
L 170.011636 152.834119 
L 170.173964 150.43894 
L 170.498618 156.285885 
L 170.579782 156.296988 
L 170.742109 155.362322 
L 170.823273 153.937103 
L 170.9856 155.753422 
L 171.066764 155.487133 
L 171.310255 153.984175 
L 171.634909 150.260533 
L 171.797236 152.652657 
L 171.8784 152.316645 
L 171.959564 155.150387 
L 172.040727 153.204891 
L 172.203055 154.692501 
L 172.284218 154.536187 
L 172.365382 152.698039 
L 172.608873 156.03918 
L 172.690036 153.66955 
L 173.258182 159.829994 
L 173.339345 156.859973 
L 173.420509 158.719983 
L 173.664 153.012556 
L 173.745164 153.559669 
L 173.826327 152.407389 
L 173.988655 153.378273 
L 174.069818 150.592172 
L 174.232145 154.10537 
L 174.313309 153.463858 
L 174.475636 150.715942 
L 174.637964 151.526934 
L 174.719127 151.55433 
L 174.800291 154.493517 
L 174.881455 153.175679 
L 174.962618 153.30063 
L 175.124945 156.033594 
L 175.206109 154.754793 
L 175.287273 155.027595 
L 175.368436 154.877808 
L 175.4496 151.849017 
L 175.530764 153.554491 
L 175.611927 152.542991 
L 175.693091 153.577853 
L 175.774255 153.062502 
L 175.936582 154.336315 
L 176.017745 154.255751 
L 176.098909 153.479147 
L 176.180073 154.426563 
L 176.261236 153.610295 
L 176.3424 156.234358 
L 176.504727 152.996578 
L 176.585891 150.085682 
L 176.748218 152.284945 
L 176.829382 150.273528 
L 176.910545 152.090833 
L 177.154036 150.099426 
L 177.2352 152.048609 
L 177.397527 150.048095 
L 177.478691 152.309136 
L 177.559855 151.789343 
L 177.722182 152.505846 
L 177.884509 149.275829 
L 177.965673 148.753706 
L 178.046836 149.103411 
L 178.209164 155.097202 
L 178.290327 153.269574 
L 178.452655 155.113283 
L 178.614982 151.510364 
L 178.696145 151.914213 
L 178.777309 151.468831 
L 178.858473 151.632297 
L 178.939636 148.694838 
L 179.0208 150.281749 
L 179.101964 149.60699 
L 179.264291 154.860901 
L 179.345455 152.227595 
L 179.426618 153.269655 
L 179.670109 151.738853 
L 179.751273 152.155497 
L 179.832436 154.786344 
L 179.9136 151.480657 
L 179.994764 151.945586 
L 180.075927 154.902265 
L 180.157091 153.438868 
L 180.238255 153.613628 
L 180.319418 153.225759 
L 180.400582 151.840424 
L 180.562909 154.653802 
L 180.725236 150.653871 
L 180.887564 153.341206 
L 180.968727 152.397122 
L 181.049891 152.254155 
L 181.212218 151.031273 
L 181.536873 152.412256 
L 181.6992 154.392953 
L 181.780364 154.306696 
L 182.023855 151.493889 
L 182.105018 152.445427 
L 182.186182 152.187779 
L 182.348509 148.082595 
L 182.429673 148.936341 
L 182.592 147.914323 
L 182.754327 145.347779 
L 182.916655 149.109356 
L 182.997818 149.065682 
L 183.078982 145.817122 
L 183.160145 145.840884 
L 183.241309 147.67989 
L 183.322473 147.495825 
L 183.403636 147.959314 
L 183.4848 146.703328 
L 183.565964 147.013773 
L 183.728291 148.280725 
L 183.809455 148.74988 
L 183.971782 147.729039 
L 184.052945 148.778383 
L 184.134109 145.086255 
L 184.215273 147.242316 
L 184.296436 145.718477 
L 184.539927 150.98544 
L 184.621091 151.281517 
L 184.702255 150.648977 
L 184.783418 149.077101 
L 184.864582 149.562334 
L 184.945745 149.297381 
L 185.189236 146.716369 
L 185.2704 147.227106 
L 185.351564 147.29198 
L 185.513891 145.66112 
L 185.676218 147.751736 
L 185.919709 150.250188 
L 186.000873 149.621665 
L 186.082036 147.767884 
L 186.1632 148.396082 
L 186.244364 146.63927 
L 186.487855 150.286414 
L 186.650182 145.849966 
L 186.893673 149.421912 
L 186.974836 147.641829 
L 187.056 148.841976 
L 187.218327 145.09057 
L 187.299491 145.261388 
L 187.542982 148.132786 
L 187.624145 145.486312 
L 187.786473 148.149265 
L 187.867636 146.005237 
L 188.192291 149.439782 
L 188.273455 146.477587 
L 188.435782 150.190743 
L 188.516945 150.619636 
L 188.598109 147.346397 
L 188.679273 151.169205 
L 188.8416 146.513733 
L 188.922764 150.358467 
L 189.003927 148.737613 
L 189.085091 149.724503 
L 189.247418 147.469161 
L 189.328582 149.198907 
L 189.490909 147.937548 
L 189.653236 149.692529 
L 189.815564 147.015093 
L 189.977891 149.441618 
L 190.140218 149.732829 
L 190.221382 147.94908 
L 190.302545 151.229768 
L 190.383709 151.182573 
L 190.464873 151.32914 
L 190.6272 152.527696 
L 190.708364 150.72921 
L 190.789527 152.935503 
L 191.114182 149.774923 
L 191.195345 149.818277 
L 191.276509 149.171447 
L 191.357673 149.881036 
L 191.438836 151.82147 
L 191.52 149.943472 
L 191.601164 151.353891 
L 191.682327 150.489777 
L 191.763491 151.302702 
L 191.844655 148.996578 
L 191.925818 150.50367 
L 192.006982 147.577762 
L 192.088145 147.975502 
L 192.169309 148.492039 
L 192.250473 150.664764 
L 192.4128 147.321994 
L 192.493964 147.221687 
L 192.575127 147.426811 
L 192.656291 146.9601 
L 192.737455 147.196479 
L 192.980945 143.8485 
L 193.062109 144.63161 
L 193.143273 146.593487 
L 193.224436 145.493532 
L 193.467927 148.846103 
L 193.549091 148.914555 
L 193.630255 148.186383 
L 193.792582 150.169332 
L 193.873745 149.101064 
L 193.954909 149.921711 
L 194.036073 149.757423 
L 194.117236 147.738192 
L 194.1984 150.054102 
L 194.279564 149.852602 
L 194.441891 151.194518 
L 194.523055 150.938947 
L 194.685382 150.07743 
L 194.766545 151.344069 
L 194.847709 150.87586 
L 194.928873 149.93616 
L 195.010036 150.103952 
L 195.0912 150.691248 
L 195.172364 150.131082 
L 195.253527 151.656673 
L 195.334691 150.090867 
L 195.415855 150.758452 
L 195.497018 149.35966 
L 195.578182 150.938217 
L 195.659345 150.113312 
L 195.740509 146.050204 
L 195.821673 147.340303 
L 195.902836 148.558498 
L 195.984 147.712095 
L 196.065164 147.978262 
L 196.146327 147.720075 
L 196.227491 145.481871 
L 196.308655 146.391769 
L 196.389818 145.255798 
L 196.957964 151.418324 
L 197.039127 151.042228 
L 197.201455 153.595124 
L 197.363782 150.262307 
L 197.526109 154.310294 
L 197.688436 150.586852 
L 197.7696 150.815312 
L 197.931927 153.715075 
L 198.013091 153.084963 
L 198.175418 151.145212 
L 198.256582 147.443576 
L 198.337745 149.924614 
L 198.418909 149.189704 
L 198.500073 149.132194 
L 198.581236 151.323289 
L 198.6624 150.314184 
L 198.743564 150.333813 
L 198.824727 150.755573 
L 198.905891 152.972878 
L 198.987055 152.487026 
L 199.149382 153.47008 
L 199.230545 152.369999 
L 199.311709 152.89339 
L 199.636364 150.674297 
L 199.798691 147.663909 
L 200.042182 151.152299 
L 200.204509 148.781177 
L 200.366836 152.67764 
L 200.448 151.714985 
L 200.529164 154.262112 
L 200.610327 151.442107 
L 200.691491 152.171713 
L 200.772655 153.987189 
L 200.853818 152.11034 
L 200.934982 152.736652 
L 201.016145 153.720097 
L 201.097309 150.080932 
L 201.178473 152.570405 
L 201.3408 149.60626 
L 201.584291 153.642261 
L 201.665455 153.306878 
L 201.908945 156.338016 
L 201.990109 154.154777 
L 202.071273 155.069112 
L 202.2336 151.108093 
L 202.477091 155.125769 
L 202.558255 156.201309 
L 202.801745 152.833044 
L 202.882909 154.560664 
L 202.964073 151.305548 
L 203.045236 152.388006 
L 203.1264 152.244092 
L 203.207564 152.436955 
L 203.288727 154.879026 
L 203.369891 154.454214 
L 203.532218 151.328602 
L 203.694545 154.490941 
L 203.856873 153.146053 
L 203.938036 153.235796 
L 204.0192 152.694534 
L 204.100364 156.292637 
L 204.262691 154.098849 
L 204.343855 155.24838 
L 204.506182 150.847753 
L 204.749673 155.196507 
L 204.912 152.57674 
L 204.993164 154.907417 
L 205.155491 152.710092 
L 205.398982 155.202197 
L 205.561309 153.015795 
L 205.723636 153.202968 
L 205.885964 152.601846 
L 206.129455 149.823957 
L 206.210618 150.121263 
L 206.291782 153.283786 
L 206.372945 150.367342 
L 206.535273 153.827817 
L 206.6976 151.15528 
L 206.859927 151.433314 
L 207.022255 154.877475 
L 207.103418 155.720245 
L 207.184582 155.028515 
L 207.346909 151.741332 
L 207.5904 154.991592 
L 207.833891 152.590913 
L 207.915055 154.314967 
L 207.996218 150.734673 
L 208.077382 151.079819 
L 208.158545 150.611812 
L 208.402036 153.619396 
L 208.4832 151.217303 
L 208.564364 153.026452 
L 208.645527 151.739189 
L 208.726691 153.384149 
L 208.807855 151.364474 
L 208.889018 151.420282 
L 208.970182 153.761503 
L 209.051345 151.570447 
L 209.213673 154.637249 
L 209.294836 153.281691 
L 209.376 151.697698 
L 209.457164 152.304522 
L 209.700655 149.884645 
L 209.862982 151.816589 
L 209.944145 151.619189 
L 210.025309 149.464701 
L 210.106473 149.475628 
L 210.2688 150.628697 
L 210.431127 152.976694 
L 210.512291 153.826394 
L 210.593455 150.746815 
L 210.674618 150.876623 
L 210.755782 151.285271 
L 210.836945 154.002869 
L 210.918109 150.705294 
L 210.999273 151.875355 
L 211.1616 152.266489 
L 211.242764 150.394993 
L 211.405091 152.434992 
L 211.486255 150.726822 
L 211.567418 151.668141 
L 211.729745 154.9962 
L 211.810909 152.298721 
L 211.973236 154.152026 
L 212.297891 149.110522 
L 212.379055 150.644241 
L 212.541382 148.378125 
L 212.622545 148.072038 
L 212.703709 150.746895 
L 212.9472 146.535517 
L 213.028364 147.168943 
L 213.190691 146.179773 
L 213.353018 149.302517 
L 213.434182 148.899122 
L 213.515345 152.130054 
L 213.596509 148.719666 
L 213.677673 149.380636 
L 213.758836 148.327171 
L 213.84 148.573205 
L 213.921164 151.480776 
L 214.002327 149.491087 
L 214.164655 151.815811 
L 214.245818 151.729326 
L 214.326982 151.219228 
L 214.408145 149.983184 
L 214.489309 152.447303 
L 214.570473 151.976686 
L 214.651636 151.946801 
L 214.7328 152.563411 
L 214.813964 150.931385 
L 214.895127 152.30767 
L 214.976291 150.664731 
L 215.057455 150.754091 
L 215.138618 153.111339 
L 215.219782 149.990991 
L 215.382109 152.123987 
L 215.463273 151.56294 
L 215.6256 152.565378 
L 215.706764 153.334453 
L 215.787927 152.233965 
L 215.869091 152.7714 
L 215.950255 152.417835 
L 216.031418 152.956786 
L 216.112582 151.910178 
L 216.193745 153.235324 
L 216.274909 151.120652 
L 216.356073 155.15623 
L 216.437236 154.399684 
L 216.5184 153.531076 
L 216.680727 155.737125 
L 216.843055 154.231675 
L 216.924218 155.425272 
L 217.005382 152.704547 
L 217.086545 153.977343 
L 217.167709 153.701406 
L 217.248873 151.754764 
L 217.330036 152.023638 
L 217.4112 154.046796 
L 217.573527 152.455977 
L 217.735855 155.061844 
L 217.817018 152.873156 
L 217.898182 153.630521 
L 217.979345 152.564781 
L 218.141673 154.217105 
L 218.222836 153.097121 
L 218.385164 155.135525 
L 218.547491 152.291865 
L 218.628655 152.647482 
L 218.709818 151.892118 
L 218.790982 152.656938 
L 218.872145 150.834711 
L 218.953309 152.440418 
L 219.115636 149.903763 
L 219.1968 151.564966 
L 219.277964 151.16764 
L 219.359127 149.234867 
L 219.440291 150.729819 
L 219.521455 149.918972 
L 219.602618 152.847849 
L 219.683782 150.102912 
L 219.846109 152.921517 
L 220.0896 150.78743 
L 220.251927 152.167109 
L 220.333091 154.401097 
L 220.414255 153.8947 
L 220.495418 153.758392 
L 220.657745 154.199502 
L 220.820073 151.614748 
L 220.901236 153.127696 
L 220.9824 150.979126 
L 221.063564 151.174201 
L 221.144727 150.156592 
L 221.225891 152.489929 
L 221.307055 151.496266 
L 221.388218 152.596865 
L 221.712873 148.653997 
L 221.8752 148.702055 
L 222.037527 149.204769 
L 222.118691 147.205138 
L 222.199855 147.308222 
L 222.281018 148.702993 
L 222.362182 146.953543 
L 222.443345 148.258027 
L 222.605673 146.66685 
L 222.686836 147.481528 
L 222.768 146.822219 
L 222.849164 144.084759 
L 223.011491 147.855948 
L 223.092655 147.872686 
L 223.336145 143.705281 
L 223.417309 145.566626 
L 223.498473 145.089483 
L 223.6608 146.566278 
L 223.741964 145.319419 
L 223.823127 145.631899 
L 223.985455 148.595248 
L 224.066618 146.094501 
L 224.147782 147.35573 
L 224.310109 145.932372 
L 224.391273 147.631684 
L 224.634764 145.548427 
L 224.715927 146.292924 
L 224.878255 145.342487 
L 224.959418 147.650176 
L 225.040582 144.771484 
L 225.121745 144.959174 
L 225.202909 144.474835 
L 225.365236 146.051359 
L 225.4464 143.96346 
L 225.527564 144.193189 
L 225.608727 144.225984 
L 225.771055 142.184453 
L 225.852218 144.165865 
L 225.933382 142.731355 
L 226.014545 143.855718 
L 226.176873 141.667389 
L 226.3392 145.292309 
L 226.420364 142.507474 
L 226.582691 146.026515 
L 226.745018 142.581502 
L 226.826182 142.839999 
L 226.907345 144.397719 
L 226.988509 141.079092 
L 227.313164 145.764319 
L 227.394327 145.738217 
L 227.475491 145.920831 
L 227.556655 143.322329 
L 227.637818 145.202105 
L 227.718982 144.360676 
L 227.800145 145.573787 
L 227.962473 144.067798 
L 228.043636 143.940879 
L 228.1248 144.501228 
L 228.205964 146.826136 
L 228.287127 146.131817 
L 228.368291 145.303875 
L 228.449455 146.393396 
L 228.611782 143.893018 
L 228.936436 144.801988 
L 229.0176 145.291758 
L 229.098764 147.1495 
L 229.179927 145.382442 
L 229.261091 146.072698 
L 229.342255 145.282242 
L 229.423418 146.462702 
L 229.504582 146.238601 
L 229.585745 142.970817 
L 229.666909 145.098299 
L 229.748073 144.894133 
L 229.9104 142.553508 
L 229.991564 145.374458 
L 230.072727 143.370749 
L 230.235055 147.143317 
L 230.316218 144.400329 
L 230.397382 144.999396 
L 230.478545 144.865143 
L 230.559709 145.420874 
L 230.722036 144.795524 
L 230.8032 143.569659 
L 230.884364 145.117765 
L 230.965527 145.046244 
L 231.127855 142.041575 
L 231.290182 144.637582 
L 231.452509 141.269787 
L 231.533673 144.289813 
L 231.614836 143.694816 
L 231.696 143.938588 
L 231.777164 143.894546 
L 231.858327 144.868325 
L 232.020655 142.559256 
L 232.101818 144.659687 
L 232.264145 143.469571 
L 232.507636 148.632354 
L 232.751127 146.52838 
L 232.913455 149.421525 
L 233.075782 146.52141 
L 233.156945 146.642675 
L 233.238109 146.00074 
L 233.319273 142.287488 
L 233.400436 142.498219 
L 233.643927 146.811147 
L 233.725091 146.512449 
L 233.887418 145.587934 
L 234.049745 145.337222 
L 234.130909 143.366292 
L 234.212073 145.493601 
L 234.293236 141.955117 
L 234.3744 146.213317 
L 234.455564 142.694984 
L 234.536727 143.670503 
L 234.699055 148.20448 
L 234.861382 146.877672 
L 234.942545 146.482268 
L 235.023709 148.282799 
L 235.186036 145.021999 
L 235.348364 148.363229 
L 235.429527 145.084121 
L 235.510691 145.351624 
L 235.591855 144.522751 
L 235.673018 146.696112 
L 235.754182 145.615011 
L 235.997673 148.626251 
L 236.078836 145.7392 
L 236.322327 150.457012 
L 236.403491 149.634718 
L 236.565818 151.725014 
L 236.646982 154.904635 
L 236.728145 154.034535 
L 236.809309 154.680588 
L 238.189091 196.689925 
L 238.270255 196.900172 
L 238.513745 201.740063 
L 238.594909 201.099212 
L 238.757236 206.128783 
L 238.919564 204.846361 
L 239.163055 211.793243 
L 239.244218 211.6617 
L 239.325382 212.240364 
L 239.650036 219.358669 
L 239.7312 219.656725 
L 240.218182 237.59497 
L 240.542836 243.557947 
L 240.948655 260.642045 
L 241.029818 262.038584 
L 241.435636 275.740732 
L 241.597964 280.392112 
L 242.084945 294.178565 
L 242.166109 293.694287 
L 242.247273 293.932817 
L 242.328436 295.488 
L 242.4096 291.199198 
L 242.490764 292.304262 
L 242.571927 293.836126 
L 242.896582 283.401049 
L 242.977745 283.016543 
L 243.058909 281.185033 
L 243.951709 237.712525 
L 244.276364 220.590578 
L 244.925673 186.687623 
L 246.061964 145.714305 
L 246.143127 144.459705 
L 246.548945 128.708284 
L 246.630109 128.568265 
L 246.8736 122.328512 
L 247.198255 113.791824 
L 247.279418 114.216523 
L 247.360582 113.673929 
L 247.928727 97.326935 
L 248.415709 82.043411 
L 248.6592 76.210045 
L 248.902691 67.90792 
L 249.065018 65.108065 
L 249.146182 65.984552 
L 249.552 54.189573 
L 249.633164 55.197215 
L 249.714327 55.885863 
L 249.795491 55.781376 
L 249.876655 53.568 
L 250.038982 58.104324 
L 250.120145 57.86062 
L 250.201309 57.638773 
L 250.525964 66.390518 
L 250.607127 65.789985 
L 251.012945 73.594945 
L 251.094109 72.862674 
L 251.3376 79.466497 
L 251.499927 82.461484 
L 251.581091 84.19254 
L 251.662255 84.115723 
L 251.743418 83.637749 
L 252.717382 99.196872 
L 252.798545 99.113961 
L 252.879709 96.810201 
L 252.960873 97.066139 
L 253.1232 99.820582 
L 253.285527 97.613795 
L 253.366691 99.519848 
L 253.610182 97.263344 
L 253.691345 99.862736 
L 253.772509 98.169605 
L 253.853673 100.48492 
L 253.934836 99.156086 
L 254.097164 104.109326 
L 254.178327 104.036589 
L 254.259491 103.599752 
L 254.421818 106.990914 
L 254.502982 105.610347 
L 254.584145 106.08737 
L 254.665309 108.848652 
L 254.827636 107.062937 
L 254.989964 109.268259 
L 255.233455 117.082802 
L 255.558109 111.801578 
L 255.720436 113.440152 
L 255.8016 111.476583 
L 255.882764 111.960833 
L 256.126255 114.774541 
L 256.369745 119.233992 
L 256.450909 118.561748 
L 256.613236 121.571962 
L 256.856727 117.483823 
L 256.937891 116.992667 
L 257.100218 119.162987 
L 257.181382 122.076124 
L 257.262545 121.171304 
L 257.343709 123.297098 
L 257.424873 119.952164 
L 257.506036 123.427373 
L 257.830691 118.55069 
L 257.911855 118.130667 
L 257.993018 116.88301 
L 258.074182 117.093092 
L 258.155345 116.633911 
L 258.236509 117.289322 
L 258.398836 117.064581 
L 258.48 117.461755 
L 258.723491 115.138219 
L 258.804655 112.972912 
L 258.885818 114.611136 
L 258.966982 114.456101 
L 259.048145 114.471313 
L 259.129309 115.136745 
L 259.3728 113.389128 
L 259.453964 110.2191 
L 259.535127 110.983879 
L 259.616291 109.533142 
L 259.697455 109.608664 
L 259.778618 109.070616 
L 259.859782 110.227956 
L 259.940945 108.112585 
L 260.022109 110.060583 
L 260.184436 107.686215 
L 260.346764 103.75732 
L 260.427927 105.250904 
L 260.590255 100.022453 
L 260.833745 96.750369 
L 260.914909 98.048394 
L 260.996073 97.833339 
L 261.077236 97.931794 
L 261.1584 97.79985 
L 261.401891 93.64977 
L 261.483055 94.958549 
L 261.645382 92.474863 
L 261.726545 92.436353 
L 262.132364 83.546603 
L 262.213527 83.808792 
L 262.294691 85.354748 
L 262.375855 83.047447 
L 262.457018 83.450326 
L 262.538182 82.811625 
L 262.700509 78.015826 
L 262.862836 74.878309 
L 262.944 74.969543 
L 263.025164 74.038671 
L 263.106327 76.358305 
L 263.268655 72.854408 
L 263.349818 73.228657 
L 263.593309 74.910909 
L 263.674473 72.545684 
L 263.755636 73.093592 
L 263.8368 75.659351 
L 263.917964 72.744193 
L 263.999127 73.01922 
L 264.080291 75.915003 
L 264.242618 70.80433 
L 264.323782 70.870148 
L 264.404945 69.742184 
L 264.486109 72.513345 
L 264.7296 67.464261 
L 264.810764 69.932677 
L 264.891927 69.502062 
L 264.973091 68.999729 
L 265.135418 70.573843 
L 265.216582 68.530584 
L 265.297745 68.649588 
L 265.378909 68.80406 
L 265.460073 67.811196 
L 265.6224 72.245809 
L 265.703564 68.512068 
L 265.947055 71.382728 
L 266.028218 68.431044 
L 266.109382 70.208148 
L 266.190545 69.549285 
L 266.352873 72.176704 
L 266.434036 72.12879 
L 266.5152 72.335612 
L 266.596364 75.17242 
L 266.677527 74.230769 
L 267.083345 79.464307 
L 267.164509 77.286239 
L 267.245673 79.397625 
L 267.326836 77.527843 
L 267.408 78.293794 
L 267.489164 80.760591 
L 267.570327 80.591973 
L 267.651491 78.364309 
L 267.976145 83.587578 
L 268.057309 83.275471 
L 268.138473 83.11903 
L 268.219636 85.620871 
L 268.3008 82.515605 
L 268.381964 83.088651 
L 268.463127 82.872796 
L 268.544291 81.052174 
L 268.787782 87.374829 
L 268.868945 86.430884 
L 268.950109 88.645879 
L 269.031273 88.194513 
L 269.1936 86.957365 
L 269.274764 87.612472 
L 269.355927 87.532061 
L 269.437091 89.912722 
L 269.518255 87.155604 
L 269.599418 87.995225 
L 269.761745 93.068135 
L 269.924073 92.858165 
L 270.005236 93.272454 
L 270.0864 95.634899 
L 270.167564 94.177912 
L 270.248727 94.666289 
L 270.411055 97.354915 
L 270.492218 96.558608 
L 270.573382 99.839904 
L 270.654545 99.588362 
L 270.898036 97.885574 
L 271.141527 102.569693 
L 271.222691 99.803763 
L 271.303855 100.629583 
L 271.385018 103.875478 
L 271.547345 101.168457 
L 271.628509 101.18497 
L 271.709673 102.944214 
L 271.790836 102.391761 
L 271.872 103.43187 
L 271.953164 102.564755 
L 272.115491 106.045453 
L 272.277818 103.695731 
L 272.358982 104.396059 
L 272.602473 109.042743 
L 272.683636 107.875889 
L 272.845964 113.010722 
L 272.927127 109.566116 
L 273.089455 112.280927 
L 273.170618 112.371723 
L 273.251782 112.180768 
L 273.414109 115.630103 
L 273.495273 115.441913 
L 273.576436 112.666048 
L 273.6576 112.726366 
L 273.738764 111.211741 
L 273.901091 113.695638 
L 273.982255 112.200935 
L 274.063418 112.326134 
L 274.144582 112.266181 
L 274.225745 113.125291 
L 274.306909 111.728971 
L 274.469236 114.26708 
L 274.631564 110.491515 
L 274.712727 111.991286 
L 274.793891 108.864419 
L 274.875055 113.838032 
L 274.956218 113.041095 
L 275.037382 111.501918 
L 275.118545 113.726099 
L 275.199709 111.472838 
L 275.280873 112.363687 
L 275.4432 110.5118 
L 275.605527 113.300272 
L 275.686691 113.335886 
L 275.767855 111.320765 
L 275.849018 111.804981 
L 275.930182 113.508264 
L 276.092509 110.327115 
L 276.173673 109.736711 
L 276.254836 111.605422 
L 276.336 110.524363 
L 276.417164 112.922118 
L 276.498327 112.81114 
L 276.579491 112.900885 
L 276.660655 112.650658 
L 276.822982 117.999397 
L 276.985309 115.75898 
L 277.066473 116.040796 
L 277.309964 113.14073 
L 277.472291 114.198849 
L 277.553455 111.664382 
L 277.634618 111.801866 
L 277.715782 112.3095 
L 277.878109 115.113783 
L 277.959273 113.164162 
L 278.040436 113.713732 
L 278.283927 110.114373 
L 278.365091 111.045272 
L 278.446255 111.672625 
L 278.770909 105.479952 
L 278.852073 107.049066 
L 278.933236 105.221193 
L 279.0144 105.777427 
L 279.095564 107.0495 
L 279.176727 106.864459 
L 279.257891 106.768721 
L 279.339055 108.104957 
L 279.420218 107.179779 
L 279.582545 110.795054 
L 279.744873 106.517891 
L 279.9072 109.357675 
L 279.988364 106.085388 
L 280.150691 109.16754 
L 280.313018 106.317707 
L 280.394182 106.988852 
L 280.475345 105.016706 
L 280.556509 105.453911 
L 280.637673 104.524762 
L 280.881164 108.386091 
L 280.962327 107.819749 
L 281.043491 105.211861 
L 281.205818 109.064617 
L 281.286982 106.009687 
L 281.368145 107.953184 
L 281.6928 104.580229 
L 281.773964 104.710588 
L 281.936291 103.886221 
L 282.017455 102.91103 
L 282.098618 104.792826 
L 282.179782 101.757571 
L 282.260945 104.27004 
L 282.423273 100.692669 
L 282.504436 103.219003 
L 282.747927 100.098515 
L 282.910255 100.904786 
L 282.991418 104.486227 
L 283.072582 101.870004 
L 283.153745 102.256758 
L 283.234909 102.29607 
L 283.316073 101.998664 
L 283.397236 102.203907 
L 283.4784 102.989319 
L 283.559564 99.744264 
L 283.640727 99.762433 
L 283.803055 99.141182 
L 283.884218 100.18428 
L 283.965382 102.686508 
L 284.046545 101.601709 
L 284.127709 103.902346 
L 284.208873 102.038059 
L 284.290036 104.506599 
L 284.3712 103.9364 
L 284.452364 104.851345 
L 284.614691 103.731116 
L 284.695855 103.51587 
L 284.777018 100.594426 
L 284.858182 103.89735 
L 285.020509 101.341109 
L 285.101673 102.402528 
L 285.182836 98.689386 
L 285.264 99.632156 
L 285.345164 99.209151 
L 285.426327 99.622107 
L 285.669818 102.343566 
L 285.750982 101.824413 
L 285.832145 103.205197 
L 285.913309 102.437249 
L 286.075636 104.828897 
L 286.1568 102.282446 
L 286.237964 103.703315 
L 286.319127 101.233256 
L 286.562618 104.400322 
L 286.643782 104.32905 
L 286.806109 101.78755 
L 286.887273 105.574191 
L 286.968436 102.843147 
L 287.211927 105.457604 
L 287.293091 104.110543 
L 287.455418 105.174491 
L 287.780073 102.415898 
L 288.023564 106.369774 
L 288.104727 104.124471 
L 288.185891 106.105222 
L 288.348218 103.0131 
L 288.510545 105.155342 
L 288.591709 104.248354 
L 288.754036 106.8134 
L 288.8352 103.860587 
L 288.916364 105.085708 
L 289.159855 99.901732 
L 289.241018 99.735034 
L 289.322182 102.255003 
L 289.403345 102.227197 
L 289.484509 102.923814 
L 289.565673 101.204224 
L 289.728 103.480486 
L 289.809164 99.832326 
L 289.890327 102.059558 
L 289.971491 101.096506 
L 290.052655 101.277996 
L 290.133818 104.339939 
L 290.214982 104.221003 
L 290.296145 103.243114 
L 290.377309 104.721188 
L 290.539636 100.033037 
L 290.6208 101.857051 
L 290.945455 107.353206 
L 291.026618 106.147472 
L 291.107782 107.379591 
L 291.432436 102.907878 
L 291.675927 107.02197 
L 291.757091 105.999747 
L 291.838255 110.113115 
L 291.919418 106.416269 
L 292.000582 106.825158 
L 292.081745 105.605773 
L 292.162909 106.024009 
L 292.244073 106.003976 
L 292.325236 107.405107 
L 292.4064 104.801891 
L 292.487564 105.007732 
L 292.568727 104.445152 
L 292.731055 107.149562 
L 292.812218 104.22643 
L 292.893382 105.499946 
L 292.974545 104.756957 
L 293.055709 105.376646 
L 293.218036 104.579163 
L 293.380364 106.472641 
L 293.461527 105.618237 
L 293.542691 105.911854 
L 293.705018 108.898786 
L 293.786182 108.575077 
L 293.867345 107.684896 
L 294.029673 109.600086 
L 294.110836 107.025271 
L 294.192 107.756145 
L 294.273164 107.978825 
L 294.516655 105.178145 
L 294.597818 105.942461 
L 294.841309 104.124999 
L 295.003636 105.667499 
L 295.165964 102.383139 
L 295.328291 103.771068 
L 295.409455 105.120038 
L 295.571782 101.454924 
L 295.734109 102.47625 
L 295.9776 104.393721 
L 296.139927 103.258677 
L 296.221091 103.586916 
L 296.302255 105.708912 
L 296.464582 102.293513 
L 296.545745 103.333005 
L 296.626909 106.265115 
L 296.708073 104.795886 
L 296.8704 106.081405 
L 297.032727 102.897996 
L 297.113891 102.169217 
L 297.195055 102.825161 
L 297.276218 102.348889 
L 297.519709 105.759416 
L 297.600873 103.461725 
L 297.7632 105.366789 
L 297.925527 101.150077 
L 298.006691 104.705155 
L 298.087855 103.159534 
L 298.250182 104.513708 
L 298.412509 101.437034 
L 298.493673 102.301346 
L 298.574836 99.734974 
L 298.737164 105.608676 
L 298.980655 102.845699 
L 299.224145 106.382526 
L 299.305309 105.829586 
L 299.467636 103.956653 
L 299.5488 104.983946 
L 299.629964 104.017743 
L 299.711127 101.088113 
L 299.792291 101.591941 
L 299.873455 101.14583 
L 300.035782 104.91116 
L 300.198109 103.437665 
L 300.279273 102.183495 
L 300.360436 102.231947 
L 300.4416 101.439578 
L 300.603927 103.441344 
L 300.685091 103.049482 
L 300.766255 101.883685 
L 300.847418 102.398835 
L 300.928582 101.737794 
L 301.090909 104.562417 
L 301.253236 102.812672 
L 301.3344 103.895393 
L 301.415564 103.573025 
L 301.496727 104.06523 
L 301.740218 108.051116 
L 301.902545 106.61912 
L 301.983709 106.689602 
L 302.064873 105.618435 
L 302.146036 107.41923 
L 302.308364 103.751336 
L 302.389527 106.138338 
L 302.470691 105.664845 
L 302.633018 106.218159 
L 302.714182 106.11567 
L 302.795345 106.274594 
L 302.876509 107.107199 
L 302.957673 110.170375 
L 303.12 106.286099 
L 303.201164 107.795608 
L 303.363491 106.08347 
L 303.444655 104.210571 
L 303.525818 107.039976 
L 303.606982 106.34186 
L 303.688145 105.73608 
L 303.769309 107.146843 
L 304.256291 102.532833 
L 304.337455 103.913793 
L 304.499782 101.385685 
L 304.580945 101.513479 
L 304.743273 103.279705 
L 304.9056 100.933647 
L 305.067927 102.671606 
L 305.230255 99.228923 
L 305.311418 99.636301 
L 305.392582 102.585813 
L 305.473745 102.075739 
L 305.554909 100.751111 
L 305.636073 103.511679 
L 305.7984 102.109486 
L 305.879564 103.552808 
L 305.960727 102.874737 
L 306.041891 103.133244 
L 306.285382 99.934789 
L 306.366545 104.327597 
L 306.447709 101.649209 
L 306.528873 104.347997 
L 306.6912 99.464793 
L 306.853527 104.113713 
L 307.015855 102.966473 
L 307.097018 104.742796 
L 307.178182 104.212622 
L 307.502836 107.962685 
L 307.584 102.763008 
L 307.665164 104.396308 
L 307.908655 102.100344 
L 307.989818 103.347519 
L 308.070982 100.37777 
L 308.152145 101.067675 
L 308.233309 102.050296 
L 308.314473 101.826444 
L 308.4768 101.062368 
L 308.557964 101.315612 
L 308.639127 100.986278 
L 308.720291 103.425644 
L 308.801455 102.589624 
L 308.882618 101.09838 
L 309.126109 105.450233 
L 309.207273 105.52083 
L 309.3696 107.787257 
L 309.531927 103.83223 
L 309.613091 107.490149 
L 309.694255 106.343348 
L 309.775418 104.26075 
L 310.018909 106.279258 
L 310.100073 106.066363 
L 310.181236 107.84587 
L 310.2624 105.883886 
L 310.343564 106.979941 
L 310.505891 105.137047 
L 310.587055 104.802024 
L 310.668218 106.414758 
L 310.749382 106.153855 
L 310.911709 104.043966 
L 310.992873 104.265048 
L 311.1552 102.656058 
L 311.236364 101.236862 
L 311.317527 103.951141 
L 311.398691 103.732652 
L 311.479855 102.628851 
L 311.561018 104.107259 
L 311.642182 103.64439 
L 311.804509 105.236949 
L 311.885673 104.572668 
L 312.129164 101.525654 
L 312.291491 104.369649 
L 312.372655 102.866455 
L 312.453818 104.466296 
L 312.534982 103.523698 
L 312.697309 104.129873 
L 312.859636 107.773339 
L 313.021964 105.038071 
L 313.103127 106.388903 
L 313.184291 104.630664 
L 313.346618 108.692808 
L 313.427782 108.253816 
L 313.508945 107.832887 
L 313.590109 108.676745 
L 313.671273 106.607738 
L 313.752436 107.436359 
L 313.8336 105.630154 
L 313.995927 108.433158 
L 314.077091 108.463179 
L 314.158255 109.416271 
L 314.239418 109.201965 
L 314.482909 106.650375 
L 314.564073 107.478602 
L 314.645236 107.158472 
L 314.807564 104.741245 
L 314.888727 102.426982 
L 314.969891 102.613925 
L 315.132218 105.69351 
L 315.213382 105.4419 
L 315.375709 103.642856 
L 315.456873 104.877809 
L 315.700364 103.148265 
L 315.781527 102.797659 
L 315.862691 104.598984 
L 316.106182 101.387863 
L 316.187345 100.233799 
L 316.268509 103.217837 
L 316.349673 102.738408 
L 316.430836 101.636744 
L 316.593164 104.144452 
L 316.674327 101.974871 
L 316.755491 102.55702 
L 316.836655 100.898438 
L 316.917818 100.920218 
L 317.161309 107.86937 
L 317.323636 106.418517 
L 317.4048 107.950341 
L 317.567127 106.25477 
L 317.648291 107.027457 
L 317.729455 103.556812 
L 317.810618 104.110019 
L 317.891782 104.857228 
L 317.972945 104.137607 
L 318.054109 104.375903 
L 318.135273 104.186598 
L 318.2976 106.06705 
L 318.378764 105.378251 
L 318.459927 106.736073 
L 318.541091 106.510674 
L 318.622255 105.990648 
L 318.703418 106.805338 
L 318.865745 102.145299 
L 318.946909 105.520917 
L 319.028073 104.26825 
L 319.109236 104.673763 
L 319.352727 108.175147 
L 319.433891 107.653705 
L 319.677382 104.221203 
L 319.758545 104.900306 
L 319.839709 104.808616 
L 319.920873 107.514668 
L 320.164364 104.644963 
L 320.245527 105.581446 
L 320.326691 105.095754 
L 320.407855 103.719816 
L 320.651345 109.503898 
L 320.732509 109.346131 
L 320.813673 109.50329 
L 320.976 107.893237 
L 321.057164 109.835151 
L 321.138327 109.338922 
L 321.381818 109.665526 
L 321.462982 112.93747 
L 321.544145 110.767522 
L 321.625309 111.0156 
L 321.787636 107.87857 
L 321.8688 109.797277 
L 321.949964 108.6628 
L 322.031127 108.95131 
L 322.112291 108.968634 
L 322.355782 106.539142 
L 322.518109 107.886844 
L 322.599273 106.901376 
L 322.680436 108.082601 
L 322.7616 107.753022 
L 322.842764 108.592188 
L 322.923927 104.105309 
L 323.005091 106.033603 
L 323.086255 105.78871 
L 323.248582 103.926594 
L 323.492073 107.836225 
L 323.6544 106.868555 
L 323.735564 104.922707 
L 323.816727 105.250186 
L 323.897891 106.914931 
L 323.979055 106.837273 
L 324.060218 107.579986 
L 324.222545 105.898538 
L 324.303709 105.617757 
L 324.384873 107.050806 
L 324.466036 106.392709 
L 324.5472 103.188791 
L 324.628364 105.256813 
L 324.709527 103.270569 
L 324.953018 107.607829 
L 325.196509 102.994081 
L 325.358836 105.784334 
L 325.521164 102.728023 
L 325.602327 105.525101 
L 325.683491 102.733139 
L 325.764655 103.706145 
L 325.926982 102.81463 
L 326.089309 103.842418 
L 326.170473 101.7252 
L 326.251636 103.646276 
L 326.3328 103.236693 
L 326.413964 102.565455 
L 326.495127 104.749449 
L 326.657455 103.56305 
L 326.738618 105.520723 
L 326.900945 103.978904 
L 326.982109 103.687248 
L 327.063273 106.525568 
L 327.144436 106.255183 
L 327.306764 103.998363 
L 327.387927 104.096325 
L 327.469091 102.689185 
L 327.631418 104.684035 
L 327.712582 102.192378 
L 327.793745 102.830288 
L 327.874909 103.500637 
L 327.956073 101.962558 
L 328.037236 102.13089 
L 328.1184 103.767152 
L 328.361891 101.252608 
L 328.443055 101.276379 
L 328.524218 101.061026 
L 328.686545 103.03599 
L 328.767709 100.282909 
L 328.848873 101.115986 
L 329.0112 100.436166 
L 329.092364 98.832015 
L 329.254691 100.807237 
L 329.335855 101.386561 
L 329.498182 97.506065 
L 329.741673 102.832157 
L 329.822836 101.681571 
L 329.985164 103.387133 
L 330.147491 101.326127 
L 330.309818 103.510734 
L 330.553309 105.088248 
L 330.634473 102.59701 
L 330.715636 104.58623 
L 330.7968 103.601033 
L 330.877964 103.836039 
L 330.959127 104.215257 
L 331.121455 103.461422 
L 331.202618 104.090174 
L 331.364945 101.186833 
L 331.446109 102.116451 
L 331.527273 99.98716 
L 331.608436 101.781658 
L 331.6896 97.816178 
L 331.933091 101.365049 
L 332.014255 98.5412 
L 332.176582 101.121709 
L 332.257745 99.84298 
L 332.420073 101.81326 
L 332.501236 100.720337 
L 332.663564 103.801695 
L 332.825891 104.316311 
L 332.988218 103.218414 
L 333.150545 101.576967 
L 333.231709 102.888687 
L 333.312873 102.417425 
L 333.394036 101.816391 
L 333.4752 103.150311 
L 333.556364 101.84916 
L 333.637527 103.16697 
L 333.718691 103.02312 
L 333.799855 103.393702 
L 333.881018 103.270191 
L 333.962182 103.03327 
L 334.124509 104.868835 
L 334.205673 103.698729 
L 334.286836 105.996065 
L 334.368 102.988945 
L 334.449164 103.881399 
L 334.530327 103.888291 
L 334.611491 104.166158 
L 334.692655 106.185255 
L 334.773818 105.199447 
L 334.854982 105.628873 
L 334.936145 105.561009 
L 335.017309 102.476627 
L 335.179636 105.633695 
L 335.2608 101.192803 
L 335.341964 103.663624 
L 335.423127 101.49498 
L 335.504291 103.876635 
L 335.585455 103.217728 
L 335.666618 102.983868 
L 335.828945 105.055968 
L 335.910109 104.55521 
L 335.991273 104.839499 
L 336.315927 101.255765 
L 336.478255 102.545185 
L 336.559418 101.291992 
L 336.802909 103.676609 
L 336.965236 101.27712 
L 337.0464 103.40074 
L 337.289891 98.448019 
L 337.371055 102.933745 
L 337.452218 101.851746 
L 337.614545 105.666674 
L 337.695709 102.372776 
L 337.776873 103.024412 
L 337.858036 103.738191 
L 337.9392 102.938216 
L 338.020364 103.526526 
L 338.101527 102.389134 
L 338.426182 105.599433 
L 338.507345 104.900781 
L 338.588509 106.677074 
L 338.669673 105.540006 
L 338.750836 105.679916 
L 338.994327 109.173237 
L 339.156655 108.087742 
L 339.237818 108.329206 
L 339.318982 106.698042 
L 339.643636 110.596963 
L 340.049455 102.822971 
L 340.130618 105.53018 
L 340.211782 102.184621 
L 340.292945 102.34782 
L 340.374109 104.788074 
L 340.455273 103.639973 
L 340.6176 105.837017 
L 340.698764 104.574938 
L 340.779927 106.456569 
L 340.861091 105.6342 
L 340.942255 106.146003 
L 341.023418 105.988487 
L 341.104582 103.161003 
L 341.185745 103.232292 
L 341.266909 103.201143 
L 341.348073 104.068507 
L 341.429236 101.564098 
L 341.591564 103.628502 
L 341.672727 103.381736 
L 341.753891 106.405341 
L 341.835055 105.952705 
L 341.997382 104.797141 
L 342.159709 106.410069 
L 342.240873 106.249173 
L 342.322036 107.39251 
L 342.4032 107.036693 
L 342.646691 109.440575 
L 342.727855 106.21476 
L 342.809018 106.924922 
L 343.052509 111.936147 
L 343.133673 112.436571 
L 343.377164 106.87481 
L 343.458327 108.511734 
L 343.539491 105.992015 
L 343.782982 108.396952 
L 344.026473 103.724237 
L 344.1888 108.729106 
L 344.269964 108.668643 
L 344.513455 105.225374 
L 344.594618 108.534242 
L 344.675782 107.282772 
L 344.756945 109.565125 
L 345.000436 106.289499 
L 345.0816 107.008259 
L 345.162764 104.039276 
L 345.325091 109.102196 
L 345.487418 108.654703 
L 345.568582 109.338851 
L 345.649745 108.732704 
L 345.730909 111.064918 
L 345.812073 108.867287 
L 345.893236 109.659211 
L 346.055564 108.977717 
L 346.136727 106.089153 
L 346.217891 106.958638 
L 346.299055 107.083162 
L 346.380218 106.492079 
L 346.461382 106.626693 
L 346.542545 107.47206 
L 346.623709 106.60742 
L 346.704873 107.155749 
L 346.8672 105.535264 
L 346.948364 106.012924 
L 347.354182 103.242282 
L 347.435345 104.454378 
L 347.516509 102.121335 
L 347.597673 103.179972 
L 347.678836 102.232573 
L 347.76 103.706554 
L 347.841164 103.015894 
L 347.922327 103.373213 
L 348.003491 105.225812 
L 348.246982 102.516707 
L 348.328145 102.694785 
L 348.490473 101.194614 
L 348.571636 102.820392 
L 348.6528 102.719562 
L 348.733964 101.133949 
L 348.815127 103.223068 
L 348.896291 103.144946 
L 348.977455 102.595825 
L 349.220945 107.783952 
L 349.383273 106.340641 
L 349.464436 107.764288 
L 349.5456 106.760942 
L 349.626764 107.336168 
L 349.707927 105.427088 
L 349.789091 107.049308 
L 349.870255 106.434968 
L 349.951418 106.987078 
L 350.032582 106.780942 
L 350.113745 104.945693 
L 350.194909 107.068272 
L 350.276073 105.287859 
L 350.357236 106.646457 
L 350.4384 106.319086 
L 350.519564 107.037085 
L 350.681891 104.03615 
L 350.763055 99.735341 
L 350.925382 103.599851 
L 351.006545 102.022223 
L 351.087709 102.46878 
L 351.168873 102.576993 
L 351.250036 100.088689 
L 351.574691 105.77988 
L 351.737018 102.43733 
L 351.818182 102.121879 
L 351.899345 101.123924 
L 351.980509 103.50558 
L 352.061673 102.702711 
L 352.142836 102.850102 
L 352.224 103.231452 
L 352.305164 100.619043 
L 352.548655 106.675954 
L 352.629818 106.371378 
L 352.792145 109.874833 
L 353.035636 105.962796 
L 353.197964 107.16529 
L 353.279127 106.852022 
L 353.522618 105.403443 
L 353.684945 107.018381 
L 353.766109 106.442747 
L 353.847273 106.8247 
L 353.928436 104.640974 
L 354.0096 105.584695 
L 354.090764 102.626009 
L 354.171927 102.762971 
L 354.334255 102.011394 
L 354.496582 99.38186 
L 354.577745 100.749281 
L 354.658909 99.78893 
L 354.740073 100.722723 
L 354.821236 99.425713 
L 354.9024 103.502427 
L 354.983564 103.28496 
L 355.064727 104.889882 
L 355.145891 102.57966 
L 355.308218 104.19225 
L 355.389382 103.10948 
L 355.470545 103.244454 
L 355.551709 102.838754 
L 355.7952 106.6654 
L 355.876364 104.503536 
L 355.957527 108.636018 
L 356.038691 106.585915 
L 356.119855 106.925157 
L 356.201018 107.545343 
L 356.282182 104.617773 
L 356.444509 107.599771 
L 356.525673 106.010112 
L 356.606836 106.288986 
L 356.688 106.437709 
L 356.769164 105.221815 
L 357.012655 107.488832 
L 357.174982 104.270559 
L 357.256145 104.950411 
L 357.337309 104.498405 
L 357.418473 107.710604 
L 357.499636 106.868338 
L 357.5808 106.137939 
L 357.743127 106.793566 
L 357.824291 108.860172 
L 357.905455 107.290354 
L 358.067782 109.744362 
L 358.311273 105.123874 
L 358.392436 105.182797 
L 358.4736 104.746391 
L 358.554764 107.377082 
L 358.635927 105.845078 
L 358.798255 108.872666 
L 358.879418 108.052095 
L 359.041745 110.919775 
L 359.204073 107.478308 
L 359.285236 110.080886 
L 359.447564 106.875638 
L 359.528727 108.041957 
L 359.609891 106.193265 
L 359.691055 108.408746 
L 359.853382 105.836568 
L 359.934545 107.297736 
L 360.015709 106.605805 
L 360.178036 103.485719 
L 360.340364 107.114991 
L 360.421527 106.047986 
L 360.502691 106.50653 
L 360.583855 104.992792 
L 360.665018 105.01021 
L 360.746182 106.256533 
L 360.827345 105.125908 
L 360.989673 109.13348 
L 361.152 106.60873 
L 361.233164 106.372347 
L 361.314327 103.817439 
L 361.395491 105.086223 
L 361.476655 102.472051 
L 361.557818 102.696542 
L 361.720145 103.86549 
L 361.801309 103.739677 
L 361.882473 102.501851 
L 362.288291 106.198112 
L 362.369455 101.843563 
L 362.450618 104.427318 
L 362.612945 102.071851 
L 362.775273 103.254117 
L 362.856436 102.14225 
L 362.9376 104.997053 
L 363.099927 102.265876 
L 363.262255 102.69296 
L 363.343418 100.548783 
L 363.505745 103.444841 
L 363.749236 100.708782 
L 363.8304 98.868266 
L 363.911564 99.38005 
L 363.992727 99.347144 
L 364.073891 100.222002 
L 364.155055 98.476116 
L 364.236218 98.630455 
L 364.398545 102.38899 
L 364.479709 100.544098 
L 364.560873 101.90502 
L 364.804364 97.795597 
L 365.129018 103.291855 
L 365.210182 100.24045 
L 365.291345 100.499878 
L 365.372509 100.102374 
L 365.534836 97.553177 
L 365.778327 101.139939 
L 365.859491 99.178648 
L 365.940655 101.287421 
L 366.021818 98.746226 
L 366.184145 102.84153 
L 366.265309 102.993398 
L 366.346473 102.348271 
L 366.427636 104.383919 
L 366.5088 102.016653 
L 366.589964 105.501636 
L 366.995782 98.966574 
L 367.158109 100.441542 
L 367.239273 100.237025 
L 367.320436 100.375166 
L 367.482764 99.577814 
L 367.563927 102.731903 
L 367.726255 99.862843 
L 367.807418 100.865432 
L 367.888582 98.758536 
L 367.969745 98.888153 
L 368.050909 97.969422 
L 368.2944 100.9804 
L 368.375564 101.059224 
L 368.537891 104.286138 
L 368.700218 101.016225 
L 368.862545 105.322235 
L 368.943709 105.071633 
L 369.024873 105.479364 
L 369.106036 105.33874 
L 369.1872 105.103105 
L 369.268364 105.373507 
L 369.430691 102.518577 
L 369.593018 105.941527 
L 369.836509 102.754941 
L 370.08 106.310972 
L 370.242327 103.531801 
L 370.323491 104.141341 
L 370.404655 104.90367 
L 370.485818 103.982946 
L 370.566982 104.209001 
L 370.648145 103.663745 
L 370.729309 104.946345 
L 370.810473 103.728947 
L 370.891636 104.270378 
L 371.053964 103.219633 
L 371.216291 105.92701 
L 371.297455 105.505935 
L 371.378618 105.349514 
L 371.459782 104.941299 
L 371.540945 105.570719 
L 371.784436 108.255105 
L 371.946764 110.012073 
L 372.190255 106.486787 
L 372.433745 112.264682 
L 372.514909 111.926035 
L 372.677236 109.176182 
L 372.839564 110.953663 
L 373.083055 109.308503 
L 373.326545 112.695561 
L 373.407709 111.277989 
L 373.488873 111.432314 
L 373.570036 110.445075 
L 373.6512 112.937703 
L 373.813527 109.027953 
L 373.975855 113.046174 
L 374.057018 110.356873 
L 374.138182 113.986476 
L 374.219345 113.872627 
L 374.381673 111.227437 
L 374.462836 112.289506 
L 374.625164 109.728942 
L 374.787491 115.259025 
L 374.868655 113.155112 
L 374.949818 115.802126 
L 375.030982 115.741083 
L 375.112145 115.257827 
L 375.193309 113.087165 
L 375.274473 114.196572 
L 375.355636 111.921789 
L 375.4368 112.064456 
L 375.517964 111.64033 
L 375.599127 112.782838 
L 375.680291 109.435179 
L 375.761455 111.99361 
L 375.923782 110.567006 
L 376.004945 111.983911 
L 376.086109 110.241967 
L 376.167273 110.767964 
L 376.248436 109.449729 
L 376.3296 110.46465 
L 376.491927 108.361027 
L 376.573091 108.702319 
L 376.654255 110.268223 
L 376.735418 105.40922 
L 376.816582 108.55793 
L 376.897745 108.149701 
L 376.978909 108.39383 
L 377.060073 109.208986 
L 377.141236 107.242919 
L 377.2224 109.622078 
L 377.303564 109.309205 
L 377.384727 107.655147 
L 377.465891 107.981148 
L 377.709382 113.880749 
L 377.790545 112.682417 
L 377.871709 110.44689 
L 377.952873 110.602811 
L 378.196364 112.734734 
L 378.439855 108.452659 
L 378.521018 111.656465 
L 378.602182 110.822954 
L 378.683345 110.460895 
L 378.764509 111.395646 
L 378.845673 114.54262 
L 378.926836 113.294281 
L 379.008 113.520532 
L 379.089164 115.215644 
L 379.170327 112.637474 
L 379.251491 115.071445 
L 379.332655 114.242095 
L 379.494982 115.913399 
L 379.576145 112.967641 
L 379.738473 116.634376 
L 379.819636 113.784071 
L 379.981964 115.456109 
L 380.063127 115.171764 
L 380.144291 114.404361 
L 380.387782 107.708523 
L 380.468945 112.139158 
L 380.550109 111.952038 
L 380.631273 111.412122 
L 380.712436 112.800705 
L 380.7936 112.360667 
L 380.874764 112.36824 
L 381.118255 109.46452 
L 381.199418 108.942124 
L 381.280582 109.381147 
L 381.524073 113.30989 
L 381.6864 110.244463 
L 381.767564 111.246048 
L 381.848727 112.329211 
L 381.929891 107.936467 
L 382.011055 108.523667 
L 382.092218 110.015976 
L 382.173382 106.531781 
L 382.335709 109.761452 
L 382.416873 107.678289 
L 382.498036 107.936634 
L 382.5792 110.934096 
L 382.660364 109.821711 
L 382.741527 106.31417 
L 382.822691 107.061829 
L 382.903855 109.360893 
L 383.228509 101.121515 
L 383.309673 103.417795 
L 383.390836 102.441418 
L 383.472 103.141893 
L 383.553164 102.212325 
L 383.796655 105.06915 
L 383.877818 105.618844 
L 383.958982 105.164725 
L 384.040145 103.863628 
L 384.121309 105.714931 
L 384.202473 104.791181 
L 384.283636 104.927571 
L 384.445964 106.976892 
L 384.608291 104.885802 
L 384.689455 105.462432 
L 384.932945 109.042038 
L 385.014109 107.380073 
L 385.095273 108.512063 
L 385.2576 107.500901 
L 385.338764 110.712261 
L 385.419927 110.565558 
L 385.501091 109.19571 
L 385.582255 111.294911 
L 385.744582 107.133141 
L 385.825745 107.166094 
L 385.906909 106.970694 
L 386.069236 102.941412 
L 386.1504 103.393473 
L 386.312727 105.015098 
L 386.475055 104.977313 
L 386.556218 105.635911 
L 386.718545 104.885593 
L 386.799709 108.227151 
L 386.880873 106.666889 
L 386.962036 107.468724 
L 387.0432 105.339714 
L 387.205527 107.187243 
L 387.367855 108.960897 
L 387.449018 108.036734 
L 387.530182 109.263466 
L 387.611345 108.201912 
L 387.692509 108.327949 
L 387.773673 107.54081 
L 387.854836 109.567051 
L 388.017164 105.652421 
L 388.179491 106.235307 
L 388.341818 101.592395 
L 388.504145 103.670809 
L 388.666473 102.937273 
L 388.909964 106.032648 
L 389.072291 103.521816 
L 389.234618 104.589645 
L 389.315782 103.939868 
L 389.396945 106.583292 
L 389.559273 105.257382 
L 389.640436 105.263709 
L 389.7216 104.999877 
L 389.802764 104.178466 
L 389.965091 106.386598 
L 390.127418 101.123819 
L 390.208582 101.656162 
L 390.370909 104.360004 
L 390.452073 103.296682 
L 390.533236 103.453358 
L 390.6144 104.318937 
L 390.776727 103.002405 
L 390.857891 103.962485 
L 390.939055 103.503627 
L 391.020218 101.894209 
L 391.101382 104.160365 
L 391.182545 103.891139 
L 391.344873 100.298125 
L 391.426036 100.64367 
L 391.750691 104.243426 
L 391.831855 101.707159 
L 392.075345 105.502217 
L 392.156509 104.430391 
L 392.237673 105.32004 
L 392.318836 104.735199 
L 392.4 102.964259 
L 392.481164 103.196703 
L 392.562327 103.976459 
L 392.643491 101.254387 
L 392.724655 104.142244 
L 392.968145 100.399271 
L 393.049309 102.111899 
L 393.130473 101.360517 
L 393.2928 98.60632 
L 393.373964 98.720783 
L 393.455127 99.079342 
L 393.536291 98.188306 
L 393.698618 101.327119 
L 393.860945 98.679039 
L 394.104436 101.809525 
L 394.1856 100.937858 
L 394.347927 106.388991 
L 394.510255 102.22331 
L 394.591418 102.91082 
L 394.753745 104.325197 
L 394.834909 102.084054 
L 394.997236 104.044535 
L 395.240727 100.381594 
L 395.321891 103.678097 
L 395.565382 99.89126 
L 395.646545 100.811248 
L 395.727709 99.414398 
L 395.808873 99.525645 
L 395.890036 100.240484 
L 395.9712 99.97459 
L 396.052364 100.450211 
L 396.133527 100.026033 
L 396.295855 98.533986 
L 396.458182 100.992483 
L 396.539345 100.474805 
L 396.620509 98.970556 
L 396.701673 99.647402 
L 396.782836 99.328066 
L 396.864 97.440269 
L 396.945164 98.023193 
L 397.188655 103.98884 
L 397.269818 101.797477 
L 397.350982 103.530519 
L 397.513309 101.758277 
L 397.594473 102.965469 
L 397.675636 102.683807 
L 397.7568 102.292168 
L 397.837964 100.41175 
L 397.919127 103.176803 
L 398.000291 100.397277 
L 398.081455 100.5874 
L 398.324945 104.762178 
L 398.406109 104.434788 
L 398.487273 103.588012 
L 398.487273 103.588012 
" clip-path="url(#p57dbe9d952)" style="fill: none; stroke: #1f77b4; stroke-width: 1.5; stroke-linecap: square"/>
   </g>
   <g id="LineCollection_1">
    <path d="M 73.832727 139.513873 
L 398.487273 139.513873 
" clip-path="url(#p57dbe9d952)" style="fill: none; stroke-dasharray: 5.55,2.4; stroke-dashoffset: 0; stroke: #ffa500; stroke-width: 1.5"/>
    <path d="M 73.832727 161.006981 
L 398.487273 161.006981 
" clip-path="url(#p57dbe9d952)" style="fill: none; stroke-dasharray: 5.55,2.4; stroke-dashoffset: 0; stroke: #ffa500; stroke-width: 1.5"/>
   </g>
   <g id="LineCollection_2">
    <path d="M 73.832727 140.450363 
L 398.487273 140.450363 
" clip-path="url(#p57dbe9d952)" style="fill: none; stroke-dasharray: 1.5,2.475; stroke-dashoffset: 0; stroke: #008000; stroke-width: 1.5"/>
    <path d="M 73.832727 161.716444 
L 398.487273 161.716444 
" clip-path="url(#p57dbe9d952)" style="fill: none; stroke-dasharray: 1.5,2.475; stroke-dashoffset: 0; stroke: #008000; stroke-width: 1.5"/>
   </g>
   <g id="patch_3">
    <path d="M 57.6 307.584 
L 57.6 41.472 
" style="fill: none; stroke: #000000; stroke-width: 0.8; stroke-linejoin: miter; stroke-linecap: square"/>
   </g>
   <g id="patch_4">
    <path d="M 414.72 307.584 
L 414.72 41.472 
" style="fill: none; stroke: #000000; stroke-width: 0.8; stroke-linejoin: miter; stroke-linecap: square"/>
   </g>
   <g id="patch_5">
    <path d="M 57.6 307.584 
L 414.72 307.584 
" style="fill: none; stroke: #000000; stroke-width: 0.8; stroke-linejoin: miter; stroke-linecap: square"/>
   </g>
   <g id="patch_6">
    <path d="M 57.6 41.472 
L 414.72 41.472 
" style="fill: none; stroke: #000000; stroke-width: 0.8; stroke-linejoin: miter; stroke-linecap: square"/>
   </g>
   <g id="legend_1">
    <g id="patch_7">
     <path d="M 355.143438 78.82825 
L 407.72 78.82825 
Q 409.72 78.82825 409.72 76.82825 
L 409.72 48.472 
Q 409.72 46.472 407.72 46.472 
L 355.143438 46.472 
Q 353.143438 46.472 353.143438 48.472 
L 353.143438 76.82825 
Q 353.143438 78.82825 355.143438 78.82825 
z
" style="fill: #ffffff; opacity: 0.8; stroke: #cccccc; stroke-linejoin: miter"/>
    </g>
    <g id="line2d_19">
     <path d="M 357.143438 54.570437 
L 377.143438 54.570437 
" style="fill: none; stroke-dasharray: 5.55,2.4; stroke-dashoffset: 0; stroke: #ffa500; stroke-width: 1.5"/>
    </g>
    <g id="text_18">
     <!-- MLE -->
     <g transform="translate(385.143438 58.070437) scale(0.1 -0.1)">
      <defs>
       <path id="DejaVuSans-4d" d="M 628 4666 
L 1569 4666 
L 2759 1491 
L 3956 4666 
L 4897 4666 
L 4897 0 
L 4281 0 
L 4281 4097 
L 3078 897 
L 2444 897 
L 1241 4097 
L 1241 0 
L 628 0 
L 628 4666 
z
" transform="scale(0.015625)"/>
       <path id="DejaVuSans-4c" d="M 628 4666 
L 1259 4666 
L 1259 531 
L 3531 531 
L 3531 0 
L 628 0 
L 628 4666 
z
" transform="scale(0.015625)"/>
       <path id="DejaVuSans-45" d="M 628 4666 
L 3578 4666 
L 3578 4134 
L 1259 4134 
L 1259 2753 
L 3481 2753 
L 3481 2222 
L 1259 2222 
L 1259 531 
L 3634 531 
L 3634 0 
L 628 0 
L 628 4666 
z
" transform="scale(0.015625)"/>
      </defs>
      <use xlink:href="#DejaVuSans-4d"/>
      <use xlink:href="#DejaVuSans-4c" x="86.279297"/>
      <use xlink:href="#DejaVuSans-45" x="141.992188"/>
     </g>
    </g>
    <g id="line2d_20">
     <path d="M 357.143438 69.248562 
L 377.143438 69.248562 
" style="fill: none; stroke-dasharray: 1.5,2.475; stroke-dashoffset: 0; stroke: #008000; stroke-width: 1.5"/>
    </g>
    <g id="text_19">
     <!-- KDE -->
     <g transform="translate(385.143438 72.748562) scale(0.1 -0.1)">
      <defs>
       <path id="DejaVuSans-4b" d="M 628 4666 
L 1259 4666 
L 1259 2694 
L 3353 4666 
L 4166 4666 
L 1850 2491 
L 4331 0 
L 3500 0 
L 1259 2247 
L 1259 0 
L 628 0 
L 628 4666 
z
" transform="scale(0.015625)"/>
       <path id="DejaVuSans-44" d="M 1259 4147 
L 1259 519 
L 2022 519 
Q 2988 519 3436 956 
Q 3884 1394 3884 2338 
Q 3884 3275 3436 3711 
Q 2988 4147 2022 4147 
L 1259 4147 
z
M 628 4666 
L 1925 4666 
Q 3281 4666 3915 4102 
Q 4550 3538 4550 2338 
Q 4550 1131 3912 565 
Q 3275 0 1925 0 
L 628 0 
L 628 4666 
z
" transform="scale(0.015625)"/>
      </defs>
      <use xlink:href="#DejaVuSans-4b"/>
      <use xlink:href="#DejaVuSans-44" x="65.576172"/>
      <use xlink:href="#DejaVuSans-45" x="142.578125"/>
     </g>
    </g>
   </g>
  </g>
 </g>
 <defs>
  <clipPath id="p57dbe9d952">
   <rect x="57.6" y="41.472" width="357.12" height="266.112"/>
  </clipPath>
 </defs>
</svg>
