<?xml version="1.0" encoding="utf-8" standalone="no"?>
<!DOCTYPE svg PUBLIC "-//W3C//DTD SVG 1.1//EN"
  "http://www.w3.org/Graphics/SVG/1.1/DTD/svg11.dtd">
<svg xmlns:xlink="http://www.w3.org/1999/xlink" width="460.8pt" height="345.6pt" viewBox="0 0 460.8 345.6" xmlns="http://www.w3.org/2000/svg" version="1.1">
 <metadata>
  <rdf:RDF xmlns:dc="http://purl.org/dc/elements/1.1/" xmlns:cc="http://creativecommons.org/ns#" xmlns:rdf="http://www.w3.org/1999/02/22-rdf-syntax-ns#">
   <cc:Work>
    <dc:type rdf:resource="http://purl.org/dc/dcmitype/StillImage"/>
    <dc:date>2023-05-06T09:49:08.032060</dc:date>
    <dc:format>image/svg+xml</dc:format>
    <dc:creator>
     <cc:Agent>
      <dc:title>Matplotlib v3.7.0, https://matplotlib.org/</dc:title>
     </cc:Agent>
    </dc:creator>
   </cc:Work>
  </rdf:RDF>
 </metadata>
 <defs>
  <style type="text/css">*{stroke-linejoin: round; stroke-linecap: butt}</style>
 </defs>
 <g id="figure_1">
  <g id="patch_1">
   <path d="M 0 345.6 
L 460.8 345.6 
L 460.8 0 
L 0 0 
z
" style="fill: #ffffff"/>
  </g>
  <g id="axes_1">
   <g id="patch_2">
    <path d="M 57.6 307.584 
L 414.72 307.584 
L 414.72 41.472 
L 57.6 41.472 
z
" style="fill: #ffffff"/>
   </g>
   <g id="matplotlib.axis_1">
    <g id="xtick_1">
     <g id="line2d_1">
      <defs>
       <path id="mf50ae21113" d="M 0 0 
L 0 3.5 
" style="stroke: #000000; stroke-width: 0.8"/>
      </defs>
      <g>
       <use xlink:href="#mf50ae21113" x="73.832727" y="307.584" style="stroke: #000000; stroke-width: 0.8"/>
      </g>
     </g>
     <g id="text_1">
      <!-- 0 -->
      <g transform="translate(70.651477 322.182437) scale(0.1 -0.1)">
       <defs>
        <path id="DejaVuSans-30" d="M 2034 4250 
Q 1547 4250 1301 3770 
Q 1056 3291 1056 2328 
Q 1056 1369 1301 889 
Q 1547 409 2034 409 
Q 2525 409 2770 889 
Q 3016 1369 3016 2328 
Q 3016 3291 2770 3770 
Q 2525 4250 2034 4250 
z
M 2034 4750 
Q 2819 4750 3233 4129 
Q 3647 3509 3647 2328 
Q 3647 1150 3233 529 
Q 2819 -91 2034 -91 
Q 1250 -91 836 529 
Q 422 1150 422 2328 
Q 422 3509 836 4129 
Q 1250 4750 2034 4750 
z
" transform="scale(0.015625)"/>
       </defs>
       <use xlink:href="#DejaVuSans-30"/>
      </g>
     </g>
    </g>
    <g id="xtick_2">
     <g id="line2d_2">
      <g>
       <use xlink:href="#mf50ae21113" x="114.752131" y="307.584" style="stroke: #000000; stroke-width: 0.8"/>
      </g>
     </g>
     <g id="text_2">
      <!-- 500 -->
      <g transform="translate(105.208381 322.182437) scale(0.1 -0.1)">
       <defs>
        <path id="DejaVuSans-35" d="M 691 4666 
L 3169 4666 
L 3169 4134 
L 1269 4134 
L 1269 2991 
Q 1406 3038 1543 3061 
Q 1681 3084 1819 3084 
Q 2600 3084 3056 2656 
Q 3513 2228 3513 1497 
Q 3513 744 3044 326 
Q 2575 -91 1722 -91 
Q 1428 -91 1123 -41 
Q 819 9 494 109 
L 494 744 
Q 775 591 1075 516 
Q 1375 441 1709 441 
Q 2250 441 2565 725 
Q 2881 1009 2881 1497 
Q 2881 1984 2565 2268 
Q 2250 2553 1709 2553 
Q 1456 2553 1204 2497 
Q 953 2441 691 2322 
L 691 4666 
z
" transform="scale(0.015625)"/>
       </defs>
       <use xlink:href="#DejaVuSans-35"/>
       <use xlink:href="#DejaVuSans-30" x="63.623047"/>
       <use xlink:href="#DejaVuSans-30" x="127.246094"/>
      </g>
     </g>
    </g>
    <g id="xtick_3">
     <g id="line2d_3">
      <g>
       <use xlink:href="#mf50ae21113" x="155.671534" y="307.584" style="stroke: #000000; stroke-width: 0.8"/>
      </g>
     </g>
     <g id="text_3">
      <!-- 1000 -->
      <g transform="translate(142.946534 322.182437) scale(0.1 -0.1)">
       <defs>
        <path id="DejaVuSans-31" d="M 794 531 
L 1825 531 
L 1825 4091 
L 703 3866 
L 703 4441 
L 1819 4666 
L 2450 4666 
L 2450 531 
L 3481 531 
L 3481 0 
L 794 0 
L 794 531 
z
" transform="scale(0.015625)"/>
       </defs>
       <use xlink:href="#DejaVuSans-31"/>
       <use xlink:href="#DejaVuSans-30" x="63.623047"/>
       <use xlink:href="#DejaVuSans-30" x="127.246094"/>
       <use xlink:href="#DejaVuSans-30" x="190.869141"/>
      </g>
     </g>
    </g>
    <g id="xtick_4">
     <g id="line2d_4">
      <g>
       <use xlink:href="#mf50ae21113" x="196.590937" y="307.584" style="stroke: #000000; stroke-width: 0.8"/>
      </g>
     </g>
     <g id="text_4">
      <!-- 1500 -->
      <g transform="translate(183.865937 322.182437) scale(0.1 -0.1)">
       <use xlink:href="#DejaVuSans-31"/>
       <use xlink:href="#DejaVuSans-35" x="63.623047"/>
       <use xlink:href="#DejaVuSans-30" x="127.246094"/>
       <use xlink:href="#DejaVuSans-30" x="190.869141"/>
      </g>
     </g>
    </g>
    <g id="xtick_5">
     <g id="line2d_5">
      <g>
       <use xlink:href="#mf50ae21113" x="237.51034" y="307.584" style="stroke: #000000; stroke-width: 0.8"/>
      </g>
     </g>
     <g id="text_5">
      <!-- 2000 -->
      <g transform="translate(224.78534 322.182437) scale(0.1 -0.1)">
       <defs>
        <path id="DejaVuSans-32" d="M 1228 531 
L 3431 531 
L 3431 0 
L 469 0 
L 469 531 
Q 828 903 1448 1529 
Q 2069 2156 2228 2338 
Q 2531 2678 2651 2914 
Q 2772 3150 2772 3378 
Q 2772 3750 2511 3984 
Q 2250 4219 1831 4219 
Q 1534 4219 1204 4116 
Q 875 4013 500 3803 
L 500 4441 
Q 881 4594 1212 4672 
Q 1544 4750 1819 4750 
Q 2544 4750 2975 4387 
Q 3406 4025 3406 3419 
Q 3406 3131 3298 2873 
Q 3191 2616 2906 2266 
Q 2828 2175 2409 1742 
Q 1991 1309 1228 531 
z
" transform="scale(0.015625)"/>
       </defs>
       <use xlink:href="#DejaVuSans-32"/>
       <use xlink:href="#DejaVuSans-30" x="63.623047"/>
       <use xlink:href="#DejaVuSans-30" x="127.246094"/>
       <use xlink:href="#DejaVuSans-30" x="190.869141"/>
      </g>
     </g>
    </g>
    <g id="xtick_6">
     <g id="line2d_6">
      <g>
       <use xlink:href="#mf50ae21113" x="278.429744" y="307.584" style="stroke: #000000; stroke-width: 0.8"/>
      </g>
     </g>
     <g id="text_6">
      <!-- 2500 -->
      <g transform="translate(265.704744 322.182437) scale(0.1 -0.1)">
       <use xlink:href="#DejaVuSans-32"/>
       <use xlink:href="#DejaVuSans-35" x="63.623047"/>
       <use xlink:href="#DejaVuSans-30" x="127.246094"/>
       <use xlink:href="#DejaVuSans-30" x="190.869141"/>
      </g>
     </g>
    </g>
    <g id="xtick_7">
     <g id="line2d_7">
      <g>
       <use xlink:href="#mf50ae21113" x="319.349147" y="307.584" style="stroke: #000000; stroke-width: 0.8"/>
      </g>
     </g>
     <g id="text_7">
      <!-- 3000 -->
      <g transform="translate(306.624147 322.182437) scale(0.1 -0.1)">
       <defs>
        <path id="DejaVuSans-33" d="M 2597 2516 
Q 3050 2419 3304 2112 
Q 3559 1806 3559 1356 
Q 3559 666 3084 287 
Q 2609 -91 1734 -91 
Q 1441 -91 1130 -33 
Q 819 25 488 141 
L 488 750 
Q 750 597 1062 519 
Q 1375 441 1716 441 
Q 2309 441 2620 675 
Q 2931 909 2931 1356 
Q 2931 1769 2642 2001 
Q 2353 2234 1838 2234 
L 1294 2234 
L 1294 2753 
L 1863 2753 
Q 2328 2753 2575 2939 
Q 2822 3125 2822 3475 
Q 2822 3834 2567 4026 
Q 2313 4219 1838 4219 
Q 1578 4219 1281 4162 
Q 984 4106 628 3988 
L 628 4550 
Q 988 4650 1302 4700 
Q 1616 4750 1894 4750 
Q 2613 4750 3031 4423 
Q 3450 4097 3450 3541 
Q 3450 3153 3228 2886 
Q 3006 2619 2597 2516 
z
" transform="scale(0.015625)"/>
       </defs>
       <use xlink:href="#DejaVuSans-33"/>
       <use xlink:href="#DejaVuSans-30" x="63.623047"/>
       <use xlink:href="#DejaVuSans-30" x="127.246094"/>
       <use xlink:href="#DejaVuSans-30" x="190.869141"/>
      </g>
     </g>
    </g>
    <g id="xtick_8">
     <g id="line2d_8">
      <g>
       <use xlink:href="#mf50ae21113" x="360.26855" y="307.584" style="stroke: #000000; stroke-width: 0.8"/>
      </g>
     </g>
     <g id="text_8">
      <!-- 3500 -->
      <g transform="translate(347.54355 322.182437) scale(0.1 -0.1)">
       <use xlink:href="#DejaVuSans-33"/>
       <use xlink:href="#DejaVuSans-35" x="63.623047"/>
       <use xlink:href="#DejaVuSans-30" x="127.246094"/>
       <use xlink:href="#DejaVuSans-30" x="190.869141"/>
      </g>
     </g>
    </g>
    <g id="xtick_9">
     <g id="line2d_9">
      <g>
       <use xlink:href="#mf50ae21113" x="401.187953" y="307.584" style="stroke: #000000; stroke-width: 0.8"/>
      </g>
     </g>
     <g id="text_9">
      <!-- 4000 -->
      <g transform="translate(388.462953 322.182437) scale(0.1 -0.1)">
       <defs>
        <path id="DejaVuSans-34" d="M 2419 4116 
L 825 1625 
L 2419 1625 
L 2419 4116 
z
M 2253 4666 
L 3047 4666 
L 3047 1625 
L 3713 1625 
L 3713 1100 
L 3047 1100 
L 3047 0 
L 2419 0 
L 2419 1100 
L 313 1100 
L 313 1709 
L 2253 4666 
z
" transform="scale(0.015625)"/>
       </defs>
       <use xlink:href="#DejaVuSans-34"/>
       <use xlink:href="#DejaVuSans-30" x="63.623047"/>
       <use xlink:href="#DejaVuSans-30" x="127.246094"/>
       <use xlink:href="#DejaVuSans-30" x="190.869141"/>
      </g>
     </g>
    </g>
   </g>
   <g id="matplotlib.axis_2">
    <g id="ytick_1">
     <g id="line2d_10">
      <defs>
       <path id="m8bab5ac691" d="M 0 0 
L -3.5 0 
" style="stroke: #000000; stroke-width: 0.8"/>
      </defs>
      <g>
       <use xlink:href="#m8bab5ac691" x="57.6" y="287.543308" style="stroke: #000000; stroke-width: 0.8"/>
      </g>
     </g>
     <g id="text_10">
      <!-- 0.50 -->
      <g transform="translate(28.334375 291.342527) scale(0.1 -0.1)">
       <defs>
        <path id="DejaVuSans-2e" d="M 684 794 
L 1344 794 
L 1344 0 
L 684 0 
L 684 794 
z
" transform="scale(0.015625)"/>
       </defs>
       <use xlink:href="#DejaVuSans-30"/>
       <use xlink:href="#DejaVuSans-2e" x="63.623047"/>
       <use xlink:href="#DejaVuSans-35" x="95.410156"/>
       <use xlink:href="#DejaVuSans-30" x="159.033203"/>
      </g>
     </g>
    </g>
    <g id="ytick_2">
     <g id="line2d_11">
      <g>
       <use xlink:href="#m8bab5ac691" x="57.6" y="236.912142" style="stroke: #000000; stroke-width: 0.8"/>
      </g>
     </g>
     <g id="text_11">
      <!-- 0.55 -->
      <g transform="translate(28.334375 240.71136) scale(0.1 -0.1)">
       <use xlink:href="#DejaVuSans-30"/>
       <use xlink:href="#DejaVuSans-2e" x="63.623047"/>
       <use xlink:href="#DejaVuSans-35" x="95.410156"/>
       <use xlink:href="#DejaVuSans-35" x="159.033203"/>
      </g>
     </g>
    </g>
    <g id="ytick_3">
     <g id="line2d_12">
      <g>
       <use xlink:href="#m8bab5ac691" x="57.6" y="186.280975" style="stroke: #000000; stroke-width: 0.8"/>
      </g>
     </g>
     <g id="text_12">
      <!-- 0.60 -->
      <g transform="translate(28.334375 190.080194) scale(0.1 -0.1)">
       <defs>
        <path id="DejaVuSans-36" d="M 2113 2584 
Q 1688 2584 1439 2293 
Q 1191 2003 1191 1497 
Q 1191 994 1439 701 
Q 1688 409 2113 409 
Q 2538 409 2786 701 
Q 3034 994 3034 1497 
Q 3034 2003 2786 2293 
Q 2538 2584 2113 2584 
z
M 3366 4563 
L 3366 3988 
Q 3128 4100 2886 4159 
Q 2644 4219 2406 4219 
Q 1781 4219 1451 3797 
Q 1122 3375 1075 2522 
Q 1259 2794 1537 2939 
Q 1816 3084 2150 3084 
Q 2853 3084 3261 2657 
Q 3669 2231 3669 1497 
Q 3669 778 3244 343 
Q 2819 -91 2113 -91 
Q 1303 -91 875 529 
Q 447 1150 447 2328 
Q 447 3434 972 4092 
Q 1497 4750 2381 4750 
Q 2619 4750 2861 4703 
Q 3103 4656 3366 4563 
z
" transform="scale(0.015625)"/>
       </defs>
       <use xlink:href="#DejaVuSans-30"/>
       <use xlink:href="#DejaVuSans-2e" x="63.623047"/>
       <use xlink:href="#DejaVuSans-36" x="95.410156"/>
       <use xlink:href="#DejaVuSans-30" x="159.033203"/>
      </g>
     </g>
    </g>
    <g id="ytick_4">
     <g id="line2d_13">
      <g>
       <use xlink:href="#m8bab5ac691" x="57.6" y="135.649808" style="stroke: #000000; stroke-width: 0.8"/>
      </g>
     </g>
     <g id="text_13">
      <!-- 0.65 -->
      <g transform="translate(28.334375 139.449027) scale(0.1 -0.1)">
       <use xlink:href="#DejaVuSans-30"/>
       <use xlink:href="#DejaVuSans-2e" x="63.623047"/>
       <use xlink:href="#DejaVuSans-36" x="95.410156"/>
       <use xlink:href="#DejaVuSans-35" x="159.033203"/>
      </g>
     </g>
    </g>
    <g id="ytick_5">
     <g id="line2d_14">
      <g>
       <use xlink:href="#m8bab5ac691" x="57.6" y="85.018641" style="stroke: #000000; stroke-width: 0.8"/>
      </g>
     </g>
     <g id="text_14">
      <!-- 0.70 -->
      <g transform="translate(28.334375 88.81786) scale(0.1 -0.1)">
       <defs>
        <path id="DejaVuSans-37" d="M 525 4666 
L 3525 4666 
L 3525 4397 
L 1831 0 
L 1172 0 
L 2766 4134 
L 525 4134 
L 525 4666 
z
" transform="scale(0.015625)"/>
       </defs>
       <use xlink:href="#DejaVuSans-30"/>
       <use xlink:href="#DejaVuSans-2e" x="63.623047"/>
       <use xlink:href="#DejaVuSans-37" x="95.410156"/>
       <use xlink:href="#DejaVuSans-30" x="159.033203"/>
      </g>
     </g>
    </g>
   </g>
   <g id="line2d_15">
    <path d="M 73.832727 288.124345 
L 73.996405 289.171123 
L 74.241921 285.49801 
L 74.32376 284.917592 
L 74.487438 286.378901 
L 74.569277 285.861879 
L 74.651115 286.61485 
L 74.732954 286.445127 
L 74.814793 286.959577 
L 75.142148 284.154525 
L 75.223987 284.422885 
L 75.469503 288.415731 
L 75.551342 287.778353 
L 75.633181 286.849883 
L 75.71502 286.936312 
L 75.796859 286.26117 
L 75.960536 288.264956 
L 76.124214 287.461867 
L 76.206053 287.507773 
L 76.287891 287.97573 
L 76.36973 287.83794 
L 76.451569 286.334589 
L 76.533408 286.875269 
L 76.860763 289.835767 
L 77.188118 287.385299 
L 77.351796 290.178337 
L 77.433635 290.427655 
L 77.597312 291.543199 
L 77.842829 289.894376 
L 77.924668 289.586645 
L 78.006506 289.843316 
L 78.088345 288.920751 
L 78.170184 289.438719 
L 78.252023 288.83932 
L 78.333862 290.235706 
L 78.4157 290.171723 
L 78.661217 287.78231 
L 78.743056 288.040643 
L 78.906733 290.238361 
L 79.070411 288.657992 
L 79.15225 288.747718 
L 79.315927 287.597197 
L 79.397766 287.971757 
L 79.561444 286.576779 
L 79.643283 286.397411 
L 79.725121 285.670256 
L 80.134315 288.305708 
L 80.216154 287.50965 
L 80.297993 288.390642 
L 80.379832 288.263673 
L 80.543509 287.472693 
L 80.625348 287.594188 
L 80.707187 286.504818 
L 80.789026 286.633644 
L 81.19822 289.775168 
L 81.443736 287.646975 
L 81.525575 288.169531 
L 81.607414 287.667275 
L 81.689253 287.899103 
L 81.85293 285.332195 
L 81.934769 285.749781 
L 82.016608 285.1993 
L 82.343963 286.264341 
L 82.425802 286.916257 
L 82.507641 286.364531 
L 82.58948 286.718763 
L 82.671318 286.35208 
L 82.834996 288.694948 
L 82.998674 287.438456 
L 83.080512 287.524714 
L 83.162351 286.877659 
L 83.326029 288.663928 
L 83.489706 287.803052 
L 83.571545 285.640476 
L 83.653384 286.132182 
L 83.817062 282.49526 
L 83.980739 284.582865 
L 84.062578 284.150611 
L 84.144417 284.2443 
L 84.389933 286.547198 
L 84.63545 283.629958 
L 84.962805 285.785075 
L 85.044644 285.373128 
L 85.126483 285.533493 
L 85.208321 284.761782 
L 85.29016 285.020531 
L 85.371999 284.550981 
L 85.535677 285.414216 
L 85.617515 287.654903 
L 85.699354 286.400668 
L 85.781193 286.773808 
L 86.026709 285.156378 
L 86.190387 287.169207 
L 86.435903 290.66835 
L 86.68142 287.83632 
L 86.763259 288.20186 
L 87.008775 290.606284 
L 87.090614 289.351796 
L 87.172453 289.74905 
L 87.254292 289.655447 
L 87.33613 288.833935 
L 87.417969 289.606778 
L 87.581647 289.240131 
L 87.827163 285.984222 
L 88.07268 284.692666 
L 88.318196 288.926873 
L 88.400035 289.466378 
L 88.481874 289.183803 
L 88.563712 290.014954 
L 88.645551 289.997374 
L 88.72739 289.908198 
L 88.891068 286.949592 
L 88.972906 288.161024 
L 89.218423 289.660114 
L 89.382101 288.152657 
L 89.545778 290.819426 
L 89.627617 290.771847 
L 89.709456 290.971387 
L 89.791295 290.511326 
L 89.873133 289.26278 
L 89.954972 290.11664 
L 90.11865 289.331491 
L 90.200489 289.377694 
L 90.282327 289.550743 
L 90.364166 288.572 
L 90.527844 290.072182 
L 90.609683 288.778921 
L 90.77336 289.715884 
L 90.937038 290.339079 
L 91.018877 289.480751 
L 91.100715 289.596822 
L 91.182554 289.023417 
L 91.264393 289.104723 
L 91.346232 289.674056 
L 91.428071 288.247663 
L 91.509909 289.580079 
L 91.673587 286.764558 
L 91.755426 286.318027 
L 91.919104 287.971148 
L 92.082781 287.429142 
L 92.328298 289.145661 
L 92.491975 287.234292 
L 92.573814 287.453816 
L 92.655653 287.369439 
L 92.81933 291.244974 
L 92.901169 290.948423 
L 92.983008 290.387536 
L 93.146686 292.143882 
L 93.228524 291.863568 
L 93.310363 291.87593 
L 93.392202 292.594255 
L 93.474041 292.034291 
L 93.637718 293.431304 
L 93.883235 289.545447 
L 93.965074 288.552787 
L 94.21059 291.324276 
L 94.456107 288.034363 
L 94.701623 289.888075 
L 94.783462 291.042401 
L 95.192656 288.555604 
L 95.274495 288.837325 
L 95.438172 287.134849 
L 95.520011 287.349125 
L 95.60185 286.698384 
L 95.683689 288.577723 
L 96.011044 285.285567 
L 96.092883 286.451465 
L 96.174721 286.210862 
L 96.583915 287.975293 
L 96.747593 285.783944 
L 96.829432 285.700551 
L 96.911271 288.218047 
L 96.99311 287.688599 
L 97.402304 283.942352 
L 97.484142 284.319812 
L 97.64782 287.499016 
L 97.729659 287.242861 
L 97.811498 287.305295 
L 98.057014 290.144208 
L 98.466208 286.739964 
L 98.548047 286.18884 
L 98.629886 286.572979 
L 98.711724 286.252757 
L 98.957241 288.054162 
L 99.03908 287.150849 
L 99.202757 288.594187 
L 99.284596 288.618879 
L 99.366435 288.962823 
L 99.530113 285.740171 
L 99.775629 289.028154 
L 99.857468 287.663912 
L 99.939307 289.249584 
L 100.021145 289.077147 
L 100.102984 289.159639 
L 100.184823 288.952545 
L 100.430339 287.201161 
L 100.675856 286.072846 
L 100.921372 287.998978 
L 101.003211 287.904491 
L 101.248727 290.516212 
L 101.412405 288.511804 
L 101.494244 289.101515 
L 101.657921 285.972565 
L 101.821599 288.562035 
L 101.903438 286.953589 
L 101.985277 287.34068 
L 102.067116 287.504682 
L 102.148954 286.748772 
L 102.312632 288.203145 
L 102.394471 287.835577 
L 102.721826 285.288422 
L 102.803665 285.637348 
L 102.885504 284.871029 
L 102.967342 285.912007 
L 103.294698 282.848609 
L 103.458375 284.86735 
L 103.622053 282.844781 
L 103.703892 282.854049 
L 103.78573 283.70141 
L 103.867569 282.853283 
L 103.949408 284.489011 
L 104.031247 283.067953 
L 104.113086 283.15278 
L 104.194924 282.77763 
L 104.276763 283.325147 
L 104.358602 282.36903 
L 104.604119 283.681975 
L 104.685957 281.434483 
L 104.767796 281.707765 
L 104.849635 281.691909 
L 104.931474 281.302608 
L 105.013313 281.684362 
L 105.095151 280.931934 
L 105.258829 282.300928 
L 105.340668 281.757994 
L 105.504345 282.745451 
L 105.586184 283.708861 
L 105.668023 283.581322 
L 105.749862 281.502006 
L 105.913539 283.785897 
L 106.240895 281.631263 
L 106.404572 282.682066 
L 106.486411 282.770094 
L 106.56825 282.276366 
L 106.731927 282.905275 
L 106.895605 284.861596 
L 106.977444 284.873274 
L 107.141122 285.13764 
L 107.386638 284.982959 
L 107.468477 283.867392 
L 107.713993 285.888119 
L 107.877671 284.014513 
L 108.123187 286.962519 
L 108.205026 286.350059 
L 108.286865 286.538739 
L 108.368704 286.377935 
L 108.450542 286.906243 
L 108.696059 285.990869 
L 108.941575 287.799953 
L 109.023414 286.873148 
L 109.514447 292.080478 
L 109.596286 291.432247 
L 110.169157 288.344347 
L 110.250996 288.963845 
L 110.332835 288.78298 
L 110.496513 286.196248 
L 110.66019 290.3825 
L 110.742029 290.266823 
L 110.905707 289.306074 
L 110.987545 290.308066 
L 111.069384 290.27167 
L 111.151223 290.191929 
L 111.233062 291.073444 
L 111.396739 289.19638 
L 111.560417 290.080839 
L 111.642256 289.951161 
L 111.724095 289.272304 
L 111.805933 290.182332 
L 111.887772 289.555719 
L 111.969611 290.021488 
L 112.05145 289.415284 
L 112.133289 289.670236 
L 112.215128 288.830705 
L 112.869838 292.402518 
L 112.951677 293.889295 
L 113.033516 293.566419 
L 113.279032 295.488 
L 113.524548 292.958222 
L 113.606387 292.986877 
L 113.688226 293.867441 
L 113.851904 292.557532 
L 114.015581 293.82841 
L 114.09742 293.565579 
L 114.179259 292.519113 
L 114.506614 294.984121 
L 114.588453 294.953827 
L 114.752131 292.000769 
L 114.833969 292.589221 
L 114.915808 293.333475 
L 114.997647 293.106566 
L 115.079486 291.04982 
L 115.161325 292.480846 
L 115.325002 291.313316 
L 115.48868 290.888756 
L 115.652357 291.002575 
L 115.734196 291.565265 
L 115.816035 290.077462 
L 115.897874 291.169619 
L 116.14339 288.194984 
L 116.225229 288.689917 
L 116.388907 290.761476 
L 116.552584 289.140798 
L 116.87994 285.860815 
L 116.961778 285.943474 
L 117.125456 284.255939 
L 117.289134 285.799838 
L 117.370972 285.918121 
L 117.53465 288.790344 
L 117.780166 286.364357 
L 117.862005 286.623682 
L 117.943844 286.031528 
L 118.025683 286.766698 
L 118.107522 285.827074 
L 118.18936 286.695748 
L 118.353038 284.07043 
L 118.516716 284.658362 
L 118.762232 282.404924 
L 118.844071 282.984688 
L 118.92591 282.804785 
L 119.007748 282.7474 
L 119.171426 281.747048 
L 119.498781 285.064871 
L 119.58062 285.099198 
L 119.662459 285.363274 
L 119.907975 284.555839 
L 119.989814 284.460182 
L 120.317169 279.327922 
L 120.399008 280.503788 
L 120.562686 282.320846 
L 120.644525 282.011393 
L 120.726363 283.831482 
L 120.808202 283.476753 
L 121.053719 286.085619 
L 121.135557 285.826948 
L 121.299235 283.323978 
L 121.381074 283.735674 
L 121.62659 284.336878 
L 121.790268 286.418435 
L 121.872107 286.376229 
L 122.117623 283.805216 
L 122.281301 283.096884 
L 122.36314 283.189462 
L 122.444978 284.490022 
L 122.526817 284.09187 
L 122.772334 285.400481 
L 122.936011 283.617851 
L 123.345205 286.926292 
L 123.508883 285.057661 
L 123.67256 284.208845 
L 123.836238 284.293994 
L 124.245432 287.629294 
L 124.327271 287.539122 
L 124.490949 288.519676 
L 124.572787 288.117617 
L 124.736465 291.131805 
L 124.900143 288.662254 
L 124.981981 289.023831 
L 125.145659 291.360963 
L 125.227498 291.219967 
L 125.391175 288.571564 
L 125.473014 289.362876 
L 125.636692 290.162514 
L 125.718531 289.867591 
L 125.800369 290.210197 
L 125.882208 291.310672 
L 125.964047 291.262078 
L 126.045886 291.464688 
L 126.127725 292.768615 
L 126.373241 291.560773 
L 126.45508 291.55749 
L 126.536919 291.844522 
L 126.946113 289.428681 
L 127.10979 289.850593 
L 127.191629 289.337033 
L 127.355307 292.49259 
L 127.518984 291.184173 
L 127.600823 291.951725 
L 127.928178 290.601288 
L 128.010017 289.706359 
L 128.091856 290.773333 
L 128.255534 289.19113 
L 128.337372 289.466755 
L 128.50105 292.236979 
L 128.582889 291.344546 
L 128.664728 289.373804 
L 128.828405 290.749136 
L 128.992083 288.913476 
L 129.073922 291.333005 
L 129.15576 290.878077 
L 129.237599 290.997373 
L 129.401277 291.687212 
L 129.728632 290.259817 
L 129.810471 291.084754 
L 129.89231 290.682868 
L 129.974149 291.589774 
L 130.137826 290.574318 
L 130.301504 289.020867 
L 130.383343 288.980805 
L 130.465181 287.874396 
L 130.710698 290.498568 
L 130.874375 291.525778 
L 130.956214 291.349526 
L 131.038053 292.202064 
L 131.119892 292.187912 
L 131.201731 292.420157 
L 131.692763 287.090798 
L 131.774602 287.327497 
L 131.856441 286.955841 
L 132.183796 288.177926 
L 132.265635 287.96065 
L 132.429313 289.589288 
L 132.511152 288.807946 
L 132.59299 289.45676 
L 132.920346 284.502385 
L 133.002184 285.22696 
L 133.084023 285.056846 
L 133.165862 285.647341 
L 133.32954 285.151461 
L 133.411378 285.851237 
L 133.493217 285.168861 
L 133.575056 283.099508 
L 133.738734 286.36265 
L 133.820572 285.686976 
L 134.066089 284.288554 
L 134.229766 286.811568 
L 134.475283 284.060228 
L 134.557122 284.101885 
L 134.884477 287.575312 
L 135.211832 283.815809 
L 135.37551 285.467432 
L 135.457349 285.160737 
L 135.539187 284.232223 
L 135.621026 285.910565 
L 135.702865 285.641404 
L 135.784704 286.758678 
L 135.948381 285.161871 
L 136.03022 285.649969 
L 136.848608 281.159859 
L 137.012286 282.525057 
L 137.094125 281.697352 
L 137.175964 282.937974 
L 137.257802 282.897853 
L 137.339641 283.111301 
L 137.503319 285.903335 
L 137.585158 285.005029 
L 137.666996 285.291785 
L 137.830674 282.840608 
L 137.994352 283.881476 
L 138.158029 285.609695 
L 138.239868 285.633344 
L 138.321707 285.46388 
L 138.567223 288.49777 
L 138.649062 289.131369 
L 138.976417 286.695967 
L 139.058256 287.053062 
L 139.140095 286.579274 
L 139.303772 287.82761 
L 139.46745 284.371728 
L 139.631128 286.892674 
L 139.712967 286.672445 
L 139.958483 285.185396 
L 140.040322 285.211415 
L 140.203999 286.866705 
L 140.285838 286.444867 
L 140.449516 285.789354 
L 140.613193 288.095171 
L 140.695032 287.6408 
L 140.776871 287.678605 
L 140.85871 288.353307 
L 140.940549 288.149684 
L 141.104226 289.408462 
L 141.431581 286.535451 
L 141.758937 288.780134 
L 141.840775 289.341281 
L 141.922614 288.190096 
L 142.086292 290.972488 
L 142.24997 289.108101 
L 142.331808 288.862852 
L 142.495486 289.819434 
L 142.577325 288.345675 
L 142.659164 288.362491 
L 142.741002 287.730902 
L 142.90468 288.795946 
L 143.068358 287.934407 
L 143.232035 286.436307 
L 143.313874 286.608675 
L 143.477552 288.656136 
L 143.723068 286.336414 
L 143.968584 287.934097 
L 144.050423 288.068373 
L 144.459617 290.417193 
L 144.541456 289.76415 
L 144.623295 290.579058 
L 144.705134 290.253569 
L 144.868811 291.337075 
L 145.278005 288.991744 
L 145.359844 290.51865 
L 145.523522 287.903805 
L 145.687199 288.409532 
L 145.769038 287.387409 
L 145.850877 287.424061 
L 145.932716 288.638494 
L 146.014555 287.951242 
L 146.34191 288.991783 
L 146.423749 288.261489 
L 146.587426 289.379315 
L 146.669265 288.836702 
L 146.914781 286.042565 
L 146.99662 286.500283 
L 147.242137 288.824156 
L 147.487653 289.603821 
L 147.651331 286.222566 
L 147.73317 288.04863 
L 147.815008 287.946669 
L 147.896847 288.511889 
L 147.978686 288.499273 
L 148.224202 287.897289 
L 148.306041 287.763116 
L 148.469719 288.228172 
L 148.551558 288.019084 
L 148.633396 287.197344 
L 148.878913 288.672941 
L 148.960752 288.357356 
L 149.124429 287.128802 
L 149.288107 287.591282 
L 149.451784 285.454183 
L 149.615462 288.06293 
L 149.77914 286.17785 
L 150.106495 289.546135 
L 150.270173 288.179877 
L 150.352011 288.713339 
L 150.843044 284.783818 
L 150.924883 284.831804 
L 151.088561 288.045575 
L 151.170399 287.432684 
L 151.252238 288.083389 
L 151.334077 287.28622 
L 151.415916 287.428136 
L 151.497755 287.311631 
L 151.906949 290.613255 
L 152.316143 286.564517 
L 152.397982 287.986725 
L 152.47982 287.969053 
L 152.561659 288.581008 
L 152.807176 286.214397 
L 153.052692 286.882236 
L 153.298208 288.614935 
L 153.380047 288.66424 
L 153.543725 287.531746 
L 153.707402 288.072184 
L 153.87108 289.8032 
L 154.034758 289.70774 
L 154.116596 288.613372 
L 154.198435 288.738356 
L 154.280274 288.619189 
L 154.362113 288.104855 
L 154.443952 288.261822 
L 154.689468 289.656744 
L 154.853146 288.949564 
L 155.016823 287.139881 
L 155.098662 287.557991 
L 155.344179 285.11392 
L 155.426017 286.568263 
L 155.507856 286.26738 
L 155.589695 286.530945 
L 155.753373 289.229489 
L 155.998889 286.343879 
L 156.080728 286.527492 
L 156.326244 287.798039 
L 156.489922 286.588769 
L 156.571761 287.750082 
L 156.653599 287.713657 
L 156.817277 284.993794 
L 156.899116 285.506933 
L 156.980955 286.509473 
L 157.062794 286.220314 
L 157.144632 285.859889 
L 157.30831 288.144153 
L 157.390149 287.741813 
L 157.471988 286.446011 
L 157.553826 286.728517 
L 157.635665 286.555362 
L 157.799343 285.807225 
L 157.881182 285.807187 
L 157.96302 286.380205 
L 158.044859 286.260569 
L 158.126698 286.150616 
L 158.290376 289.253788 
L 158.372214 288.513346 
L 158.69957 291.517318 
L 158.781408 292.594122 
L 158.945086 290.812874 
L 159.108764 288.08174 
L 159.272441 289.223235 
L 159.35428 288.043645 
L 159.599797 289.655316 
L 159.763474 288.642158 
L 159.845313 289.100963 
L 160.008991 291.313945 
L 160.172668 289.790548 
L 160.336346 289.800481 
L 160.663701 287.012614 
L 160.74554 287.985913 
L 160.827379 287.48021 
L 160.909217 287.918495 
L 161.236573 285.442587 
L 161.40025 286.425702 
L 161.563928 285.62846 
L 161.645767 288.263193 
L 161.727605 287.416198 
L 161.891283 289.131287 
L 162.1368 285.965559 
L 162.545994 289.876752 
L 162.709671 288.235381 
L 162.955188 289.684533 
L 163.200704 286.752331 
L 163.364382 287.517094 
L 163.691737 285.196633 
L 164.019092 286.805556 
L 164.18277 284.563459 
L 164.428286 286.16465 
L 164.510125 286.135719 
L 164.673803 283.116242 
L 164.83748 286.191322 
L 164.919319 286.229031 
L 165.001158 285.618329 
L 165.328513 288.036696 
L 165.574029 285.983359 
L 165.737707 286.774834 
L 165.819546 285.351812 
L 165.983223 287.36525 
L 166.22874 289.595998 
L 166.310579 289.570004 
L 166.392417 288.814505 
L 166.474256 289.158366 
L 166.556095 288.773969 
L 166.637934 287.363409 
L 166.801611 289.71499 
L 167.128967 288.390317 
L 167.210806 288.720706 
L 167.292644 289.697745 
L 167.374483 289.035176 
L 167.456322 289.413177 
L 167.62 287.382778 
L 167.783677 289.19794 
L 167.865516 288.25271 
L 168.111032 289.550547 
L 168.27471 287.011775 
L 168.356549 287.410306 
L 168.438388 287.345098 
L 168.602065 286.628805 
L 168.765743 287.527684 
L 168.847582 287.53716 
L 169.093098 289.431351 
L 169.256776 288.168921 
L 169.338614 287.534088 
L 169.420453 287.566364 
L 169.502292 288.038864 
L 169.584131 287.86162 
L 169.66597 287.857406 
L 169.747809 285.734019 
L 169.829647 286.764193 
L 169.911486 286.514168 
L 169.993325 287.320071 
L 170.075164 287.172831 
L 170.238841 286.786848 
L 170.32068 286.956949 
L 170.402519 286.6381 
L 170.566197 287.043889 
L 170.729874 284.980614 
L 170.975391 288.008323 
L 171.057229 289.945747 
L 171.220907 287.866798 
L 171.384585 291.375981 
L 171.71194 286.658025 
L 171.793779 286.726893 
L 171.957456 286.062754 
L 172.121134 287.714119 
L 172.202973 287.224782 
L 172.284812 287.295949 
L 172.36665 287.751791 
L 172.530328 290.401822 
L 172.694006 286.709288 
L 172.857683 287.226293 
L 172.939522 287.05652 
L 173.1032 286.373599 
L 173.185038 287.408619 
L 173.594232 285.116433 
L 173.676071 285.022564 
L 173.921588 286.390217 
L 174.003426 285.539239 
L 174.167104 287.068361 
L 174.248943 287.694297 
L 174.330782 289.34579 
L 174.41262 288.452653 
L 174.494459 288.593599 
L 174.739976 290.791829 
L 174.903653 289.451037 
L 175.067331 289.307064 
L 175.312847 291.213022 
L 175.476525 287.495954 
L 175.558364 288.968198 
L 175.640203 288.005353 
L 175.722041 289.178316 
L 175.885719 287.699467 
L 176.131235 288.933477 
L 176.213074 287.840651 
L 176.294913 288.402028 
L 176.458591 287.964588 
L 176.622268 288.369507 
L 176.704107 289.633549 
L 176.785946 289.187456 
L 177.113301 287.009041 
L 177.19514 287.330009 
L 177.358818 288.39432 
L 177.440656 288.033953 
L 177.604334 288.277641 
L 177.768012 287.810679 
L 177.84985 285.956273 
L 177.931689 286.166819 
L 178.095367 285.749721 
L 178.177206 286.291179 
L 178.259044 287.603333 
L 178.422722 285.067767 
L 178.504561 285.536591 
L 178.5864 286.260975 
L 178.668238 286.003658 
L 178.913755 283.966039 
L 179.159271 287.137881 
L 179.322949 286.199456 
L 179.404788 286.139842 
L 179.486626 285.781005 
L 179.732143 288.350085 
L 179.895821 288.59338 
L 179.977659 288.555908 
L 180.059498 288.21188 
L 180.223176 289.215273 
L 180.386853 286.333531 
L 180.550531 288.312926 
L 180.714209 285.993737 
L 180.796047 286.60792 
L 180.877886 286.297416 
L 181.041564 287.543321 
L 181.205241 286.659794 
L 181.28708 287.154148 
L 181.532597 285.344128 
L 181.696274 286.518893 
L 181.778113 286.741714 
L 182.023629 284.726813 
L 182.187307 285.623339 
L 182.350985 287.342711 
L 182.596501 286.259358 
L 182.67834 286.526627 
L 182.842018 289.468998 
L 183.005695 286.137583 
L 183.169373 287.286474 
L 183.251212 287.243406 
L 183.33305 287.494367 
L 183.496728 288.723352 
L 183.660406 287.623647 
L 183.742244 287.503911 
L 183.905922 286.771432 
L 183.987761 286.883869 
L 184.151438 287.9566 
L 184.315116 285.833354 
L 184.478794 290.332699 
L 184.560632 288.981856 
L 184.642471 289.865536 
L 184.887988 287.539891 
L 185.133504 290.254388 
L 185.460859 286.303159 
L 185.542698 286.968957 
L 185.624537 287.09124 
L 185.788215 285.862412 
L 185.951892 284.805806 
L 186.033731 284.905012 
L 186.279247 287.160455 
L 186.361086 286.52577 
L 186.606603 287.234661 
L 186.688441 286.950883 
L 186.77028 287.199214 
L 186.933958 285.78058 
L 187.015797 286.233421 
L 187.097635 286.19715 
L 187.179474 285.992623 
L 187.424991 284.058618 
L 187.588668 286.381799 
L 187.670507 286.202156 
L 187.752346 286.128774 
L 187.916024 288.131538 
L 187.997862 287.203436 
L 188.079701 287.359285 
L 188.16154 287.965192 
L 188.243379 286.830373 
L 188.407056 289.194018 
L 188.488895 288.895262 
L 188.570734 288.972703 
L 188.734412 286.1522 
L 188.81625 287.201037 
L 188.898089 286.374289 
L 188.979928 286.532012 
L 189.143606 287.54414 
L 189.225444 287.516955 
L 189.389122 286.221743 
L 189.5528 284.733146 
L 189.716477 286.956816 
L 189.798316 286.368891 
L 189.880155 286.986173 
L 189.961994 286.971607 
L 190.20751 286.163409 
L 190.453027 288.128203 
L 190.534865 288.292233 
L 190.616704 288.110499 
L 190.862221 286.518944 
L 190.944059 286.259577 
L 191.025898 285.304676 
L 191.107737 285.812898 
L 191.189576 285.451379 
L 191.353253 283.018219 
L 191.516931 283.531015 
L 191.680609 285.790394 
L 191.762447 285.682494 
L 192.007964 287.358169 
L 192.171641 286.436286 
L 192.25348 287.036123 
L 192.335319 286.185798 
L 192.498997 287.454888 
L 192.580836 287.39224 
L 192.744513 286.851107 
L 192.826352 286.235871 
L 192.99003 287.55197 
L 193.071868 289.342338 
L 193.153707 288.922066 
L 193.235546 289.362286 
L 193.481062 286.180166 
L 193.64474 288.852049 
L 193.808418 287.209719 
L 193.890256 286.987203 
L 194.135773 290.278366 
L 194.463128 288.765659 
L 194.544967 289.514527 
L 194.626806 288.387233 
L 194.708644 289.188938 
L 194.790483 289.100375 
L 195.117839 288.117188 
L 195.363355 289.089631 
L 195.445194 289.091196 
L 195.608871 290.929444 
L 195.69071 290.541041 
L 195.772549 288.924766 
L 195.854388 289.01306 
L 195.936227 289.230301 
L 196.018065 288.936362 
L 196.099904 289.192086 
L 196.263582 291.0558 
L 196.590937 285.597725 
L 197.000131 289.952022 
L 197.08197 289.607904 
L 197.163809 289.765928 
L 197.245648 290.305169 
L 197.409325 292.8513 
L 197.491164 292.496039 
L 197.573003 291.209759 
L 197.73668 292.463872 
L 198.064036 288.958239 
L 198.145874 289.10093 
L 198.227713 289.107753 
L 198.309552 290.578646 
L 198.391391 290.287427 
L 198.47323 289.919381 
L 198.555068 288.596886 
L 198.718746 289.375941 
L 198.800585 288.827877 
L 198.882424 289.300627 
L 199.046101 287.11067 
L 199.12794 286.936814 
L 199.291618 287.603465 
L 199.373456 287.402586 
L 199.455295 288.759229 
L 199.537134 288.401848 
L 199.618973 288.231336 
L 199.700812 287.352521 
L 199.864489 290.724323 
L 199.946328 290.863723 
L 200.028167 290.787689 
L 200.273683 289.258335 
L 200.355522 288.825937 
L 200.437361 289.480156 
L 200.682877 287.135665 
L 200.846555 289.692662 
L 200.928394 289.317022 
L 201.010233 288.350202 
L 201.17391 290.675354 
L 201.255749 290.11501 
L 201.501265 287.78278 
L 201.583104 287.683123 
L 201.746782 286.008927 
L 201.828621 286.712497 
L 201.910459 286.290482 
L 202.237815 287.728194 
L 202.483331 286.255244 
L 202.56517 286.74979 
L 202.647009 286.474929 
L 202.810686 288.961756 
L 202.974364 285.921629 
L 203.056203 286.079651 
L 203.21988 285.249774 
L 203.301719 285.269536 
L 203.383558 285.683636 
L 203.465397 284.612802 
L 203.547236 284.908431 
L 203.629074 285.006032 
L 203.874591 287.37104 
L 203.95643 287.98371 
L 204.283785 284.067513 
L 204.61114 281.262142 
L 204.856657 284.781391 
L 204.938495 285.907731 
L 205.102173 283.698417 
L 205.184012 285.44276 
L 205.265851 285.338757 
L 205.347689 286.13182 
L 205.511367 284.719198 
L 205.593206 284.994716 
L 205.675045 284.994011 
L 205.920561 283.945268 
L 206.084239 284.38927 
L 206.166077 283.977091 
L 206.493433 286.17323 
L 206.575271 285.960477 
L 206.65711 286.756753 
L 206.738949 286.533624 
L 206.902627 286.940402 
L 206.984465 286.824549 
L 207.066304 286.331824 
L 207.148143 286.668393 
L 207.39366 289.247986 
L 207.721015 286.39 
L 207.802854 286.604205 
L 208.04837 288.770913 
L 208.130209 289.204141 
L 208.212048 287.447693 
L 208.293886 288.170125 
L 208.375725 287.942078 
L 208.457564 288.424629 
L 208.621242 287.671893 
L 208.70308 285.950839 
L 208.948597 288.568437 
L 209.030436 289.948747 
L 209.194113 287.804994 
L 209.357791 290.367476 
L 209.521468 287.848534 
L 209.685146 291.012668 
L 209.766985 290.157592 
L 209.930663 291.120012 
L 210.012501 290.061137 
L 210.09434 290.52167 
L 210.176179 291.634319 
L 210.258018 291.309196 
L 210.339857 292.254098 
L 210.585373 290.303143 
L 210.667212 290.927777 
L 210.830889 288.127782 
L 210.994567 290.649982 
L 211.076406 290.454991 
L 211.240083 288.853124 
L 211.321922 286.933688 
L 211.649277 290.840698 
L 211.731116 290.427858 
L 211.976633 287.93956 
L 212.14031 288.655862 
L 212.303988 287.720347 
L 212.385827 288.415048 
L 212.467666 286.961173 
L 212.549504 287.835376 
L 212.631343 287.176736 
L 212.87686 288.93996 
L 213.040537 290.266904 
L 213.204215 289.201816 
L 213.286054 289.360364 
L 213.777086 284.815059 
L 213.858925 285.423293 
L 214.18628 287.733557 
L 214.268119 287.973721 
L 214.513636 287.55659 
L 214.92283 288.936811 
L 215.004669 288.619627 
L 215.168346 287.141378 
L 215.250185 287.027045 
L 215.413863 288.169642 
L 215.495701 287.080155 
L 215.57754 287.47154 
L 215.659379 286.613915 
L 215.904895 288.300561 
L 215.986734 287.787469 
L 216.068573 288.642467 
L 216.150412 287.977626 
L 216.232251 289.074111 
L 216.395928 286.892862 
L 216.477767 287.172616 
L 216.559606 287.015143 
L 216.723283 285.887587 
L 216.886961 286.190522 
L 216.9688 287.932333 
L 217.050639 287.83318 
L 217.132477 287.030473 
L 217.214316 287.571944 
L 217.459833 285.688359 
L 217.541672 285.59338 
L 217.705349 287.440648 
L 217.787188 287.770117 
L 217.869027 286.892134 
L 218.032704 287.5314 
L 218.114543 286.66471 
L 218.196382 288.212423 
L 218.278221 286.453551 
L 218.36006 286.758277 
L 218.523737 285.307091 
L 218.605576 285.294587 
L 218.687415 283.996123 
L 218.851092 285.320566 
L 219.260286 287.644418 
L 219.505803 285.699723 
L 219.833158 288.128177 
L 219.914997 287.931248 
L 220.160513 285.854204 
L 220.242352 285.93754 
L 220.324191 286.261084 
L 220.487869 285.113353 
L 220.651546 285.116116 
L 220.733385 285.684426 
L 220.815224 285.320957 
L 220.978901 286.63792 
L 221.142579 286.014557 
L 221.224418 286.688414 
L 221.469934 285.27001 
L 221.551773 284.156172 
L 221.633612 284.938079 
L 221.797289 281.898219 
L 221.960967 282.944492 
L 222.042806 285.452048 
L 222.124645 285.083399 
L 222.206483 284.097719 
L 222.288322 284.164599 
L 222.452 287.008971 
L 222.533839 287.118204 
L 222.615678 286.646158 
L 222.697516 285.246889 
L 222.943033 287.070074 
L 223.024872 287.110581 
L 223.10671 287.969298 
L 223.352227 286.224802 
L 223.597743 286.806757 
L 223.761421 285.679832 
L 224.006937 287.816096 
L 224.088776 287.348217 
L 224.252454 284.208235 
L 224.334292 285.348734 
L 224.416131 285.904487 
L 224.49797 285.539552 
L 224.579809 287.101675 
L 224.743486 286.148027 
L 224.907164 287.636119 
L 224.989003 287.419155 
L 225.070842 286.130866 
L 225.398197 290.192425 
L 225.561875 286.703604 
L 225.725552 284.399587 
L 225.807391 285.159976 
L 225.971069 286.218242 
L 226.052907 287.249583 
L 226.134746 287.080813 
L 226.216585 286.632172 
L 226.462101 289.358065 
L 226.54394 289.469664 
L 226.707618 291.143168 
L 227.034973 289.292326 
L 227.116812 289.304577 
L 227.198651 288.46234 
L 227.280489 288.542626 
L 227.444167 289.278562 
L 227.607845 287.606042 
L 227.771522 288.380203 
L 227.853361 287.748132 
L 227.9352 287.934751 
L 228.017039 287.80323 
L 228.098878 288.3566 
L 228.180716 287.118932 
L 228.344394 289.12322 
L 228.508072 288.128776 
L 228.58991 288.315342 
L 228.671749 289.301839 
L 228.753588 289.215363 
L 228.835427 289.704188 
L 228.999104 288.461877 
L 229.080943 288.062366 
L 229.162782 289.231488 
L 229.32646 287.676305 
L 229.490137 288.797925 
L 229.571976 288.620524 
L 229.653815 287.928824 
L 229.735654 288.916846 
L 229.899331 287.068277 
L 230.063009 286.365638 
L 230.144848 287.063515 
L 230.226687 286.778782 
L 230.308525 285.604933 
L 230.554042 286.992942 
L 230.635881 285.995462 
L 230.963236 288.086752 
L 231.045075 286.511044 
L 231.126913 286.638803 
L 231.208752 286.390056 
L 231.454269 288.161266 
L 231.617946 286.550395 
L 231.781624 288.704736 
L 231.863463 288.485583 
L 231.945301 286.961564 
L 232.02714 287.090216 
L 232.190818 288.244806 
L 232.272657 288.074012 
L 232.600012 285.931829 
L 232.76369 288.087751 
L 232.927367 286.178151 
L 233.091045 287.601531 
L 233.254722 286.898355 
L 233.582078 288.837499 
L 233.827594 288.038011 
L 233.909433 288.676803 
L 234.07311 287.164442 
L 234.236788 288.867763 
L 234.400466 287.987644 
L 234.564143 288.817754 
L 234.645982 288.718399 
L 234.727821 286.776571 
L 234.891498 288.494986 
L 234.973337 287.109403 
L 235.055176 287.419462 
L 235.218854 289.832646 
L 235.300693 289.769404 
L 235.546209 287.378895 
L 236.85563 232.870323 
L 237.592179 189.342413 
L 237.755857 181.800366 
L 240.047343 79.623515 
L 240.783893 58.588689 
L 241.111248 54.080718 
L 241.193087 53.944969 
L 241.274925 53.568 
L 241.438603 54.913087 
L 241.520442 53.703541 
L 241.602281 54.279962 
L 241.684119 53.891073 
L 241.847797 54.587754 
L 242.011475 54.340827 
L 242.093313 54.332742 
L 242.175152 54.7469 
L 242.256991 54.195234 
L 242.33883 54.326377 
L 242.420669 54.339374 
L 242.502508 54.583956 
L 242.584346 54.486336 
L 242.666185 54.394885 
L 242.748024 53.912139 
L 242.829863 53.931073 
L 242.99354 54.593513 
L 243.075379 54.47309 
L 243.157218 53.810477 
L 243.239057 53.847882 
L 243.320896 54.958081 
L 243.402734 54.138282 
L 243.484573 54.193774 
L 243.73009 54.47206 
L 243.811928 54.104941 
L 244.057445 54.851831 
L 244.221122 54.269487 
L 244.302961 54.869052 
L 244.3848 53.987825 
L 244.630316 56.905465 
L 244.712155 57.016154 
L 245.203188 66.053197 
L 245.448705 72.504636 
L 245.77606 78.105266 
L 248.313063 140.629735 
L 248.394902 141.257641 
L 249.131451 154.060579 
L 249.21329 153.670379 
L 249.295128 154.22022 
L 249.622484 159.329344 
L 249.786161 158.969677 
L 250.031678 162.494588 
L 250.195355 163.349139 
L 250.277194 163.152821 
L 250.440872 162.292176 
L 250.604549 162.467704 
L 250.850066 165.375005 
L 251.013743 164.908564 
L 251.177421 166.154948 
L 251.25926 166.029504 
L 251.341099 165.637264 
L 251.586615 167.225817 
L 251.668454 167.420833 
L 252.405003 159.344407 
L 252.65052 157.129387 
L 252.732358 156.393825 
L 252.814197 156.838161 
L 253.059714 154.834551 
L 253.30523 151.466395 
L 253.468908 148.483609 
L 253.550746 147.972524 
L 253.632585 148.13893 
L 253.714424 148.376996 
L 253.796263 147.816857 
L 253.878102 148.637933 
L 254.205457 142.338528 
L 254.287296 142.488371 
L 254.450973 142.045495 
L 255.187523 130.859029 
L 255.3512 127.674382 
L 255.433039 127.424203 
L 255.678555 126.134604 
L 255.760394 126.131596 
L 255.842233 126.491072 
L 256.087749 123.221033 
L 256.824299 114.993834 
L 256.906137 115.020802 
L 256.987976 114.492501 
L 257.233493 111.717488 
L 257.806364 105.705428 
L 257.888203 105.474771 
L 257.970042 104.592173 
L 258.13372 106.286025 
L 258.461075 101.55756 
L 258.624752 101.238911 
L 258.78843 102.942572 
L 258.870269 102.321079 
L 259.033946 101.256484 
L 259.115785 101.538306 
L 259.279463 103.572661 
L 259.44314 101.684015 
L 259.606818 100.954991 
L 259.852334 103.888202 
L 259.934173 104.105256 
L 260.016012 104.041537 
L 260.097851 103.994071 
L 260.588884 106.74142 
L 260.752561 104.163464 
L 260.8344 104.576064 
L 260.916239 104.669714 
L 261.161755 106.156356 
L 261.243594 105.934278 
L 261.325433 106.766218 
L 261.407272 106.600386 
L 261.489111 106.078212 
L 261.570949 106.414895 
L 261.898305 112.210411 
L 261.980143 112.114537 
L 262.061982 112.57127 
L 262.143821 111.635496 
L 262.22566 111.646061 
L 262.389337 113.726254 
L 262.471176 113.493556 
L 262.553015 113.351635 
L 262.716693 116.145672 
L 262.798532 116.01319 
L 263.125887 118.669152 
L 263.371403 118.306597 
L 263.453242 118.652912 
L 263.535081 118.145455 
L 263.780597 120.984736 
L 264.435308 124.866952 
L 264.598985 127.312983 
L 264.762663 126.806822 
L 264.844502 125.53409 
L 265.090018 128.028618 
L 265.171857 127.943086 
L 265.253696 127.899708 
L 265.417373 129.250279 
L 265.499212 128.834675 
L 265.581051 129.407601 
L 265.66289 128.991541 
L 266.153923 132.46819 
L 266.3176 131.803722 
L 266.481278 132.440758 
L 266.563117 131.115176 
L 266.644955 131.202007 
L 266.726794 131.245775 
L 266.808633 132.068093 
L 266.890472 131.700477 
L 266.972311 130.012803 
L 267.135988 130.990674 
L 267.217827 130.363242 
L 267.381505 132.352741 
L 267.463343 132.14547 
L 267.545182 132.655641 
L 267.70886 131.705907 
L 267.872538 134.227053 
L 268.036215 135.186919 
L 268.118054 135.595738 
L 268.199893 135.316071 
L 268.36357 133.187328 
L 268.445409 133.922451 
L 268.609087 133.068545 
L 269.018281 136.232499 
L 269.181958 135.701922 
L 269.263797 134.568542 
L 269.345636 136.317472 
L 269.427475 136.147245 
L 269.591152 136.763172 
L 269.836669 132.883328 
L 270.082185 130.575127 
L 270.245863 130.623487 
L 270.327702 130.555151 
L 270.573218 128.600339 
L 270.655057 129.287808 
L 270.736896 129.010621 
L 270.818735 129.380213 
L 271.14609 125.48165 
L 271.227929 126.203603 
L 271.309767 126.138258 
L 271.555284 124.027279 
L 271.718961 125.716934 
L 271.8008 125.545187 
L 271.882639 125.647529 
L 272.046317 126.01637 
L 272.128155 125.981442 
L 272.209994 125.750331 
L 272.373672 127.090597 
L 272.701027 121.08529 
L 272.946544 123.071423 
L 273.028382 122.694701 
L 273.19206 124.388298 
L 273.273899 124.238632 
L 273.355738 125.665764 
L 273.437576 123.605461 
L 273.519415 123.795244 
L 273.683093 122.1429 
L 273.764932 122.954184 
L 273.84677 122.744122 
L 274.010448 122.281855 
L 274.174126 122.923067 
L 274.255964 122.070207 
L 274.501481 124.286917 
L 274.746997 122.04548 
L 275.074352 120.859085 
L 275.319869 118.662324 
L 275.401708 118.939877 
L 275.647224 122.136395 
L 275.810902 120.638035 
L 275.892741 120.491481 
L 275.974579 119.181983 
L 276.056418 119.231289 
L 276.138257 118.831946 
L 276.220096 119.934765 
L 276.301935 119.756527 
L 276.465612 118.584845 
L 276.547451 119.239483 
L 276.62929 119.057173 
L 276.711129 119.145459 
L 276.792967 118.92486 
L 276.956645 120.700175 
L 277.038484 119.67833 
L 277.120323 119.814049 
L 277.202161 119.643202 
L 277.284 119.93261 
L 277.447678 120.902566 
L 277.529517 120.397205 
L 277.611356 120.682108 
L 277.693194 119.746132 
L 277.775033 120.287513 
L 277.938711 119.516738 
L 278.102388 120.258787 
L 278.266066 119.685335 
L 278.429744 121.970651 
L 278.511582 121.164767 
L 278.593421 121.38216 
L 278.67526 121.28651 
L 278.920776 122.538478 
L 279.002615 120.686212 
L 279.084454 121.617217 
L 279.248132 120.620094 
L 279.32997 122.564878 
L 279.411809 122.53453 
L 279.493648 123.106185 
L 279.575487 122.771265 
L 279.657326 121.31823 
L 279.739164 121.76305 
L 279.902842 123.46819 
L 280.06652 122.635105 
L 280.148359 122.401431 
L 280.475714 124.513943 
L 280.557553 123.721941 
L 280.72123 125.372949 
L 280.803069 124.969492 
L 280.884908 123.463503 
L 281.048585 124.524073 
L 281.212263 123.88563 
L 281.294102 124.48026 
L 281.375941 124.347136 
L 281.539618 124.632246 
L 281.621457 124.171467 
L 281.703296 125.165545 
L 281.866973 123.336088 
L 282.030651 127.233049 
L 282.194329 124.181549 
L 282.276167 124.011687 
L 282.439845 124.32854 
L 282.521684 125.665115 
L 282.603523 124.69067 
L 282.7672 125.344629 
L 282.849039 124.799844 
L 282.930878 126.055372 
L 283.012717 125.573913 
L 283.176394 126.846866 
L 283.340072 124.472139 
L 283.421911 124.485164 
L 283.912944 126.435858 
L 283.994782 126.571802 
L 284.15846 125.231403 
L 284.240299 125.120966 
L 284.322138 125.204053 
L 284.485815 124.038148 
L 284.649493 126.238471 
L 284.731332 125.828304 
L 284.81317 126.769312 
L 284.976848 125.026279 
L 285.058687 124.809757 
L 285.140526 124.278564 
L 285.222365 124.695036 
L 285.304203 124.24924 
L 285.386042 124.304789 
L 285.713397 126.202824 
L 285.795236 126.688896 
L 285.958914 125.731635 
L 286.040753 126.341689 
L 286.122591 127.852981 
L 286.449947 123.659096 
L 286.613624 126.489355 
L 286.695463 126.016571 
L 286.859141 124.468709 
L 286.940979 124.904249 
L 287.432012 123.25833 
L 287.513851 122.391754 
L 287.59569 123.174504 
L 287.677529 122.369514 
L 287.923045 123.467767 
L 288.004884 123.60788 
L 288.168562 122.404399 
L 288.2504 122.46562 
L 288.332239 121.313491 
L 288.659594 123.809005 
L 288.741433 123.545369 
L 288.823272 124.274659 
L 288.905111 124.202979 
L 288.98695 122.671901 
L 289.068788 123.273552 
L 289.150627 123.039445 
L 289.396144 125.029691 
L 289.477982 122.825044 
L 289.559821 123.253467 
L 289.723499 120.726963 
L 289.887176 123.667503 
L 289.969015 123.561956 
L 290.050854 123.629924 
L 290.214532 123.587992 
L 290.296371 124.145441 
L 290.460048 123.07107 
L 290.541887 123.21371 
L 290.623726 123.098482 
L 290.787403 124.130991 
L 290.869242 124.381044 
L 291.114759 121.534549 
L 291.196597 122.205588 
L 291.278436 121.25073 
L 291.360275 121.753466 
L 291.605791 124.234258 
L 291.68763 125.002152 
L 291.769469 124.70919 
L 291.851308 125.054435 
L 292.014985 121.861091 
L 292.096824 123.229508 
L 292.178663 123.022372 
L 292.342341 121.116696 
L 292.424179 120.767391 
L 292.669696 122.615044 
L 292.751535 122.102966 
L 292.915212 120.508154 
L 292.997051 120.240824 
L 293.242568 123.498432 
L 293.324406 123.888887 
L 293.488084 122.974879 
L 293.569923 123.675678 
L 293.651762 123.514491 
L 293.815439 124.00043 
L 294.142794 121.991339 
L 294.388311 124.896532 
L 294.47015 124.610131 
L 294.715666 123.123484 
L 294.879344 123.851384 
L 294.961182 123.496513 
L 295.043021 123.901463 
L 295.206699 123.069426 
L 295.452215 124.450477 
L 295.534054 124.284831 
L 295.697732 122.480378 
L 295.861409 122.601641 
L 296.106926 121.920254 
L 296.188765 123.526629 
L 296.270603 122.772266 
L 296.352442 123.214761 
L 296.434281 122.263267 
L 296.51612 122.652885 
L 296.597959 122.60302 
L 296.843475 125.387225 
L 296.925314 124.180171 
L 297.007153 124.837872 
L 297.088991 124.110395 
L 297.17083 124.66924 
L 297.252669 124.217285 
L 297.334508 124.362697 
L 297.416347 124.907657 
L 297.580024 122.956761 
L 297.825541 124.22477 
L 298.071057 123.339391 
L 298.152896 124.248942 
L 298.234735 124.219608 
L 298.316574 124.444254 
L 298.398412 124.354192 
L 298.480251 125.331358 
L 298.56209 124.85063 
L 298.643929 125.299351 
L 298.807606 123.734881 
L 298.971284 123.967901 
L 299.053123 124.462565 
L 299.134962 123.889963 
L 299.2168 124.455044 
L 299.298639 124.257919 
L 299.789672 126.138203 
L 299.871511 125.999962 
L 300.117027 123.870355 
L 300.198866 123.80305 
L 300.362544 124.627549 
L 300.526221 123.338894 
L 300.60806 124.536798 
L 300.689899 124.29616 
L 300.853577 123.207201 
L 301.099093 124.207875 
L 301.180932 124.169646 
L 301.262771 123.869842 
L 301.344609 124.119565 
L 301.426448 123.900445 
L 301.508287 124.500983 
L 301.590126 123.648219 
L 301.753803 124.621265 
L 301.835642 124.113165 
L 301.917481 124.331868 
L 301.99932 125.830925 
L 302.162997 124.610505 
L 302.326675 127.207732 
L 302.490353 124.876169 
L 302.572191 124.238315 
L 302.735869 126.704211 
L 303.063224 125.972073 
L 303.145063 126.483116 
L 303.308741 125.969021 
L 303.636096 123.629095 
L 303.717935 123.928396 
L 303.799774 125.198809 
L 303.881612 125.00581 
L 303.963451 125.338745 
L 304.127129 123.16847 
L 304.208968 124.26134 
L 304.290806 124.214287 
L 304.536323 120.899749 
L 304.7 120.638873 
L 304.781839 119.817199 
L 305.027356 122.64826 
L 305.191033 123.102561 
L 305.354711 121.984597 
L 305.43655 122.040901 
L 305.600227 123.44211 
L 305.682066 121.930437 
L 305.763905 122.611934 
L 305.845744 122.431302 
L 305.927583 121.525771 
L 306.173099 123.52747 
L 306.336777 122.61667 
L 306.418615 123.226582 
L 306.582293 126.228156 
L 306.664132 125.720733 
L 306.745971 124.697152 
L 306.827809 125.266122 
L 307.073326 123.950014 
L 307.237003 124.290419 
L 307.564359 121.846663 
L 307.646197 122.304467 
L 307.809875 122.857608 
L 307.891714 122.359756 
L 307.973553 122.58861 
L 308.13723 121.652635 
L 308.219069 121.534621 
L 308.300908 121.693997 
L 308.382747 121.388588 
L 308.546424 119.299689 
L 308.955618 124.592954 
L 309.119296 124.517788 
L 309.201135 123.815402 
L 309.446651 126.207664 
L 309.52849 126.186334 
L 309.855845 124.116986 
L 310.019523 124.781934 
L 310.101362 124.715821 
L 310.1832 124.135161 
L 310.265039 124.317297 
L 310.428717 124.270436 
L 310.510556 122.901696 
L 310.674233 124.270127 
L 310.756072 123.915142 
L 310.837911 122.886333 
L 311.001589 124.217891 
L 311.247105 121.720507 
L 311.410783 120.312072 
L 311.492621 120.822907 
L 311.57446 121.184947 
L 311.656299 122.234096 
L 311.819977 120.485533 
L 311.983654 122.599817 
L 312.065493 122.790528 
L 312.147332 122.19314 
L 312.229171 122.500651 
L 312.392848 120.659776 
L 312.474687 120.974105 
L 312.556526 120.459621 
L 312.96572 124.014202 
L 313.129398 122.222068 
L 313.374914 125.917626 
L 313.456753 125.41609 
L 313.62043 126.326051 
L 313.702269 126.209508 
L 313.865947 124.866478 
L 313.947786 125.377207 
L 314.029624 123.914888 
L 314.111463 124.145698 
L 314.275141 125.242005 
L 314.438818 121.856118 
L 314.684335 124.753566 
L 314.766174 124.348904 
L 315.01169 126.371616 
L 315.257206 124.028392 
L 315.339045 123.776002 
L 315.502723 124.260429 
L 315.584562 124.011416 
L 315.748239 125.593946 
L 315.830078 125.096003 
L 315.911917 125.815183 
L 315.993756 125.510637 
L 316.157433 124.395652 
L 316.239272 125.543759 
L 316.321111 125.220747 
L 316.484789 126.090677 
L 316.566627 125.865784 
L 316.648466 124.799621 
L 316.812144 125.556292 
L 316.893983 126.840647 
L 317.05766 124.20972 
L 317.221338 125.946124 
L 317.303177 125.65347 
L 317.385015 124.651701 
L 317.466854 125.048595 
L 317.548693 126.546417 
L 317.630532 126.499564 
L 317.79421 127.155218 
L 317.876048 126.946703 
L 318.039726 127.930207 
L 318.203404 125.073753 
L 318.367081 126.550875 
L 318.44892 126.081484 
L 318.694436 127.708739 
L 318.858114 125.524286 
L 319.10363 127.213287 
L 319.267308 126.267923 
L 319.430986 125.350089 
L 319.512824 125.609418 
L 319.594663 126.987912 
L 319.676502 126.873602 
L 319.84018 124.215094 
L 320.085696 125.776481 
L 320.167535 124.925688 
L 320.249374 125.028933 
L 320.331213 125.354 
L 320.576729 122.456311 
L 320.904084 126.60165 
L 321.067762 125.529507 
L 321.149601 125.731797 
L 321.313278 122.669025 
L 321.395117 122.448694 
L 321.476956 121.832985 
L 321.640633 120.162905 
L 321.804311 122.987147 
L 321.967989 121.322065 
L 322.131666 123.035294 
L 322.213505 122.682224 
L 322.295344 123.399196 
L 322.459021 120.91797 
L 322.54086 121.144465 
L 322.786377 119.544823 
L 322.950054 120.901761 
L 323.031893 120.206489 
L 323.113732 120.317566 
L 323.195571 121.055421 
L 323.27741 120.828466 
L 323.359248 120.566095 
L 323.441087 118.999611 
L 323.522926 120.614133 
L 323.604765 120.256079 
L 323.768442 120.510718 
L 323.850281 119.46879 
L 323.93212 119.696739 
L 324.095798 121.264943 
L 324.177636 120.97376 
L 324.58683 123.303283 
L 324.668669 123.890897 
L 324.832347 123.59565 
L 324.914186 122.20369 
L 324.996024 122.346931 
L 325.077863 122.343753 
L 325.241541 121.069338 
L 325.405219 122.621544 
L 325.487057 121.70643 
L 325.568896 121.907725 
L 325.650735 121.635996 
L 325.814413 122.664467 
L 325.896251 122.467327 
L 325.97809 122.534274 
L 326.305445 119.669792 
L 326.387284 119.816692 
L 326.714639 122.590729 
L 327.041995 121.515494 
L 327.123833 122.37984 
L 327.205672 122.239747 
L 327.287511 122.610125 
L 327.36935 124.424569 
L 327.451189 123.668756 
L 327.533027 123.963064 
L 327.614866 122.724325 
L 327.696705 122.807137 
L 327.778544 122.480619 
L 328.105899 123.84401 
L 328.187738 124.295174 
L 328.269577 124.173134 
L 328.433254 124.348807 
L 328.515093 124.449956 
L 328.596932 123.853059 
L 328.76061 124.481837 
L 328.842448 124.198277 
L 328.924287 124.30831 
L 329.006126 124.286208 
L 329.169804 123.468103 
L 329.251642 123.62124 
L 329.742675 126.866735 
L 329.824514 126.919056 
L 329.988192 127.766939 
L 330.07003 127.403529 
L 330.151869 127.769519 
L 330.233708 127.251719 
L 330.315547 127.345294 
L 330.397386 127.275311 
L 330.479225 127.610028 
L 330.970257 124.08383 
L 331.215774 123.004418 
L 331.297613 124.081912 
L 331.379451 123.265779 
L 331.624968 124.964842 
L 331.788645 123.646557 
L 331.870484 124.592039 
L 331.952323 124.002851 
L 332.034162 126.29819 
L 332.116001 125.982215 
L 332.197839 126.342256 
L 332.279678 124.839251 
L 332.361517 125.785865 
L 332.443356 125.618998 
L 332.688872 124.510104 
L 332.770711 124.512349 
L 332.85255 124.235092 
L 332.934389 124.866891 
L 333.425422 122.892295 
L 333.589099 123.383805 
L 333.752777 122.184578 
L 333.834616 122.881226 
L 333.916454 121.786505 
L 333.998293 123.234375 
L 334.080132 123.165719 
L 334.24381 121.939714 
L 334.325648 122.327073 
L 334.489326 121.94918 
L 334.571165 121.980688 
L 334.653004 121.782399 
L 334.734842 122.515222 
L 334.816681 121.525861 
L 334.89852 121.666143 
L 334.980359 121.190246 
L 335.553231 124.525494 
L 335.635069 124.190619 
L 335.798747 122.257354 
L 335.880586 122.786973 
L 336.044263 123.327724 
L 336.126102 123.296357 
L 336.207941 123.313739 
L 336.453457 124.238194 
L 336.698974 122.393739 
L 336.780813 121.900942 
L 337.026329 124.047163 
L 337.190007 121.348244 
L 337.353684 123.47682 
L 337.681039 121.51603 
L 337.926556 122.684146 
L 338.090234 123.794662 
L 338.172072 124.598536 
L 338.33575 123.673194 
L 338.417589 123.487694 
L 338.499428 123.66995 
L 338.581266 123.278931 
L 338.663105 123.769483 
L 338.744944 123.491783 
L 338.826783 124.937884 
L 338.908622 124.612226 
L 339.154138 128.514774 
L 339.235977 127.985304 
L 339.563332 126.667459 
L 339.645171 126.464808 
L 339.72701 126.71833 
L 339.972526 124.703589 
L 340.054365 124.513196 
L 340.136204 124.769438 
L 340.218042 124.619581 
L 340.299881 125.420093 
L 340.38172 125.391813 
L 340.463559 125.609725 
L 340.545398 125.408772 
L 340.627237 124.251182 
L 340.790914 125.662364 
L 340.954592 124.407607 
L 341.036431 124.527028 
L 341.118269 124.339207 
L 341.281947 122.815807 
L 341.445625 124.574325 
L 341.527463 124.4702 
L 341.691141 123.625069 
L 341.936657 125.510859 
L 342.018496 125.455695 
L 342.100335 123.591931 
L 342.182174 124.601043 
L 342.264013 124.074536 
L 342.42769 124.659681 
L 342.509529 123.87191 
L 342.591368 123.998532 
L 342.673207 124.153386 
L 342.755045 122.852384 
L 342.918723 124.699751 
L 343.082401 123.139323 
L 343.246078 124.402272 
L 343.327917 124.528729 
L 343.409756 126.115982 
L 343.573434 123.421956 
L 343.737111 125.130653 
L 344.064466 120.737722 
L 344.228144 122.559768 
L 344.309983 122.237503 
L 344.555499 120.341276 
L 344.637338 120.790732 
L 344.882854 123.594241 
L 345.046532 120.559587 
L 345.21021 123.20499 
L 345.373887 122.518457 
L 345.537565 123.178673 
L 345.701243 122.258025 
L 345.946759 124.512913 
L 346.028598 125.139177 
L 346.110437 124.960939 
L 346.274114 122.607623 
L 346.437792 120.655687 
L 346.519631 120.292282 
L 346.765147 123.393644 
L 347.174341 122.734689 
L 347.25618 122.287512 
L 347.419857 122.954564 
L 347.665374 120.944568 
L 347.747213 121.148051 
L 347.829051 121.562366 
L 347.91089 120.475785 
L 347.992729 120.503499 
L 348.074568 121.111975 
L 348.156407 120.26932 
L 348.238246 121.614408 
L 348.320084 121.374714 
L 348.401923 121.885533 
L 348.483762 121.486055 
L 348.565601 122.139345 
L 348.64744 121.900057 
L 348.729278 122.299906 
L 348.892956 121.787122 
L 348.974795 123.093873 
L 349.056634 122.53856 
L 349.138472 123.005532 
L 349.220311 122.512627 
L 349.30215 122.934858 
L 349.465828 124.808506 
L 349.629505 124.114109 
L 349.95686 126.156159 
L 350.120538 125.358206 
L 350.202377 125.354815 
L 350.284216 124.21811 
L 350.366054 125.811834 
L 350.447893 125.379451 
L 350.611571 123.930707 
L 350.69341 124.078004 
L 350.775249 123.269039 
L 350.938926 123.830099 
L 351.102604 125.709425 
L 351.266281 123.489236 
L 351.34812 124.244363 
L 351.593637 122.099788 
L 351.757314 123.10234 
L 351.920992 122.884284 
L 352.084669 125.900084 
L 352.248347 125.461403 
L 352.412025 126.936303 
L 352.493863 126.668309 
L 352.657541 124.804594 
L 352.903057 127.56648 
L 353.066735 124.275308 
L 353.230413 126.348907 
L 353.39409 124.136933 
L 353.557768 125.029411 
L 353.721446 124.593372 
L 353.803284 125.16799 
L 353.885123 125.006143 
L 354.048801 123.966454 
L 354.212478 125.074829 
L 354.294317 124.72633 
L 354.376156 125.008139 
L 354.539834 124.073695 
L 354.621672 124.222469 
L 354.703511 124.08156 
L 354.78535 122.834503 
L 354.867189 122.940077 
L 354.949028 124.407157 
L 355.030866 123.941145 
L 355.112705 124.530389 
L 355.194544 124.337078 
L 355.276383 124.038786 
L 355.358222 124.760949 
L 355.521899 123.176144 
L 355.685577 126.256986 
L 355.767416 126.247469 
L 355.849255 126.798383 
L 356.012932 125.00802 
L 356.17661 123.914988 
L 356.340287 127.303846 
L 356.503965 126.535525 
L 356.749481 122.416798 
L 356.83132 121.849581 
L 356.913159 122.046103 
L 357.076837 122.17745 
L 357.158675 122.060785 
L 357.240514 122.326778 
L 357.322353 121.910535 
L 357.404192 122.221474 
L 357.486031 123.189291 
L 357.731547 122.093917 
L 357.895225 121.791798 
L 358.058902 123.049736 
L 358.140741 122.602989 
L 358.304419 123.464783 
L 358.468096 122.783984 
L 358.795452 126.591627 
L 358.87729 126.029762 
L 359.122807 122.961335 
L 359.204646 123.09047 
L 359.450162 124.213029 
L 359.695678 121.804113 
L 359.777517 121.542919 
L 359.941195 123.239113 
L 360.023034 123.113642 
L 360.595905 120.112921 
L 360.841422 120.639806 
L 361.005099 122.029869 
L 361.250616 120.547395 
L 361.332455 120.945243 
L 361.414293 122.143941 
L 361.577971 119.859383 
L 361.741649 120.986125 
L 361.823487 121.050237 
L 361.905326 120.483076 
L 361.987165 122.284477 
L 362.069004 122.181338 
L 362.232681 123.858433 
L 362.478198 122.662972 
L 362.560037 122.234278 
L 362.641875 122.948348 
L 362.723714 122.850507 
L 362.805553 122.83968 
L 362.969231 124.670853 
L 363.05107 126.287902 
L 363.132908 126.033866 
L 363.214747 126.262043 
L 363.378425 123.039436 
L 363.460264 122.698605 
L 363.542102 123.859368 
L 363.70578 122.214468 
L 364.033135 123.825129 
L 364.114974 123.143896 
L 364.196813 124.144331 
L 364.278652 123.870602 
L 364.442329 122.264937 
L 364.524168 119.763086 
L 364.687846 123.528322 
L 364.851523 121.779652 
L 365.015201 123.568833 
L 365.178878 122.556714 
L 365.424395 125.19244 
L 365.506234 127.456394 
L 365.669911 123.938795 
L 365.75175 124.328748 
L 365.833589 123.906611 
L 365.997267 125.399507 
L 366.160944 126.540535 
L 366.324622 125.512247 
L 366.406461 126.05572 
L 366.488299 125.875984 
L 366.651977 124.546377 
L 366.733816 123.882742 
L 366.815655 124.088771 
L 366.897493 123.777176 
L 366.979332 124.795361 
L 367.061171 124.674524 
L 367.224849 125.709567 
L 367.388526 124.228263 
L 367.470365 124.416319 
L 367.634043 124.892333 
L 367.961398 121.781887 
L 368.125076 124.714665 
L 368.206914 124.25847 
L 368.288753 124.640403 
L 368.452431 126.997277 
L 368.53427 126.471242 
L 368.616108 127.010725 
L 368.779786 125.685925 
L 368.943464 122.83068 
L 369.107141 125.051915 
L 369.18898 124.42808 
L 369.434496 125.743794 
L 369.598174 122.457616 
L 369.84369 124.726499 
L 369.925529 124.591583 
L 370.089207 123.91836 
L 370.171046 123.965682 
L 370.416562 121.747203 
L 370.498401 122.785016 
L 370.58024 122.766402 
L 370.825756 123.832698 
L 370.907595 125.575505 
L 370.989434 124.954362 
L 371.23495 123.809219 
L 371.480467 127.808345 
L 371.562305 127.346413 
L 371.644144 127.612432 
L 371.725983 127.059393 
L 371.889661 124.606542 
L 372.217016 128.909189 
L 372.380693 127.987922 
L 372.544371 129.439021 
L 372.62621 129.428188 
L 373.199082 125.72791 
L 373.28092 125.733692 
L 373.362759 125.968808 
L 373.526437 124.929802 
L 373.608276 124.890315 
L 373.771953 125.975679 
L 373.935631 124.069204 
L 374.099308 123.437272 
L 374.181147 123.560379 
L 374.262986 124.054361 
L 374.426664 123.775149 
L 374.508502 123.758607 
L 374.835858 126.076923 
L 374.999535 125.30449 
L 375.163213 125.81444 
L 375.32689 124.97181 
L 375.490568 126.378731 
L 375.572407 126.314483 
L 375.736085 125.496924 
L 375.899762 126.992941 
L 376.145279 125.918353 
L 376.227117 124.792148 
L 376.308956 125.528605 
L 376.472634 124.507626 
L 376.636311 126.228127 
L 376.799989 124.340622 
L 377.127344 125.625233 
L 377.372861 123.050004 
L 377.454699 122.59754 
L 377.536538 122.85615 
L 377.782055 121.8294 
L 377.945732 123.574223 
L 378.027571 122.211981 
L 378.10941 122.365847 
L 378.191249 122.227348 
L 378.600443 120.155365 
L 378.76412 120.952651 
L 378.845959 119.471297 
L 379.091476 121.395678 
L 379.173314 121.050688 
L 379.255153 121.633112 
L 379.418831 123.49439 
L 379.664347 122.107624 
L 379.746186 120.595927 
L 379.828025 121.776004 
L 379.909864 121.69654 
L 379.991702 120.467165 
L 380.073541 120.553084 
L 380.237219 120.789326 
L 380.319058 119.988557 
L 380.482735 120.817596 
L 380.564574 120.687784 
L 380.728252 121.519237 
L 380.891929 120.531488 
L 380.973768 121.070792 
L 381.055607 120.85938 
L 381.219285 123.013771 
L 381.301123 123.026161 
L 381.382962 122.875217 
L 381.464801 122.421794 
L 381.54664 122.612057 
L 381.628479 122.262405 
L 381.710317 123.473593 
L 381.873995 121.288839 
L 382.037673 123.337293 
L 382.20135 122.56473 
L 382.528705 125.740475 
L 382.610544 125.526455 
L 382.692383 126.043546 
L 382.937899 121.678206 
L 383.101577 122.196566 
L 383.183416 121.167701 
L 383.265255 121.243225 
L 383.428932 122.282275 
L 383.674449 124.76161 
L 383.838126 125.509235 
L 383.919965 124.916705 
L 384.001804 125.2776 
L 384.410998 121.420528 
L 384.492837 122.98041 
L 384.574676 122.732801 
L 384.656514 122.644902 
L 384.738353 122.177555 
L 384.820192 122.346333 
L 385.065708 123.917707 
L 385.147547 124.560554 
L 385.229386 124.346901 
L 385.311225 124.461793 
L 385.474902 126.128768 
L 385.720419 123.24571 
L 385.802258 124.207898 
L 386.047774 122.645717 
L 386.129613 122.445096 
L 386.456968 124.460627 
L 386.538807 124.681328 
L 386.620646 125.42606 
L 386.784323 124.709932 
L 386.948001 126.419432 
L 387.439034 122.294632 
L 387.520873 122.608409 
L 387.602711 122.457501 
L 387.766389 124.213503 
L 387.848228 124.012748 
L 388.011905 122.652014 
L 388.093744 122.679042 
L 388.175583 121.688518 
L 388.4211 123.344079 
L 388.502938 123.211082 
L 388.584777 121.688633 
L 388.666616 122.700417 
L 388.748455 122.678493 
L 388.993971 121.780593 
L 389.157649 124.225739 
L 389.239488 123.923743 
L 389.321326 123.800162 
L 389.648682 120.914212 
L 389.73052 121.180197 
L 389.894198 123.248251 
L 389.976037 123.032006 
L 390.139714 122.151704 
L 390.303392 123.267233 
L 390.385231 122.352558 
L 390.46707 122.435628 
L 390.548908 122.727551 
L 390.630747 122.505798 
L 390.712586 121.676512 
L 390.794425 122.247002 
L 390.876264 121.530376 
L 391.039941 122.817896 
L 391.12178 122.447162 
L 391.203619 121.029908 
L 391.285458 121.06155 
L 391.367297 121.264337 
L 391.449135 122.221567 
L 391.530974 122.10158 
L 391.694652 123.809933 
L 391.776491 123.041392 
L 391.858329 123.089893 
L 392.022007 126.090678 
L 392.103846 125.992289 
L 392.185685 125.675032 
L 392.267523 126.018687 
L 392.431201 125.299737 
L 392.51304 125.463337 
L 392.594879 125.974327 
L 392.676717 125.69833 
L 392.840395 123.824606 
L 393.004073 124.971816 
L 393.085911 123.260578 
L 393.16775 124.309464 
L 393.249589 123.215013 
L 393.495106 124.202582 
L 393.576944 124.413107 
L 393.658783 124.152663 
L 393.822461 127.264106 
L 393.986138 125.836882 
L 394.067977 125.501966 
L 394.313494 128.450566 
L 394.640849 125.183718 
L 394.722688 125.366417 
L 394.804526 125.174409 
L 394.886365 125.346909 
L 395.050043 124.600478 
L 395.131882 123.214689 
L 395.21372 123.970476 
L 395.459237 122.676903 
L 395.541076 124.302949 
L 395.622914 123.415434 
L 395.786592 126.57941 
L 396.032109 124.951309 
L 396.113947 123.802631 
L 396.195786 124.004388 
L 396.277625 124.345669 
L 396.441303 123.590996 
L 396.523141 124.542416 
L 396.60498 123.844688 
L 396.686819 124.398525 
L 396.850497 122.79011 
L 396.932335 123.974336 
L 397.014174 123.725256 
L 397.096013 122.811334 
L 397.259691 124.224949 
L 397.341529 123.547729 
L 397.423368 124.048287 
L 397.505207 123.488733 
L 397.587046 123.822965 
L 397.750723 122.380493 
L 397.914401 124.201552 
L 398.159918 121.899614 
L 398.323595 122.138275 
L 398.487273 121.739907 
L 398.487273 121.739907 
" clip-path="url(#pd26b33f616)" style="fill: none; stroke: #ff0000; stroke-width: 1.5; stroke-linecap: square"/>
   </g>
   <g id="line2d_16">
    <path d="M 73.832727 249.51094 
L 74.078244 229.658539 
L 74.405599 219.24399 
L 74.814793 214.172489 
L 75.960536 200.69168 
L 76.860763 192.112951 
L 77.842829 184.800151 
L 78.824894 179.138055 
L 79.80696 174.748528 
L 80.789026 171.343787 
L 81.771092 168.701355 
L 82.753157 166.65006 
L 83.817062 164.941775 
L 84.880966 163.642348 
L 86.026709 162.588876 
L 87.254292 161.75631 
L 88.645551 161.081458 
L 90.282327 160.542349 
L 92.328298 160.120513 
L 94.947139 159.821565 
L 98.793563 159.625887 
L 105.831701 159.528833 
L 130.792537 159.510786 
L 234.80966 159.510786 
L 234.80966 159.510786 
" clip-path="url(#pd26b33f616)" style="fill: none; stroke: #0000ff; stroke-width: 1.5; stroke-linecap: square"/>
   </g>
   <g id="patch_3">
    <path d="M 57.6 307.584 
L 57.6 41.472 
" style="fill: none; stroke: #000000; stroke-width: 0.8; stroke-linejoin: miter; stroke-linecap: square"/>
   </g>
   <g id="patch_4">
    <path d="M 414.72 307.584 
L 414.72 41.472 
" style="fill: none; stroke: #000000; stroke-width: 0.8; stroke-linejoin: miter; stroke-linecap: square"/>
   </g>
   <g id="patch_5">
    <path d="M 57.6 307.584 
L 414.72 307.584 
" style="fill: none; stroke: #000000; stroke-width: 0.8; stroke-linejoin: miter; stroke-linecap: square"/>
   </g>
   <g id="patch_6">
    <path d="M 57.6 41.472 
L 414.72 41.472 
" style="fill: none; stroke: #000000; stroke-width: 0.8; stroke-linejoin: miter; stroke-linecap: square"/>
   </g>
  </g>
 </g>
 <defs>
  <clipPath id="pd26b33f616">
   <rect x="57.6" y="41.472" width="357.12" height="266.112"/>
  </clipPath>
 </defs>
</svg>
