<?xml version="1.0" encoding="utf-8" standalone="no"?>
<!DOCTYPE svg PUBLIC "-//W3C//DTD SVG 1.1//EN"
  "http://www.w3.org/Graphics/SVG/1.1/DTD/svg11.dtd">
<svg xmlns:xlink="http://www.w3.org/1999/xlink" width="460.8pt" height="345.6pt" viewBox="0 0 460.8 345.6" xmlns="http://www.w3.org/2000/svg" version="1.1">
 <metadata>
  <rdf:RDF xmlns:dc="http://purl.org/dc/elements/1.1/" xmlns:cc="http://creativecommons.org/ns#" xmlns:rdf="http://www.w3.org/1999/02/22-rdf-syntax-ns#">
   <cc:Work>
    <dc:type rdf:resource="http://purl.org/dc/dcmitype/StillImage"/>
    <dc:date>2023-03-27T22:30:48.200296</dc:date>
    <dc:format>image/svg+xml</dc:format>
    <dc:creator>
     <cc:Agent>
      <dc:title>Matplotlib v3.7.1, https://matplotlib.org/</dc:title>
     </cc:Agent>
    </dc:creator>
   </cc:Work>
  </rdf:RDF>
 </metadata>
 <defs>
  <style type="text/css">*{stroke-linejoin: round; stroke-linecap: butt}</style>
 </defs>
 <g id="figure_1">
  <g id="patch_1">
   <path d="M 0 345.6 
L 460.8 345.6 
L 460.8 0 
L 0 0 
z
" style="fill: #ffffff"/>
  </g>
  <g id="axes_1">
   <g id="patch_2">
    <path d="M 57.6 307.584 
L 414.72 307.584 
L 414.72 41.472 
L 57.6 41.472 
z
" style="fill: #ffffff"/>
   </g>
   <g id="matplotlib.axis_1">
    <g id="xtick_1">
     <g id="line2d_1">
      <defs>
       <path id="m0733adec88" d="M 0 0 
L 0 3.5 
" style="stroke: #000000; stroke-width: 0.8"/>
      </defs>
      <g>
       <use xlink:href="#m0733adec88" x="58.691335" y="307.584" style="stroke: #000000; stroke-width: 0.8"/>
      </g>
     </g>
     <g id="text_1">
      <!-- 0 -->
      <g transform="translate(55.510085 322.182437) scale(0.1 -0.1)">
       <defs>
        <path id="DejaVuSans-30" d="M 2034 4250 
Q 1547 4250 1301 3770 
Q 1056 3291 1056 2328 
Q 1056 1369 1301 889 
Q 1547 409 2034 409 
Q 2525 409 2770 889 
Q 3016 1369 3016 2328 
Q 3016 3291 2770 3770 
Q 2525 4250 2034 4250 
z
M 2034 4750 
Q 2819 4750 3233 4129 
Q 3647 3509 3647 2328 
Q 3647 1150 3233 529 
Q 2819 -91 2034 -91 
Q 1250 -91 836 529 
Q 422 1150 422 2328 
Q 422 3509 836 4129 
Q 1250 4750 2034 4750 
z
" transform="scale(0.015625)"/>
       </defs>
       <use xlink:href="#DejaVuSans-30"/>
      </g>
     </g>
    </g>
    <g id="xtick_2">
     <g id="line2d_2">
      <g>
       <use xlink:href="#m0733adec88" x="102.757423" y="307.584" style="stroke: #000000; stroke-width: 0.8"/>
      </g>
     </g>
     <g id="text_2">
      <!-- 250 -->
      <g transform="translate(93.213673 322.182437) scale(0.1 -0.1)">
       <defs>
        <path id="DejaVuSans-32" d="M 1228 531 
L 3431 531 
L 3431 0 
L 469 0 
L 469 531 
Q 828 903 1448 1529 
Q 2069 2156 2228 2338 
Q 2531 2678 2651 2914 
Q 2772 3150 2772 3378 
Q 2772 3750 2511 3984 
Q 2250 4219 1831 4219 
Q 1534 4219 1204 4116 
Q 875 4013 500 3803 
L 500 4441 
Q 881 4594 1212 4672 
Q 1544 4750 1819 4750 
Q 2544 4750 2975 4387 
Q 3406 4025 3406 3419 
Q 3406 3131 3298 2873 
Q 3191 2616 2906 2266 
Q 2828 2175 2409 1742 
Q 1991 1309 1228 531 
z
" transform="scale(0.015625)"/>
        <path id="DejaVuSans-35" d="M 691 4666 
L 3169 4666 
L 3169 4134 
L 1269 4134 
L 1269 2991 
Q 1406 3038 1543 3061 
Q 1681 3084 1819 3084 
Q 2600 3084 3056 2656 
Q 3513 2228 3513 1497 
Q 3513 744 3044 326 
Q 2575 -91 1722 -91 
Q 1428 -91 1123 -41 
Q 819 9 494 109 
L 494 744 
Q 775 591 1075 516 
Q 1375 441 1709 441 
Q 2250 441 2565 725 
Q 2881 1009 2881 1497 
Q 2881 1984 2565 2268 
Q 2250 2553 1709 2553 
Q 1456 2553 1204 2497 
Q 953 2441 691 2322 
L 691 4666 
z
" transform="scale(0.015625)"/>
       </defs>
       <use xlink:href="#DejaVuSans-32"/>
       <use xlink:href="#DejaVuSans-35" x="63.623047"/>
       <use xlink:href="#DejaVuSans-30" x="127.246094"/>
      </g>
     </g>
    </g>
    <g id="xtick_3">
     <g id="line2d_3">
      <g>
       <use xlink:href="#m0733adec88" x="146.82351" y="307.584" style="stroke: #000000; stroke-width: 0.8"/>
      </g>
     </g>
     <g id="text_3">
      <!-- 500 -->
      <g transform="translate(137.27976 322.182437) scale(0.1 -0.1)">
       <use xlink:href="#DejaVuSans-35"/>
       <use xlink:href="#DejaVuSans-30" x="63.623047"/>
       <use xlink:href="#DejaVuSans-30" x="127.246094"/>
      </g>
     </g>
    </g>
    <g id="xtick_4">
     <g id="line2d_4">
      <g>
       <use xlink:href="#m0733adec88" x="190.889598" y="307.584" style="stroke: #000000; stroke-width: 0.8"/>
      </g>
     </g>
     <g id="text_4">
      <!-- 750 -->
      <g transform="translate(181.345848 322.182437) scale(0.1 -0.1)">
       <defs>
        <path id="DejaVuSans-37" d="M 525 4666 
L 3525 4666 
L 3525 4397 
L 1831 0 
L 1172 0 
L 2766 4134 
L 525 4134 
L 525 4666 
z
" transform="scale(0.015625)"/>
       </defs>
       <use xlink:href="#DejaVuSans-37"/>
       <use xlink:href="#DejaVuSans-35" x="63.623047"/>
       <use xlink:href="#DejaVuSans-30" x="127.246094"/>
      </g>
     </g>
    </g>
    <g id="xtick_5">
     <g id="line2d_5">
      <g>
       <use xlink:href="#m0733adec88" x="234.955686" y="307.584" style="stroke: #000000; stroke-width: 0.8"/>
      </g>
     </g>
     <g id="text_5">
      <!-- 1000 -->
      <g transform="translate(222.230686 322.182437) scale(0.1 -0.1)">
       <defs>
        <path id="DejaVuSans-31" d="M 794 531 
L 1825 531 
L 1825 4091 
L 703 3866 
L 703 4441 
L 1819 4666 
L 2450 4666 
L 2450 531 
L 3481 531 
L 3481 0 
L 794 0 
L 794 531 
z
" transform="scale(0.015625)"/>
       </defs>
       <use xlink:href="#DejaVuSans-31"/>
       <use xlink:href="#DejaVuSans-30" x="63.623047"/>
       <use xlink:href="#DejaVuSans-30" x="127.246094"/>
       <use xlink:href="#DejaVuSans-30" x="190.869141"/>
      </g>
     </g>
    </g>
    <g id="xtick_6">
     <g id="line2d_6">
      <g>
       <use xlink:href="#m0733adec88" x="279.021773" y="307.584" style="stroke: #000000; stroke-width: 0.8"/>
      </g>
     </g>
     <g id="text_6">
      <!-- 1250 -->
      <g transform="translate(266.296773 322.182437) scale(0.1 -0.1)">
       <use xlink:href="#DejaVuSans-31"/>
       <use xlink:href="#DejaVuSans-32" x="63.623047"/>
       <use xlink:href="#DejaVuSans-35" x="127.246094"/>
       <use xlink:href="#DejaVuSans-30" x="190.869141"/>
      </g>
     </g>
    </g>
    <g id="xtick_7">
     <g id="line2d_7">
      <g>
       <use xlink:href="#m0733adec88" x="323.087861" y="307.584" style="stroke: #000000; stroke-width: 0.8"/>
      </g>
     </g>
     <g id="text_7">
      <!-- 1500 -->
      <g transform="translate(310.362861 322.182437) scale(0.1 -0.1)">
       <use xlink:href="#DejaVuSans-31"/>
       <use xlink:href="#DejaVuSans-35" x="63.623047"/>
       <use xlink:href="#DejaVuSans-30" x="127.246094"/>
       <use xlink:href="#DejaVuSans-30" x="190.869141"/>
      </g>
     </g>
    </g>
    <g id="xtick_8">
     <g id="line2d_8">
      <g>
       <use xlink:href="#m0733adec88" x="367.153949" y="307.584" style="stroke: #000000; stroke-width: 0.8"/>
      </g>
     </g>
     <g id="text_8">
      <!-- 1750 -->
      <g transform="translate(354.428949 322.182437) scale(0.1 -0.1)">
       <use xlink:href="#DejaVuSans-31"/>
       <use xlink:href="#DejaVuSans-37" x="63.623047"/>
       <use xlink:href="#DejaVuSans-35" x="127.246094"/>
       <use xlink:href="#DejaVuSans-30" x="190.869141"/>
      </g>
     </g>
    </g>
    <g id="xtick_9">
     <g id="line2d_9">
      <g>
       <use xlink:href="#m0733adec88" x="411.220036" y="307.584" style="stroke: #000000; stroke-width: 0.8"/>
      </g>
     </g>
     <g id="text_9">
      <!-- 2000 -->
      <g transform="translate(398.495036 322.182437) scale(0.1 -0.1)">
       <use xlink:href="#DejaVuSans-32"/>
       <use xlink:href="#DejaVuSans-30" x="63.623047"/>
       <use xlink:href="#DejaVuSans-30" x="127.246094"/>
       <use xlink:href="#DejaVuSans-30" x="190.869141"/>
      </g>
     </g>
    </g>
   </g>
   <g id="matplotlib.axis_2">
    <g id="ytick_1">
     <g id="line2d_10">
      <defs>
       <path id="m6647b82173" d="M 0 0 
L -3.5 0 
" style="stroke: #000000; stroke-width: 0.8"/>
      </defs>
      <g>
       <use xlink:href="#m6647b82173" x="57.6" y="286.715516" style="stroke: #000000; stroke-width: 0.8"/>
      </g>
     </g>
     <g id="text_10">
      <!-- 0.0 -->
      <g transform="translate(34.696875 290.514735) scale(0.1 -0.1)">
       <defs>
        <path id="DejaVuSans-2e" d="M 684 794 
L 1344 794 
L 1344 0 
L 684 0 
L 684 794 
z
" transform="scale(0.015625)"/>
       </defs>
       <use xlink:href="#DejaVuSans-30"/>
       <use xlink:href="#DejaVuSans-2e" x="63.623047"/>
       <use xlink:href="#DejaVuSans-30" x="95.410156"/>
      </g>
     </g>
    </g>
    <g id="ytick_2">
     <g id="line2d_11">
      <g>
       <use xlink:href="#m6647b82173" x="57.6" y="237.529723" style="stroke: #000000; stroke-width: 0.8"/>
      </g>
     </g>
     <g id="text_11">
      <!-- 0.2 -->
      <g transform="translate(34.696875 241.328941) scale(0.1 -0.1)">
       <use xlink:href="#DejaVuSans-30"/>
       <use xlink:href="#DejaVuSans-2e" x="63.623047"/>
       <use xlink:href="#DejaVuSans-32" x="95.410156"/>
      </g>
     </g>
    </g>
    <g id="ytick_3">
     <g id="line2d_12">
      <g>
       <use xlink:href="#m6647b82173" x="57.6" y="188.343929" style="stroke: #000000; stroke-width: 0.8"/>
      </g>
     </g>
     <g id="text_12">
      <!-- 0.4 -->
      <g transform="translate(34.696875 192.143148) scale(0.1 -0.1)">
       <defs>
        <path id="DejaVuSans-34" d="M 2419 4116 
L 825 1625 
L 2419 1625 
L 2419 4116 
z
M 2253 4666 
L 3047 4666 
L 3047 1625 
L 3713 1625 
L 3713 1100 
L 3047 1100 
L 3047 0 
L 2419 0 
L 2419 1100 
L 313 1100 
L 313 1709 
L 2253 4666 
z
" transform="scale(0.015625)"/>
       </defs>
       <use xlink:href="#DejaVuSans-30"/>
       <use xlink:href="#DejaVuSans-2e" x="63.623047"/>
       <use xlink:href="#DejaVuSans-34" x="95.410156"/>
      </g>
     </g>
    </g>
    <g id="ytick_4">
     <g id="line2d_13">
      <g>
       <use xlink:href="#m6647b82173" x="57.6" y="139.158136" style="stroke: #000000; stroke-width: 0.8"/>
      </g>
     </g>
     <g id="text_13">
      <!-- 0.6 -->
      <g transform="translate(34.696875 142.957355) scale(0.1 -0.1)">
       <defs>
        <path id="DejaVuSans-36" d="M 2113 2584 
Q 1688 2584 1439 2293 
Q 1191 2003 1191 1497 
Q 1191 994 1439 701 
Q 1688 409 2113 409 
Q 2538 409 2786 701 
Q 3034 994 3034 1497 
Q 3034 2003 2786 2293 
Q 2538 2584 2113 2584 
z
M 3366 4563 
L 3366 3988 
Q 3128 4100 2886 4159 
Q 2644 4219 2406 4219 
Q 1781 4219 1451 3797 
Q 1122 3375 1075 2522 
Q 1259 2794 1537 2939 
Q 1816 3084 2150 3084 
Q 2853 3084 3261 2657 
Q 3669 2231 3669 1497 
Q 3669 778 3244 343 
Q 2819 -91 2113 -91 
Q 1303 -91 875 529 
Q 447 1150 447 2328 
Q 447 3434 972 4092 
Q 1497 4750 2381 4750 
Q 2619 4750 2861 4703 
Q 3103 4656 3366 4563 
z
" transform="scale(0.015625)"/>
       </defs>
       <use xlink:href="#DejaVuSans-30"/>
       <use xlink:href="#DejaVuSans-2e" x="63.623047"/>
       <use xlink:href="#DejaVuSans-36" x="95.410156"/>
      </g>
     </g>
    </g>
    <g id="ytick_5">
     <g id="line2d_14">
      <g>
       <use xlink:href="#m6647b82173" x="57.6" y="89.972343" style="stroke: #000000; stroke-width: 0.8"/>
      </g>
     </g>
     <g id="text_14">
      <!-- 0.8 -->
      <g transform="translate(34.696875 93.771561) scale(0.1 -0.1)">
       <defs>
        <path id="DejaVuSans-38" d="M 2034 2216 
Q 1584 2216 1326 1975 
Q 1069 1734 1069 1313 
Q 1069 891 1326 650 
Q 1584 409 2034 409 
Q 2484 409 2743 651 
Q 3003 894 3003 1313 
Q 3003 1734 2745 1975 
Q 2488 2216 2034 2216 
z
M 1403 2484 
Q 997 2584 770 2862 
Q 544 3141 544 3541 
Q 544 4100 942 4425 
Q 1341 4750 2034 4750 
Q 2731 4750 3128 4425 
Q 3525 4100 3525 3541 
Q 3525 3141 3298 2862 
Q 3072 2584 2669 2484 
Q 3125 2378 3379 2068 
Q 3634 1759 3634 1313 
Q 3634 634 3220 271 
Q 2806 -91 2034 -91 
Q 1263 -91 848 271 
Q 434 634 434 1313 
Q 434 1759 690 2068 
Q 947 2378 1403 2484 
z
M 1172 3481 
Q 1172 3119 1398 2916 
Q 1625 2713 2034 2713 
Q 2441 2713 2670 2916 
Q 2900 3119 2900 3481 
Q 2900 3844 2670 4047 
Q 2441 4250 2034 4250 
Q 1625 4250 1398 4047 
Q 1172 3844 1172 3481 
z
" transform="scale(0.015625)"/>
       </defs>
       <use xlink:href="#DejaVuSans-30"/>
       <use xlink:href="#DejaVuSans-2e" x="63.623047"/>
       <use xlink:href="#DejaVuSans-38" x="95.410156"/>
      </g>
     </g>
    </g>
   </g>
   <g id="line2d_15">
    <path d="M 58.867599 216.262259 
L 59.043864 218.497981 
L 59.220128 212.19857 
L 59.572657 223.369632 
L 59.748921 218.365672 
L 59.925185 216.54229 
L 60.10145 216.615107 
L 60.277714 212.37371 
L 60.453978 219.467624 
L 60.630243 219.318337 
L 60.806507 221.816568 
L 61.159036 216.964361 
L 61.3353 223.127283 
L 61.511565 224.651317 
L 61.864093 219.108427 
L 62.040358 222.56999 
L 62.216622 220.639573 
L 62.392886 220.373878 
L 62.569151 221.35136 
L 62.745415 218.654949 
L 62.921679 211.838439 
L 63.097944 217.097627 
L 63.450472 221.194348 
L 63.626737 215.430804 
L 63.803001 216.431809 
L 63.979265 222.263794 
L 64.15553 212.647767 
L 64.331794 217.301979 
L 64.508059 208.779558 
L 64.684323 208.949597 
L 64.860587 198.69615 
L 65.213116 215.85756 
L 65.565645 211.003503 
L 65.741909 211.320883 
L 65.918173 212.329985 
L 66.094438 204.45212 
L 66.270702 217.015277 
L 66.446966 203.15708 
L 66.799495 208.50379 
L 66.975759 204.323338 
L 67.152024 194.847401 
L 67.328288 202.501697 
L 67.504552 202.182882 
L 68.033346 211.857456 
L 68.385874 224.993786 
L 68.562139 224.156878 
L 68.738403 221.554023 
L 68.914667 224.679831 
L 69.090932 219.252181 
L 69.267196 209.457411 
L 69.44346 210.692435 
L 69.619725 208.898253 
L 69.795989 215.7077 
L 69.972253 202.200197 
L 70.148518 200.351091 
L 70.324782 208.623795 
L 70.501046 208.947886 
L 70.677311 205.172171 
L 70.853575 205.752293 
L 71.02984 211.57958 
L 71.206104 208.684943 
L 71.382368 208.500067 
L 71.558633 200.871677 
L 71.734897 217.879099 
L 71.911161 208.173098 
L 72.087426 214.9325 
L 72.439954 211.245187 
L 72.968747 217.610646 
L 73.145012 211.116592 
L 73.321276 218.604737 
L 73.49754 217.649575 
L 73.673805 209.457783 
L 74.026333 218.337264 
L 74.378862 221.104327 
L 74.555127 211.554382 
L 74.731391 210.731359 
L 74.907655 216.037586 
L 75.08392 207.806112 
L 75.260184 209.123653 
L 75.612713 221.600902 
L 75.965241 210.528272 
L 76.141506 219.390866 
L 76.31777 218.569434 
L 76.494034 215.190913 
L 76.670299 221.587823 
L 77.022827 206.377773 
L 77.199092 220.49949 
L 77.375356 215.350319 
L 77.55162 203.262875 
L 77.727885 218.508722 
L 77.904149 218.948361 
L 78.080414 222.69075 
L 78.256678 222.248402 
L 78.432942 215.435532 
L 78.609207 221.454628 
L 78.785471 223.087465 
L 79.314264 208.978814 
L 79.490528 213.170977 
L 79.666793 204.463477 
L 79.843057 212.634264 
L 80.019321 214.080758 
L 80.195586 211.107151 
L 80.37185 220.076908 
L 80.548114 218.504925 
L 80.724379 221.256703 
L 80.900643 217.055967 
L 81.076907 216.659791 
L 81.253172 213.656525 
L 81.429436 220.174192 
L 81.605701 219.018052 
L 81.781965 215.748005 
L 81.958229 220.007755 
L 82.134494 212.051401 
L 82.310758 217.565936 
L 82.487022 216.399972 
L 82.663287 202.922748 
L 83.19208 220.330848 
L 83.368344 216.075151 
L 83.544608 218.550186 
L 83.720873 214.997198 
L 83.897137 219.827001 
L 84.249666 216.026513 
L 84.42593 220.370895 
L 84.602195 221.00496 
L 84.778459 218.288182 
L 84.954723 223.583365 
L 85.130988 224.973817 
L 85.483516 222.78142 
L 85.659781 224.0587 
L 85.836045 220.144131 
L 86.012309 209.856461 
L 86.364838 223.286003 
L 86.717367 218.882845 
L 86.893631 218.833319 
L 87.24616 225.772222 
L 87.422424 226.548441 
L 87.774953 223.828754 
L 87.951217 225.349786 
L 88.127482 219.290069 
L 88.303746 219.409797 
L 88.48001 219.682055 
L 88.656275 221.703937 
L 88.832539 215.963781 
L 89.185068 222.650907 
L 89.537596 216.793822 
L 89.890125 224.24308 
L 90.066389 220.982991 
L 90.242654 227.916547 
L 90.418918 226.182934 
L 90.595182 217.023619 
L 90.771447 218.571221 
L 91.123975 227.810599 
L 91.476504 220.828593 
L 91.652769 222.321125 
L 91.829033 216.741043 
L 92.005297 217.478009 
L 92.181562 211.127244 
L 92.357826 211.161469 
L 92.53409 221.889474 
L 92.710355 221.713088 
L 92.886619 216.536383 
L 93.062883 214.912566 
L 93.239148 207.92735 
L 93.415412 205.378578 
L 93.591676 210.695378 
L 93.767941 200.732841 
L 93.944205 204.93133 
L 94.472998 184.901917 
L 94.649263 172.84026 
L 95.001791 197.22559 
L 95.178056 196.796264 
L 95.35432 199.298124 
L 95.706849 209.545043 
L 95.883113 216.286045 
L 96.059377 212.371168 
L 96.235642 214.896089 
L 96.411906 222.54042 
L 96.58817 221.558671 
L 96.764435 216.054769 
L 97.116963 223.145078 
L 97.293228 222.711207 
L 97.469492 216.173262 
L 97.645756 222.411174 
L 97.822021 214.395507 
L 97.998285 212.481765 
L 98.17455 214.063395 
L 98.350814 209.854242 
L 98.703343 218.890353 
L 98.879607 219.049366 
L 99.232136 212.611741 
L 99.4084 211.834141 
L 99.584664 209.376391 
L 99.760929 219.687986 
L 99.937193 218.435465 
L 100.113457 207.184852 
L 100.289722 212.565028 
L 100.465986 212.391816 
L 100.64225 221.784886 
L 100.818515 223.054058 
L 100.994779 220.362198 
L 101.171043 207.588633 
L 101.523572 221.312263 
L 101.699837 215.769348 
L 101.876101 221.536368 
L 102.052365 218.237903 
L 102.22863 212.512956 
L 102.404894 213.810414 
L 102.581158 214.036141 
L 102.757423 217.729071 
L 102.933687 215.25495 
L 103.286216 219.986607 
L 103.46248 217.27373 
L 103.638744 217.175764 
L 103.815009 211.952394 
L 104.343802 209.340505 
L 104.69633 219.272413 
L 104.872595 217.963419 
L 105.048859 218.925663 
L 105.225124 220.553747 
L 105.401388 220.189882 
L 105.753917 228.250936 
L 105.930181 227.33824 
L 106.106445 232.338674 
L 106.28271 232.247438 
L 106.458974 231.298189 
L 106.635238 228.316148 
L 106.811503 230.843337 
L 106.987767 226.555783 
L 107.164031 226.406352 
L 107.340296 229.379056 
L 107.692824 221.488359 
L 107.869089 225.532456 
L 108.045353 221.815847 
L 108.221618 215.730758 
L 108.397882 224.141933 
L 108.574146 215.651146 
L 108.750411 220.201434 
L 108.926675 214.171873 
L 109.102939 213.149494 
L 109.279204 209.031096 
L 109.455468 212.383108 
L 109.631732 218.080273 
L 109.807997 208.252284 
L 110.160525 218.0277 
L 110.33679 214.182653 
L 110.513054 217.786993 
L 110.689318 217.386021 
L 111.041847 197.378473 
L 111.394376 212.605202 
L 111.57064 214.807665 
L 111.746905 210.041721 
L 112.099433 226.658259 
L 112.275698 222.47788 
L 112.451962 221.179561 
L 112.628226 223.326747 
L 112.804491 215.844334 
L 112.980755 219.892578 
L 113.157019 216.852182 
L 113.509548 222.799362 
L 113.685812 216.309461 
L 113.862077 217.947832 
L 114.214605 225.796896 
L 114.567134 221.216717 
L 114.743398 222.682507 
L 114.919663 220.620672 
L 115.095927 224.495792 
L 115.272192 213.060126 
L 115.62472 227.564915 
L 115.800985 230.179596 
L 115.977249 228.831073 
L 116.153513 228.931436 
L 116.329778 231.325428 
L 116.682306 226.702233 
L 116.858571 228.508804 
L 117.034835 226.985434 
L 117.211099 228.00957 
L 117.387364 222.7039 
L 117.563628 226.163834 
L 117.739892 225.524718 
L 117.916157 220.115518 
L 118.268686 225.498549 
L 118.44495 221.066714 
L 118.621214 220.53657 
L 118.797479 215.230964 
L 119.150007 224.881473 
L 119.326272 220.862743 
L 119.502536 220.531904 
L 119.6788 218.554189 
L 120.031329 227.101552 
L 120.207593 215.963901 
L 120.383858 213.601792 
L 120.736386 220.83122 
L 120.912651 219.885306 
L 121.088915 221.238915 
L 121.265179 225.331468 
L 121.441444 218.737995 
L 121.617708 218.300873 
L 121.793973 214.190308 
L 121.970237 214.187955 
L 122.146501 212.432264 
L 122.322766 213.715951 
L 122.49903 206.472415 
L 122.675294 223.398361 
L 122.851559 218.886065 
L 123.204087 227.168542 
L 123.380352 226.942801 
L 123.556616 227.733936 
L 123.73288 226.22238 
L 123.909145 227.003281 
L 124.085409 222.822141 
L 124.261673 221.929866 
L 124.437938 215.893027 
L 124.614202 222.604332 
L 124.790466 217.001208 
L 124.966731 224.121495 
L 125.142995 219.144552 
L 125.31926 217.665606 
L 125.495524 219.736415 
L 125.848053 210.1466 
L 126.024317 221.42708 
L 126.200581 212.42751 
L 126.55311 209.390601 
L 126.729374 211.159408 
L 126.905639 216.526698 
L 127.434432 210.585406 
L 127.610696 200.865766 
L 127.78696 212.270977 
L 127.963225 211.661929 
L 128.139489 212.42237 
L 128.315753 206.296482 
L 128.492018 219.221557 
L 128.844547 215.028809 
L 129.020811 210.324297 
L 129.197075 213.942704 
L 129.37334 221.384346 
L 129.725868 215.21427 
L 129.902133 216.183446 
L 130.078397 216.436898 
L 130.254661 215.971577 
L 130.430926 199.237715 
L 130.783454 194.701764 
L 130.959719 204.381222 
L 131.135983 203.090049 
L 131.312247 194.753081 
L 131.488512 193.164901 
L 131.664776 193.598836 
L 131.841041 200.465853 
L 132.193569 179.792147 
L 132.369834 190.910842 
L 132.898627 179.032181 
L 133.074891 172.542524 
L 133.251155 180.074058 
L 133.42742 166.637926 
L 133.779948 189.344669 
L 134.132477 164.861922 
L 134.485006 179.342306 
L 134.837534 141.64848 
L 135.013799 155.146322 
L 135.190063 145.597345 
L 135.366328 167.995127 
L 135.542592 163.651302 
L 135.718856 149.372859 
L 135.895121 155.24211 
L 136.071385 147.900411 
L 136.600178 170.689622 
L 136.952707 158.077867 
L 137.128971 174.673288 
L 137.305235 161.686704 
L 137.4815 171.49758 
L 137.657764 162.158405 
L 137.834028 159.684486 
L 138.010293 164.549991 
L 138.186557 165.701315 
L 138.362821 179.187345 
L 138.539086 177.694024 
L 138.71535 174.599977 
L 138.891615 188.575766 
L 139.244143 142.834641 
L 139.596672 149.937703 
L 139.772936 151.882758 
L 139.949201 177.425481 
L 140.125465 162.231667 
L 140.301729 161.265575 
L 140.654258 156.472842 
L 140.830522 159.083312 
L 141.53558 201.459086 
L 141.711844 193.133963 
L 141.888109 170.727096 
L 142.064373 190.285107 
L 142.240637 190.201863 
L 142.416902 175.696709 
L 142.593166 171.419156 
L 142.76943 159.897896 
L 142.945695 175.491907 
L 143.121959 162.106415 
L 143.298223 169.105817 
L 143.474488 167.004956 
L 143.650752 180.40032 
L 143.827016 184.486875 
L 144.003281 158.086874 
L 144.355809 187.195031 
L 144.532074 185.940303 
L 144.708338 179.859182 
L 145.060867 200.026114 
L 145.237131 204.822929 
L 145.413396 189.152499 
L 145.58966 201.837077 
L 145.765924 203.934386 
L 145.942189 197.525814 
L 146.470982 210.094178 
L 146.647246 200.592349 
L 146.82351 200.763561 
L 146.999775 207.632364 
L 147.176039 191.928171 
L 147.352303 196.743674 
L 147.528568 207.787564 
L 147.704832 201.112207 
L 147.881096 206.159451 
L 148.057361 204.986473 
L 148.233625 211.772277 
L 148.409889 203.768252 
L 148.762418 202.404047 
L 148.938683 201.931841 
L 149.114947 200.068284 
L 149.291211 202.690374 
L 149.467476 207.519685 
L 149.64374 202.110244 
L 149.820004 206.835345 
L 149.996269 217.771254 
L 150.172533 213.187733 
L 150.348797 214.189995 
L 150.525062 218.459423 
L 150.701326 212.517776 
L 150.87759 219.919443 
L 151.053855 220.448776 
L 151.230119 228.131066 
L 151.406383 227.488369 
L 151.758912 225.04541 
L 151.935176 225.411789 
L 152.111441 226.93716 
L 152.287705 224.823611 
L 152.46397 230.174276 
L 152.640234 222.225396 
L 152.816498 223.743777 
L 152.992763 214.167096 
L 153.169027 214.884281 
L 153.345291 216.12454 
L 153.69782 205.998889 
L 153.874084 206.646077 
L 154.050349 204.153443 
L 154.226613 204.916318 
L 154.402877 215.318075 
L 154.579142 212.520215 
L 154.755406 211.948883 
L 154.93167 214.013276 
L 155.107935 205.839432 
L 155.460464 211.019335 
L 155.636728 210.65931 
L 155.989257 213.767683 
L 156.165521 215.308259 
L 156.51805 222.21748 
L 156.694314 220.790625 
L 156.870578 217.686437 
L 157.046843 224.766545 
L 157.223107 220.992702 
L 157.399371 224.346915 
L 157.575636 224.509246 
L 157.7519 219.456543 
L 158.104429 227.397878 
L 158.456957 230.004553 
L 158.633222 232.255408 
L 158.985751 232.695873 
L 159.162015 231.32338 
L 159.338279 233.103263 
L 159.514544 230.599004 
L 159.690808 224.935277 
L 159.867072 234.034831 
L 160.043337 234.700661 
L 160.219601 232.890947 
L 160.395865 233.072171 
L 160.57213 232.053456 
L 160.748394 226.603587 
L 160.924658 229.680051 
L 161.100923 227.247199 
L 161.277187 222.505798 
L 161.453451 226.165733 
L 161.80598 215.149262 
L 161.982244 226.645174 
L 162.158509 223.507533 
L 162.334773 223.293026 
L 162.687302 225.699439 
L 162.863566 225.829213 
L 163.039831 225.666077 
L 163.216095 228.068929 
L 163.392359 226.742069 
L 163.568624 223.615121 
L 163.744888 216.140781 
L 164.097417 223.74596 
L 164.273681 217.562948 
L 164.449945 219.105347 
L 164.62621 216.388937 
L 164.802474 216.176179 
L 164.978738 214.579253 
L 165.155003 223.189278 
L 165.331267 216.393932 
L 165.507532 221.885567 
L 165.683796 216.941285 
L 165.86006 219.794983 
L 166.036325 218.973051 
L 166.212589 225.540386 
L 166.565118 228.866912 
L 166.741382 225.813032 
L 166.917646 225.790488 
L 167.093911 225.297301 
L 167.270175 223.577428 
L 167.446439 218.367609 
L 167.798968 226.089067 
L 168.327761 219.393187 
L 168.504025 218.806924 
L 168.68029 212.57028 
L 168.856554 211.694923 
L 169.032819 211.69595 
L 169.209083 207.087337 
L 169.385347 217.979718 
L 169.737876 209.310383 
L 169.91414 208.089742 
L 170.090405 215.385027 
L 170.266669 211.970806 
L 170.442933 216.180597 
L 170.619198 223.164474 
L 170.795462 212.698519 
L 170.971726 211.86105 
L 171.147991 218.474124 
L 171.324255 205.703939 
L 171.500519 201.286536 
L 171.676784 192.032001 
L 171.853048 196.528795 
L 172.029312 190.325329 
L 172.205577 190.465437 
L 172.381841 208.866101 
L 172.558106 210.504363 
L 172.73437 210.081863 
L 172.910634 211.231287 
L 173.086899 203.250655 
L 173.263163 206.28596 
L 173.439427 202.532784 
L 173.615692 210.351354 
L 173.791956 207.220004 
L 173.96822 209.009329 
L 174.144485 213.49192 
L 174.320749 196.936543 
L 174.497013 201.927038 
L 174.673278 203.06934 
L 174.849542 212.525571 
L 175.025806 198.52507 
L 175.202071 206.701306 
L 175.378335 206.514306 
L 175.554599 207.562112 
L 175.730864 211.674567 
L 175.907128 200.51698 
L 176.083393 217.49864 
L 176.435921 209.121133 
L 176.612186 210.281148 
L 176.964714 214.633593 
L 177.140979 216.262216 
L 177.317243 209.475499 
L 177.493507 215.240155 
L 177.669772 209.89036 
L 177.846036 219.283644 
L 178.0223 215.466934 
L 178.198565 219.336141 
L 178.374829 218.602566 
L 178.551093 213.101315 
L 179.256151 225.664601 
L 179.432415 225.587003 
L 179.60868 225.142546 
L 179.784944 222.120572 
L 179.961208 224.822924 
L 180.137473 224.301158 
L 180.313737 224.849284 
L 180.666266 230.278321 
L 180.84253 230.381747 
L 181.018794 228.875411 
L 181.195059 230.566204 
L 181.371323 229.622094 
L 181.547587 227.614243 
L 181.723852 230.165736 
L 181.900116 227.307911 
L 182.07638 229.766037 
L 182.252645 229.509763 
L 182.428909 230.303308 
L 182.605174 229.956207 
L 182.781438 231.134695 
L 182.957702 231.109484 
L 183.133967 232.150874 
L 183.310231 230.134807 
L 183.486495 229.726092 
L 183.66276 231.179346 
L 183.839024 226.9858 
L 184.015288 229.799212 
L 184.191553 230.34573 
L 184.367817 230.117665 
L 184.544081 229.179945 
L 184.720346 230.419847 
L 184.89661 229.535385 
L 185.072874 226.815806 
L 185.425403 225.988261 
L 185.601667 222.904285 
L 185.777932 223.885349 
L 185.954196 221.963044 
L 186.306725 227.996196 
L 186.482989 223.693765 
L 186.659254 227.402015 
L 186.835518 224.734194 
L 187.011782 229.417582 
L 187.188047 227.232045 
L 187.364311 229.736048 
L 187.540575 230.402436 
L 187.71684 227.183454 
L 187.893104 221.920081 
L 188.069368 224.009226 
L 188.245633 223.750878 
L 188.421897 227.781035 
L 188.598161 219.681392 
L 189.126955 231.248905 
L 189.303219 228.78423 
L 189.479483 232.564551 
L 189.655748 232.208749 
L 189.832012 235.349811 
L 190.008276 234.319265 
L 190.360805 235.72782 
L 190.537069 233.23314 
L 190.713334 234.710619 
L 190.889598 235.186172 
L 191.242127 233.372878 
L 191.418391 230.587966 
L 191.594655 232.035012 
L 191.947184 229.798715 
L 192.123448 230.061471 
L 192.299713 231.000195 
L 192.475977 233.045902 
L 192.652242 232.564849 
L 192.828506 233.158238 
L 193.181035 231.689632 
L 193.357299 229.246523 
L 193.533563 230.610385 
L 193.709828 228.274158 
L 193.886092 222.069071 
L 194.062356 224.19701 
L 194.238621 228.054379 
L 194.414885 227.53529 
L 194.591149 231.334829 
L 194.767414 228.722475 
L 194.943678 229.087263 
L 195.296207 223.403078 
L 195.648735 230.429989 
L 195.825 229.04306 
L 196.001264 223.085638 
L 196.177529 227.196899 
L 196.353793 227.639515 
L 196.530057 223.237823 
L 196.706322 226.83747 
L 196.882586 224.911109 
L 197.235115 230.308822 
L 197.411379 230.31328 
L 197.587643 227.902713 
L 197.763908 227.228576 
L 197.940172 230.870151 
L 198.116436 228.219227 
L 198.292701 227.527957 
L 198.645229 222.542751 
L 198.821494 226.239413 
L 199.174022 217.06009 
L 199.350287 216.965291 
L 199.526551 220.431489 
L 199.702816 219.648758 
L 199.87908 220.602563 
L 200.231609 213.080454 
L 200.407873 220.651603 
L 200.760402 210.156971 
L 200.936666 205.000466 
L 201.465459 217.735392 
L 201.641723 209.923259 
L 201.817988 212.125859 
L 201.994252 207.342149 
L 202.170516 207.936845 
L 202.346781 199.600582 
L 202.69931 209.023834 
L 202.875574 207.525617 
L 203.051838 208.536772 
L 203.228103 203.99674 
L 203.404367 189.087893 
L 203.580631 201.193709 
L 203.93316 195.703644 
L 204.109424 196.619613 
L 204.285689 194.479107 
L 204.461953 183.28555 
L 204.638217 158.361198 
L 204.990746 187.503232 
L 205.16701 176.397295 
L 205.519539 189.911973 
L 205.695803 179.799455 
L 205.872068 193.098245 
L 206.224597 202.497623 
L 206.577125 199.206301 
L 206.75339 166.73564 
L 206.929654 171.813486 
L 207.105918 181.032902 
L 207.282183 183.505426 
L 207.458447 190.316928 
L 207.634711 180.676166 
L 207.810976 199.707483 
L 207.98724 181.769736 
L 208.163504 181.180431 
L 208.339769 191.799761 
L 208.516033 192.851649 
L 208.692297 174.161418 
L 208.868562 175.116347 
L 209.044826 166.926512 
L 209.22109 181.791946 
L 209.397355 183.900609 
L 209.573619 196.625868 
L 209.749884 195.803993 
L 209.926148 190.349925 
L 210.102412 192.59746 
L 210.278677 185.614882 
L 210.631205 192.366256 
L 210.80747 192.005991 
L 211.159998 172.480471 
L 211.336263 193.455126 
L 211.512527 188.140573 
L 211.688791 174.933607 
L 212.04132 192.625058 
L 212.393849 176.926919 
L 212.570113 183.10987 
L 212.746378 194.947413 
L 212.922642 185.956347 
L 213.098906 188.952539 
L 213.275171 165.286081 
L 213.451435 163.437964 
L 213.627699 181.170697 
L 213.803964 171.554414 
L 213.980228 152.98183 
L 214.156492 146.748501 
L 214.509021 183.992047 
L 214.685285 188.263316 
L 214.86155 186.591138 
L 215.037814 186.381634 
L 215.214078 184.885637 
L 215.390343 185.291795 
L 215.566607 169.80419 
L 215.919136 191.699706 
L 216.0954 182.528614 
L 216.271665 184.747218 
L 216.447929 196.947073 
L 216.624193 196.768254 
L 216.800458 207.782304 
L 216.976722 192.78837 
L 217.152986 193.559787 
L 217.329251 204.814559 
L 217.505515 195.182212 
L 217.681779 196.900369 
L 217.858044 192.16779 
L 218.034308 191.398122 
L 218.386837 200.859482 
L 218.563101 200.630178 
L 218.739365 203.097946 
L 218.91563 193.668953 
L 219.091894 203.862268 
L 219.268158 200.00275 
L 219.620687 210.76759 
L 219.796952 217.512327 
L 219.973216 219.898676 
L 220.14948 219.512071 
L 220.502009 214.714285 
L 220.678273 219.048314 
L 220.854538 220.401301 
L 221.030802 219.916593 
L 221.207066 215.366786 
L 221.383331 207.849025 
L 221.559595 218.513637 
L 221.735859 207.285261 
L 221.912124 209.42913 
L 222.088388 206.788247 
L 222.264652 201.594803 
L 222.440917 212.841175 
L 222.617181 207.963004 
L 222.96971 210.923743 
L 223.145974 203.905446 
L 223.322239 209.04845 
L 223.851032 195.159912 
L 224.20356 200.852679 
L 224.379825 198.440282 
L 224.556089 209.554857 
L 224.732353 201.465144 
L 224.908618 200.363421 
L 225.084882 200.460699 
L 225.261146 197.411242 
L 225.437411 202.512647 
L 225.613675 202.008746 
L 225.789939 205.141765 
L 225.966204 193.294927 
L 226.142468 216.187891 
L 226.318733 214.757033 
L 226.671261 219.779468 
L 226.847526 218.701983 
L 227.200054 213.128419 
L 227.376319 215.87066 
L 227.552583 207.628419 
L 227.728847 213.471661 
L 228.081376 205.500678 
L 228.25764 206.347541 
L 228.610169 212.218161 
L 228.786433 222.17915 
L 228.962698 216.798661 
L 229.138962 215.218778 
L 229.315226 218.589216 
L 229.667755 204.302358 
L 230.020284 212.893378 
L 230.196548 207.898285 
L 230.372813 214.10151 
L 230.549077 212.013921 
L 230.725341 206.229965 
L 231.07787 219.468419 
L 231.254134 212.395965 
L 231.430399 221.051674 
L 231.606663 215.501383 
L 231.782927 216.549779 
L 231.959192 221.347478 
L 232.135456 219.220746 
L 232.487985 211.788893 
L 232.840513 215.562592 
L 233.016778 217.83419 
L 233.193042 213.754334 
L 233.369307 203.842343 
L 233.545571 204.458911 
L 233.721835 208.837966 
L 233.8981 221.093203 
L 234.074364 218.761983 
L 234.250628 221.861966 
L 234.426893 212.843597 
L 234.779421 224.209439 
L 234.955686 219.336612 
L 235.13195 218.747914 
L 235.308214 221.832995 
L 235.660743 219.725326 
L 235.837007 222.528374 
L 236.013272 222.247533 
L 236.189536 226.105981 
L 236.365801 225.262727 
L 236.542065 221.10779 
L 237.247122 227.279887 
L 237.423387 222.3759 
L 237.599651 222.623346 
L 237.775915 211.793277 
L 237.95218 224.832772 
L 238.128444 218.826969 
L 238.480973 223.451282 
L 238.657237 218.492897 
L 238.833501 221.140697 
L 239.18603 217.651469 
L 239.362294 218.018729 
L 239.538559 213.38416 
L 239.891088 210.720185 
L 240.067352 204.703866 
L 240.419881 210.707145 
L 240.596145 211.621506 
L 240.772409 216.856377 
L 240.948674 215.724049 
L 241.301202 221.835382 
L 241.477467 210.490024 
L 241.653731 216.076563 
L 241.829995 217.288311 
L 242.00626 214.63083 
L 242.358788 220.634518 
L 242.535053 219.768216 
L 242.711317 211.922516 
L 242.887581 213.898938 
L 243.063846 217.580101 
L 243.24011 214.874346 
L 243.416375 222.414662 
L 243.592639 223.168859 
L 243.768903 209.899211 
L 243.945168 221.528597 
L 244.121432 211.133875 
L 244.297696 214.825716 
L 244.473961 210.64672 
L 244.650225 215.844092 
L 245.002754 218.388333 
L 245.179018 216.032699 
L 245.355282 221.000865 
L 245.707811 223.225175 
L 245.884075 227.091469 
L 246.06034 224.735536 
L 246.412869 231.013506 
L 246.589133 232.27372 
L 246.765397 231.605649 
L 246.941662 229.460529 
L 247.29419 231.14383 
L 247.470455 228.430054 
L 247.646719 230.064851 
L 247.822983 225.522163 
L 247.999248 225.136393 
L 248.175512 227.994255 
L 248.704305 221.047635 
L 248.880569 220.928677 
L 249.233098 226.745613 
L 249.409362 224.093385 
L 249.585627 223.765551 
L 250.11442 228.20001 
L 250.466949 226.381942 
L 250.643213 230.237482 
L 250.995742 228.596922 
L 251.172006 229.145779 
L 251.34827 224.610666 
L 251.700799 231.01327 
L 251.877063 228.811727 
L 252.053328 230.728874 
L 252.229592 231.384085 
L 252.405856 228.830575 
L 252.758385 230.579778 
L 252.934649 230.334213 
L 253.110914 229.53417 
L 253.287178 229.904794 
L 253.463443 231.789931 
L 253.639707 227.412037 
L 253.992236 230.80621 
L 254.1685 233.585233 
L 254.344764 231.884579 
L 254.521029 232.703267 
L 254.697293 232.745222 
L 254.873557 231.456303 
L 255.049822 232.727295 
L 255.226086 229.731196 
L 255.40235 230.778371 
L 255.578615 229.113882 
L 255.754879 233.12686 
L 256.107408 233.483206 
L 256.283672 232.652613 
L 256.459936 230.626381 
L 256.812465 234.273015 
L 256.98873 230.359125 
L 257.164994 233.886558 
L 257.517523 227.01223 
L 257.693787 229.148255 
L 257.870051 223.954911 
L 258.046316 223.311949 
L 258.22258 220.038745 
L 258.398844 223.368688 
L 258.575109 214.195587 
L 258.751373 225.07515 
L 258.927637 224.952779 
L 259.103902 223.488366 
L 259.280166 223.005833 
L 259.45643 220.416947 
L 259.632695 225.138653 
L 259.808959 226.70329 
L 259.985224 225.415673 
L 260.161488 222.36549 
L 260.337752 225.830877 
L 260.514017 223.597419 
L 260.690281 227.636939 
L 260.866545 227.430088 
L 261.04281 229.337657 
L 261.219074 228.988723 
L 261.395338 226.020725 
L 261.571603 226.741734 
L 261.747867 228.922062 
L 261.924131 220.442214 
L 262.100396 222.971299 
L 262.27666 222.657534 
L 262.452924 220.86583 
L 262.981717 229.990676 
L 263.334246 231.849238 
L 263.510511 233.679303 
L 263.863039 229.396067 
L 264.039304 228.537015 
L 264.215568 225.25794 
L 264.391832 229.04846 
L 264.568097 229.373808 
L 264.744361 231.136427 
L 264.920625 231.176672 
L 265.09689 229.561032 
L 265.273154 229.55084 
L 265.449418 221.137393 
L 265.625683 226.387037 
L 265.801947 224.97864 
L 265.978211 222.632116 
L 266.154476 223.046705 
L 266.33074 213.800274 
L 266.507004 216.089766 
L 266.683269 216.738325 
L 267.035798 228.498159 
L 267.212062 223.030404 
L 267.388326 222.318628 
L 267.564591 222.300099 
L 267.917119 214.817454 
L 268.093384 220.783715 
L 268.269648 219.196778 
L 268.622177 229.489016 
L 268.798441 229.506621 
L 269.15097 227.912387 
L 269.327234 225.002882 
L 269.679763 228.607668 
L 269.856027 228.138818 
L 270.032292 226.416666 
L 270.208556 227.027555 
L 270.737349 221.23494 
L 271.089878 214.160162 
L 271.442406 221.813939 
L 271.618671 220.880972 
L 271.794935 227.517909 
L 271.971199 223.256053 
L 272.147464 226.614649 
L 272.323728 226.621387 
L 272.499992 226.301046 
L 272.676257 221.936671 
L 272.852521 225.985961 
L 273.028785 226.208422 
L 273.20505 229.089772 
L 273.381314 224.385654 
L 274.086372 231.4505 
L 274.262636 232.772042 
L 274.4389 232.922947 
L 274.615165 233.745148 
L 274.791429 230.359774 
L 274.967693 232.677714 
L 275.496486 222.76635 
L 275.672751 224.125224 
L 275.849015 221.137185 
L 276.201544 223.686281 
L 276.377808 215.370108 
L 276.554072 219.118221 
L 276.730337 225.379028 
L 276.906601 223.894791 
L 277.25913 215.808608 
L 277.435394 218.291766 
L 277.787923 218.599573 
L 277.964187 226.212306 
L 278.140452 223.182524 
L 278.316716 223.494921 
L 278.669245 229.080552 
L 278.845509 226.74699 
L 279.021773 227.283498 
L 279.198038 226.991631 
L 279.374302 219.509353 
L 279.550566 224.112851 
L 279.726831 221.514165 
L 279.903095 224.168606 
L 280.079359 222.894789 
L 280.255624 225.871371 
L 280.431888 225.880522 
L 280.608153 225.707495 
L 280.784417 223.931773 
L 280.960681 226.071933 
L 281.136946 224.245721 
L 281.31321 229.406905 
L 281.489474 227.343905 
L 281.665739 222.725071 
L 281.842003 213.501295 
L 282.194532 220.790717 
L 282.370796 214.208548 
L 282.54706 220.229477 
L 282.723325 218.066717 
L 282.899589 214.07374 
L 283.075853 213.553616 
L 283.252118 220.105421 
L 283.428382 217.764635 
L 283.604647 213.357741 
L 283.780911 220.859629 
L 283.957175 219.328008 
L 284.309704 221.411597 
L 284.485968 210.627189 
L 284.662233 210.252974 
L 284.838497 207.978948 
L 285.014761 209.518097 
L 285.191026 225.606108 
L 285.36729 227.41691 
L 285.543554 223.417789 
L 285.719819 227.039243 
L 285.896083 227.447534 
L 286.072347 219.969396 
L 286.248612 218.460745 
L 286.424876 219.705824 
L 286.60114 218.328851 
L 286.777405 218.843774 
L 286.953669 207.713329 
L 287.129934 214.239114 
L 287.306198 211.621163 
L 287.658727 226.958273 
L 287.834991 220.62644 
L 288.011255 223.417989 
L 288.18752 222.36264 
L 288.540048 219.173436 
L 288.716313 220.418086 
L 288.892577 226.810165 
L 289.068841 218.366481 
L 289.245106 219.799753 
L 289.42137 227.039736 
L 289.597634 223.834169 
L 289.773899 224.253623 
L 289.950163 223.308392 
L 290.126427 219.48333 
L 290.302692 224.764799 
L 290.478956 226.54277 
L 290.831485 215.589574 
L 291.007749 218.335873 
L 291.184014 223.595185 
L 291.360278 221.108357 
L 291.536542 220.702681 
L 291.889071 216.894471 
L 292.065335 217.799486 
L 292.2416 217.826699 
L 292.417864 218.337076 
L 292.946657 226.000943 
L 293.122921 225.817147 
L 293.47545 218.484964 
L 293.651715 218.408514 
L 293.827979 221.24364 
L 294.004243 220.511631 
L 294.180508 215.372956 
L 294.356772 204.835893 
L 294.533036 208.790989 
L 294.885565 204.00736 
L 295.061829 190.962713 
L 295.238094 189.145737 
L 295.590622 209.543697 
L 295.766887 209.355199 
L 295.943151 192.196291 
L 296.119415 192.346543 
L 296.29568 202.825152 
L 296.471944 201.873759 
L 296.648208 204.230514 
L 296.824473 197.536242 
L 297.000737 199.282948 
L 297.177002 205.500144 
L 297.353266 205.79035 
L 297.52953 207.961741 
L 297.705795 206.412997 
L 297.882059 203.07572 
L 298.058323 208.089726 
L 298.234588 187.376027 
L 298.410852 200.529389 
L 298.587116 191.56828 
L 298.763381 206.75355 
L 298.939645 209.689515 
L 299.115909 216.739397 
L 299.292174 217.724916 
L 299.468438 215.572232 
L 299.644702 209.404579 
L 299.820967 211.439941 
L 299.997231 210.343734 
L 300.34976 204.594297 
L 300.526024 197.610875 
L 300.702289 200.447462 
L 300.878553 200.795907 
L 301.054817 198.085185 
L 301.231082 191.199932 
L 301.407346 203.0834 
L 301.58361 203.190946 
L 301.759875 206.230103 
L 301.936139 212.105331 
L 302.112403 214.121588 
L 302.288668 211.680494 
L 302.464932 203.272735 
L 302.641196 206.335714 
L 302.817461 197.168006 
L 303.346254 214.256447 
L 303.698782 192.403858 
L 303.875047 201.263582 
L 304.051311 203.611832 
L 304.227576 210.863461 
L 304.40384 202.630108 
L 304.580104 208.37368 
L 304.932633 187.40564 
L 305.108897 188.566758 
L 305.285162 193.663823 
L 305.461426 203.457765 
L 305.63769 205.079822 
L 305.813955 190.062728 
L 306.166483 205.159592 
L 306.342748 193.37488 
L 306.695276 206.412664 
L 306.871541 209.981003 
L 307.047805 210.937384 
L 307.22407 196.226501 
L 307.400334 211.290891 
L 307.752863 215.468018 
L 307.929127 201.086155 
L 308.105391 217.355579 
L 308.45792 196.438497 
L 308.634184 214.522831 
L 308.810449 207.906526 
L 308.986713 212.093246 
L 309.162977 203.015871 
L 309.339242 201.734231 
L 309.515506 209.927049 
L 309.69177 205.166697 
L 309.868035 204.122704 
L 310.220563 211.965485 
L 310.573092 199.290237 
L 310.749357 210.775872 
L 310.925621 210.944968 
L 311.27815 212.126429 
L 311.454414 204.179857 
L 311.630678 217.555419 
L 311.806943 217.399827 
L 311.983207 217.879882 
L 312.335736 221.471994 
L 312.512 215.855198 
L 312.688264 222.566436 
L 313.217057 212.689744 
L 313.393322 212.293676 
L 313.569586 212.465002 
L 313.74585 209.809948 
L 313.922115 212.711368 
L 314.098379 219.425819 
L 314.274644 212.954539 
L 314.450908 217.960039 
L 314.627172 215.002013 
L 314.803437 217.793975 
L 314.979701 209.054869 
L 315.155965 215.052242 
L 315.33223 202.299818 
L 315.684758 206.783623 
L 315.861023 215.628143 
L 316.213551 200.956225 
L 316.389816 200.418239 
L 316.56608 201.511714 
L 316.742344 198.985403 
L 316.918609 200.282043 
L 317.094873 187.942192 
L 317.271138 188.063057 
L 317.447402 178.283857 
L 317.623666 184.176462 
L 317.799931 196.903169 
L 317.976195 190.110137 
L 318.152459 198.913193 
L 318.328724 197.674199 
L 318.504988 208.39203 
L 318.681252 208.695074 
L 318.857517 205.338695 
L 319.210045 213.818329 
L 319.38631 209.507985 
L 319.562574 212.870003 
L 319.738838 212.224251 
L 319.915103 203.122228 
L 320.091367 213.38073 
L 320.267631 212.599989 
L 320.443896 216.776428 
L 320.62016 217.439296 
L 320.796425 216.581141 
L 320.972689 213.599656 
L 321.148953 213.469836 
L 321.325218 217.928262 
L 321.501482 216.364861 
L 321.677746 212.926161 
L 321.854011 213.570827 
L 322.030275 215.721678 
L 322.206539 213.673781 
L 322.382804 218.919601 
L 322.559068 213.521044 
L 322.735332 215.957601 
L 322.911597 210.604658 
L 323.087861 216.578649 
L 323.264125 213.606386 
L 323.44039 193.65294 
L 323.792918 207.090813 
L 323.969183 202.989501 
L 324.145447 204.324136 
L 324.321712 203.030128 
L 324.497976 190.033551 
L 324.67424 195.719686 
L 324.850505 188.529103 
L 325.379298 203.938155 
L 325.731826 211.920894 
L 325.908091 216.860709 
L 326.084355 218.167478 
L 326.260619 216.931399 
L 326.613148 224.209704 
L 326.965677 214.166774 
L 327.318205 225.824859 
L 327.670734 215.351105 
L 327.846999 216.155609 
L 328.199527 224.492358 
L 328.552056 220.844891 
L 328.72832 217.275967 
L 328.904585 201.599932 
L 329.080849 212.881292 
L 329.257113 209.887849 
L 329.433378 209.641865 
L 329.609642 217.860895 
L 329.785906 214.359403 
L 329.962171 214.431959 
L 330.138435 215.947537 
L 330.314699 222.663672 
L 330.490964 221.35943 
L 330.667228 223.279509 
L 330.843493 223.909851 
L 331.019757 221.032002 
L 331.196021 222.456261 
L 331.901079 215.661846 
L 332.253607 202.743363 
L 332.606136 212.665212 
L 332.7824 217.299508 
L 333.134929 208.102251 
L 333.311193 219.021089 
L 333.487458 221.881599 
L 333.663722 219.1 
L 333.839986 225.721233 
L 334.016251 218.243602 
L 334.192515 220.465129 
L 334.36878 225.115805 
L 334.545044 220.286548 
L 334.897573 224.504086 
L 335.073837 213.483192 
L 335.250101 221.589527 
L 335.60263 211.618209 
L 335.955159 220.863532 
L 336.131423 224.321358 
L 336.307687 223.510397 
L 336.483952 225.617262 
L 336.660216 226.271721 
L 336.83648 229.571413 
L 337.012745 225.48774 
L 337.189009 227.36324 
L 337.541538 217.15231 
L 337.717802 223.235407 
L 337.894067 223.699358 
L 338.246595 229.353886 
L 338.775388 222.297256 
L 338.951653 226.351698 
L 339.127917 217.803236 
L 339.304181 221.082725 
L 339.480446 220.673827 
L 339.65671 221.21998 
L 339.832974 226.994032 
L 340.009239 226.130073 
L 340.361767 217.878137 
L 340.714296 226.206931 
L 341.066825 223.107647 
L 341.243089 223.333511 
L 341.419354 221.927221 
L 341.595618 229.499726 
L 341.948147 225.364622 
L 342.124411 227.701882 
L 342.300675 223.412497 
L 342.47694 216.267929 
L 342.829468 225.197741 
L 343.005733 227.604835 
L 343.181997 225.448551 
L 343.358261 221.606902 
L 343.534526 227.049846 
L 343.71079 223.205792 
L 343.887054 221.969138 
L 344.063319 223.965791 
L 344.239583 227.343278 
L 344.415848 227.615517 
L 344.768376 222.774706 
L 345.120905 223.251222 
L 345.473434 221.675609 
L 345.649698 217.627441 
L 345.825962 216.468161 
L 346.002227 212.487382 
L 346.178491 213.63656 
L 346.354755 223.453127 
L 346.53102 214.555471 
L 346.707284 222.938292 
L 346.883548 224.753631 
L 347.059813 217.360213 
L 347.236077 217.309403 
L 347.588606 218.215486 
L 347.76487 225.478994 
L 348.117399 228.550297 
L 348.293663 227.285271 
L 348.646192 219.181051 
L 348.998721 226.357007 
L 349.174985 227.213943 
L 349.703778 221.645719 
L 349.880042 225.834872 
L 350.056307 215.874358 
L 350.232571 217.057713 
L 350.408835 215.440159 
L 350.761364 223.674128 
L 350.937628 224.267291 
L 351.113893 217.514418 
L 351.290157 222.802173 
L 351.466422 219.174469 
L 351.642686 223.700678 
L 351.81895 217.994232 
L 351.995215 218.173756 
L 352.171479 224.600466 
L 352.347743 218.650259 
L 352.524008 221.523704 
L 352.700272 226.509004 
L 353.052801 219.046668 
L 353.229065 220.846502 
L 353.581594 213.350193 
L 353.757858 212.725475 
L 353.934122 218.523883 
L 354.110387 219.410988 
L 354.286651 218.802895 
L 354.462916 211.040191 
L 354.63918 211.085172 
L 354.991709 215.500241 
L 355.167973 222.155233 
L 355.344237 222.673573 
L 355.520502 224.75036 
L 355.696766 215.916895 
L 355.87303 216.36749 
L 356.049295 217.737169 
L 356.225559 225.150988 
L 356.401823 215.771158 
L 356.578088 219.58893 
L 356.930616 220.737991 
L 357.106881 214.656932 
L 357.459409 221.214492 
L 357.635674 215.846818 
L 357.811938 218.95519 
L 357.988203 226.904609 
L 358.164467 227.222866 
L 358.340731 220.82999 
L 358.69326 225.481707 
L 358.869524 222.550775 
L 359.045789 223.514162 
L 359.222053 218.392171 
L 359.398317 209.548716 
L 359.574582 215.555437 
L 359.750846 206.667266 
L 359.92711 206.251317 
L 360.103375 204.784396 
L 360.279639 215.917174 
L 360.808432 196.565838 
L 360.984696 200.132822 
L 361.160961 195.139288 
L 361.337225 194.446341 
L 361.51349 209.431295 
L 361.689754 210.365332 
L 361.866018 208.626972 
L 362.042283 220.344073 
L 362.218547 207.825588 
L 362.394811 210.692085 
L 362.571076 206.010838 
L 362.74734 207.158461 
L 362.923604 218.366858 
L 363.099869 211.148705 
L 363.452397 219.408622 
L 363.628662 219.144154 
L 363.804926 217.520753 
L 363.98119 213.10821 
L 364.157455 221.248878 
L 364.333719 219.892476 
L 364.509984 219.803383 
L 364.686248 221.570327 
L 364.862512 216.555311 
L 365.038777 220.855461 
L 365.215041 215.628023 
L 365.391305 215.942354 
L 365.56757 223.019511 
L 365.743834 213.138331 
L 365.920098 218.418842 
L 366.096363 220.326386 
L 366.272627 218.626663 
L 366.448891 219.611203 
L 366.80142 223.578539 
L 366.977684 220.644749 
L 367.153949 222.133447 
L 367.330213 221.166476 
L 367.506477 222.621869 
L 367.682742 219.693713 
L 367.859006 223.332333 
L 368.035271 217.194215 
L 368.211535 227.528954 
L 368.564064 224.056784 
L 368.740328 228.061887 
L 368.916592 228.579523 
L 369.269121 225.655391 
L 369.445385 228.02713 
L 369.62165 221.954208 
L 369.797914 225.09367 
L 369.974178 224.460394 
L 370.150443 219.222259 
L 370.326707 220.031722 
L 370.502971 225.249131 
L 370.8555 221.273069 
L 371.031764 227.351764 
L 371.208029 227.349317 
L 371.384293 222.403094 
L 371.560558 224.293618 
L 371.736822 221.574089 
L 371.913086 225.109085 
L 372.089351 225.623771 
L 372.265615 222.983289 
L 372.618144 227.489768 
L 372.970672 220.810455 
L 373.146937 221.799896 
L 373.323201 219.639431 
L 373.499465 221.82555 
L 373.67573 216.222833 
L 373.851994 221.229653 
L 374.204523 212.800106 
L 374.380787 218.633036 
L 374.557051 217.350392 
L 374.733316 210.079799 
L 374.90958 215.857335 
L 375.085845 212.859347 
L 375.262109 222.336389 
L 375.438373 213.566872 
L 375.790902 222.529916 
L 375.967166 218.906196 
L 376.143431 218.588043 
L 376.319695 216.058697 
L 376.672224 220.451782 
L 376.848488 226.018177 
L 377.024752 224.906638 
L 377.201017 224.593244 
L 377.377281 225.538683 
L 377.553545 225.585477 
L 377.906074 218.789028 
L 378.082339 223.061092 
L 378.258603 216.717963 
L 378.434867 217.372125 
L 378.611132 213.770263 
L 378.787396 221.367486 
L 378.96366 218.416056 
L 379.139925 221.661996 
L 379.316189 218.02842 
L 379.492453 217.421652 
L 379.844982 207.527932 
L 380.021246 207.793963 
L 380.197511 207.745998 
L 380.373775 209.585774 
L 380.550039 209.951995 
L 380.726304 200.328872 
L 380.902568 200.882729 
L 381.078832 207.75024 
L 381.255097 198.94893 
L 381.431361 205.682154 
L 381.607626 199.263783 
L 381.78389 197.326878 
L 381.960154 201.799 
L 382.136419 198.212557 
L 382.312683 180.113849 
L 382.488947 198.401885 
L 382.665212 203.716045 
L 382.841476 203.79978 
L 383.01774 189.402238 
L 383.194005 187.317395 
L 383.370269 177.15201 
L 383.546533 190.587946 
L 383.722798 187.398187 
L 384.075326 196.745112 
L 384.251591 188.956284 
L 384.427855 191.011371 
L 384.780384 207.259625 
L 384.956648 193.925493 
L 385.132913 201.135753 
L 385.309177 194.96578 
L 385.485441 192.921304 
L 385.661706 202.577971 
L 386.014234 195.082188 
L 386.190499 190.469342 
L 386.366763 195.129777 
L 386.719292 189.110433 
L 386.895556 202.672956 
L 387.07182 185.177724 
L 387.248085 186.497592 
L 387.424349 183.036077 
L 387.776878 193.660066 
L 387.953142 179.180041 
L 388.129407 180.938426 
L 388.305671 181.185947 
L 388.481935 174.689351 
L 388.6582 164.03057 
L 388.834464 180.731533 
L 389.010728 168.987987 
L 389.186993 178.34045 
L 389.363257 172.767016 
L 389.539521 159.083749 
L 389.715786 183.991616 
L 389.89205 188.774622 
L 390.068314 166.992038 
L 390.420843 193.50663 
L 390.597107 171.732721 
L 390.773372 167.657091 
L 390.949636 169.940145 
L 391.1259 182.468015 
L 391.302165 153.13522 
L 391.478429 169.98594 
L 391.654694 174.046026 
L 392.007222 191.860985 
L 392.183487 191.694503 
L 392.359751 192.849122 
L 392.536015 174.040399 
L 392.71228 188.16625 
L 392.888544 182.193472 
L 393.064808 190.634548 
L 393.241073 180.719399 
L 393.593601 179.004866 
L 393.769866 183.229414 
L 393.94613 198.234679 
L 394.298659 188.852189 
L 394.474923 195.729339 
L 394.651187 181.587725 
L 394.827452 178.632203 
L 395.003716 180.265999 
L 395.179981 180.093811 
L 395.708774 188.770919 
L 395.885038 200.027165 
L 396.061302 189.376499 
L 396.237567 193.791515 
L 396.413831 188.707022 
L 396.590095 196.13895 
L 396.76636 194.802756 
L 396.942624 171.072565 
L 397.118888 187.458649 
L 397.295153 186.043263 
L 397.647681 167.406189 
L 397.823946 189.323429 
L 398.00021 174.44076 
L 398.352739 199.993517 
L 398.529003 182.487319 
L 398.705268 186.776942 
L 398.881532 185.839719 
L 399.057796 189.631326 
L 399.410325 185.348285 
L 399.586589 176.064324 
L 399.762854 187.591958 
L 399.939118 187.100769 
L 400.115382 162.684982 
L 400.291647 162.689336 
L 400.467911 178.871623 
L 400.644175 184.219525 
L 400.996704 155.101617 
L 401.172968 181.665211 
L 401.349233 177.068634 
L 401.525497 178.987075 
L 401.701762 178.644126 
L 401.878026 185.862092 
L 402.230555 167.457767 
L 402.406819 184.37867 
L 402.583083 175.537559 
L 402.759348 175.251605 
L 402.935612 196.882222 
L 403.111876 200.873753 
L 403.288141 207.429309 
L 403.816934 196.524152 
L 404.169462 210.861858 
L 404.521991 196.483408 
L 404.698255 197.187645 
L 404.87452 193.346991 
L 405.050784 164.985791 
L 405.227049 166.908537 
L 405.403313 182.737217 
L 405.579577 182.21145 
L 405.755842 198.149963 
L 405.932106 196.430983 
L 406.10837 191.033963 
L 406.284635 190.726506 
L 406.637163 189.075282 
L 406.813428 174.403996 
L 406.989692 190.11059 
L 407.165956 161.868269 
L 407.342221 194.649863 
L 407.518485 168.666847 
L 407.694749 176.874576 
L 407.871014 202.298111 
L 408.047278 205.42573 
L 408.223542 199.601111 
L 408.399807 198.524857 
L 408.576071 196.254007 
L 408.752336 205.800223 
L 408.9286 199.942975 
L 409.104864 186.933388 
L 409.457393 206.181167 
L 409.633657 187.361378 
L 409.809922 189.171379 
L 409.986186 183.386667 
L 410.16245 197.494896 
L 410.338715 190.90211 
L 410.867508 207.401455 
L 411.043772 191.700785 
L 411.396301 207.400395 
L 411.572565 214.8832 
L 411.74883 211.73318 
L 412.101358 219.130885 
L 412.277623 227.044389 
L 412.453887 225.2218 
L 412.630151 226.597234 
L 412.98268 234.486708 
L 413.158944 236.113499 
L 413.335209 236.498985 
L 413.511473 237.326043 
L 413.687737 237.323686 
L 413.864002 237.518405 
L 414.745323 237.53691 
L 414.745323 237.53691 
" clip-path="url(#p16cd6bdf09)" style="fill: none; stroke: #1f77b4; stroke-width: 1.5; stroke-linecap: square"/>
   </g>
   <g id="LineCollection_1">
    <path d="M 58.691335 166.736361 
L 461.8 166.736361 
" clip-path="url(#p16cd6bdf09)" style="fill: none; stroke-dasharray: 5.55,2.4; stroke-dashoffset: 0; stroke: #ffa500; stroke-width: 1.5"/>
    <path d="M 58.691335 255.408752 
L 461.8 255.408752 
" clip-path="url(#p16cd6bdf09)" style="fill: none; stroke-dasharray: 5.55,2.4; stroke-dashoffset: 0; stroke: #ffa500; stroke-width: 1.5"/>
   </g>
   <g id="LineCollection_2">
    <path d="M 58.691335 148.749366 
L 461.8 148.749366 
" clip-path="url(#p16cd6bdf09)" style="fill: none; stroke-dasharray: 1.5,2.475; stroke-dashoffset: 0; stroke: #008000; stroke-width: 1.5"/>
    <path d="M 58.691335 237.037865 
L 461.8 237.037865 
" clip-path="url(#p16cd6bdf09)" style="fill: none; stroke-dasharray: 1.5,2.475; stroke-dashoffset: 0; stroke: #008000; stroke-width: 1.5"/>
   </g>
   <g id="patch_3">
    <path d="M 57.6 307.584 
L 57.6 41.472 
" style="fill: none; stroke: #000000; stroke-width: 0.8; stroke-linejoin: miter; stroke-linecap: square"/>
   </g>
   <g id="patch_4">
    <path d="M 414.72 307.584 
L 414.72 41.472 
" style="fill: none; stroke: #000000; stroke-width: 0.8; stroke-linejoin: miter; stroke-linecap: square"/>
   </g>
   <g id="patch_5">
    <path d="M 57.6 307.584 
L 414.72 307.584 
" style="fill: none; stroke: #000000; stroke-width: 0.8; stroke-linejoin: miter; stroke-linecap: square"/>
   </g>
   <g id="patch_6">
    <path d="M 57.6 41.472 
L 414.72 41.472 
" style="fill: none; stroke: #000000; stroke-width: 0.8; stroke-linejoin: miter; stroke-linecap: square"/>
   </g>
   <g id="legend_1">
    <g id="patch_7">
     <path d="M 355.143438 78.82825 
L 407.72 78.82825 
Q 409.72 78.82825 409.72 76.82825 
L 409.72 48.472 
Q 409.72 46.472 407.72 46.472 
L 355.143438 46.472 
Q 353.143438 46.472 353.143438 48.472 
L 353.143438 76.82825 
Q 353.143438 78.82825 355.143438 78.82825 
z
" style="fill: #ffffff; opacity: 0.8; stroke: #cccccc; stroke-linejoin: miter"/>
    </g>
    <g id="line2d_16">
     <path d="M 357.143438 54.570437 
L 377.143438 54.570437 
" style="fill: none; stroke-dasharray: 5.55,2.4; stroke-dashoffset: 0; stroke: #ffa500; stroke-width: 1.5"/>
    </g>
    <g id="text_15">
     <!-- MLE -->
     <g transform="translate(385.143438 58.070437) scale(0.1 -0.1)">
      <defs>
       <path id="DejaVuSans-4d" d="M 628 4666 
L 1569 4666 
L 2759 1491 
L 3956 4666 
L 4897 4666 
L 4897 0 
L 4281 0 
L 4281 4097 
L 3078 897 
L 2444 897 
L 1241 4097 
L 1241 0 
L 628 0 
L 628 4666 
z
" transform="scale(0.015625)"/>
       <path id="DejaVuSans-4c" d="M 628 4666 
L 1259 4666 
L 1259 531 
L 3531 531 
L 3531 0 
L 628 0 
L 628 4666 
z
" transform="scale(0.015625)"/>
       <path id="DejaVuSans-45" d="M 628 4666 
L 3578 4666 
L 3578 4134 
L 1259 4134 
L 1259 2753 
L 3481 2753 
L 3481 2222 
L 1259 2222 
L 1259 531 
L 3634 531 
L 3634 0 
L 628 0 
L 628 4666 
z
" transform="scale(0.015625)"/>
      </defs>
      <use xlink:href="#DejaVuSans-4d"/>
      <use xlink:href="#DejaVuSans-4c" x="86.279297"/>
      <use xlink:href="#DejaVuSans-45" x="141.992188"/>
     </g>
    </g>
    <g id="line2d_17">
     <path d="M 357.143438 69.248562 
L 377.143438 69.248562 
" style="fill: none; stroke-dasharray: 1.5,2.475; stroke-dashoffset: 0; stroke: #008000; stroke-width: 1.5"/>
    </g>
    <g id="text_16">
     <!-- KDE -->
     <g transform="translate(385.143438 72.748562) scale(0.1 -0.1)">
      <defs>
       <path id="DejaVuSans-4b" d="M 628 4666 
L 1259 4666 
L 1259 2694 
L 3353 4666 
L 4166 4666 
L 1850 2491 
L 4331 0 
L 3500 0 
L 1259 2247 
L 1259 0 
L 628 0 
L 628 4666 
z
" transform="scale(0.015625)"/>
       <path id="DejaVuSans-44" d="M 1259 4147 
L 1259 519 
L 2022 519 
Q 2988 519 3436 956 
Q 3884 1394 3884 2338 
Q 3884 3275 3436 3711 
Q 2988 4147 2022 4147 
L 1259 4147 
z
M 628 4666 
L 1925 4666 
Q 3281 4666 3915 4102 
Q 4550 3538 4550 2338 
Q 4550 1131 3912 565 
Q 3275 0 1925 0 
L 628 0 
L 628 4666 
z
" transform="scale(0.015625)"/>
      </defs>
      <use xlink:href="#DejaVuSans-4b"/>
      <use xlink:href="#DejaVuSans-44" x="65.576172"/>
      <use xlink:href="#DejaVuSans-45" x="142.578125"/>
     </g>
    </g>
   </g>
  </g>
 </g>
 <defs>
  <clipPath id="p16cd6bdf09">
   <rect x="57.6" y="41.472" width="357.12" height="266.112"/>
  </clipPath>
 </defs>
</svg>
